<?xml version="1.0" encoding="UTF-8" standalone="no"?>
<!DOCTYPE svg PUBLIC "-//W3C//DTD SVG 1.1//EN" "http://www.w3.org/Graphics/SVG/1.1/DTD/svg11.dtd">
<!-- Gegenereerd door Microsoft Visio, SVG Export constructie.svg Pagina-1 -->
<svg xmlns="http://www.w3.org/2000/svg" xmlns:xlink="http://www.w3.org/1999/xlink" xmlns:ev="http://www.w3.org/2001/xml-events"
		xmlns:v="http://schemas.microsoft.com/visio/2003/SVGExtensions/" width="3.35333in" height="2.27065in"
		viewBox="0 0 241.44 163.487" xml:space="preserve" color-interpolation-filters="sRGB" class="st17">
	<v:documentProperties v:langID="1043" v:metric="true" v:viewMarkup="false"/>

	<style type="text/css">
	<![CDATA[
		.st1 {stroke:#000000;stroke-linecap:round;stroke-linejoin:round;stroke-width:1.2}
		.st2 {stroke:#000000;stroke-linecap:round;stroke-linejoin:round;stroke-width:0.75}
		.st3 {stroke:#000000;stroke-linecap:round;stroke-linejoin:round;stroke-width:2}
		.st4 {fill:#00cc99;stroke:#000000;stroke-linecap:round;stroke-linejoin:round;stroke-width:0.75}
		.st5 {stroke:#000000;stroke-linecap:round;stroke-linejoin:round;stroke-width:0.25}
		.st6 {marker-end:url(#mrkr4-90);marker-start:url(#mrkr4-88);stroke:#000000;stroke-linecap:round;stroke-linejoin:round;stroke-width:0.25}
		.st7 {fill:#000000;fill-opacity:1;stroke:#000000;stroke-opacity:1;stroke-width:0.12195121951219}
		.st8 {fill:none;stroke:none;stroke-linecap:round;stroke-linejoin:round;stroke-width:0.75}
		.st9 {fill:#000000;font-family:Times New Roman;font-size:1.00001em}
		.st10 {fill:none;stroke:none;stroke-linecap:round;stroke-linejoin:round;stroke-width:0.24}
		.st11 {fill:#000000;font-family:Times New Roman;font-size:1.00001em;font-style:italic}
		.st12 {font-size:1em;font-style:normal}
		.st13 {baseline-shift:32.4941%;font-size:0.649882em;font-style:normal}
		.st14 {font-size:1em}
		.st15 {marker-end:url(#mrkr5-159);stroke:#800000;stroke-linecap:round;stroke-linejoin:round;stroke-width:2}
		.st16 {fill:#800000;fill-opacity:1;stroke:#800000;stroke-opacity:1;stroke-width:0.44247787610619}
		.st17 {fill:none;fill-rule:evenodd;font-size:12px;overflow:visible;stroke-linecap:square;stroke-miterlimit:3}
	]]>
	</style>

	<defs id="Markers">
		<g id="lend4">
			<path d="M 2 1 L 0 0 L 2 -1 L 2 1 " style="stroke:none"/>
		</g>
		<marker id="mrkr4-88" class="st7" v:arrowType="4" v:arrowSize="1" v:setback="14.96" refX="14.96" orient="auto"
				markerUnits="strokeWidth" overflow="visible">
			<use xlink:href="#lend4" transform="scale(8.2) "/>
		</marker>
		<marker id="mrkr4-90" class="st7" v:arrowType="4" v:arrowSize="1" v:setback="16.4" refX="-16.4" orient="auto"
				markerUnits="strokeWidth" overflow="visible">
			<use xlink:href="#lend4" transform="scale(-8.2,-8.2) "/>
		</marker>
		<g id="lend5">
			<path d="M 2 1 L 0 0 L 1.98117 -0.993387 C 1.67173 -0.364515 1.67301 0.372641 1.98465 1.00043 " style="stroke:none"/>
		</g>
		<marker id="mrkr5-159" class="st16" v:arrowType="5" v:arrowSize="2" v:setback="3.775" refX="-3.775" orient="auto"
				markerUnits="strokeWidth" overflow="visible">
			<use xlink:href="#lend5" transform="scale(-2.26,-2.26) "/>
		</marker>
	</defs>
	<g v:mID="0" v:index="1" v:groupContext="foregroundPage">
		<title>Pagina-1</title>
		<v:pageProperties v:drawingScale="0.0393701" v:pageScale="0.0393701" v:drawingUnits="24" v:shadowOffsetX="8.50394"
				v:shadowOffsetY="-8.50394"/>
		<g id="group1-1" transform="translate(2.95464,-113.761)" v:mID="1" v:groupContext="group">
			<title>Inklemming</title>
			<g id="shape2-2" v:mID="2" v:groupContext="shape" transform="translate(174.826,135.141) rotate(90)">
				<title>Blad.2</title>
				<path d="M0 163.49 L28.35 163.49" class="st1"/>
			</g>
			<g id="shape3-5" v:mID="3" v:groupContext="shape" transform="translate(124.107,19.5378) rotate(45)">
				<title>Blad.3</title>
				<path d="M0 163.49 L4.01 163.49" class="st2"/>
			</g>
			<g id="shape4-8" v:mID="4" v:groupContext="shape" transform="translate(121.272,19.5378) rotate(45)">
				<title>Blad.4</title>
				<path d="M0 163.49 L8.02 163.49" class="st2"/>
			</g>
			<g id="shape5-11" v:mID="5" v:groupContext="shape" transform="translate(118.438,19.5378) rotate(45)">
				<title>Blad.5</title>
				<path d="M0 163.49 L12.03 163.49" class="st2"/>
			</g>
			<g id="shape6-14" v:mID="6" v:groupContext="shape" transform="translate(115.603,19.5378) rotate(45)">
				<title>Blad.6</title>
				<path d="M0 163.49 L16.04 163.49" class="st2"/>
			</g>
			<g id="shape7-17" v:mID="7" v:groupContext="shape" transform="translate(115.603,22.3725) rotate(45)">
				<title>Blad.7</title>
				<path d="M0 163.49 L16.04 163.49" class="st2"/>
			</g>
			<g id="shape8-20" v:mID="8" v:groupContext="shape" transform="translate(115.603,25.2071) rotate(45)">
				<title>Blad.8</title>
				<path d="M0 163.49 L16.04 163.49" class="st2"/>
			</g>
			<g id="shape9-23" v:mID="9" v:groupContext="shape" transform="translate(115.603,28.0418) rotate(45)">
				<title>Blad.9</title>
				<path d="M0 163.49 L16.04 163.49" class="st2"/>
			</g>
			<g id="shape10-26" v:mID="10" v:groupContext="shape" transform="translate(115.603,30.8764) rotate(45)">
				<title>Blad.10</title>
				<path d="M0 163.49 L16.04 163.49" class="st2"/>
			</g>
			<g id="shape11-29" v:mID="11" v:groupContext="shape" transform="translate(115.603,33.711) rotate(45)">
				<title>Blad.11</title>
				<path d="M0 163.49 L16.04 163.49" class="st2"/>
			</g>
			<g id="shape12-32" v:mID="12" v:groupContext="shape" transform="translate(115.603,36.5457) rotate(45)">
				<title>Blad.12</title>
				<path d="M0 163.49 L16.04 163.49" class="st2"/>
			</g>
			<g id="shape13-35" v:mID="13" v:groupContext="shape" transform="translate(115.603,39.3803) rotate(45)">
				<title>Blad.13</title>
				<path d="M0 163.49 L12.03 163.49" class="st2"/>
			</g>
			<g id="shape14-38" v:mID="14" v:groupContext="shape" transform="translate(115.603,42.215) rotate(45)">
				<title>Blad.14</title>
				<path d="M0 163.49 L8.02 163.49" class="st2"/>
			</g>
			<g id="shape15-41" v:mID="15" v:groupContext="shape" transform="translate(115.603,45.0496) rotate(45)">
				<title>Blad.15</title>
				<path d="M0 163.49 L4.01 163.49" class="st2"/>
			</g>
		</g>
		<g id="shape16-44" v:mID="16" v:groupContext="shape" transform="translate(14.2932,-127.934)">
			<title>Ligger, 2 pt</title>
			<path d="M0 163.49 L85.04 163.49" class="st3"/>
		</g>
		<g id="shape17-47" v:mID="17" v:groupContext="shape" transform="translate(99.3326,-127.934)">
			<title>Ligger, 2 pt.17</title>
			<path d="M0 163.49 L85.04 163.49" class="st3"/>
		</g>
		<g id="shape18-50" v:mID="18" v:groupContext="shape" transform="translate(-64.1545,120.592) rotate(-90)">
			<title>Ligger, 2 pt.18</title>
			<path d="M0 163.49 L85.04 163.49" class="st3"/>
		</g>
		<g id="shape19-53" v:mID="19" v:groupContext="shape" transform="translate(20.8848,120.592) rotate(-90)">
			<title>Ligger, 2 pt.19</title>
			<path d="M0 163.49 L85.04 163.49" class="st3"/>
		</g>
		<g id="group20-56" transform="translate(89.4113,-31.5561)" v:mID="20" v:groupContext="group">
			<title>Scharnieroplegging</title>
			<g id="shape21-57" v:mID="21" v:groupContext="shape" transform="translate(2.83465,0)">
				<title>Blad.21</title>
				<path d="M0 163.49 L14.17 163.49 L7.09 152.15 L0 163.49 Z" class="st4"/>
			</g>
			<g id="shape22-59" v:mID="22" v:groupContext="shape" transform="translate(2.83465,326.974) rotate(180)">
				<title>Blad.22</title>
				<path d="M0 163.49 L2.83 163.49" class="st2"/>
			</g>
			<g id="shape23-62" v:mID="23" v:groupContext="shape" transform="translate(17.0079,0)">
				<title>Blad.23</title>
				<path d="M0 163.49 L2.83 163.49" class="st2"/>
			</g>
		</g>
		<g id="group24-65" transform="translate(174.451,-31.5561)" v:mID="24" v:groupContext="group">
			<title>Scharnieroplegging.24</title>
			<g id="shape25-66" v:mID="25" v:groupContext="shape" transform="translate(2.83465,0)">
				<title>Blad.25</title>
				<path d="M0 163.49 L14.17 163.49 L7.09 152.15 L0 163.49 Z" class="st4"/>
			</g>
			<g id="shape26-68" v:mID="26" v:groupContext="shape" transform="translate(2.83465,326.974) rotate(180)">
				<title>Blad.26</title>
				<path d="M0 163.49 L2.83 163.49" class="st2"/>
			</g>
			<g id="shape27-71" v:mID="27" v:groupContext="shape" transform="translate(17.0079,0)">
				<title>Blad.27</title>
				<path d="M0 163.49 L2.83 163.49" class="st2"/>
			</g>
		</g>
		<g id="group28-74" transform="translate(208.466,-42.8947)" v:mID="28" v:groupContext="group">
			<title>Maatlijn verticaal</title>
			<g id="group29-75" transform="translate(-154.983,163.487) rotate(-90)" v:mID="29" v:groupContext="group">
				<title>Maatlijn.31</title>
				<g id="shape30-76" v:mID="30" v:groupContext="shape" transform="translate(163.487,154.983) rotate(90)">
					<title>Blad.30</title>
					<path d="M0 163.49 L8.5 163.49" class="st5"/>
				</g>
				<g id="shape31-79" v:mID="31" v:groupContext="shape" transform="translate(248.527,154.983) rotate(90)">
					<title>Blad.31</title>
					<path d="M0 163.49 L8.5 163.49" class="st5"/>
				</g>
				<g id="shape32-82" v:mID="32" v:groupContext="shape" transform="translate(0,-4.25197)">
					<title>Blad.32</title>
					<path d="M3.74 163.49 L4.1 163.49 L80.94 163.49" class="st6"/>
				</g>
			</g>
			<g id="shape33-91" v:mID="33" v:groupContext="shape" transform="translate(4.25197,-34.0157)">
				<title>Blad.33</title>
				<desc>4 m</desc>
				<v:textBlock v:margins="rect(4,4,4,4)" v:tabSpace="42.5197"/>
				<v:textRect cx="14.1732" cy="154.983" width="28.35" height="17.0079"/>
				<rect x="0" y="146.479" width="28.3465" height="17.0079" class="st8"/>
				<text x="5.01" y="158.58" class="st9" v:langID="1043"><v:paragraph v:horizAlign="1"/><v:tabList/>4 m</text>			</g>
		</g>
		<g id="group34-94" transform="translate(14.2932,-0.375)" v:mID="34" v:groupContext="group">
			<title>Maatlijn</title>
			<g id="group35-95" transform="translate(0,-9.92126)" v:mID="35" v:groupContext="group">
				<title>Maatlijn.31</title>
				<g id="shape36-96" v:mID="36" v:groupContext="shape" transform="translate(163.487,154.983) rotate(90)">
					<title>Blad.36</title>
					<path d="M0 163.49 L8.5 163.49" class="st5"/>
				</g>
				<g id="shape37-99" v:mID="37" v:groupContext="shape" transform="translate(248.527,154.983) rotate(90)">
					<title>Blad.37</title>
					<path d="M0 163.49 L8.5 163.49" class="st5"/>
				</g>
				<g id="shape38-102" v:mID="38" v:groupContext="shape" transform="translate(0,-4.25197)">
					<title>Blad.38</title>
					<path d="M3.74 163.49 L4.1 163.49 L80.94 163.49" class="st6"/>
				</g>
			</g>
			<g id="shape39-109" v:mID="39" v:groupContext="shape">
				<title>Blad.39</title>
				<desc>4 m</desc>
				<v:textBlock v:margins="rect(4,4,4,4)" v:tabSpace="42.5197"/>
				<v:textRect cx="42.5197" cy="156.401" width="85.04" height="14.1732"/>
				<rect x="0" y="149.314" width="85.0394" height="14.1732" class="st8"/>
				<text x="33.35" y="160" class="st9" v:langID="1043"><v:paragraph v:horizAlign="1"/><v:tabList/>4 m</text>			</g>
		</g>
		<g id="group40-112" transform="translate(99.3326,-0.375)" v:mID="40" v:groupContext="group">
			<title>Maatlijn.40</title>
			<g id="group41-113" transform="translate(0,-9.92126)" v:mID="41" v:groupContext="group">
				<title>Maatlijn.31</title>
				<g id="shape42-114" v:mID="42" v:groupContext="shape" transform="translate(163.487,154.983) rotate(90)">
					<title>Blad.42</title>
					<path d="M0 163.49 L8.5 163.49" class="st5"/>
				</g>
				<g id="shape43-117" v:mID="43" v:groupContext="shape" transform="translate(248.527,154.983) rotate(90)">
					<title>Blad.43</title>
					<path d="M0 163.49 L8.5 163.49" class="st5"/>
				</g>
				<g id="shape44-120" v:mID="44" v:groupContext="shape" transform="translate(0,-4.25197)">
					<title>Blad.44</title>
					<path d="M3.74 163.49 L4.1 163.49 L80.94 163.49" class="st6"/>
				</g>
			</g>
			<g id="shape45-127" v:mID="45" v:groupContext="shape">
				<title>Blad.45</title>
				<desc>4 m</desc>
				<v:textBlock v:margins="rect(4,4,4,4)" v:tabSpace="42.5197"/>
				<v:textRect cx="42.5197" cy="156.401" width="85.04" height="14.1732"/>
				<rect x="0" y="149.314" width="85.0394" height="14.1732" class="st8"/>
				<text x="33.35" y="160" class="st9" v:langID="1043"><v:paragraph v:horizAlign="1"/><v:tabList/>4 m</text>			</g>
		</g>
		<g id="shape46-130" v:mID="46" v:groupContext="shape" transform="translate(14.2932,-127.934)">
			<title>Punt A</title>
			<desc>A</desc>
			<v:textBlock v:margins="rect(4,4,4,4)" v:tabSpace="42.5197"/>
			<v:textRect cx="7.08661" cy="156.401" width="14.18" height="14.1732"/>
			<rect x="0" y="149.314" width="14.1732" height="14.1732" class="st10"/>
			<text x="4" y="160" class="st9" v:langID="1043"><v:paragraph v:horizAlign="1"/><v:tabList/>A</text>		</g>
		<g id="shape47-133" v:mID="47" v:groupContext="shape" transform="translate(92.246,-127.934)">
			<title>Punt A.47</title>
			<desc>B</desc>
			<v:textBlock v:margins="rect(4,4,4,4)" v:tabSpace="42.5197"/>
			<v:textRect cx="7.08661" cy="156.401" width="14.18" height="14.1732"/>
			<rect x="0" y="149.314" width="14.1732" height="14.1732" class="st10"/>
			<text x="4" y="160" class="st9" v:langID="1043"><v:paragraph v:horizAlign="1"/><v:tabList/>B</text>		</g>
		<g id="shape48-136" v:mID="48" v:groupContext="shape" transform="translate(170.199,-113.761)">
			<title>Punt A.48</title>
			<desc>C</desc>
			<v:textBlock v:margins="rect(4,4,4,4)" v:tabSpace="42.5197"/>
			<v:textRect cx="7.08661" cy="156.401" width="14.18" height="14.1732"/>
			<rect x="0" y="149.314" width="14.1732" height="14.1732" class="st10"/>
			<text x="4" y="160" class="st9" v:langID="1043"><v:paragraph v:horizAlign="1"/><v:tabList/>C</text>		</g>
		<g id="shape49-139" v:mID="49" v:groupContext="shape" transform="translate(85.1594,-42.8947)">
			<title>Punt A.49</title>
			<desc>D</desc>
			<v:textBlock v:margins="rect(4,4,4,4)" v:tabSpace="42.5197"/>
			<v:textRect cx="7.08661" cy="156.401" width="14.18" height="14.1732"/>
			<rect x="0" y="149.314" width="14.1732" height="14.1732" class="st10"/>
			<text x="4" y="160" class="st9" v:langID="1043"><v:paragraph v:horizAlign="1"/><v:tabList/>D</text>		</g>
		<g id="shape50-142" v:mID="50" v:groupContext="shape" transform="translate(170.199,-42.8947)">
			<title>Punt A.50</title>
			<desc>E</desc>
			<v:textBlock v:margins="rect(4,4,4,4)" v:tabSpace="42.5197"/>
			<v:textRect cx="7.08661" cy="156.401" width="14.18" height="14.1732"/>
			<rect x="0" y="149.314" width="14.1732" height="14.1732" class="st10"/>
			<text x="4" y="160" class="st9" v:langID="1043"><v:paragraph v:horizAlign="1"/><v:tabList/>E</text>		</g>
		<g id="shape51-145" v:mID="51" v:groupContext="shape" transform="translate(0.12,-57.0679)">
			<title>Punt A.51</title>
			<desc>EI = 4 MNm2 EA &#62;&#62; EI</desc>
			<v:textBlock v:margins="rect(4,4,4,4)" v:tabSpace="42.5197"/>
			<v:textRect cx="42.5197" cy="149.314" width="85.04" height="28.3465"/>
			<rect x="0" y="135.141" width="85.0394" height="28.3465" class="st10"/>
			<text x="9.69" y="145.71" class="st11" v:langID="1043"><v:paragraph v:horizAlign="1"/><v:tabList/>EI<tspan class="st12"> </tspan><tspan
						class="st12">= 4 MNm</tspan><tspan dy="-0.198em" class="st13" v:baseFontSize="12">2<v:newlineChar/></tspan><tspan
						x="18.26" dy="1.329em" class="st14">EA</tspan><tspan class="st12"> </tspan><tspan class="st12">&#62;&#62;  </tspan>EI</text>		</g>
		<g id="shape52-154" v:mID="52" v:groupContext="shape" transform="translate(309.997,-70.0278) rotate(45) scale(-1,1)">
			<title>Moment</title>
			<path d="M-0 163.49 A14.1732 14.1732 0 0 1 14.17 149.31 A14.1732 14.1732 0 0 1 26.14 155.89 L26.24 156.24" class="st15"/>
		</g>
		<g id="shape53-160" v:mID="53" v:groupContext="shape" transform="translate(163.112,-149.194)">
			<title>Punt A.53</title>
			<desc>73 kNm</desc>
			<v:textBlock v:margins="rect(4,4,4,4)" v:tabSpace="42.5197"/>
			<v:textRect cx="24.8032" cy="156.401" width="49.61" height="14.1732"/>
			<rect x="0" y="149.314" width="49.6063" height="14.1732" class="st10"/>
			<text x="5.3" y="160" class="st9" v:langID="1043"><v:paragraph v:horizAlign="1"/><v:tabList/>73 kNm</text>		</g>
	</g>
</svg>
