<?xml version="1.0" encoding="UTF-8" standalone="no"?>
<!DOCTYPE svg PUBLIC "-//W3C//DTD SVG 1.1//EN" "http://www.w3.org/Graphics/SVG/1.1/DTD/svg11.dtd">
<!-- Gegenereerd door Microsoft Visio, SVG Export structure.svg Pagina-1 -->
<svg xmlns="http://www.w3.org/2000/svg" xmlns:xlink="http://www.w3.org/1999/xlink" xmlns:ev="http://www.w3.org/2001/xml-events"
		xmlns:v="http://schemas.microsoft.com/visio/2003/SVGExtensions/" width="4.28207in" height="3.16002in"
		viewBox="0 0 308.309 227.522" xml:space="preserve" color-interpolation-filters="sRGB" class="st13">
	<v:documentProperties v:langID="1043" v:metric="true" v:viewMarkup="false"/>

	<style type="text/css">
	<![CDATA[
		.st1 {stroke:#000000;stroke-linecap:round;stroke-linejoin:round;stroke-width:2}
		.st2 {fill:#00cc99;stroke:#000000;stroke-linecap:round;stroke-linejoin:round;stroke-width:0.75}
		.st3 {stroke:#000000;stroke-linecap:round;stroke-linejoin:round;stroke-width:0.75}
		.st4 {marker-start:url(#mrkr5-37);stroke:#800000;stroke-linecap:round;stroke-linejoin:round;stroke-width:2}
		.st5 {fill:#800000;fill-opacity:1;stroke:#800000;stroke-opacity:1;stroke-width:0.44247787610619}
		.st6 {stroke:#000000;stroke-linecap:round;stroke-linejoin:round;stroke-width:0.25}
		.st7 {marker-end:url(#mrkr4-54);marker-start:url(#mrkr4-52);stroke:#000000;stroke-linecap:round;stroke-linejoin:round;stroke-width:0.25}
		.st8 {fill:#000000;fill-opacity:1;stroke:#000000;stroke-opacity:1;stroke-width:0.1219512195122}
		.st9 {fill:none;stroke:none;stroke-linecap:round;stroke-linejoin:round;stroke-width:0.75}
		.st10 {fill:#000000;font-family:Times New Roman;font-size:1.00001em}
		.st11 {fill:#ffffff;stroke:#000000;stroke-linecap:round;stroke-linejoin:round;stroke-width:0.75}
		.st12 {fill:none;stroke:none;stroke-linecap:round;stroke-linejoin:round;stroke-width:0.24}
		.st13 {fill:none;fill-rule:evenodd;font-size:12px;overflow:visible;stroke-linecap:square;stroke-miterlimit:3}
	]]>
	</style>

	<defs id="Markers">
		<g id="lend5">
			<path d="M 2 1 L 0 0 L 1.98117 -0.993387 C 1.67173 -0.364515 1.67301 0.372641 1.98465 1.00043 " style="stroke:none"/>
		</g>
		<marker id="mrkr5-37" class="st5" v:arrowType="5" v:arrowSize="2" v:setback="3.775" refX="3.775" orient="auto"
				markerUnits="strokeWidth" overflow="visible">
			<use xlink:href="#lend5" transform="scale(2.26) "/>
		</marker>
		<g id="lend4">
			<path d="M 2 1 L 0 0 L 2 -1 L 2 1 " style="stroke:none"/>
		</g>
		<marker id="mrkr4-52" class="st8" v:arrowType="4" v:arrowSize="1" v:setback="14.96" refX="14.96" orient="auto"
				markerUnits="strokeWidth" overflow="visible">
			<use xlink:href="#lend4" transform="scale(8.2) "/>
		</marker>
		<marker id="mrkr4-54" class="st8" v:arrowType="4" v:arrowSize="1" v:setback="16.4" refX="-16.4" orient="auto"
				markerUnits="strokeWidth" overflow="visible">
			<use xlink:href="#lend4" transform="scale(-8.2,-8.2) "/>
		</marker>
	</defs>
	<g v:mID="0" v:index="1" v:groupContext="foregroundPage">
		<title>Pagina-1</title>
		<v:pageProperties v:drawingScale="0.0393701" v:pageScale="0.0393701" v:drawingUnits="24" v:shadowOffsetX="8.50394"
				v:shadowOffsetY="-8.50394"/>
		<g id="shape259-1" v:mID="259" v:groupContext="shape" transform="translate(525.534,42.8946) rotate(90)">
			<title>Ligger, 2 pt.259</title>
			<path d="M0 227.52 L28.35 227.52" class="st1"/>
		</g>
		<g id="shape261-4" v:mID="261" v:groupContext="shape" transform="translate(298.763,42.8946) rotate(90)">
			<title>Ligger, 2 pt.261</title>
			<path d="M0 227.52 L70.87 227.52" class="st1"/>
		</g>
		<g id="shape262-7" v:mID="262" v:groupContext="shape" transform="translate(383.802,42.8946) rotate(90)">
			<title>Ligger, 2 pt.262</title>
			<path d="M0 227.52 L47.24 227.52" class="st1"/>
		</g>
		<g id="shape263-10" v:mID="263" v:groupContext="shape" transform="translate(497.188,42.8946) rotate(90)">
			<title>Ligger, 2 pt.263</title>
			<path d="M0 227.52 L35.43 227.52" class="st1"/>
		</g>
		<g id="shape260-13" v:mID="260" v:groupContext="shape" transform="translate(242.07,43.0254) rotate(90)">
			<title>Ligger, 2 pt.260</title>
			<path d="M0 227.52 L141.73 227.52" class="st1"/>
		</g>
		<g id="group115-16" transform="translate(227.897,32.9734) rotate(90)" v:mID="115" v:groupContext="group">
			<title>Rol.115</title>
			<g id="group116-17" transform="translate(0.261477,-2.83465)" v:mID="116" v:groupContext="group">
				<title>Scharnier</title>
				<g id="shape117-18" v:mID="117" v:groupContext="shape" transform="translate(2.79729,0)">
					<title>Blad.117</title>
					<path d="M0 227.52 L13.99 227.52 L6.99 216.18 L0 227.52 Z" class="st2"/>
				</g>
				<g id="shape118-20" v:mID="118" v:groupContext="shape" transform="translate(2.79729,455.043) rotate(180)">
					<title>Blad.118</title>
					<path d="M0 227.52 L2.8 227.52" class="st3"/>
				</g>
				<g id="shape119-23" v:mID="119" v:groupContext="shape" transform="translate(16.7838,0)">
					<title>Blad.119</title>
					<path d="M0 227.52 L2.8 227.52" class="st3"/>
				</g>
			</g>
			<g id="shape120-26" v:mID="120" v:groupContext="shape">
				<title>Blad.120</title>
				<path d="M0 227.52 L19.84 227.52" class="st3"/>
			</g>
		</g>
		<g id="shape121-29" v:mID="121" v:groupContext="shape" transform="translate(14.5482,-184.627)">
			<title>Ligger, 2 pt.121</title>
			<path d="M0 227.52 L283.46 227.52" class="st1"/>
		</g>
		<g id="shape127-32" v:mID="127" v:groupContext="shape" transform="translate(13.7983,42.8946) rotate(-90)">
			<title>Kracht.127</title>
			<path d="M7.55 227.52 L7.91 227.52 L28.35 227.52" class="st4"/>
		</g>
		<g id="group148-38" transform="translate(14.5482,-0.375)" v:mID="148" v:groupContext="group">
			<title>Maatlijn.148</title>
			<g id="group149-39" transform="translate(0,-9.92126)" v:mID="149" v:groupContext="group">
				<title>Maatlijn.31</title>
				<g id="shape150-40" v:mID="150" v:groupContext="shape" transform="translate(227.522,219.018) rotate(90)">
					<title>Blad.150</title>
					<path d="M0 227.52 L8.5 227.52" class="st6"/>
				</g>
				<g id="shape151-43" v:mID="151" v:groupContext="shape" transform="translate(284.215,219.018) rotate(90)">
					<title>Blad.151</title>
					<path d="M0 227.52 L8.5 227.52" class="st6"/>
				</g>
				<g id="shape152-46" v:mID="152" v:groupContext="shape" transform="translate(0,-4.25197)">
					<title>Blad.152</title>
					<path d="M3.74 227.52 L4.1 227.52 L52.59 227.52" class="st7"/>
				</g>
			</g>
			<g id="shape153-55" v:mID="153" v:groupContext="shape">
				<title>Blad.153</title>
				<desc>2 m</desc>
				<v:textBlock v:margins="rect(4,4,4,4)" v:tabSpace="42.5197"/>
				<v:textRect cx="28.3465" cy="220.435" width="56.7" height="14.1732"/>
				<rect x="0" y="213.348" width="56.6929" height="14.1732" class="st9"/>
				<text x="19.18" y="224.04" class="st10" v:langID="1043"><v:paragraph v:horizAlign="1"/><v:tabList/>2 m</text>			</g>
		</g>
		<g id="group154-58" transform="translate(71.2412,-0.375)" v:mID="154" v:groupContext="group">
			<title>Maatlijn.154</title>
			<g id="group155-59" transform="translate(0,-9.92126)" v:mID="155" v:groupContext="group">
				<title>Maatlijn.31</title>
				<g id="shape156-60" v:mID="156" v:groupContext="shape" transform="translate(227.522,219.018) rotate(90)">
					<title>Blad.156</title>
					<path d="M0 227.52 L8.5 227.52" class="st6"/>
				</g>
				<g id="shape157-63" v:mID="157" v:groupContext="shape" transform="translate(312.561,219.018) rotate(90)">
					<title>Blad.157</title>
					<path d="M0 227.52 L8.5 227.52" class="st6"/>
				</g>
				<g id="shape158-66" v:mID="158" v:groupContext="shape" transform="translate(0,-4.25197)">
					<title>Blad.158</title>
					<path d="M3.74 227.52 L4.1 227.52 L80.94 227.52" class="st7"/>
				</g>
			</g>
			<g id="shape159-73" v:mID="159" v:groupContext="shape">
				<title>Blad.159</title>
				<desc>3 m</desc>
				<v:textBlock v:margins="rect(4,4,4,4)" v:tabSpace="42.5197"/>
				<v:textRect cx="42.5197" cy="220.435" width="85.04" height="14.1732"/>
				<rect x="0" y="213.348" width="85.0394" height="14.1732" class="st9"/>
				<text x="33.35" y="224.04" class="st10" v:langID="1043"><v:paragraph v:horizAlign="1"/><v:tabList/>3 m</text>			</g>
		</g>
		<g id="group160-76" transform="translate(156.281,-0.375)" v:mID="160" v:groupContext="group">
			<title>Maatlijn.160</title>
			<g id="group161-77" transform="translate(0,-9.92126)" v:mID="161" v:groupContext="group">
				<title>Maatlijn.31</title>
				<g id="shape162-78" v:mID="162" v:groupContext="shape" transform="translate(227.522,219.018) rotate(90)">
					<title>Blad.162</title>
					<path d="M0 227.52 L8.5 227.52" class="st6"/>
				</g>
				<g id="shape163-81" v:mID="163" v:groupContext="shape" transform="translate(312.561,219.018) rotate(90)">
					<title>Blad.163</title>
					<path d="M0 227.52 L8.5 227.52" class="st6"/>
				</g>
				<g id="shape164-84" v:mID="164" v:groupContext="shape" transform="translate(0,-4.25197)">
					<title>Blad.164</title>
					<path d="M3.74 227.52 L4.1 227.52 L80.94 227.52" class="st7"/>
				</g>
			</g>
			<g id="shape165-91" v:mID="165" v:groupContext="shape">
				<title>Blad.165</title>
				<desc>3 m</desc>
				<v:textBlock v:margins="rect(4,4,4,4)" v:tabSpace="42.5197"/>
				<v:textRect cx="42.5197" cy="220.435" width="85.04" height="14.1732"/>
				<rect x="0" y="213.348" width="85.0394" height="14.1732" class="st9"/>
				<text x="33.35" y="224.04" class="st10" v:langID="1043"><v:paragraph v:horizAlign="1"/><v:tabList/>3 m</text>			</g>
		</g>
		<g id="group166-94" transform="translate(241.32,-0.375)" v:mID="166" v:groupContext="group">
			<title>Maatlijn.166</title>
			<g id="group167-95" transform="translate(0,-9.92126)" v:mID="167" v:groupContext="group">
				<title>Maatlijn.31</title>
				<g id="shape168-96" v:mID="168" v:groupContext="shape" transform="translate(227.522,219.018) rotate(90)">
					<title>Blad.168</title>
					<path d="M0 227.52 L8.5 227.52" class="st6"/>
				</g>
				<g id="shape169-99" v:mID="169" v:groupContext="shape" transform="translate(255.868,219.018) rotate(90)">
					<title>Blad.169</title>
					<path d="M0 227.52 L8.5 227.52" class="st6"/>
				</g>
				<g id="shape170-102" v:mID="170" v:groupContext="shape" transform="translate(0,-4.25197)">
					<title>Blad.170</title>
					<path d="M3.74 227.52 L4.1 227.52 L24.25 227.52" class="st7"/>
				</g>
			</g>
			<g id="shape171-109" v:mID="171" v:groupContext="shape">
				<title>Blad.171</title>
				<desc>1 m</desc>
				<v:textBlock v:margins="rect(4,4,4,4)" v:tabSpace="42.5197"/>
				<v:textRect cx="14.1732" cy="220.435" width="28.35" height="14.1732"/>
				<rect x="0" y="213.348" width="28.3465" height="14.1732" class="st9"/>
				<text x="5.01" y="224.04" class="st10" v:langID="1043"><v:paragraph v:horizAlign="1"/><v:tabList/>1 m</text>			</g>
		</g>
		<g id="group172-112" transform="translate(269.666,-0.375)" v:mID="172" v:groupContext="group">
			<title>Maatlijn.172</title>
			<g id="group173-113" transform="translate(0,-9.92126)" v:mID="173" v:groupContext="group">
				<title>Maatlijn.31</title>
				<g id="shape174-114" v:mID="174" v:groupContext="shape" transform="translate(227.522,219.018) rotate(90)">
					<title>Blad.174</title>
					<path d="M0 227.52 L8.5 227.52" class="st6"/>
				</g>
				<g id="shape175-117" v:mID="175" v:groupContext="shape" transform="translate(255.868,219.018) rotate(90)">
					<title>Blad.175</title>
					<path d="M0 227.52 L8.5 227.52" class="st6"/>
				</g>
				<g id="shape176-120" v:mID="176" v:groupContext="shape" transform="translate(0,-4.25197)">
					<title>Blad.176</title>
					<path d="M3.74 227.52 L4.1 227.52 L24.25 227.52" class="st7"/>
				</g>
			</g>
			<g id="shape177-127" v:mID="177" v:groupContext="shape">
				<title>Blad.177</title>
				<desc>1 m</desc>
				<v:textBlock v:margins="rect(4,4,4,4)" v:tabSpace="42.5197"/>
				<v:textRect cx="14.1732" cy="220.435" width="28.35" height="14.1732"/>
				<rect x="0" y="213.348" width="28.3465" height="14.1732" class="st9"/>
				<text x="5.01" y="224.04" class="st10" v:langID="1043"><v:paragraph v:horizAlign="1"/><v:tabList/>1 m</text>			</g>
		</g>
		<g id="shape178-130" v:mID="178" v:groupContext="shape" transform="translate(241.32,-198.8)">
			<title>Blad.178</title>
			<desc>2580 kN</desc>
			<v:textBlock v:margins="rect(4,4,4,4)" v:tabSpace="42.5197"/>
			<v:textRect cx="28.3465" cy="220.5" width="56.7" height="14.0425"/>
			<rect x="0" y="213.479" width="56.6929" height="14.0425" class="st9"/>
			<text x="7.51" y="224.1" class="st10" v:langID="1043"><v:paragraph v:horizAlign="1"/><v:tabList/>2580 kN</text>		</g>
		<g id="shape185-133" v:mID="185" v:groupContext="shape" transform="translate(12.4222,-182.501)">
			<title>Scharnier</title>
			<ellipse cx="2.12598" cy="225.396" rx="2.12598" ry="2.12598" class="st11"/>
		</g>
		<g id="shape186-135" v:mID="186" v:groupContext="shape" transform="translate(69.1152,-179.525)">
			<title>Scharnier.186</title>
			<ellipse cx="2.12598" cy="225.396" rx="2.12598" ry="2.12598" class="st11"/>
		</g>
		<g id="shape187-137" v:mID="187" v:groupContext="shape" transform="translate(154.155,-179.525)">
			<title>Scharnier.187</title>
			<ellipse cx="2.12598" cy="225.396" rx="2.12598" ry="2.12598" class="st11"/>
		</g>
		<g id="shape257-139" v:mID="257" v:groupContext="shape" transform="translate(267.54,-179.525)">
			<title>Scharnier.257</title>
			<ellipse cx="2.12598" cy="225.396" rx="2.12598" ry="2.12598" class="st11"/>
		</g>
		<g id="shape258-141" v:mID="258" v:groupContext="shape" transform="translate(295.887,-179.525)">
			<title>Scharnier.258</title>
			<ellipse cx="2.12598" cy="225.396" rx="2.12598" ry="2.12598" class="st11"/>
		</g>
		<g id="group264-143" transform="translate(4.62697,-31.5561)" v:mID="264" v:groupContext="group">
			<title>Scharnieroplegging.264</title>
			<g id="shape265-144" v:mID="265" v:groupContext="shape" transform="translate(2.83465,0)">
				<title>Blad.265</title>
				<path d="M0 227.52 L14.17 227.52 L7.09 216.18 L0 227.52 Z" class="st2"/>
			</g>
			<g id="shape266-146" v:mID="266" v:groupContext="shape" transform="translate(2.83465,455.043) rotate(180)">
				<title>Blad.266</title>
				<path d="M0 227.52 L2.83 227.52" class="st3"/>
			</g>
			<g id="shape267-149" v:mID="267" v:groupContext="shape" transform="translate(17.0079,0)">
				<title>Blad.267</title>
				<path d="M0 227.52 L2.83 227.52" class="st3"/>
			</g>
		</g>
		<g id="group268-152" transform="translate(61.3199,-102.422)" v:mID="268" v:groupContext="group">
			<title>Scharnieroplegging.268</title>
			<g id="shape269-153" v:mID="269" v:groupContext="shape" transform="translate(2.83465,0)">
				<title>Blad.269</title>
				<path d="M0 227.52 L14.17 227.52 L7.09 216.18 L0 227.52 Z" class="st2"/>
			</g>
			<g id="shape270-155" v:mID="270" v:groupContext="shape" transform="translate(2.83465,455.043) rotate(180)">
				<title>Blad.270</title>
				<path d="M0 227.52 L2.83 227.52" class="st3"/>
			</g>
			<g id="shape271-158" v:mID="271" v:groupContext="shape" transform="translate(17.0079,0)">
				<title>Blad.271</title>
				<path d="M0 227.52 L2.83 227.52" class="st3"/>
			</g>
		</g>
		<g id="group272-161" transform="translate(146.359,-126.233)" v:mID="272" v:groupContext="group">
			<title>Scharnieroplegging.272</title>
			<g id="shape273-162" v:mID="273" v:groupContext="shape" transform="translate(2.83465,0)">
				<title>Blad.273</title>
				<path d="M0 227.52 L14.17 227.52 L7.09 216.18 L0 227.52 Z" class="st2"/>
			</g>
			<g id="shape274-164" v:mID="274" v:groupContext="shape" transform="translate(2.83465,455.043) rotate(180)">
				<title>Blad.274</title>
				<path d="M0 227.52 L2.83 227.52" class="st3"/>
			</g>
			<g id="shape275-167" v:mID="275" v:groupContext="shape" transform="translate(17.0079,0)">
				<title>Blad.275</title>
				<path d="M0 227.52 L2.83 227.52" class="st3"/>
			</g>
		</g>
		<g id="group276-170" transform="translate(259.745,-136.438)" v:mID="276" v:groupContext="group">
			<title>Scharnieroplegging.276</title>
			<g id="shape277-171" v:mID="277" v:groupContext="shape" transform="translate(2.83465,0)">
				<title>Blad.277</title>
				<path d="M0 227.52 L14.17 227.52 L7.09 216.18 L0 227.52 Z" class="st2"/>
			</g>
			<g id="shape278-173" v:mID="278" v:groupContext="shape" transform="translate(2.83465,455.043) rotate(180)">
				<title>Blad.278</title>
				<path d="M0 227.52 L2.83 227.52" class="st3"/>
			</g>
			<g id="shape279-176" v:mID="279" v:groupContext="shape" transform="translate(17.0079,0)">
				<title>Blad.279</title>
				<path d="M0 227.52 L2.83 227.52" class="st3"/>
			</g>
		</g>
		<g id="group280-179" transform="translate(288.092,-144.942)" v:mID="280" v:groupContext="group">
			<title>Scharnieroplegging.280</title>
			<g id="shape281-180" v:mID="281" v:groupContext="shape" transform="translate(2.83465,0)">
				<title>Blad.281</title>
				<path d="M0 227.52 L14.17 227.52 L7.09 216.18 L0 227.52 Z" class="st2"/>
			</g>
			<g id="shape282-182" v:mID="282" v:groupContext="shape" transform="translate(2.83465,455.043) rotate(180)">
				<title>Blad.282</title>
				<path d="M0 227.52 L2.83 227.52" class="st3"/>
			</g>
			<g id="shape283-185" v:mID="283" v:groupContext="shape" transform="translate(17.0079,0)">
				<title>Blad.283</title>
				<path d="M0 227.52 L2.83 227.52" class="st3"/>
			</g>
		</g>
		<g id="shape289-188" v:mID="289" v:groupContext="shape" transform="translate(14.5482,-184.627)">
			<title>Punt A.289</title>
			<desc>A</desc>
			<v:textBlock v:margins="rect(4,4,4,4)" v:tabSpace="42.5197"/>
			<v:textRect cx="7.08661" cy="220.435" width="14.18" height="14.1732"/>
			<rect x="0" y="213.348" width="14.1732" height="14.1732" class="st12"/>
			<text x="4" y="224.04" class="st10" v:langID="1043"><v:paragraph v:horizAlign="1"/><v:tabList/>A</text>		</g>
		<g id="shape290-191" v:mID="290" v:groupContext="shape" transform="translate(65.5719,-184.627)">
			<title>Punt A.290</title>
			<desc>B</desc>
			<v:textBlock v:margins="rect(4,4,4,4)" v:tabSpace="42.5197"/>
			<v:textRect cx="7.08661" cy="220.435" width="14.18" height="14.1732"/>
			<rect x="0" y="213.348" width="14.1732" height="14.1732" class="st12"/>
			<text x="4" y="224.04" class="st10" v:langID="1043"><v:paragraph v:horizAlign="1"/><v:tabList/>B</text>		</g>
		<g id="shape291-194" v:mID="291" v:groupContext="shape" transform="translate(150.611,-184.627)">
			<title>Punt A.291</title>
			<desc>C</desc>
			<v:textBlock v:margins="rect(4,4,4,4)" v:tabSpace="42.5197"/>
			<v:textRect cx="7.08661" cy="220.435" width="14.18" height="14.1732"/>
			<rect x="0" y="213.348" width="14.1732" height="14.1732" class="st12"/>
			<text x="4" y="224.04" class="st10" v:langID="1043"><v:paragraph v:horizAlign="1"/><v:tabList/>C</text>		</g>
		<g id="shape292-197" v:mID="292" v:groupContext="shape" transform="translate(261.162,-184.627)">
			<title>Punt A.292</title>
			<desc>D</desc>
			<v:textBlock v:margins="rect(4,4,4,4)" v:tabSpace="42.5197"/>
			<v:textRect cx="7.08661" cy="220.435" width="14.18" height="14.1732"/>
			<rect x="0" y="213.348" width="14.1732" height="14.1732" class="st12"/>
			<text x="4" y="224.04" class="st10" v:langID="1043"><v:paragraph v:horizAlign="1"/><v:tabList/>D</text>		</g>
		<g id="shape293-200" v:mID="293" v:groupContext="shape" transform="translate(290.926,-184.627)">
			<title>Punt A.293</title>
			<desc>E</desc>
			<v:textBlock v:margins="rect(4,4,4,4)" v:tabSpace="42.5197"/>
			<v:textRect cx="7.08661" cy="220.435" width="14.18" height="14.1732"/>
			<rect x="0" y="213.348" width="14.1732" height="14.1732" class="st12"/>
			<text x="4" y="224.04" class="st10" v:langID="1043"><v:paragraph v:horizAlign="1"/><v:tabList/>E</text>		</g>
		<g id="shape375-203" v:mID="375" v:groupContext="shape" transform="translate(127.934,-212.973)">
			<title>Blad.375</title>
			<desc>EI = ∞</desc>
			<v:textBlock v:margins="rect(4,4,4,4)" v:tabSpace="42.5197"/>
			<v:textRect cx="28.3465" cy="220.435" width="56.7" height="14.1732"/>
			<rect x="0" y="213.348" width="56.6929" height="14.1732" class="st9"/>
			<text x="12.02" y="224.04" class="st10" v:langID="1043"><v:paragraph v:horizAlign="1"/><v:tabList/>EI = ∞  </text>		</g>
	</g>
</svg>
