<?xml version="1.0" encoding="UTF-8" standalone="no"?>
<!DOCTYPE svg PUBLIC "-//W3C//DTD SVG 1.1//EN" "http://www.w3.org/Graphics/SVG/1.1/DTD/svg11.dtd">
<!-- Gegenereerd door Microsoft Visio, SVG Export 1.svg Pagina-1 -->
<svg xmlns="http://www.w3.org/2000/svg" xmlns:xlink="http://www.w3.org/1999/xlink" xmlns:ev="http://www.w3.org/2001/xml-events"
		xmlns:v="http://schemas.microsoft.com/visio/2003/SVGExtensions/" width="5.14589in" height="3.36326in"
		viewBox="0 0 370.504 242.155" xml:space="preserve" color-interpolation-filters="sRGB" class="st13">
	<v:documentProperties v:langID="1043" v:metric="true" v:viewMarkup="false"/>

	<style type="text/css">
	<![CDATA[
		.st1 {marker-start:url(#mrkr5-6);stroke:#800000;stroke-linecap:round;stroke-linejoin:round;stroke-width:2}
		.st2 {fill:#800000;fill-opacity:1;stroke:#800000;stroke-opacity:1;stroke-width:0.44247787610619}
		.st3 {fill:#00cc99;stroke:#000000;stroke-linecap:round;stroke-linejoin:round;stroke-width:0.75}
		.st4 {stroke:#000000;stroke-linecap:round;stroke-linejoin:round;stroke-width:0.75}
		.st5 {stroke:#000000;stroke-linecap:round;stroke-linejoin:round;stroke-width:2}
		.st6 {fill:#ffffff;stroke:#000000;stroke-linecap:round;stroke-linejoin:round;stroke-width:0.75}
		.st7 {marker-end:url(#mrkr1-123);stroke:#000000;stroke-linecap:butt;stroke-width:3}
		.st8 {fill:#000000;fill-opacity:1;stroke:#000000;stroke-opacity:1;stroke-width:0.67567567567568}
		.st9 {fill:none;stroke:none;stroke-linecap:round;stroke-linejoin:round;stroke-width:0.75}
		.st10 {fill:#000000;font-family:Times New Roman;font-size:1.00001em;font-style:italic}
		.st11 {baseline-shift:-32.4941%;font-size:0.649882em;font-style:normal}
		.st12 {font-size:1em;font-style:normal}
		.st13 {fill:none;fill-rule:evenodd;font-size:12px;overflow:visible;stroke-linecap:square;stroke-miterlimit:3}
	]]>
	</style>

	<defs id="Markers">
		<g id="lend5">
			<path d="M 2 1 L 0 0 L 1.98117 -0.993387 C 1.67173 -0.364515 1.67301 0.372641 1.98465 1.00043 " style="stroke:none"/>
		</g>
		<marker id="mrkr5-6" class="st2" v:arrowType="5" v:arrowSize="2" v:setback="3.775" refX="3.775" orient="auto"
				markerUnits="strokeWidth" overflow="visible">
			<use xlink:href="#lend5" transform="scale(2.26) "/>
		</marker>
		<g id="lend1">
			<path d="M 1 -1 L 0 0 L 1 1 " style="stroke-linecap:round;stroke-linejoin:round;fill:none"/>
		</g>
		<marker id="mrkr1-123" class="st8" v:arrowType="1" v:arrowSize="0" orient="auto" markerUnits="strokeWidth"
				overflow="visible">
			<use xlink:href="#lend1" transform="scale(-1.48,-1.48) "/>
		</marker>
	</defs>
	<g v:mID="0" v:index="1" v:groupContext="foregroundPage">
		<title>Pagina-1</title>
		<v:pageProperties v:drawingScale="0.0393701" v:pageScale="0.0393701" v:drawingUnits="24" v:shadowOffsetX="8.50394"
				v:shadowOffsetY="-8.50394"/>
		<g id="shape48-1" v:mID="48" v:groupContext="shape" transform="translate(526.619,156.281) rotate(90)">
			<title>Kracht.48</title>
			<path d="M7.55 242.15 L7.91 242.15 L28.35 242.15" class="st1"/>
		</g>
		<g id="group1-7" transform="translate(25.0945,313.396) rotate(180)" v:mID="1" v:groupContext="group">
			<title>Rol</title>
			<g id="group2-8" transform="translate(0.261477,-2.83465)" v:mID="2" v:groupContext="group">
				<title>Scharnier</title>
				<g id="shape3-9" v:mID="3" v:groupContext="shape" transform="translate(2.79729,0)">
					<title>Blad.3</title>
					<path d="M0 242.15 L13.99 242.15 L6.99 230.82 L0 242.15 Z" class="st3"/>
				</g>
				<g id="shape4-11" v:mID="4" v:groupContext="shape" transform="translate(2.79729,484.31) rotate(180)">
					<title>Blad.4</title>
					<path d="M0 242.15 L2.8 242.15" class="st4"/>
				</g>
				<g id="shape5-14" v:mID="5" v:groupContext="shape" transform="translate(16.7838,0)">
					<title>Blad.5</title>
					<path d="M0 242.15 L2.8 242.15" class="st4"/>
				</g>
			</g>
			<g id="shape6-17" v:mID="6" v:groupContext="shape">
				<title>Blad.6</title>
				<path d="M0 242.15 L19.84 242.15" class="st4"/>
			</g>
		</g>
		<g id="group7-20" transform="translate(95.9606,313.396) rotate(180)" v:mID="7" v:groupContext="group">
			<title>Rol.7</title>
			<g id="group8-21" transform="translate(0.261477,-2.83465)" v:mID="8" v:groupContext="group">
				<title>Scharnier</title>
				<g id="shape9-22" v:mID="9" v:groupContext="shape" transform="translate(2.79729,0)">
					<title>Blad.9</title>
					<path d="M0 242.15 L13.99 242.15 L6.99 230.82 L0 242.15 Z" class="st3"/>
				</g>
				<g id="shape10-24" v:mID="10" v:groupContext="shape" transform="translate(2.79729,484.31) rotate(180)">
					<title>Blad.10</title>
					<path d="M0 242.15 L2.8 242.15" class="st4"/>
				</g>
				<g id="shape11-27" v:mID="11" v:groupContext="shape" transform="translate(16.7838,0)">
					<title>Blad.11</title>
					<path d="M0 242.15 L2.8 242.15" class="st4"/>
				</g>
			</g>
			<g id="shape12-30" v:mID="12" v:groupContext="shape">
				<title>Blad.12</title>
				<path d="M0 242.15 L19.84 242.15" class="st4"/>
			</g>
		</g>
		<g id="group13-33" transform="translate(166.827,316.231) rotate(180)" v:mID="13" v:groupContext="group">
			<title>Scharnieroplegging</title>
			<g id="shape14-34" v:mID="14" v:groupContext="shape" transform="translate(2.83465,0)">
				<title>Blad.14</title>
				<path d="M0 242.15 L14.17 242.15 L7.09 230.82 L0 242.15 Z" class="st3"/>
			</g>
			<g id="shape15-36" v:mID="15" v:groupContext="shape" transform="translate(2.83465,484.31) rotate(180)">
				<title>Blad.15</title>
				<path d="M0 242.15 L2.83 242.15" class="st4"/>
			</g>
			<g id="shape16-39" v:mID="16" v:groupContext="shape" transform="translate(17.0079,0)">
				<title>Blad.16</title>
				<path d="M0 242.15 L2.83 242.15" class="st4"/>
			</g>
		</g>
		<g id="shape17-42" v:mID="17" v:groupContext="shape" transform="translate(1,-57.5278)">
			<title>Ligger, 2 pt</title>
			<path d="M0 242.15 L170.08 242.15" class="st5"/>
		</g>
		<g id="shape18-45" v:mID="18" v:groupContext="shape" transform="translate(-226.982,184.627) rotate(-90)">
			<title>Ligger, 2 pt.18</title>
			<path d="M0 242.15 L99.21 242.15" class="st5"/>
		</g>
		<g id="shape19-48" v:mID="19" v:groupContext="shape" transform="translate(-156.246,184.627) rotate(-90)">
			<title>Ligger, 2 pt.19</title>
			<path d="M0 242.15 L99.21 242.15" class="st5"/>
		</g>
		<g id="shape20-51" v:mID="20" v:groupContext="shape" transform="translate(-85.2493,184.627) rotate(-90)">
			<title>Ligger, 2 pt.20</title>
			<path d="M0 242.15 L99.21 242.15" class="st5"/>
		</g>
		<g id="shape21-54" v:mID="21" v:groupContext="shape" transform="translate(13.0472,-58.2365)">
			<title>Scharnier</title>
			<ellipse cx="2.12598" cy="240.029" rx="2.12598" ry="2.12598" class="st6"/>
		</g>
		<g id="shape22-56" v:mID="22" v:groupContext="shape" transform="translate(83.9134,-58.2365)">
			<title>Scharnier.22</title>
			<ellipse cx="2.12598" cy="240.029" rx="2.12598" ry="2.12598" class="st6"/>
		</g>
		<g id="shape23-58" v:mID="23" v:groupContext="shape" transform="translate(154.78,-58.2365)">
			<title>Scharnier.23</title>
			<ellipse cx="2.12598" cy="240.029" rx="2.12598" ry="2.12598" class="st6"/>
		</g>
		<g id="group24-60" transform="translate(223.52,313.396) rotate(180)" v:mID="24" v:groupContext="group">
			<title>Rol.24</title>
			<g id="group25-61" transform="translate(0.261477,-2.83465)" v:mID="25" v:groupContext="group">
				<title>Scharnier</title>
				<g id="shape26-62" v:mID="26" v:groupContext="shape" transform="translate(2.79729,0)">
					<title>Blad.26</title>
					<path d="M0 242.15 L13.99 242.15 L6.99 230.82 L0 242.15 Z" class="st3"/>
				</g>
				<g id="shape27-64" v:mID="27" v:groupContext="shape" transform="translate(2.79729,484.31) rotate(180)">
					<title>Blad.27</title>
					<path d="M0 242.15 L2.8 242.15" class="st4"/>
				</g>
				<g id="shape28-67" v:mID="28" v:groupContext="shape" transform="translate(16.7838,0)">
					<title>Blad.28</title>
					<path d="M0 242.15 L2.8 242.15" class="st4"/>
				</g>
			</g>
			<g id="shape29-70" v:mID="29" v:groupContext="shape">
				<title>Blad.29</title>
				<path d="M0 242.15 L19.84 242.15" class="st4"/>
			</g>
		</g>
		<g id="group30-73" transform="translate(294.386,242.53) rotate(180)" v:mID="30" v:groupContext="group">
			<title>Rol.30</title>
			<g id="group31-74" transform="translate(0.261477,-2.83465)" v:mID="31" v:groupContext="group">
				<title>Scharnier</title>
				<g id="shape32-75" v:mID="32" v:groupContext="shape" transform="translate(2.79729,0)">
					<title>Blad.32</title>
					<path d="M0 242.15 L13.99 242.15 L6.99 230.82 L0 242.15 Z" class="st3"/>
				</g>
				<g id="shape33-77" v:mID="33" v:groupContext="shape" transform="translate(2.79729,484.31) rotate(180)">
					<title>Blad.33</title>
					<path d="M0 242.15 L2.8 242.15" class="st4"/>
				</g>
				<g id="shape34-80" v:mID="34" v:groupContext="shape" transform="translate(16.7838,0)">
					<title>Blad.34</title>
					<path d="M0 242.15 L2.8 242.15" class="st4"/>
				</g>
			</g>
			<g id="shape35-83" v:mID="35" v:groupContext="shape">
				<title>Blad.35</title>
				<path d="M0 242.15 L19.84 242.15" class="st4"/>
			</g>
		</g>
		<g id="group36-86" transform="translate(365.252,316.231) rotate(180)" v:mID="36" v:groupContext="group">
			<title>Scharnieroplegging.36</title>
			<g id="shape37-87" v:mID="37" v:groupContext="shape" transform="translate(2.83465,0)">
				<title>Blad.37</title>
				<path d="M0 242.15 L14.17 242.15 L7.09 230.82 L0 242.15 Z" class="st3"/>
			</g>
			<g id="shape38-89" v:mID="38" v:groupContext="shape" transform="translate(2.83465,484.31) rotate(180)">
				<title>Blad.38</title>
				<path d="M0 242.15 L2.83 242.15" class="st4"/>
			</g>
			<g id="shape39-92" v:mID="39" v:groupContext="shape" transform="translate(17.0079,0)">
				<title>Blad.39</title>
				<path d="M0 242.15 L2.83 242.15" class="st4"/>
			</g>
		</g>
		<g id="shape40-95" v:mID="40" v:groupContext="shape" transform="translate(199.425,-57.5278)">
			<title>Ligger, 2 pt.40</title>
			<path d="M0 242.15 L170.08 242.15" class="st5"/>
		</g>
		<g id="shape41-98" v:mID="41" v:groupContext="shape" transform="translate(-28.5564,184.627) rotate(-90)">
			<title>Ligger, 2 pt.41</title>
			<path d="M0 242.15 L99.21 242.15" class="st5"/>
		</g>
		<g id="shape42-101" v:mID="42" v:groupContext="shape" transform="translate(42.179,113.761) rotate(-90)">
			<title>Ligger, 2 pt.42</title>
			<path d="M0 242.15 L99.21 242.15" class="st5"/>
		</g>
		<g id="shape43-104" v:mID="43" v:groupContext="shape" transform="translate(113.176,184.627) rotate(-90)">
			<title>Ligger, 2 pt.43</title>
			<path d="M0 242.15 L99.21 242.15" class="st5"/>
		</g>
		<g id="shape44-107" v:mID="44" v:groupContext="shape" transform="translate(211.472,-58.2365)">
			<title>Scharnier.44</title>
			<ellipse cx="2.12598" cy="240.029" rx="2.12598" ry="2.12598" class="st6"/>
		</g>
		<g id="shape45-109" v:mID="45" v:groupContext="shape" transform="translate(282.339,-58.2365)">
			<title>Scharnier.45</title>
			<ellipse cx="2.12598" cy="240.029" rx="2.12598" ry="2.12598" class="st6"/>
		</g>
		<g id="shape46-111" v:mID="46" v:groupContext="shape" transform="translate(353.205,-58.2365)">
			<title>Scharnier.46</title>
			<ellipse cx="2.12598" cy="240.029" rx="2.12598" ry="2.12598" class="st6"/>
		</g>
		<g id="shape47-113" v:mID="47" v:groupContext="shape" transform="translate(42.3098,142.107) rotate(-90)">
			<title>Kracht</title>
			<path d="M7.55 242.15 L7.91 242.15 L28.35 242.15" class="st1"/>
		</g>
		<g id="shape49-118" v:mID="49" v:groupContext="shape" transform="translate(526.619,184.627) rotate(90)">
			<title>verplaatsing</title>
			<path d="M0 242.15 L28.35 242.15" class="st7"/>
		</g>
		<g id="shape50-124" v:mID="50" v:groupContext="shape" transform="translate(533.706,113.761) rotate(90)">
			<title>verplaatsing.50</title>
			<path d="M0 242.15 L28.35 242.15" class="st7"/>
		</g>
		<g id="shape51-129" v:mID="51" v:groupContext="shape" transform="translate(206.512,-0.834919)">
			<title>Blad.51</title>
			<desc>w1 (N) = w2 (N) → N</desc>
			<v:textBlock v:margins="rect(4,4,4,4)" v:tabSpace="42.5197"/>
			<v:textRect cx="77.9528" cy="235.068" width="155.91" height="14.1732"/>
			<rect x="0" y="227.982" width="155.906" height="14.1732" class="st9"/>
			<text x="30.22" y="238.67" class="st10" v:langID="1043"><v:paragraph v:horizAlign="1"/><v:tabList/>w<tspan
						dy="-0.279em" class="st11" v:baseFontSize="12">1 </tspan><tspan dy="0.181em" class="st12">(</tspan>N<tspan
						class="st12">)</tspan> <tspan class="st12">= </tspan>w<tspan dy="-0.279em" class="st11" v:baseFontSize="12">2 </tspan><tspan
						dy="0.181em" class="st12">(</tspan>N<tspan class="st12">) </tspan><tspan class="st12">→ </tspan>N</text>		</g>
		<g id="shape203-140" v:mID="203" v:groupContext="shape" transform="translate(234.858,-64.6144)">
			<title>Blad.203</title>
			<desc>N = ?</desc>
			<v:textBlock v:margins="rect(4,4,4,4)" v:tabSpace="42.5197"/>
			<v:textRect cx="21.2598" cy="235.068" width="42.52" height="14.1732"/>
			<rect x="0" y="227.982" width="42.5197" height="14.1732" class="st9"/>
			<text x="8.21" y="238.67" class="st10" v:langID="1043"><v:paragraph v:horizAlign="1"/><v:tabList/>N <tspan class="st12">= ?</tspan></text>		</g>
		<g id="shape207-144" v:mID="207" v:groupContext="shape" transform="translate(284.465,-107.134)">
			<title>Blad.207</title>
			<desc>w1</desc>
			<v:textBlock v:margins="rect(4,4,4,4)" v:tabSpace="42.5197"/>
			<v:textRect cx="21.2598" cy="235.068" width="42.52" height="14.1732"/>
			<rect x="0" y="227.982" width="42.5197" height="14.1732" class="st9"/>
			<text x="16.81" y="238.67" class="st10" v:langID="1043"><v:paragraph v:horizAlign="1"/><v:tabList/>w<tspan
						dy="-0.279em" class="st11" v:baseFontSize="12">1</tspan></text>		</g>
		<g id="shape208-148" v:mID="208" v:groupContext="shape" transform="translate(284.465,-36.268)">
			<title>Blad.208</title>
			<desc>w2</desc>
			<v:textBlock v:margins="rect(4,4,4,4)" v:tabSpace="42.5197"/>
			<v:textRect cx="21.2598" cy="235.068" width="42.52" height="14.1732"/>
			<rect x="0" y="227.982" width="42.5197" height="14.1732" class="st9"/>
			<text x="16.81" y="238.67" class="st10" v:langID="1043"><v:paragraph v:horizAlign="1"/><v:tabList/>w<tspan
						dy="-0.279em" class="st11" v:baseFontSize="12">2</tspan></text>		</g>
		<g id="shape211-152" v:mID="211" v:groupContext="shape" transform="translate(234.858,-107.134)">
			<title>Blad.211</title>
			<desc>N = ?</desc>
			<v:textBlock v:margins="rect(4,4,4,4)" v:tabSpace="42.5197"/>
			<v:textRect cx="21.2598" cy="235.068" width="42.52" height="14.1732"/>
			<rect x="0" y="227.982" width="42.5197" height="14.1732" class="st9"/>
			<text x="8.21" y="238.67" class="st10" v:langID="1043"><v:paragraph v:horizAlign="1"/><v:tabList/>N <tspan class="st12">= ?</tspan></text>		</g>
	</g>
</svg>
