<?xml version="1.0" encoding="UTF-8" standalone="no"?>
<!DOCTYPE svg PUBLIC "-//W3C//DTD SVG 1.1//EN" "http://www.w3.org/Graphics/SVG/1.1/DTD/svg11.dtd">
<!-- Gegenereerd door Microsoft Visio, SVG Export 2.svg Pagina-1 -->
<svg xmlns="http://www.w3.org/2000/svg" xmlns:xlink="http://www.w3.org/1999/xlink" xmlns:ev="http://www.w3.org/2001/xml-events"
		xmlns:v="http://schemas.microsoft.com/visio/2003/SVGExtensions/" width="5.38443in" height="1.08306in"
		viewBox="0 0 387.679 77.9802" xml:space="preserve" color-interpolation-filters="sRGB" class="st14">
	<v:documentProperties v:langID="1043" v:metric="true" v:viewMarkup="false"/>

	<style type="text/css">
	<![CDATA[
		.st1 {stroke:#000000;stroke-linecap:round;stroke-linejoin:round;stroke-width:1.2}
		.st2 {stroke:#000000;stroke-linecap:round;stroke-linejoin:round;stroke-width:0.75}
		.st3 {stroke:#000000;stroke-linecap:round;stroke-linejoin:round;stroke-width:2}
		.st4 {fill:#00cc99;stroke:#000000;stroke-linecap:round;stroke-linejoin:round;stroke-width:0.75}
		.st5 {marker-start:url(#mrkr5-117);stroke:#800000;stroke-linecap:round;stroke-linejoin:round;stroke-width:2}
		.st6 {fill:#800000;fill-opacity:1;stroke:#800000;stroke-opacity:1;stroke-width:0.44247787610619}
		.st7 {marker-end:url(#mrkr1-123);stroke:#000000;stroke-linecap:butt;stroke-width:3}
		.st8 {fill:#000000;fill-opacity:1;stroke:#000000;stroke-opacity:1;stroke-width:0.67567567567568}
		.st9 {fill:none;stroke:none;stroke-linecap:round;stroke-linejoin:round;stroke-width:0.75}
		.st10 {fill:#000000;font-family:Times New Roman;font-size:1.00001em;font-style:italic}
		.st11 {font-size:1em;font-style:normal}
		.st12 {baseline-shift:-32.4941%;font-size:0.649882em;font-style:normal}
		.st13 {font-size:1em}
		.st14 {fill:none;fill-rule:evenodd;font-size:12px;overflow:visible;stroke-linecap:square;stroke-miterlimit:3}
	]]>
	</style>

	<defs id="Markers">
		<g id="lend5">
			<path d="M 2 1 L 0 0 L 1.98117 -0.993387 C 1.67173 -0.364515 1.67301 0.372641 1.98465 1.00043 " style="stroke:none"/>
		</g>
		<marker id="mrkr5-117" class="st6" v:arrowType="5" v:arrowSize="2" v:setback="3.775" refX="3.775" orient="auto"
				markerUnits="strokeWidth" overflow="visible">
			<use xlink:href="#lend5" transform="scale(2.26) "/>
		</marker>
		<g id="lend1">
			<path d="M 1 -1 L 0 0 L 1 1 " style="stroke-linecap:round;stroke-linejoin:round;fill:none"/>
		</g>
		<marker id="mrkr1-123" class="st8" v:arrowType="1" v:arrowSize="0" orient="auto" markerUnits="strokeWidth"
				overflow="visible">
			<use xlink:href="#lend1" transform="scale(-1.48,-1.48) "/>
		</marker>
	</defs>
	<g v:mID="0" v:index="1" v:groupContext="foregroundPage">
		<title>Pagina-1</title>
		<v:pageProperties v:drawingScale="0.0393701" v:pageScale="0.0393701" v:drawingUnits="24" v:shadowOffsetX="8.50394"
				v:shadowOffsetY="-8.50394"/>
		<g id="group53-1" transform="translate(0.375,-29.1814)" v:mID="53" v:groupContext="group">
			<title>Inklemming</title>
			<g id="shape54-2" v:mID="54" v:groupContext="shape" transform="translate(89.3188,49.6337) rotate(90)">
				<title>Blad.54</title>
				<path d="M0 77.98 L28.35 77.98" class="st1"/>
			</g>
			<g id="shape55-5" v:mID="55" v:groupContext="shape" transform="translate(63.6442,-5.50659) rotate(45)">
				<title>Blad.55</title>
				<path d="M0 77.98 L4.01 77.98" class="st2"/>
			</g>
			<g id="shape56-8" v:mID="56" v:groupContext="shape" transform="translate(60.8096,-5.50659) rotate(45)">
				<title>Blad.56</title>
				<path d="M0 77.98 L8.02 77.98" class="st2"/>
			</g>
			<g id="shape57-11" v:mID="57" v:groupContext="shape" transform="translate(57.975,-5.50659) rotate(45)">
				<title>Blad.57</title>
				<path d="M0 77.98 L12.03 77.98" class="st2"/>
			</g>
			<g id="shape58-14" v:mID="58" v:groupContext="shape" transform="translate(55.1403,-5.50659) rotate(45)">
				<title>Blad.58</title>
				<path d="M0 77.98 L16.04 77.98" class="st2"/>
			</g>
			<g id="shape59-17" v:mID="59" v:groupContext="shape" transform="translate(55.1403,-2.67195) rotate(45)">
				<title>Blad.59</title>
				<path d="M0 77.98 L16.04 77.98" class="st2"/>
			</g>
			<g id="shape60-20" v:mID="60" v:groupContext="shape" transform="translate(55.1403,0.162699) rotate(45)">
				<title>Blad.60</title>
				<path d="M0 77.98 L16.04 77.98" class="st2"/>
			</g>
			<g id="shape61-23" v:mID="61" v:groupContext="shape" transform="translate(55.1403,2.99734) rotate(45)">
				<title>Blad.61</title>
				<path d="M0 77.98 L16.04 77.98" class="st2"/>
			</g>
			<g id="shape62-26" v:mID="62" v:groupContext="shape" transform="translate(55.1403,5.83199) rotate(45)">
				<title>Blad.62</title>
				<path d="M0 77.98 L16.04 77.98" class="st2"/>
			</g>
			<g id="shape63-29" v:mID="63" v:groupContext="shape" transform="translate(55.1403,8.66664) rotate(45)">
				<title>Blad.63</title>
				<path d="M0 77.98 L16.04 77.98" class="st2"/>
			</g>
			<g id="shape64-32" v:mID="64" v:groupContext="shape" transform="translate(55.1403,11.5013) rotate(45)">
				<title>Blad.64</title>
				<path d="M0 77.98 L16.04 77.98" class="st2"/>
			</g>
			<g id="shape65-35" v:mID="65" v:groupContext="shape" transform="translate(55.1403,14.3359) rotate(45)">
				<title>Blad.65</title>
				<path d="M0 77.98 L12.03 77.98" class="st2"/>
			</g>
			<g id="shape66-38" v:mID="66" v:groupContext="shape" transform="translate(55.1403,17.1706) rotate(45)">
				<title>Blad.66</title>
				<path d="M0 77.98 L8.02 77.98" class="st2"/>
			</g>
			<g id="shape67-41" v:mID="67" v:groupContext="shape" transform="translate(55.1403,20.0052) rotate(45)">
				<title>Blad.67</title>
				<path d="M0 77.98 L4.01 77.98" class="st2"/>
			</g>
		</g>
		<g id="shape68-44" v:mID="68" v:groupContext="shape" transform="translate(11.7136,-43.3546)">
			<title>Ligger, 2 pt.68</title>
			<path d="M0 77.98 L70.87 77.98" class="st3"/>
		</g>
		<g id="shape69-47" v:mID="69" v:groupContext="shape" transform="translate(82.5797,-43.3546)">
			<title>Ligger, 2 pt.69</title>
			<path d="M0 77.98 L70.87 77.98" class="st3"/>
		</g>
		<g id="group70-50" transform="translate(143.525,-29.1814)" v:mID="70" v:groupContext="group">
			<title>Rol.70</title>
			<g id="group71-51" transform="translate(0.261477,-2.83465)" v:mID="71" v:groupContext="group">
				<title>Scharnier</title>
				<g id="shape72-52" v:mID="72" v:groupContext="shape" transform="translate(2.79729,0)">
					<title>Blad.72</title>
					<path d="M0 77.98 L13.99 77.98 L6.99 66.64 L0 77.98 Z" class="st4"/>
				</g>
				<g id="shape73-54" v:mID="73" v:groupContext="shape" transform="translate(2.79729,155.96) rotate(180)">
					<title>Blad.73</title>
					<path d="M0 77.98 L2.8 77.98" class="st2"/>
				</g>
				<g id="shape74-57" v:mID="74" v:groupContext="shape" transform="translate(16.7838,0)">
					<title>Blad.74</title>
					<path d="M0 77.98 L2.8 77.98" class="st2"/>
				</g>
			</g>
			<g id="shape75-60" v:mID="75" v:groupContext="shape">
				<title>Blad.75</title>
				<path d="M0 77.98 L19.84 77.98" class="st2"/>
			</g>
		</g>
		<g id="group76-63" transform="translate(184.627,-29.1814)" v:mID="76" v:groupContext="group">
			<title>Inklemming.76</title>
			<g id="shape77-64" v:mID="77" v:groupContext="shape" transform="translate(89.3188,49.6337) rotate(90)">
				<title>Blad.77</title>
				<path d="M0 77.98 L28.35 77.98" class="st1"/>
			</g>
			<g id="shape78-67" v:mID="78" v:groupContext="shape" transform="translate(63.6442,-5.50659) rotate(45)">
				<title>Blad.78</title>
				<path d="M0 77.98 L4.01 77.98" class="st2"/>
			</g>
			<g id="shape79-70" v:mID="79" v:groupContext="shape" transform="translate(60.8096,-5.50659) rotate(45)">
				<title>Blad.79</title>
				<path d="M0 77.98 L8.02 77.98" class="st2"/>
			</g>
			<g id="shape80-73" v:mID="80" v:groupContext="shape" transform="translate(57.975,-5.50659) rotate(45)">
				<title>Blad.80</title>
				<path d="M0 77.98 L12.03 77.98" class="st2"/>
			</g>
			<g id="shape81-76" v:mID="81" v:groupContext="shape" transform="translate(55.1403,-5.50659) rotate(45)">
				<title>Blad.81</title>
				<path d="M0 77.98 L16.04 77.98" class="st2"/>
			</g>
			<g id="shape82-79" v:mID="82" v:groupContext="shape" transform="translate(55.1403,-2.67195) rotate(45)">
				<title>Blad.82</title>
				<path d="M0 77.98 L16.04 77.98" class="st2"/>
			</g>
			<g id="shape83-82" v:mID="83" v:groupContext="shape" transform="translate(55.1403,0.162699) rotate(45)">
				<title>Blad.83</title>
				<path d="M0 77.98 L16.04 77.98" class="st2"/>
			</g>
			<g id="shape84-85" v:mID="84" v:groupContext="shape" transform="translate(55.1403,2.99734) rotate(45)">
				<title>Blad.84</title>
				<path d="M0 77.98 L16.04 77.98" class="st2"/>
			</g>
			<g id="shape85-88" v:mID="85" v:groupContext="shape" transform="translate(55.1403,5.83199) rotate(45)">
				<title>Blad.85</title>
				<path d="M0 77.98 L16.04 77.98" class="st2"/>
			</g>
			<g id="shape86-91" v:mID="86" v:groupContext="shape" transform="translate(55.1403,8.66664) rotate(45)">
				<title>Blad.86</title>
				<path d="M0 77.98 L16.04 77.98" class="st2"/>
			</g>
			<g id="shape87-94" v:mID="87" v:groupContext="shape" transform="translate(55.1403,11.5013) rotate(45)">
				<title>Blad.87</title>
				<path d="M0 77.98 L16.04 77.98" class="st2"/>
			</g>
			<g id="shape88-97" v:mID="88" v:groupContext="shape" transform="translate(55.1403,14.3359) rotate(45)">
				<title>Blad.88</title>
				<path d="M0 77.98 L12.03 77.98" class="st2"/>
			</g>
			<g id="shape89-100" v:mID="89" v:groupContext="shape" transform="translate(55.1403,17.1706) rotate(45)">
				<title>Blad.89</title>
				<path d="M0 77.98 L8.02 77.98" class="st2"/>
			</g>
			<g id="shape90-103" v:mID="90" v:groupContext="shape" transform="translate(55.1403,20.0052) rotate(45)">
				<title>Blad.90</title>
				<path d="M0 77.98 L4.01 77.98" class="st2"/>
			</g>
		</g>
		<g id="shape91-106" v:mID="91" v:groupContext="shape" transform="translate(195.966,-43.3546)">
			<title>Ligger, 2 pt.91</title>
			<path d="M0 77.98 L70.87 77.98" class="st3"/>
		</g>
		<g id="shape92-109" v:mID="92" v:groupContext="shape" transform="translate(266.832,-43.3546)">
			<title>Ligger, 2 pt.92</title>
			<path d="M0 77.98 L70.87 77.98" class="st3"/>
		</g>
		<g id="shape99-112" v:mID="99" v:groupContext="shape" transform="translate(415.678,34.6256) rotate(90)">
			<title>Kracht.99</title>
			<path d="M7.55 77.98 L7.91 77.98 L28.35 77.98" class="st5"/>
		</g>
		<g id="shape100-118" v:mID="100" v:groupContext="shape" transform="translate(259.718,34.6256) rotate(-90)">
			<title>verplaatsing.100</title>
			<path d="M0 77.98 L28.35 77.98" class="st7"/>
		</g>
		<g id="shape101-124" v:mID="101" v:groupContext="shape" transform="translate(342.658,-50.4412)">
			<title>Blad.101</title>
			<desc>w = 0</desc>
			<v:textBlock v:margins="rect(4,4,4,4)" v:tabSpace="42.5197"/>
			<v:textRect cx="21.2598" cy="70.8936" width="42.52" height="14.1732"/>
			<rect x="0" y="63.8069" width="42.5197" height="14.1732" class="st9"/>
			<text x="9.37" y="74.49" class="st10" v:langID="1043"><v:paragraph v:horizAlign="1"/><v:tabList/>w <tspan class="st11">= 0</tspan></text>		</g>
		<g id="shape201-128" v:mID="201" v:groupContext="shape" transform="translate(344.784,-22.0948)">
			<title>Blad.201</title>
			<desc>Bv = ?</desc>
			<v:textBlock v:margins="rect(4,4,4,4)" v:tabSpace="42.5197"/>
			<v:textRect cx="21.2598" cy="70.8936" width="42.52" height="14.1732"/>
			<rect x="0" y="63.8069" width="42.5197" height="14.1732" class="st9"/>
			<text x="8.1" y="74.49" class="st10" v:langID="1043"><v:paragraph v:horizAlign="1"/><v:tabList/>B<tspan dy="-0.279em"
						class="st12" v:baseFontSize="12">v</tspan><tspan dy="0.181em" class="st13"> </tspan><tspan class="st11">= ?</tspan></text>		</g>
		<g id="shape214-134" v:mID="214" v:groupContext="shape" transform="translate(210.139,-0.834919)">
			<title>Blad.214</title>
			<desc>w(Bv) = 0→ Bv</desc>
			<v:textBlock v:margins="rect(4,4,4,4)" v:tabSpace="42.5197"/>
			<v:textRect cx="56.6929" cy="70.8936" width="113.39" height="14.1732"/>
			<rect x="0" y="63.8069" width="113.386" height="14.1732" class="st9"/>
			<text x="22.08" y="74.49" class="st10" v:langID="1043"><v:paragraph v:horizAlign="1"/><v:tabList/>w<tspan class="st11">(</tspan>B<tspan
						dy="-0.279em" class="st12" v:baseFontSize="12">v</tspan><tspan dy="0.181em" class="st11">)</tspan> <tspan
						class="st11">= </tspan><tspan class="st11">0→ </tspan>B<tspan dy="-0.279em" class="st12"
						v:baseFontSize="12">v</tspan></text>		</g>
	</g>
</svg>
