<?xml version="1.0" encoding="UTF-8" standalone="no"?>
<!DOCTYPE svg PUBLIC "-//W3C//DTD SVG 1.1//EN" "http://www.w3.org/Graphics/SVG/1.1/DTD/svg11.dtd">
<!-- Gegenereerd door Microsoft Visio, SVG Export optie2.svg Pagina-1 -->
<svg xmlns="http://www.w3.org/2000/svg" xmlns:xlink="http://www.w3.org/1999/xlink" xmlns:ev="http://www.w3.org/2001/xml-events"
		xmlns:v="http://schemas.microsoft.com/visio/2003/SVGExtensions/" width="3.51081in" height="2.92693in"
		viewBox="0 0 252.778 210.739" xml:space="preserve" color-interpolation-filters="sRGB" class="st10">
	<v:documentProperties v:langID="1043" v:metric="true" v:viewMarkup="false"/>

	<style type="text/css">
	<![CDATA[
		.st1 {stroke:#000000;stroke-linecap:round;stroke-linejoin:round;stroke-width:2}
		.st2 {stroke:#000000;stroke-linecap:round;stroke-linejoin:round;stroke-width:1.2}
		.st3 {stroke:#000000;stroke-linecap:round;stroke-linejoin:round;stroke-width:0.75}
		.st4 {fill:#ffffff;stroke:#000000;stroke-linecap:round;stroke-linejoin:round;stroke-width:0.75}
		.st5 {fill:#00cc99;stroke:#000000;stroke-linecap:round;stroke-linejoin:round;stroke-width:0.75}
		.st6 {fill:none;stroke:none;stroke-linecap:round;stroke-linejoin:round;stroke-width:0.24}
		.st7 {fill:#000000;font-family:Times New Roman;font-size:1.00001em}
		.st8 {marker-start:url(#mrkr5-113);stroke:#800000;stroke-linecap:round;stroke-linejoin:round;stroke-width:2}
		.st9 {fill:#800000;fill-opacity:1;stroke:#800000;stroke-opacity:1;stroke-width:0.44247787610619}
		.st10 {fill:none;fill-rule:evenodd;font-size:12px;overflow:visible;stroke-linecap:square;stroke-miterlimit:3}
	]]>
	</style>

	<defs id="Markers">
		<g id="lend5">
			<path d="M 2 1 L 0 0 L 1.98117 -0.993387 C 1.67173 -0.364515 1.67301 0.372641 1.98465 1.00043 " style="stroke:none"/>
		</g>
		<marker id="mrkr5-113" class="st9" v:arrowType="5" v:arrowSize="2" v:setback="3.775" refX="3.775" orient="auto"
				markerUnits="strokeWidth" overflow="visible">
			<use xlink:href="#lend5" transform="scale(2.26) "/>
		</marker>
	</defs>
	<g v:mID="0" v:index="1" v:groupContext="foregroundPage">
		<title>Pagina-1</title>
		<v:pageProperties v:drawingScale="0.0393701" v:pageScale="0.0393701" v:drawingUnits="24" v:shadowOffsetX="8.50394"
				v:shadowOffsetY="-8.50394"/>
		<g id="shape1247-1" v:mID="1247" v:groupContext="shape" transform="translate(-142.332,125.099) rotate(-90)">
			<title>Ligger, 2 pt.1247</title>
			<path d="M0 210.74 L113.39 210.74" class="st1"/>
		</g>
		<g id="group1248-4" transform="translate(0.375,-0.599999)" v:mID="1248" v:groupContext="group">
			<title>Inklemming.1248</title>
			<g id="shape1249-5" v:mID="1249" v:groupContext="shape" transform="translate(222.077,182.392) rotate(90)">
				<title>Blad.1249</title>
				<path d="M0 210.74 L28.35 210.74" class="st2"/>
			</g>
			<g id="shape1250-8" v:mID="1250" v:groupContext="shape" transform="translate(157.519,33.3775) rotate(45)">
				<title>Blad.1250</title>
				<path d="M0 210.74 L4.01 210.74" class="st3"/>
			</g>
			<g id="shape1251-11" v:mID="1251" v:groupContext="shape" transform="translate(154.684,33.3775) rotate(45)">
				<title>Blad.1251</title>
				<path d="M0 210.74 L8.02 210.74" class="st3"/>
			</g>
			<g id="shape1252-14" v:mID="1252" v:groupContext="shape" transform="translate(151.849,33.3775) rotate(45)">
				<title>Blad.1252</title>
				<path d="M0 210.74 L12.03 210.74" class="st3"/>
			</g>
			<g id="shape1253-17" v:mID="1253" v:groupContext="shape" transform="translate(149.015,33.3775) rotate(45)">
				<title>Blad.1253</title>
				<path d="M0 210.74 L16.04 210.74" class="st3"/>
			</g>
			<g id="shape1254-20" v:mID="1254" v:groupContext="shape" transform="translate(149.015,36.2122) rotate(45)">
				<title>Blad.1254</title>
				<path d="M0 210.74 L16.04 210.74" class="st3"/>
			</g>
			<g id="shape1255-23" v:mID="1255" v:groupContext="shape" transform="translate(149.015,39.0468) rotate(45)">
				<title>Blad.1255</title>
				<path d="M0 210.74 L16.04 210.74" class="st3"/>
			</g>
			<g id="shape1256-26" v:mID="1256" v:groupContext="shape" transform="translate(149.015,41.8814) rotate(45)">
				<title>Blad.1256</title>
				<path d="M0 210.74 L16.04 210.74" class="st3"/>
			</g>
			<g id="shape1257-29" v:mID="1257" v:groupContext="shape" transform="translate(149.015,44.7161) rotate(45)">
				<title>Blad.1257</title>
				<path d="M0 210.74 L16.04 210.74" class="st3"/>
			</g>
			<g id="shape1258-32" v:mID="1258" v:groupContext="shape" transform="translate(149.015,47.5507) rotate(45)">
				<title>Blad.1258</title>
				<path d="M0 210.74 L16.04 210.74" class="st3"/>
			</g>
			<g id="shape1259-35" v:mID="1259" v:groupContext="shape" transform="translate(149.015,50.3854) rotate(45)">
				<title>Blad.1259</title>
				<path d="M0 210.74 L16.04 210.74" class="st3"/>
			</g>
			<g id="shape1260-38" v:mID="1260" v:groupContext="shape" transform="translate(149.015,53.22) rotate(45)">
				<title>Blad.1260</title>
				<path d="M0 210.74 L12.03 210.74" class="st3"/>
			</g>
			<g id="shape1261-41" v:mID="1261" v:groupContext="shape" transform="translate(149.015,56.0547) rotate(45)">
				<title>Blad.1261</title>
				<path d="M0 210.74 L8.02 210.74" class="st3"/>
			</g>
			<g id="shape1262-44" v:mID="1262" v:groupContext="shape" transform="translate(149.015,58.8893) rotate(45)">
				<title>Blad.1262</title>
				<path d="M0 210.74 L4.01 210.74" class="st3"/>
			</g>
		</g>
		<g id="shape1263-47" v:mID="1263" v:groupContext="shape" transform="translate(11.7136,-14.7732)">
			<title>Ligger, 2 pt.1263</title>
			<path d="M0 210.74 L56.69 210.74" class="st1"/>
		</g>
		<g id="shape1264-50" v:mID="1264" v:groupContext="shape" transform="translate(68.4065,-14.7732)">
			<title>Ligger, 2 pt.1264</title>
			<path d="M0 210.74 L56.69 210.74" class="st1"/>
		</g>
		<g id="shape1265-53" v:mID="1265" v:groupContext="shape" transform="translate(125.099,-14.7732)">
			<title>Ligger, 2 pt.1265</title>
			<path d="M0 210.74 L56.69 210.74" class="st1"/>
		</g>
		<g id="shape1266-56" v:mID="1266" v:groupContext="shape" transform="translate(181.792,-14.7732)">
			<title>Ligger, 2 pt.1266</title>
			<path d="M0 210.74 L56.69 210.74" class="st1"/>
		</g>
		<g id="shape1267-59" v:mID="1267" v:groupContext="shape" transform="translate(122.973,-12.6472)">
			<title>Scharnier.1267</title>
			<ellipse cx="2.12598" cy="208.613" rx="2.12598" ry="2.12598" class="st4"/>
		</g>
		<g id="shape1269-61" v:mID="1269" v:groupContext="shape" transform="translate(27.7464,195.966) rotate(-90)">
			<title>Ligger, 2 pt.1269</title>
			<path d="M0 210.74 L113.39 210.74" class="st1"/>
		</g>
		<g id="group1270-64" transform="translate(78.3278,211.114) rotate(180)" v:mID="1270" v:groupContext="group">
			<title>Scharnieroplegging.1270</title>
			<g id="shape1271-65" v:mID="1271" v:groupContext="shape" transform="translate(2.83465,0)">
				<title>Blad.1271</title>
				<path d="M0 210.74 L14.17 210.74 L7.09 199.4 L0 210.74 Z" class="st5"/>
			</g>
			<g id="shape1272-67" v:mID="1272" v:groupContext="shape" transform="translate(2.83465,421.478) rotate(180)">
				<title>Blad.1272</title>
				<path d="M0 210.74 L2.83 210.74" class="st3"/>
			</g>
			<g id="shape1273-70" v:mID="1273" v:groupContext="shape" transform="translate(17.0079,0)">
				<title>Blad.1273</title>
				<path d="M0 210.74 L2.83 210.74" class="st3"/>
			</g>
		</g>
		<g id="group1274-73" transform="translate(248.407,281.98) rotate(180)" v:mID="1274" v:groupContext="group">
			<title>Scharnieroplegging.1274</title>
			<g id="shape1275-74" v:mID="1275" v:groupContext="shape" transform="translate(2.83465,0)">
				<title>Blad.1275</title>
				<path d="M0 210.74 L14.17 210.74 L7.09 199.4 L0 210.74 Z" class="st5"/>
			</g>
			<g id="shape1276-76" v:mID="1276" v:groupContext="shape" transform="translate(2.83465,421.478) rotate(180)">
				<title>Blad.1276</title>
				<path d="M0 210.74 L2.83 210.74" class="st3"/>
			</g>
			<g id="shape1277-79" v:mID="1277" v:groupContext="shape" transform="translate(17.0079,0)">
				<title>Blad.1277</title>
				<path d="M0 210.74 L2.83 210.74" class="st3"/>
			</g>
		</g>
		<g id="shape1278-82" v:mID="1278" v:groupContext="shape" transform="translate(236.359,-12.6472)">
			<title>Scharnier.1278</title>
			<ellipse cx="2.12598" cy="208.613" rx="2.12598" ry="2.12598" class="st4"/>
		</g>
		<g id="shape1279-84" v:mID="1279" v:groupContext="shape" transform="translate(11.7136,-14.7733)">
			<title>Punt A.1279</title>
			<desc>A</desc>
			<v:textBlock v:margins="rect(4,4,4,4)" v:tabSpace="42.5197"/>
			<v:textRect cx="7.08661" cy="203.652" width="14.18" height="14.1732"/>
			<rect x="0" y="196.566" width="14.1732" height="14.1732" class="st6"/>
			<text x="4" y="207.25" class="st7" v:langID="1043"><v:paragraph v:horizAlign="1"/><v:tabList/>A</text>		</g>
		<g id="shape1280-87" v:mID="1280" v:groupContext="shape" transform="translate(68.4065,-184.852)">
			<title>Punt A.1280</title>
			<desc>B</desc>
			<v:textBlock v:margins="rect(4,4,4,4)" v:tabSpace="42.5197"/>
			<v:textRect cx="7.08661" cy="203.652" width="14.18" height="14.1732"/>
			<rect x="0" y="196.566" width="14.1732" height="14.1732" class="st6"/>
			<text x="4" y="207.25" class="st7" v:langID="1043"><v:paragraph v:horizAlign="1"/><v:tabList/>B</text>		</g>
		<g id="shape1281-90" v:mID="1281" v:groupContext="shape" transform="translate(238.485,-113.986)">
			<title>Punt A.1281</title>
			<desc>C</desc>
			<v:textBlock v:margins="rect(4,4,4,4)" v:tabSpace="42.5197"/>
			<v:textRect cx="7.08661" cy="203.652" width="14.18" height="14.1732"/>
			<rect x="0" y="196.566" width="14.1732" height="14.1732" class="st6"/>
			<text x="4" y="207.25" class="st7" v:langID="1043"><v:paragraph v:horizAlign="1"/><v:tabList/>C</text>		</g>
		<g id="shape1282-93" v:mID="1282" v:groupContext="shape" transform="translate(61.3199,-0.599999)">
			<title>Punt A.1282</title>
			<desc>D</desc>
			<v:textBlock v:margins="rect(4,4,4,4)" v:tabSpace="42.5197"/>
			<v:textRect cx="7.08661" cy="203.652" width="14.18" height="14.1732"/>
			<rect x="0" y="196.566" width="14.1732" height="14.1732" class="st6"/>
			<text x="4" y="207.25" class="st7" v:langID="1043"><v:paragraph v:horizAlign="1"/><v:tabList/>D</text>		</g>
		<g id="shape1283-96" v:mID="1283" v:groupContext="shape" transform="translate(118.013,-0.600023)">
			<title>Punt A.1283</title>
			<desc>E</desc>
			<v:textBlock v:margins="rect(4,4,4,4)" v:tabSpace="42.5197"/>
			<v:textRect cx="7.08661" cy="203.652" width="14.18" height="14.1732"/>
			<rect x="0" y="196.566" width="14.1732" height="14.1732" class="st6"/>
			<text x="4" y="207.25" class="st7" v:langID="1043"><v:paragraph v:horizAlign="1"/><v:tabList/>E</text>		</g>
		<g id="shape1284-99" v:mID="1284" v:groupContext="shape" transform="translate(174.706,-0.600023)">
			<title>Punt A.1284</title>
			<desc>F</desc>
			<v:textBlock v:margins="rect(4,4,4,4)" v:tabSpace="42.5197"/>
			<v:textRect cx="7.08661" cy="203.652" width="14.18" height="14.1732"/>
			<rect x="0" y="196.566" width="14.1732" height="14.1732" class="st6"/>
			<text x="4" y="207.25" class="st7" v:langID="1043"><v:paragraph v:horizAlign="1"/><v:tabList/>F</text>		</g>
		<g id="shape1285-102" v:mID="1285" v:groupContext="shape" transform="translate(231.399,-0.600023)">
			<title>Punt A.1285</title>
			<desc>G</desc>
			<v:textBlock v:margins="rect(4,4,4,4)" v:tabSpace="42.5197"/>
			<v:textRect cx="7.08661" cy="203.652" width="14.18" height="14.1732"/>
			<rect x="0" y="196.566" width="14.1732" height="14.1732" class="st6"/>
			<text x="4" y="207.25" class="st7" v:langID="1043"><v:paragraph v:horizAlign="1"/><v:tabList/>G</text>		</g>
		<g id="shape1368-105" v:mID="1368" v:groupContext="shape" transform="translate(54.2333,-85.6394)">
			<title>Punt A.1368</title>
			<desc>D</desc>
			<v:textBlock v:margins="rect(4,4,4,4)" v:tabSpace="42.5197"/>
			<v:textRect cx="7.08661" cy="203.652" width="14.18" height="14.1732"/>
			<rect x="0" y="196.566" width="14.1732" height="14.1732" class="st6"/>
			<text x="4" y="207.25" class="st7" v:langID="1043"><v:paragraph v:horizAlign="1"/><v:tabList/>D</text>		</g>
		<g id="shape1369-108" v:mID="1369" v:groupContext="shape" transform="translate(-142.332,153.446) rotate(-90)">
			<title>Kracht.1369</title>
			<path d="M7.55 210.74 L7.91 210.74 L28.35 210.74" class="st8"/>
		</g>
		<g id="shape1370-114" v:mID="1370" v:groupContext="shape" transform="translate(279.145,167.619) rotate(90)">
			<title>Kracht.1370</title>
			<path d="M7.55 210.74 L7.91 210.74 L28.35 210.74" class="st8"/>
		</g>
	</g>
</svg>
