<?xml version="1.0" encoding="UTF-8" standalone="no"?>
<!DOCTYPE svg PUBLIC "-//W3C//DTD SVG 1.1//EN" "http://www.w3.org/Graphics/SVG/1.1/DTD/svg11.dtd">
<!-- Gegenereerd door Microsoft Visio, SVG Export SB2.svg Pagina-1 -->
<svg xmlns="http://www.w3.org/2000/svg" xmlns:xlink="http://www.w3.org/1999/xlink" xmlns:ev="http://www.w3.org/2001/xml-events"
		xmlns:v="http://schemas.microsoft.com/visio/2003/SVGExtensions/" width="5.20201in" height="3.62721in"
		viewBox="0 0 374.545 261.159" xml:space="preserve" color-interpolation-filters="sRGB" class="st12">
	<v:documentProperties v:langID="1043" v:metric="true" v:viewMarkup="false"/>

	<style type="text/css">
	<![CDATA[
		.st1 {stroke:#000000;stroke-linecap:round;stroke-linejoin:round;stroke-width:2}
		.st2 {fill:none;stroke:none;stroke-linecap:round;stroke-linejoin:round;stroke-width:0.24}
		.st3 {fill:#000000;font-family:Times New Roman;font-size:1.00001em}
		.st4 {marker-end:url(#mrkr5-51);stroke:#00cc99;stroke-linecap:round;stroke-linejoin:round;stroke-width:2}
		.st5 {fill:#00cc99;fill-opacity:1;stroke:#00cc99;stroke-opacity:1;stroke-width:0.44247787610619}
		.st6 {marker-start:url(#mrkr5-57);stroke:#00cc99;stroke-linecap:round;stroke-linejoin:round;stroke-width:2}
		.st7 {marker-start:url(#mrkr5-78);stroke:#31859b;stroke-linecap:round;stroke-linejoin:round;stroke-width:2}
		.st8 {fill:#31859b;fill-opacity:1;stroke:#31859b;stroke-opacity:1;stroke-width:0.44247787610619}
		.st9 {marker-start:url(#mrkr5-149);stroke:#800000;stroke-linecap:round;stroke-linejoin:round;stroke-width:0.75}
		.st10 {fill:#800000;fill-opacity:1;stroke:#800000;stroke-opacity:1;stroke-width:0.22935779816514}
		.st11 {stroke:#800000;stroke-linecap:round;stroke-linejoin:round;stroke-width:0.75}
		.st12 {fill:none;fill-rule:evenodd;font-size:12px;overflow:visible;stroke-linecap:square;stroke-miterlimit:3}
	]]>
	</style>

	<defs id="Markers">
		<g id="lend5">
			<path d="M 2 1 L 0 0 L 1.98117 -0.993387 C 1.67173 -0.364515 1.67301 0.372641 1.98465 1.00043 " style="stroke:none"/>
		</g>
		<marker id="mrkr5-51" class="st5" v:arrowType="5" v:arrowSize="2" v:setback="3.775" refX="-3.775" orient="auto"
				markerUnits="strokeWidth" overflow="visible">
			<use xlink:href="#lend5" transform="scale(-2.26,-2.26) "/>
		</marker>
		<marker id="mrkr5-57" class="st5" v:arrowType="5" v:arrowSize="2" v:setback="3.775" refX="3.775" orient="auto"
				markerUnits="strokeWidth" overflow="visible">
			<use xlink:href="#lend5" transform="scale(2.26) "/>
		</marker>
		<marker id="mrkr5-78" class="st8" v:arrowType="5" v:arrowSize="2" v:setback="3.775" refX="3.775" orient="auto"
				markerUnits="strokeWidth" overflow="visible">
			<use xlink:href="#lend5" transform="scale(2.26) "/>
		</marker>
		<marker id="mrkr5-149" class="st10" v:arrowType="5" v:arrowSize="2" v:setback="7.15" refX="7.15" orient="auto"
				markerUnits="strokeWidth" overflow="visible">
			<use xlink:href="#lend5" transform="scale(4.36) "/>
		</marker>
	</defs>
	<g v:mID="0" v:index="1" v:groupContext="foregroundPage">
		<title>Pagina-1</title>
		<v:pageProperties v:drawingScale="0.0393701" v:pageScale="0.0393701" v:drawingUnits="24" v:shadowOffsetX="8.50394"
				v:shadowOffsetY="-8.50394"/>
		<g id="shape1950-1" v:mID="1950" v:groupContext="shape" transform="translate(-166.013,151.839) rotate(-90)">
			<title>Ligger, 2 pt.1950</title>
			<path d="M0 261.16 L113.39 261.16" class="st1"/>
		</g>
		<g id="shape1951-4" v:mID="1951" v:groupContext="shape" transform="translate(38.4535,-38.4535)">
			<title>Ligger, 2 pt.1951</title>
			<path d="M0 261.16 L56.69 261.16" class="st1"/>
		</g>
		<g id="shape1952-7" v:mID="1952" v:groupContext="shape" transform="translate(95.1464,-38.4535)">
			<title>Ligger, 2 pt.1952</title>
			<path d="M0 261.16 L56.69 261.16" class="st1"/>
		</g>
		<g id="shape1953-10" v:mID="1953" v:groupContext="shape" transform="translate(222.706,-38.4535)">
			<title>Ligger, 2 pt.1953</title>
			<path d="M0 261.16 L56.69 261.16" class="st1"/>
		</g>
		<g id="shape1954-13" v:mID="1954" v:groupContext="shape" transform="translate(279.398,-38.4535)">
			<title>Ligger, 2 pt.1954</title>
			<path d="M0 261.16 L56.69 261.16" class="st1"/>
		</g>
		<g id="shape1955-16" v:mID="1955" v:groupContext="shape" transform="translate(74.9323,151.839) rotate(-90)">
			<title>Ligger, 2 pt.1955</title>
			<path d="M0 261.16 L113.39 261.16" class="st1"/>
		</g>
		<g id="shape1956-19" v:mID="1956" v:groupContext="shape" transform="translate(38.4535,-38.4535)">
			<title>Punt A.1956</title>
			<desc>A</desc>
			<v:textBlock v:margins="rect(4,4,4,4)" v:tabSpace="42.5197"/>
			<v:textRect cx="7.08661" cy="254.072" width="14.18" height="14.1732"/>
			<rect x="0" y="246.986" width="14.1732" height="14.1732" class="st2"/>
			<text x="4" y="257.67" class="st3" v:langID="1043"><v:paragraph v:horizAlign="1"/><v:tabList/>A</text>		</g>
		<g id="shape1957-22" v:mID="1957" v:groupContext="shape" transform="translate(88.0598,-24.2803)">
			<title>Punt A.1957</title>
			<desc>D</desc>
			<v:textBlock v:margins="rect(4,4,4,4)" v:tabSpace="42.5197"/>
			<v:textRect cx="7.08661" cy="254.072" width="14.18" height="14.1732"/>
			<rect x="0" y="246.986" width="14.1732" height="14.1732" class="st2"/>
			<text x="4" y="257.67" class="st3" v:langID="1043"><v:paragraph v:horizAlign="1"/><v:tabList/>D</text>		</g>
		<g id="shape1958-25" v:mID="1958" v:groupContext="shape" transform="translate(222.706,-24.2803)">
			<title>Punt A.1958</title>
			<desc>E</desc>
			<v:textBlock v:margins="rect(4,4,4,4)" v:tabSpace="42.5197"/>
			<v:textRect cx="7.08661" cy="254.072" width="14.18" height="14.1732"/>
			<rect x="0" y="246.986" width="14.1732" height="14.1732" class="st2"/>
			<text x="4" y="257.67" class="st3" v:langID="1043"><v:paragraph v:horizAlign="1"/><v:tabList/>E</text>		</g>
		<g id="shape1959-28" v:mID="1959" v:groupContext="shape" transform="translate(80.9732,-109.32)">
			<title>Punt A.1959</title>
			<desc>D</desc>
			<v:textBlock v:margins="rect(4,4,4,4)" v:tabSpace="42.5197"/>
			<v:textRect cx="7.08661" cy="254.072" width="14.18" height="14.1732"/>
			<rect x="0" y="246.986" width="14.1732" height="14.1732" class="st2"/>
			<text x="4" y="257.67" class="st3" v:langID="1043"><v:paragraph v:horizAlign="1"/><v:tabList/>D</text>		</g>
		<g id="shape1960-31" v:mID="1960" v:groupContext="shape" transform="translate(80.9732,-208.532)">
			<title>Punt A.1960</title>
			<desc>B</desc>
			<v:textBlock v:margins="rect(4,4,4,4)" v:tabSpace="42.5197"/>
			<v:textRect cx="7.08661" cy="254.072" width="14.18" height="14.1732"/>
			<rect x="0" y="246.986" width="14.1732" height="14.1732" class="st2"/>
			<text x="4" y="257.67" class="st3" v:langID="1043"><v:paragraph v:horizAlign="1"/><v:tabList/>B</text>		</g>
		<g id="shape1961-34" v:mID="1961" v:groupContext="shape" transform="translate(321.918,-208.532)">
			<title>Punt A.1961</title>
			<desc>C</desc>
			<v:textBlock v:margins="rect(4,4,4,4)" v:tabSpace="42.5197"/>
			<v:textRect cx="7.08661" cy="254.072" width="14.18" height="14.1732"/>
			<rect x="0" y="246.986" width="14.1732" height="14.1732" class="st2"/>
			<text x="4" y="257.67" class="st3" v:langID="1043"><v:paragraph v:horizAlign="1"/><v:tabList/>C</text>		</g>
		<g id="shape1962-37" v:mID="1962" v:groupContext="shape" transform="translate(321.918,-109.32)">
			<title>Punt A.1962</title>
			<desc>G</desc>
			<v:textBlock v:margins="rect(4,4,4,4)" v:tabSpace="42.5197"/>
			<v:textRect cx="7.08661" cy="254.072" width="14.18" height="14.1732"/>
			<rect x="0" y="246.986" width="14.1732" height="14.1732" class="st2"/>
			<text x="4" y="257.67" class="st3" v:langID="1043"><v:paragraph v:horizAlign="1"/><v:tabList/>G</text>		</g>
		<g id="shape1963-40" v:mID="1963" v:groupContext="shape" transform="translate(321.918,-24.2803)">
			<title>Punt A.1963</title>
			<desc>G</desc>
			<v:textBlock v:margins="rect(4,4,4,4)" v:tabSpace="42.5197"/>
			<v:textRect cx="7.08661" cy="254.072" width="14.18" height="14.1732"/>
			<rect x="0" y="246.986" width="14.1732" height="14.1732" class="st2"/>
			<text x="4" y="257.67" class="st3" v:langID="1043"><v:paragraph v:horizAlign="1"/><v:tabList/>G</text>		</g>
		<g id="shape1964-43" v:mID="1964" v:groupContext="shape" transform="translate(137.666,-24.2803)">
			<title>Punt A.1964</title>
			<desc>E</desc>
			<v:textBlock v:margins="rect(4,4,4,4)" v:tabSpace="42.5197"/>
			<v:textRect cx="7.08661" cy="254.072" width="14.18" height="14.1732"/>
			<rect x="0" y="246.986" width="14.1732" height="14.1732" class="st2"/>
			<text x="4" y="257.67" class="st3" v:langID="1043"><v:paragraph v:horizAlign="1"/><v:tabList/>E</text>		</g>
		<g id="shape1965-46" v:mID="1965" v:groupContext="shape" transform="translate(-222.705,236.879) rotate(-90)">
			<title>Moment.1965</title>
			<path d="M-0 261.16 A14.1732 14.1732 0 0 1 14.17 246.99 A14.1732 14.1732 0 0 1 26.14 253.56 L26.24 253.91" class="st4"/>
		</g>
		<g id="shape1966-52" v:mID="1966" v:groupContext="shape" transform="translate(597.25,10.107) rotate(90)">
			<title>oplegreactie.1966</title>
			<path d="M7.55 261.16 L7.91 261.16 L28.35 261.16" class="st6"/>
		</g>
		<g id="shape1967-58" v:mID="1967" v:groupContext="shape" transform="translate(356.305,10.107) rotate(90)">
			<title>oplegreactie.1967</title>
			<path d="M7.55 261.16 L7.91 261.16 L28.35 261.16" class="st6"/>
		</g>
		<g id="shape1968-63" v:mID="1968" v:groupContext="shape" transform="translate(336.091,299.612) rotate(180)">
			<title>oplegreactie.1968</title>
			<path d="M7.55 261.16 L7.91 261.16 L28.35 261.16" class="st6"/>
		</g>
		<g id="shape1969-68" v:mID="1969" v:groupContext="shape" transform="translate(95.1464,299.612) rotate(180)">
			<title>oplegreactie.1969</title>
			<path d="M7.55 261.16 L7.91 261.16 L28.35 261.16" class="st6"/>
		</g>
		<g id="shape1970-73" v:mID="1970" v:groupContext="shape" transform="translate(95.1464,412.998) rotate(180)">
			<title>reactiekracht (scharnier/inwendig).1970</title>
			<path d="M7.55 261.16 L7.91 261.16 L28.35 261.16" class="st7"/>
		</g>
		<g id="shape1971-79" v:mID="1971" v:groupContext="shape" transform="translate(299.612,222.706) rotate(90)">
			<title>oplegreactie.1971</title>
			<path d="M7.55 261.16 L7.91 261.16 L28.35 261.16" class="st6"/>
		</g>
		<g id="shape1972-84" v:mID="1972" v:groupContext="shape" transform="translate(38.4535,483.865) rotate(180)">
			<title>oplegreactie.1972</title>
			<path d="M7.55 261.16 L7.91 261.16 L28.35 261.16" class="st6"/>
		</g>
		<g id="shape1973-89" v:mID="1973" v:groupContext="shape" transform="translate(356.305,151.839) rotate(90)">
			<title>reactiekracht (scharnier/inwendig).1973</title>
			<path d="M7.55 261.16 L7.91 261.16 L28.35 261.16" class="st7"/>
		</g>
		<g id="shape1974-94" v:mID="1974" v:groupContext="shape" transform="translate(336.091,412.998) rotate(180)">
			<title>reactiekracht (scharnier/inwendig).1974</title>
			<path d="M7.55 261.16 L7.91 261.16 L28.35 261.16" class="st7"/>
		</g>
		<g id="shape1975-99" v:mID="1975" v:groupContext="shape" transform="translate(597.25,151.839) rotate(90)">
			<title>reactiekracht (scharnier/inwendig).1975</title>
			<path d="M7.55 261.16 L7.91 261.16 L28.35 261.16" class="st7"/>
		</g>
		<g id="shape1976-104" v:mID="1976" v:groupContext="shape" transform="translate(222.706,483.865) rotate(180)">
			<title>reactiekracht (scharnier/inwendig).1976</title>
			<path d="M7.55 261.16 L7.91 261.16 L28.35 261.16" class="st7"/>
		</g>
		<g id="shape1977-109" v:mID="1977" v:groupContext="shape" transform="translate(483.864,222.706) rotate(90)">
			<title>reactiekracht (scharnier/inwendig).1977</title>
			<path d="M7.55 261.16 L7.91 261.16 L28.35 261.16" class="st7"/>
		</g>
		<g id="shape1978-114" v:mID="1978" v:groupContext="shape" transform="translate(151.839,-38.4535)">
			<title>reactiekracht (scharnier/inwendig).1978</title>
			<path d="M7.55 261.16 L7.91 261.16 L28.35 261.16" class="st7"/>
		</g>
		<g id="shape1979-119" v:mID="1979" v:groupContext="shape" transform="translate(-109.32,222.706) rotate(-90)">
			<title>reactiekracht (scharnier/inwendig).1979</title>
			<path d="M7.55 261.16 L7.91 261.16 L28.35 261.16" class="st7"/>
		</g>
		<g id="shape1980-124" v:mID="1980" v:groupContext="shape" transform="translate(95.1464,-45.5401)">
			<title>reactiekracht (scharnier/inwendig).1980</title>
			<path d="M7.55 261.16 L7.91 261.16 L28.35 261.16" class="st7"/>
		</g>
		<g id="shape1981-129" v:mID="1981" v:groupContext="shape" transform="translate(-166.013,222.706) rotate(-90)">
			<title>reactiekracht (scharnier/inwendig).1981</title>
			<path d="M7.55 261.16 L7.91 261.16 L28.35 261.16" class="st7"/>
		</g>
		<g id="shape1982-134" v:mID="1982" v:groupContext="shape" transform="translate(336.091,-38.4535)">
			<title>reactiekracht (scharnier/inwendig).1982</title>
			<path d="M7.55 261.16 L7.91 261.16 L28.35 261.16" class="st7"/>
		</g>
		<g id="shape1983-139" v:mID="1983" v:groupContext="shape" transform="translate(74.9323,222.705) rotate(-90)">
			<title>reactiekracht (scharnier/inwendig).1983</title>
			<path d="M7.55 261.16 L7.91 261.16 L28.35 261.16" class="st7"/>
		</g>
		<g id="shape1989-144" v:mID="1989" v:groupContext="shape" transform="translate(-19.5559,222.706) rotate(-90)">
			<title>Kracht.1989</title>
			<path d="M5.36 261.16 L5.72 261.16 L14.17 261.16" class="st9"/>
		</g>
		<g id="shape1991-150" v:mID="1991" v:groupContext="shape" transform="translate(56.0347,222.706) rotate(-90)">
			<title>Kracht.1991</title>
			<path d="M5.36 261.16 L5.72 261.16 L14.17 261.16" class="st9"/>
		</g>
		<g id="shape1992-155" v:mID="1992" v:groupContext="shape" transform="translate(37.137,222.706) rotate(-90)">
			<title>Kracht.1992</title>
			<path d="M5.36 261.16 L5.72 261.16 L14.17 261.16" class="st9"/>
		</g>
		<g id="shape1993-160" v:mID="1993" v:groupContext="shape" transform="translate(18.2394,222.706) rotate(-90)">
			<title>Kracht.1993</title>
			<path d="M5.36 261.16 L5.72 261.16 L14.17 261.16" class="st9"/>
		</g>
		<g id="shape1994-165" v:mID="1994" v:groupContext="shape" transform="translate(-0.658246,222.706) rotate(-90)">
			<title>Kracht.1994</title>
			<path d="M5.36 261.16 L5.72 261.16 L14.17 261.16" class="st9"/>
		</g>
		<g id="shape1995-170" v:mID="1995" v:groupContext="shape" transform="translate(336.091,469.691) rotate(180)">
			<title>Kracht.1995</title>
			<path d="M0 261.16 L113.39 261.16" class="st11"/>
		</g>
		<g id="shape1996-173" v:mID="1996" v:groupContext="shape" transform="translate(74.9323,222.706) rotate(-90)">
			<title>Kracht.1996</title>
			<path d="M5.36 261.16 L5.72 261.16 L14.17 261.16" class="st9"/>
		</g>
		<g id="shape1997-178" v:mID="1997" v:groupContext="shape" transform="translate(-38.4535,222.706) rotate(-90)">
			<title>Kracht.1997</title>
			<path d="M5.36 261.16 L5.72 261.16 L14.17 261.16" class="st9"/>
		</g>
	</g>
</svg>
