<?xml version="1.0" encoding="UTF-8" standalone="no"?>
<!DOCTYPE svg PUBLIC "-//W3C//DTD SVG 1.1//EN" "http://www.w3.org/Graphics/SVG/1.1/DTD/svg11.dtd">
<!-- Gegenereerd door Microsoft Visio, SVG Export transformed_structure.svg Pagina-1 -->
<svg xmlns="http://www.w3.org/2000/svg" xmlns:xlink="http://www.w3.org/1999/xlink" xmlns:ev="http://www.w3.org/2001/xml-events"
		xmlns:v="http://schemas.microsoft.com/visio/2003/SVGExtensions/" width="4.10491in" height="2.70464in"
		viewBox="0 0 295.553 194.734" xml:space="preserve" color-interpolation-filters="sRGB" class="st24">
	<v:documentProperties v:langID="1043" v:metric="true" v:viewMarkup="false"/>

	<style type="text/css">
	<![CDATA[
		.st1 {stroke:#000000;stroke-linecap:round;stroke-linejoin:round;stroke-width:2}
		.st2 {stroke:#000000;stroke-linecap:round;stroke-linejoin:round;stroke-width:1.2}
		.st3 {stroke:#000000;stroke-linecap:round;stroke-linejoin:round;stroke-width:0.75}
		.st4 {fill:#ffffff;stroke:#000000;stroke-linecap:round;stroke-linejoin:round;stroke-width:0.75}
		.st5 {fill:#00cc99;stroke:#000000;stroke-linecap:round;stroke-linejoin:round;stroke-width:0.75}
		.st6 {stroke:#000000;stroke-linecap:round;stroke-linejoin:round;stroke-width:0.25}
		.st7 {marker-end:url(#mrkr4-93);marker-start:url(#mrkr4-91);stroke:#000000;stroke-linecap:round;stroke-linejoin:round;stroke-width:0.25}
		.st8 {fill:#000000;fill-opacity:1;stroke:#000000;stroke-opacity:1;stroke-width:0.1219512195122}
		.st9 {fill:none;stroke:none;stroke-linecap:round;stroke-linejoin:round;stroke-width:0.75}
		.st10 {fill:#000000;font-family:Times New Roman;font-size:1.00001em}
		.st11 {fill:none;stroke:none;stroke-linecap:round;stroke-linejoin:round;stroke-width:0.24}
		.st12 {fill:#000000;font-family:Times New Roman;font-size:1.00001em;font-style:italic}
		.st13 {font-size:1em;font-style:normal}
		.st14 {font-size:1em}
		.st15 {baseline-shift:32.4941%;font-size:0.649882em;font-style:normal}
		.st16 {marker-start:url(#mrkr5-203);stroke:#800000;stroke-linecap:round;stroke-linejoin:round;stroke-width:2}
		.st17 {fill:#800000;fill-opacity:1;stroke:#800000;stroke-opacity:1;stroke-width:0.44247787610619}
		.st18 {baseline-shift:-32.4941%;font-size:0.649882em;font-style:normal}
		.st19 {marker-end:url(#mrkr1-215);stroke:#000000;stroke-linecap:butt;stroke-width:3}
		.st20 {fill:#000000;fill-opacity:1;stroke:#000000;stroke-opacity:1;stroke-width:0.67567567567568}
		.st21 {marker-start:url(#mrkr5-240);stroke:#800000;stroke-linecap:round;stroke-linejoin:round;stroke-width:0.75}
		.st22 {fill:#800000;fill-opacity:1;stroke:#800000;stroke-opacity:1;stroke-width:0.22935779816514}
		.st23 {stroke:#800000;stroke-linecap:round;stroke-linejoin:round;stroke-width:0.75}
		.st24 {fill:none;fill-rule:evenodd;font-size:12px;overflow:visible;stroke-linecap:square;stroke-miterlimit:3}
	]]>
	</style>

	<defs id="Markers">
		<g id="lend4">
			<path d="M 2 1 L 0 0 L 2 -1 L 2 1 " style="stroke:none"/>
		</g>
		<marker id="mrkr4-91" class="st8" v:arrowType="4" v:arrowSize="1" v:setback="14.96" refX="14.96" orient="auto"
				markerUnits="strokeWidth" overflow="visible">
			<use xlink:href="#lend4" transform="scale(8.2) "/>
		</marker>
		<marker id="mrkr4-93" class="st8" v:arrowType="4" v:arrowSize="1" v:setback="16.4" refX="-16.4" orient="auto"
				markerUnits="strokeWidth" overflow="visible">
			<use xlink:href="#lend4" transform="scale(-8.2,-8.2) "/>
		</marker>
		<g id="lend5">
			<path d="M 2 1 L 0 0 L 1.98117 -0.993387 C 1.67173 -0.364515 1.67301 0.372641 1.98465 1.00043 " style="stroke:none"/>
		</g>
		<marker id="mrkr5-203" class="st17" v:arrowType="5" v:arrowSize="2" v:setback="3.775" refX="3.775" orient="auto"
				markerUnits="strokeWidth" overflow="visible">
			<use xlink:href="#lend5" transform="scale(2.26) "/>
		</marker>
		<g id="lend1">
			<path d="M 1 -1 L 0 0 L 1 1 " style="stroke-linecap:round;stroke-linejoin:round;fill:none"/>
		</g>
		<marker id="mrkr1-215" class="st20" v:arrowType="1" v:arrowSize="0" orient="auto" markerUnits="strokeWidth"
				overflow="visible">
			<use xlink:href="#lend1" transform="scale(-1.48,-1.48) "/>
		</marker>
		<marker id="mrkr5-240" class="st22" v:arrowType="5" v:arrowSize="2" v:setback="7.15" refX="7.15" orient="auto"
				markerUnits="strokeWidth" overflow="visible">
			<use xlink:href="#lend5" transform="scale(4.36) "/>
		</marker>
	</defs>
	<g v:mID="0" v:index="1" v:groupContext="foregroundPage">
		<title>Pagina-1</title>
		<v:pageProperties v:drawingScale="0.0393701" v:pageScale="0.0393701" v:drawingUnits="24" v:shadowOffsetX="8.50394"
				v:shadowOffsetY="-8.50394"/>
		<g id="shape2079-1" v:mID="2079" v:groupContext="shape" transform="translate(-126.327,151.839) rotate(-90)">
			<title>Ligger, 2 pt.2079</title>
			<path d="M0 194.73 L113.39 194.73" class="st1"/>
		</g>
		<g id="group2080-4" transform="translate(0.375,-28.7214)" v:mID="2080" v:groupContext="group">
			<title>Inklemming.2080</title>
			<g id="shape2081-5" v:mID="2081" v:groupContext="shape" transform="translate(206.073,166.388) rotate(90)">
				<title>Blad.2081</title>
				<path d="M0 194.73 L28.35 194.73" class="st2"/>
			</g>
			<g id="shape2082-8" v:mID="2082" v:groupContext="shape" transform="translate(146.202,28.6898) rotate(45)">
				<title>Blad.2082</title>
				<path d="M0 194.73 L4.01 194.73" class="st3"/>
			</g>
			<g id="shape2083-11" v:mID="2083" v:groupContext="shape" transform="translate(143.367,28.6898) rotate(45)">
				<title>Blad.2083</title>
				<path d="M0 194.73 L8.02 194.73" class="st3"/>
			</g>
			<g id="shape2084-14" v:mID="2084" v:groupContext="shape" transform="translate(140.532,28.6898) rotate(45)">
				<title>Blad.2084</title>
				<path d="M0 194.73 L12.03 194.73" class="st3"/>
			</g>
			<g id="shape2085-17" v:mID="2085" v:groupContext="shape" transform="translate(137.698,28.6898) rotate(45)">
				<title>Blad.2085</title>
				<path d="M0 194.73 L16.04 194.73" class="st3"/>
			</g>
			<g id="shape2086-20" v:mID="2086" v:groupContext="shape" transform="translate(137.698,31.5245) rotate(45)">
				<title>Blad.2086</title>
				<path d="M0 194.73 L16.04 194.73" class="st3"/>
			</g>
			<g id="shape2087-23" v:mID="2087" v:groupContext="shape" transform="translate(137.698,34.3591) rotate(45)">
				<title>Blad.2087</title>
				<path d="M0 194.73 L16.04 194.73" class="st3"/>
			</g>
			<g id="shape2088-26" v:mID="2088" v:groupContext="shape" transform="translate(137.698,37.1937) rotate(45)">
				<title>Blad.2088</title>
				<path d="M0 194.73 L16.04 194.73" class="st3"/>
			</g>
			<g id="shape2089-29" v:mID="2089" v:groupContext="shape" transform="translate(137.698,40.0284) rotate(45)">
				<title>Blad.2089</title>
				<path d="M0 194.73 L16.04 194.73" class="st3"/>
			</g>
			<g id="shape2090-32" v:mID="2090" v:groupContext="shape" transform="translate(137.698,42.863) rotate(45)">
				<title>Blad.2090</title>
				<path d="M0 194.73 L16.04 194.73" class="st3"/>
			</g>
			<g id="shape2091-35" v:mID="2091" v:groupContext="shape" transform="translate(137.698,45.6977) rotate(45)">
				<title>Blad.2091</title>
				<path d="M0 194.73 L16.04 194.73" class="st3"/>
			</g>
			<g id="shape2092-38" v:mID="2092" v:groupContext="shape" transform="translate(137.698,48.5323) rotate(45)">
				<title>Blad.2092</title>
				<path d="M0 194.73 L12.03 194.73" class="st3"/>
			</g>
			<g id="shape2093-41" v:mID="2093" v:groupContext="shape" transform="translate(137.698,51.367) rotate(45)">
				<title>Blad.2093</title>
				<path d="M0 194.73 L8.02 194.73" class="st3"/>
			</g>
			<g id="shape2094-44" v:mID="2094" v:groupContext="shape" transform="translate(137.698,54.2016) rotate(45)">
				<title>Blad.2094</title>
				<path d="M0 194.73 L4.01 194.73" class="st3"/>
			</g>
		</g>
		<g id="shape2095-47" v:mID="2095" v:groupContext="shape" transform="translate(11.7136,-42.8947)">
			<title>Ligger, 2 pt.2095</title>
			<path d="M0 194.73 L56.69 194.73" class="st1"/>
		</g>
		<g id="shape2096-50" v:mID="2096" v:groupContext="shape" transform="translate(68.4065,-42.8947)">
			<title>Ligger, 2 pt.2096</title>
			<path d="M0 194.73 L56.69 194.73" class="st1"/>
		</g>
		<g id="shape2097-53" v:mID="2097" v:groupContext="shape" transform="translate(125.099,-42.8947)">
			<title>Ligger, 2 pt.2097</title>
			<path d="M0 194.73 L56.69 194.73" class="st1"/>
		</g>
		<g id="shape2098-56" v:mID="2098" v:groupContext="shape" transform="translate(181.792,-42.8947)">
			<title>Ligger, 2 pt.2098</title>
			<path d="M0 194.73 L56.69 194.73" class="st1"/>
		</g>
		<g id="shape2099-59" v:mID="2099" v:groupContext="shape" transform="translate(122.973,-40.7687)">
			<title>Scharnier.2099</title>
			<ellipse cx="2.12598" cy="192.608" rx="2.12598" ry="2.12598" class="st4"/>
		</g>
		<g id="shape2100-61" v:mID="2100" v:groupContext="shape" transform="translate(66.2805,-42.8947)">
			<title>Scharnier.2100</title>
			<ellipse cx="2.12598" cy="192.608" rx="2.12598" ry="2.12598" class="st4"/>
		</g>
		<g id="shape2101-63" v:mID="2101" v:groupContext="shape" transform="translate(43.7513,151.839) rotate(-90)">
			<title>Ligger, 2 pt.2101</title>
			<path d="M0 194.73 L113.39 194.73" class="st1"/>
		</g>
		<g id="group2102-66" transform="translate(248.407,221.849) rotate(180)" v:mID="2102" v:groupContext="group">
			<title>Scharnieroplegging.2102</title>
			<g id="shape2103-67" v:mID="2103" v:groupContext="shape" transform="translate(2.83465,0)">
				<title>Blad.2103</title>
				<path d="M0 194.73 L14.17 194.73 L7.09 183.4 L0 194.73 Z" class="st5"/>
			</g>
			<g id="shape2104-69" v:mID="2104" v:groupContext="shape" transform="translate(2.83465,389.468) rotate(180)">
				<title>Blad.2104</title>
				<path d="M0 194.73 L2.83 194.73" class="st3"/>
			</g>
			<g id="shape2105-72" v:mID="2105" v:groupContext="shape" transform="translate(17.0079,0)">
				<title>Blad.2105</title>
				<path d="M0 194.73 L2.83 194.73" class="st3"/>
			</g>
		</g>
		<g id="shape2106-75" v:mID="2106" v:groupContext="shape" transform="translate(236.359,-40.7687)">
			<title>Scharnier.2106</title>
			<ellipse cx="2.12598" cy="192.608" rx="2.12598" ry="2.12598" class="st4"/>
		</g>
		<g id="group2108-77" transform="translate(11.7136,-0.375)" v:mID="2108" v:groupContext="group">
			<title>Maatlijn.2108</title>
			<g id="group2109-78" transform="translate(0,-9.92126)" v:mID="2109" v:groupContext="group">
				<title>Maatlijn.31</title>
				<g id="shape2110-79" v:mID="2110" v:groupContext="shape" transform="translate(194.734,186.23) rotate(90)">
					<title>Blad.2110</title>
					<path d="M0 194.73 L8.5 194.73" class="st6"/>
				</g>
				<g id="shape2111-82" v:mID="2111" v:groupContext="shape" transform="translate(251.427,186.23) rotate(90)">
					<title>Blad.2111</title>
					<path d="M0 194.73 L8.5 194.73" class="st6"/>
				</g>
				<g id="shape2112-85" v:mID="2112" v:groupContext="shape" transform="translate(0,-4.25197)">
					<title>Blad.2112</title>
					<path d="M3.74 194.73 L4.1 194.73 L52.59 194.73" class="st7"/>
				</g>
			</g>
			<g id="shape2113-94" v:mID="2113" v:groupContext="shape">
				<title>Blad.2113</title>
				<desc>4 m</desc>
				<v:textBlock v:margins="rect(4,4,4,4)" v:tabSpace="42.5197"/>
				<v:textRect cx="28.3465" cy="187.647" width="56.7" height="14.1732"/>
				<rect x="0" y="180.561" width="56.6929" height="14.1732" class="st9"/>
				<text x="19.18" y="191.25" class="st10" v:langID="1043"><v:paragraph v:horizAlign="1"/><v:tabList/>4 m</text>			</g>
		</g>
		<g id="group2114-97" transform="translate(68.4065,-0.375)" v:mID="2114" v:groupContext="group">
			<title>Maatlijn.2114</title>
			<g id="group2115-98" transform="translate(0,-9.92126)" v:mID="2115" v:groupContext="group">
				<title>Maatlijn.31</title>
				<g id="shape2116-99" v:mID="2116" v:groupContext="shape" transform="translate(194.734,186.23) rotate(90)">
					<title>Blad.2116</title>
					<path d="M0 194.73 L8.5 194.73" class="st6"/>
				</g>
				<g id="shape2117-102" v:mID="2117" v:groupContext="shape" transform="translate(251.427,186.23) rotate(90)">
					<title>Blad.2117</title>
					<path d="M0 194.73 L8.5 194.73" class="st6"/>
				</g>
				<g id="shape2118-105" v:mID="2118" v:groupContext="shape" transform="translate(0,-4.25197)">
					<title>Blad.2118</title>
					<path d="M3.74 194.73 L4.1 194.73 L52.59 194.73" class="st7"/>
				</g>
			</g>
			<g id="shape2119-112" v:mID="2119" v:groupContext="shape">
				<title>Blad.2119</title>
				<desc>4 m</desc>
				<v:textBlock v:margins="rect(4,4,4,4)" v:tabSpace="42.5197"/>
				<v:textRect cx="28.3465" cy="187.647" width="56.7" height="14.1732"/>
				<rect x="0" y="180.561" width="56.6929" height="14.1732" class="st9"/>
				<text x="19.18" y="191.25" class="st10" v:langID="1043"><v:paragraph v:horizAlign="1"/><v:tabList/>4 m</text>			</g>
		</g>
		<g id="group2120-115" transform="translate(125.099,-0.375)" v:mID="2120" v:groupContext="group">
			<title>Maatlijn.2120</title>
			<g id="group2121-116" transform="translate(0,-9.92126)" v:mID="2121" v:groupContext="group">
				<title>Maatlijn.31</title>
				<g id="shape2122-117" v:mID="2122" v:groupContext="shape" transform="translate(194.734,186.23) rotate(90)">
					<title>Blad.2122</title>
					<path d="M0 194.73 L8.5 194.73" class="st6"/>
				</g>
				<g id="shape2123-120" v:mID="2123" v:groupContext="shape" transform="translate(251.427,186.23) rotate(90)">
					<title>Blad.2123</title>
					<path d="M0 194.73 L8.5 194.73" class="st6"/>
				</g>
				<g id="shape2124-123" v:mID="2124" v:groupContext="shape" transform="translate(0,-4.25197)">
					<title>Blad.2124</title>
					<path d="M3.74 194.73 L4.1 194.73 L52.59 194.73" class="st7"/>
				</g>
			</g>
			<g id="shape2125-130" v:mID="2125" v:groupContext="shape">
				<title>Blad.2125</title>
				<desc>4 m</desc>
				<v:textBlock v:margins="rect(4,4,4,4)" v:tabSpace="42.5197"/>
				<v:textRect cx="28.3465" cy="187.647" width="56.7" height="14.1732"/>
				<rect x="0" y="180.561" width="56.6929" height="14.1732" class="st9"/>
				<text x="19.18" y="191.25" class="st10" v:langID="1043"><v:paragraph v:horizAlign="1"/><v:tabList/>4 m</text>			</g>
		</g>
		<g id="group2126-133" transform="translate(181.792,-0.375)" v:mID="2126" v:groupContext="group">
			<title>Maatlijn.2126</title>
			<g id="group2127-134" transform="translate(0,-9.92126)" v:mID="2127" v:groupContext="group">
				<title>Maatlijn.31</title>
				<g id="shape2128-135" v:mID="2128" v:groupContext="shape" transform="translate(194.734,186.23) rotate(90)">
					<title>Blad.2128</title>
					<path d="M0 194.73 L8.5 194.73" class="st6"/>
				</g>
				<g id="shape2129-138" v:mID="2129" v:groupContext="shape" transform="translate(251.427,186.23) rotate(90)">
					<title>Blad.2129</title>
					<path d="M0 194.73 L8.5 194.73" class="st6"/>
				</g>
				<g id="shape2130-141" v:mID="2130" v:groupContext="shape" transform="translate(0,-4.25197)">
					<title>Blad.2130</title>
					<path d="M3.74 194.73 L4.1 194.73 L52.59 194.73" class="st7"/>
				</g>
			</g>
			<g id="shape2131-148" v:mID="2131" v:groupContext="shape">
				<title>Blad.2131</title>
				<desc>4 m</desc>
				<v:textBlock v:margins="rect(4,4,4,4)" v:tabSpace="42.5197"/>
				<v:textRect cx="28.3465" cy="187.647" width="56.7" height="14.1732"/>
				<rect x="0" y="180.561" width="56.6929" height="14.1732" class="st9"/>
				<text x="19.18" y="191.25" class="st10" v:langID="1043"><v:paragraph v:horizAlign="1"/><v:tabList/>4 m</text>			</g>
		</g>
		<g id="group2132-151" transform="translate(262.58,-42.8947)" v:mID="2132" v:groupContext="group">
			<title>Maatlijn verticaal.2132</title>
			<g id="group2133-152" transform="translate(-186.23,194.734) rotate(-90)" v:mID="2133" v:groupContext="group">
				<title>Maatlijn.31</title>
				<g id="shape2134-153" v:mID="2134" v:groupContext="shape" transform="translate(194.734,186.23) rotate(90)">
					<title>Blad.2134</title>
					<path d="M0 194.73 L8.5 194.73" class="st6"/>
				</g>
				<g id="shape2135-156" v:mID="2135" v:groupContext="shape" transform="translate(308.12,186.23) rotate(90)">
					<title>Blad.2135</title>
					<path d="M0 194.73 L8.5 194.73" class="st6"/>
				</g>
				<g id="shape2136-159" v:mID="2136" v:groupContext="shape" transform="translate(0,-4.25197)">
					<title>Blad.2136</title>
					<path d="M3.74 194.73 L4.1 194.73 L109.29 194.73" class="st7"/>
				</g>
			</g>
			<g id="shape2137-166" v:mID="2137" v:groupContext="shape" transform="translate(4.25197,-45.3543)">
				<title>Blad.2137</title>
				<desc>8 m</desc>
				<v:textBlock v:margins="rect(4,4,4,4)" v:tabSpace="42.5197"/>
				<v:textRect cx="14.1732" cy="183.395" width="28.35" height="22.6772"/>
				<rect x="0" y="172.057" width="28.3465" height="22.6772" class="st9"/>
				<text x="5.01" y="187" class="st10" v:langID="1043"><v:paragraph v:horizAlign="1"/><v:tabList/>8 m</text>			</g>
		</g>
		<g id="shape2138-169" v:mID="2138" v:groupContext="shape" transform="translate(11.7136,-42.8947)">
			<title>Punt A.2138</title>
			<desc>A</desc>
			<v:textBlock v:margins="rect(4,4,4,4)" v:tabSpace="42.5197"/>
			<v:textRect cx="7.08661" cy="187.647" width="14.18" height="14.1732"/>
			<rect x="0" y="180.561" width="14.1732" height="14.1732" class="st11"/>
			<text x="4" y="191.25" class="st10" v:langID="1043"><v:paragraph v:horizAlign="1"/><v:tabList/>A</text>		</g>
		<g id="shape2139-172" v:mID="2139" v:groupContext="shape" transform="translate(54.2333,-142.107)">
			<title>Punt A.2139</title>
			<desc>B</desc>
			<v:textBlock v:margins="rect(4,4,4,4)" v:tabSpace="42.5197"/>
			<v:textRect cx="7.08661" cy="187.647" width="14.18" height="14.1732"/>
			<rect x="0" y="180.561" width="14.1732" height="14.1732" class="st11"/>
			<text x="4" y="191.25" class="st10" v:langID="1043"><v:paragraph v:horizAlign="1"/><v:tabList/>B</text>		</g>
		<g id="shape2140-175" v:mID="2140" v:groupContext="shape" transform="translate(238.485,-142.107)">
			<title>Punt A.2140</title>
			<desc>C</desc>
			<v:textBlock v:margins="rect(4,4,4,4)" v:tabSpace="42.5197"/>
			<v:textRect cx="7.08661" cy="187.647" width="14.18" height="14.1732"/>
			<rect x="0" y="180.561" width="14.1732" height="14.1732" class="st11"/>
			<text x="4" y="191.25" class="st10" v:langID="1043"><v:paragraph v:horizAlign="1"/><v:tabList/>C</text>		</g>
		<g id="shape2141-178" v:mID="2141" v:groupContext="shape" transform="translate(61.3199,-28.7214)">
			<title>Punt A.2141</title>
			<desc>D</desc>
			<v:textBlock v:margins="rect(4,4,4,4)" v:tabSpace="42.5197"/>
			<v:textRect cx="7.08661" cy="187.647" width="14.18" height="14.1732"/>
			<rect x="0" y="180.561" width="14.1732" height="14.1732" class="st11"/>
			<text x="4" y="191.25" class="st10" v:langID="1043"><v:paragraph v:horizAlign="1"/><v:tabList/>D</text>		</g>
		<g id="shape2142-181" v:mID="2142" v:groupContext="shape" transform="translate(118.013,-28.7215)">
			<title>Punt A.2142</title>
			<desc>E</desc>
			<v:textBlock v:margins="rect(4,4,4,4)" v:tabSpace="42.5197"/>
			<v:textRect cx="7.08661" cy="187.647" width="14.18" height="14.1732"/>
			<rect x="0" y="180.561" width="14.1732" height="14.1732" class="st11"/>
			<text x="4" y="191.25" class="st10" v:langID="1043"><v:paragraph v:horizAlign="1"/><v:tabList/>E</text>		</g>
		<g id="shape2143-184" v:mID="2143" v:groupContext="shape" transform="translate(174.706,-28.7215)">
			<title>Punt A.2143</title>
			<desc>F</desc>
			<v:textBlock v:margins="rect(4,4,4,4)" v:tabSpace="42.5197"/>
			<v:textRect cx="7.08661" cy="187.647" width="14.18" height="14.1732"/>
			<rect x="0" y="180.561" width="14.1732" height="14.1732" class="st11"/>
			<text x="4" y="191.25" class="st10" v:langID="1043"><v:paragraph v:horizAlign="1"/><v:tabList/>F</text>		</g>
		<g id="shape2144-187" v:mID="2144" v:groupContext="shape" transform="translate(231.399,-28.7215)">
			<title>Punt A.2144</title>
			<desc>G</desc>
			<v:textBlock v:margins="rect(4,4,4,4)" v:tabSpace="42.5197"/>
			<v:textRect cx="7.08661" cy="187.647" width="14.18" height="14.1732"/>
			<rect x="0" y="180.561" width="14.1732" height="14.1732" class="st11"/>
			<text x="4" y="191.25" class="st10" v:langID="1043"><v:paragraph v:horizAlign="1"/><v:tabList/>G</text>		</g>
		<g id="shape2146-190" v:mID="2146" v:groupContext="shape" transform="translate(96.753,-127.934)">
			<title>Blad.2146</title>
			<desc>EA = 4 MN EI = 64 MNm2</desc>
			<v:textBlock v:margins="rect(4,4,4,4)" v:tabSpace="42.5197"/>
			<v:textRect cx="56.6929" cy="180.561" width="113.39" height="28.3465"/>
			<rect x="0" y="166.388" width="113.386" height="28.3465" class="st9"/>
			<text x="28.81" y="176.96" class="st12" v:langID="1043"><v:paragraph v:horizAlign="1"/><v:tabList/>EA<tspan
						class="st13"> </tspan><tspan class="st13">= 4 MN<v:newlineChar/></tspan><tspan x="20.86" dy="1.2em"
						class="st14">EI </tspan><tspan class="st13">= 64 MNm</tspan><tspan dy="-0.198em" class="st15"
						v:baseFontSize="12">2</tspan></text>		</g>
		<g id="shape2147-198" v:mID="2147" v:groupContext="shape" transform="translate(-126.327,38.4535) rotate(-90)">
			<title>Kracht.2147</title>
			<path d="M7.55 194.73 L7.91 194.73 L28.35 194.73" class="st16"/>
		</g>
		<g id="shape2148-204" v:mID="2148" v:groupContext="shape" transform="translate(68.4065,-163.367)">
			<title>Punt A.2148</title>
			<desc>Bv = ?</desc>
			<v:textBlock v:margins="rect(4,4,4,4)" v:tabSpace="42.5197"/>
			<v:textRect cx="21.2598" cy="187.647" width="42.52" height="14.1732"/>
			<rect x="0" y="180.561" width="42.5197" height="14.1732" class="st11"/>
			<text x="6.6" y="191.25" class="st12" v:langID="1043"><v:paragraph v:horizAlign="1"/><v:tabList/>B<tspan dy="-0.279em"
						class="st18" v:baseFontSize="12">v</tspan><tspan dy="0.181em" class="st13"> </tspan><tspan class="st13">= ?</tspan></text>		</g>
		<g id="shape2149-210" v:mID="2149" v:groupContext="shape" transform="translate(-133.414,38.4535) rotate(-90)">
			<title>verplaatsing.2149</title>
			<path d="M0 194.73 L28.35 194.73" class="st19"/>
		</g>
		<g id="shape2150-216" v:mID="2150" v:groupContext="shape" transform="translate(18.8002,-163.367)">
			<title>Punt A.2150</title>
			<desc>wB = 0</desc>
			<v:textBlock v:margins="rect(4,4,4,4)" v:tabSpace="42.5197"/>
			<v:textRect cx="21.2598" cy="187.647" width="42.52" height="14.1732"/>
			<rect x="0" y="180.561" width="42.5197" height="14.1732" class="st11"/>
			<text x="5.27" y="191.25" class="st12" v:langID="1043"><v:paragraph v:horizAlign="1"/><v:tabList/>w<tspan dy="-0.279em"
						class="st18" v:baseFontSize="12">B</tspan><tspan dy="0.181em" class="st13"> </tspan><tspan class="st13">= 0</tspan></text>		</g>
		<g id="group2151-222" transform="translate(-112.154,48.3747) rotate(-90)" v:mID="2151" v:groupContext="group">
			<title>Rol.2151</title>
			<g id="group2152-223" transform="translate(0.261477,-2.83465)" v:mID="2152" v:groupContext="group">
				<title>Scharnier</title>
				<g id="shape2153-224" v:mID="2153" v:groupContext="shape" transform="translate(2.79729,0)">
					<title>Blad.2153</title>
					<path d="M0 194.73 L13.99 194.73 L6.99 183.4 L0 194.73 Z" class="st5"/>
				</g>
				<g id="shape2154-226" v:mID="2154" v:groupContext="shape" transform="translate(2.79729,389.468) rotate(180)">
					<title>Blad.2154</title>
					<path d="M0 194.73 L2.8 194.73" class="st3"/>
				</g>
				<g id="shape2155-229" v:mID="2155" v:groupContext="shape" transform="translate(16.7838,0)">
					<title>Blad.2155</title>
					<path d="M0 194.73 L2.8 194.73" class="st3"/>
				</g>
			</g>
			<g id="shape2156-232" v:mID="2156" v:groupContext="shape">
				<title>Blad.2156</title>
				<path d="M0 194.73 L19.84 194.73" class="st3"/>
			</g>
		</g>
		<g id="shape2161-235" v:mID="2161" v:groupContext="shape" transform="translate(-69.6346,149.713) rotate(-90)">
			<title>Kracht.2161</title>
			<path d="M5.36 194.73 L5.72 194.73 L12.05 194.73" class="st21"/>
		</g>
		<g id="shape2162-241" v:mID="2162" v:groupContext="shape" transform="translate(125.099,-57.0679)">
			<title>Blad.2162</title>
			<desc>10.5 kN/m</desc>
			<v:textBlock v:margins="rect(4,4,4,4)" v:tabSpace="42.5197"/>
			<v:textRect cx="56.6929" cy="187.647" width="113.39" height="14.1732"/>
			<rect x="0" y="180.561" width="113.386" height="14.1732" class="st9"/>
			<text x="31.03" y="191.25" class="st10" v:langID="1043"><v:paragraph v:horizAlign="1"/><v:tabList/>10.5 kN/m</text>		</g>
		<g id="shape2163-244" v:mID="2163" v:groupContext="shape" transform="translate(-50.7369,151.839) rotate(-90)">
			<title>Kracht.2163</title>
			<path d="M5.36 194.73 L5.72 194.73 L14.17 194.73" class="st21"/>
		</g>
		<g id="shape2164-249" v:mID="2164" v:groupContext="shape" transform="translate(43.7513,149.713) rotate(-90)">
			<title>Kracht.2164</title>
			<path d="M5.36 194.73 L5.72 194.73 L12.05 194.73" class="st21"/>
		</g>
		<g id="shape2165-254" v:mID="2165" v:groupContext="shape" transform="translate(24.8536,151.839) rotate(-90)">
			<title>Kracht.2165</title>
			<path d="M5.36 194.73 L5.72 194.73 L14.17 194.73" class="st21"/>
		</g>
		<g id="shape2166-259" v:mID="2166" v:groupContext="shape" transform="translate(5.95599,151.839) rotate(-90)">
			<title>Kracht.2166</title>
			<path d="M5.36 194.73 L5.72 194.73 L14.17 194.73" class="st21"/>
		</g>
		<g id="shape2167-264" v:mID="2167" v:groupContext="shape" transform="translate(-12.9416,151.839) rotate(-90)">
			<title>Kracht.2167</title>
			<path d="M5.36 194.73 L5.72 194.73 L14.17 194.73" class="st21"/>
		</g>
		<g id="shape2168-269" v:mID="2168" v:groupContext="shape" transform="translate(-31.8393,151.839) rotate(-90)">
			<title>Kracht.2168</title>
			<path d="M5.36 194.73 L5.72 194.73 L14.17 194.73" class="st21"/>
		</g>
		<g id="shape2169-274" v:mID="2169" v:groupContext="shape" transform="translate(238.485,332.4) rotate(180)">
			<title>Kracht.2169</title>
			<path d="M0 194.73 L113.39 194.73" class="st23"/>
		</g>
	</g>
</svg>
