<?xml version="1.0" encoding="UTF-8" standalone="no"?>
<!DOCTYPE svg PUBLIC "-//W3C//DTD SVG 1.1//EN" "http://www.w3.org/Graphics/SVG/1.1/DTD/svg11.dtd">
<!-- Gegenereerd door Microsoft Visio, SVG Export SB.svg Pagina-1 -->
<svg xmlns="http://www.w3.org/2000/svg" xmlns:xlink="http://www.w3.org/1999/xlink" xmlns:ev="http://www.w3.org/2001/xml-events"
		xmlns:v="http://schemas.microsoft.com/visio/2003/SVGExtensions/" width="3.88392in" height="1.7307in"
		viewBox="0 0 279.642 124.61" xml:space="preserve" color-interpolation-filters="sRGB" class="st23">
	<v:documentProperties v:langID="1043" v:metric="true" v:viewMarkup="false"/>

	<style type="text/css">
	<![CDATA[
		.st1 {fill:#00cc99;stroke:#000000;stroke-linecap:round;stroke-linejoin:round;stroke-width:0.75}
		.st2 {stroke:#000000;stroke-linecap:round;stroke-linejoin:round;stroke-width:0.75}
		.st3 {stroke:#000000;stroke-linecap:round;stroke-linejoin:round;stroke-width:2}
		.st4 {stroke:#000000;stroke-linecap:round;stroke-linejoin:round;stroke-width:4.5}
		.st5 {fill:none;stroke:none;stroke-linecap:round;stroke-linejoin:round;stroke-width:0.24}
		.st6 {fill:#000000;font-family:Times New Roman;font-size:1.00001em}
		.st7 {stroke:#000000;stroke-linecap:round;stroke-linejoin:round;stroke-width:0.25}
		.st8 {marker-end:url(#mrkr4-61);marker-start:url(#mrkr4-59);stroke:#000000;stroke-linecap:round;stroke-linejoin:round;stroke-width:0.25}
		.st9 {fill:#000000;fill-opacity:1;stroke:#000000;stroke-opacity:1;stroke-width:0.1219512195122}
		.st10 {fill:none;stroke:none;stroke-linecap:round;stroke-linejoin:round;stroke-width:0.75}
		.st11 {fill:#00cc99;fill-opacity:0.5;stroke:#000000;stroke-linecap:round;stroke-linejoin:round;stroke-opacity:0.5;stroke-width:0.75}
		.st12 {stroke:#000000;stroke-linecap:round;stroke-linejoin:round;stroke-opacity:0.5;stroke-width:0.75}
		.st13 {marker-end:url(#mrkr1-119);stroke:#000000;stroke-linecap:butt;stroke-width:3}
		.st14 {fill:#000000;fill-opacity:1;stroke:#000000;stroke-opacity:1;stroke-width:0.67567567567568}
		.st15 {fill:#000000;font-family:Times New Roman;font-size:1.00001em;font-style:italic}
		.st16 {font-size:1em;font-style:normal}
		.st17 {baseline-shift:32.4941%;font-size:0.649882em;font-style:normal}
		.st18 {marker-start:url(#mrkr5-171);stroke:#800000;stroke-linecap:round;stroke-linejoin:round;stroke-width:2}
		.st19 {fill:#800000;fill-opacity:1;stroke:#800000;stroke-opacity:1;stroke-width:0.44247787610619}
		.st20 {baseline-shift:-32.4941%;font-size:0.649882em;font-style:normal}
		.st21 {fill:#ffffff;stroke:#000000;stroke-linecap:round;stroke-linejoin:round;stroke-width:0.75}
		.st22 {marker-end:url(#mrkr5-209);stroke:#800000;stroke-linecap:round;stroke-linejoin:round;stroke-width:2}
		.st23 {fill:none;fill-rule:evenodd;font-size:12px;overflow:visible;stroke-linecap:square;stroke-miterlimit:3}
	]]>
	</style>

	<defs id="Markers">
		<g id="lend4">
			<path d="M 2 1 L 0 0 L 2 -1 L 2 1 " style="stroke:none"/>
		</g>
		<marker id="mrkr4-59" class="st9" v:arrowType="4" v:arrowSize="1" v:setback="14.96" refX="14.96" orient="auto"
				markerUnits="strokeWidth" overflow="visible">
			<use xlink:href="#lend4" transform="scale(8.2) "/>
		</marker>
		<marker id="mrkr4-61" class="st9" v:arrowType="4" v:arrowSize="1" v:setback="16.4" refX="-16.4" orient="auto"
				markerUnits="strokeWidth" overflow="visible">
			<use xlink:href="#lend4" transform="scale(-8.2,-8.2) "/>
		</marker>
		<g id="lend1">
			<path d="M 1 -1 L 0 0 L 1 1 " style="stroke-linecap:round;stroke-linejoin:round;fill:none"/>
		</g>
		<marker id="mrkr1-119" class="st14" v:arrowType="1" v:arrowSize="0" orient="auto" markerUnits="strokeWidth"
				overflow="visible">
			<use xlink:href="#lend1" transform="scale(-1.48,-1.48) "/>
		</marker>
		<g id="lend5">
			<path d="M 2 1 L 0 0 L 1.98117 -0.993387 C 1.67173 -0.364515 1.67301 0.372641 1.98465 1.00043 " style="stroke:none"/>
		</g>
		<marker id="mrkr5-171" class="st19" v:arrowType="5" v:arrowSize="2" v:setback="3.775" refX="3.775" orient="auto"
				markerUnits="strokeWidth" overflow="visible">
			<use xlink:href="#lend5" transform="scale(2.26) "/>
		</marker>
		<marker id="mrkr5-209" class="st19" v:arrowType="5" v:arrowSize="2" v:setback="3.775" refX="-3.775" orient="auto"
				markerUnits="strokeWidth" overflow="visible">
			<use xlink:href="#lend5" transform="scale(-2.26,-2.26) "/>
		</marker>
	</defs>
	<g v:mID="0" v:index="1" v:groupContext="foregroundPage">
		<title>Pagina-1</title>
		<v:pageProperties v:drawingScale="0.0393701" v:pageScale="0.0393701" v:drawingUnits="24" v:shadowOffsetX="8.50394"
				v:shadowOffsetY="-8.50394"/>
		<g id="group178-1" transform="translate(188.689,-64.1545)" v:mID="178" v:groupContext="group">
			<title>Rol.178</title>
			<g id="group179-2" transform="translate(0.261477,-2.83465)" v:mID="179" v:groupContext="group">
				<title>Scharnier</title>
				<g id="shape180-3" v:mID="180" v:groupContext="shape" transform="translate(2.79729,0)">
					<title>Blad.180</title>
					<path d="M0 124.61 L13.99 124.61 L6.99 113.27 L0 124.61 Z" class="st1"/>
				</g>
				<g id="shape181-5" v:mID="181" v:groupContext="shape" transform="translate(2.79729,249.22) rotate(180)">
					<title>Blad.181</title>
					<path d="M0 124.61 L2.8 124.61" class="st2"/>
				</g>
				<g id="shape182-8" v:mID="182" v:groupContext="shape" transform="translate(16.7838,0)">
					<title>Blad.182</title>
					<path d="M0 124.61 L2.8 124.61" class="st2"/>
				</g>
			</g>
			<g id="shape183-11" v:mID="183" v:groupContext="shape">
				<title>Blad.183</title>
				<path d="M0 124.61 L19.84 124.61" class="st2"/>
			</g>
		</g>
		<g id="shape184-14" v:mID="184" v:groupContext="shape" transform="translate(57.009,-78.3277)">
			<title>Ligger, 2 pt.184</title>
			<path d="M0 124.61 L70.87 124.61" class="st3"/>
		</g>
		<g id="shape185-17" v:mID="185" v:groupContext="shape" transform="translate(127.875,-78.3277)">
			<title>Ligger, 2 pt.185</title>
			<path d="M0 124.61 L70.87 124.61" class="st4"/>
		</g>
		<g id="shape186-20" v:mID="186" v:groupContext="shape" transform="translate(198.611,-78.3278)">
			<title>Ligger, 2 pt.186</title>
			<path d="M0 124.61 L70.87 124.61" class="st3"/>
		</g>
		<g id="group187-23" transform="translate(259.425,-64.1545)" v:mID="187" v:groupContext="group">
			<title>Rol.187</title>
			<g id="group188-24" transform="translate(0.261477,-2.83465)" v:mID="188" v:groupContext="group">
				<title>Scharnier</title>
				<g id="shape189-25" v:mID="189" v:groupContext="shape" transform="translate(2.79729,0)">
					<title>Blad.189</title>
					<path d="M0 124.61 L13.99 124.61 L6.99 113.27 L0 124.61 Z" class="st1"/>
				</g>
				<g id="shape190-27" v:mID="190" v:groupContext="shape" transform="translate(2.79729,249.22) rotate(180)">
					<title>Blad.190</title>
					<path d="M0 124.61 L2.8 124.61" class="st2"/>
				</g>
				<g id="shape191-30" v:mID="191" v:groupContext="shape" transform="translate(16.7838,0)">
					<title>Blad.191</title>
					<path d="M0 124.61 L2.8 124.61" class="st2"/>
				</g>
			</g>
		</g>
		<g id="shape192-33" v:mID="192" v:groupContext="shape" transform="translate(49.7917,-78.3278)">
			<title>Punt A.192</title>
			<desc>A</desc>
			<v:textBlock v:margins="rect(4,4,4,4)" v:tabSpace="42.5197"/>
			<v:textRect cx="7.08661" cy="117.523" width="14.18" height="14.1732"/>
			<rect x="0" y="110.437" width="14.1732" height="14.1732" class="st5"/>
			<text x="4" y="121.12" class="st6" v:langID="1043"><v:paragraph v:horizAlign="1"/><v:tabList/>A</text>		</g>
		<g id="shape193-36" v:mID="193" v:groupContext="shape" transform="translate(120.658,-76.9104)">
			<title>Punt A.193</title>
			<desc>B</desc>
			<v:textBlock v:margins="rect(4,4,4,4)" v:tabSpace="42.5197"/>
			<v:textRect cx="7.08661" cy="117.523" width="14.18" height="14.1732"/>
			<rect x="0" y="110.437" width="14.1732" height="14.1732" class="st5"/>
			<text x="4" y="121.12" class="st6" v:langID="1043"><v:paragraph v:horizAlign="1"/><v:tabList/>B</text>		</g>
		<g id="shape194-39" v:mID="194" v:groupContext="shape" transform="translate(191.524,-78.3278)">
			<title>Punt A.194</title>
			<desc>C</desc>
			<v:textBlock v:margins="rect(4,4,4,4)" v:tabSpace="42.5197"/>
			<v:textRect cx="7.08661" cy="117.523" width="14.18" height="14.1732"/>
			<rect x="0" y="110.437" width="14.1732" height="14.1732" class="st5"/>
			<text x="4" y="121.12" class="st6" v:langID="1043"><v:paragraph v:horizAlign="1"/><v:tabList/>C</text>		</g>
		<g id="shape195-42" v:mID="195" v:groupContext="shape" transform="translate(262.39,-78.3278)">
			<title>Punt A.195</title>
			<desc>D</desc>
			<v:textBlock v:margins="rect(4,4,4,4)" v:tabSpace="42.5197"/>
			<v:textRect cx="7.08661" cy="117.523" width="14.18" height="14.1732"/>
			<rect x="0" y="110.437" width="14.1732" height="14.1732" class="st5"/>
			<text x="4" y="121.12" class="st6" v:langID="1043"><v:paragraph v:horizAlign="1"/><v:tabList/>D</text>		</g>
		<g id="group196-45" transform="translate(56.8783,-0.375)" v:mID="196" v:groupContext="group">
			<title>Maatlijn.196</title>
			<g id="group197-46" transform="translate(0,-9.92126)" v:mID="197" v:groupContext="group">
				<title>Maatlijn.31</title>
				<g id="shape198-47" v:mID="198" v:groupContext="shape" transform="translate(124.61,116.106) rotate(90)">
					<title>Blad.198</title>
					<path d="M0 124.61 L8.5 124.61" class="st7"/>
				</g>
				<g id="shape199-50" v:mID="199" v:groupContext="shape" transform="translate(195.476,116.106) rotate(90)">
					<title>Blad.199</title>
					<path d="M0 124.61 L8.5 124.61" class="st7"/>
				</g>
				<g id="shape200-53" v:mID="200" v:groupContext="shape" transform="translate(0,-4.25197)">
					<title>Blad.200</title>
					<path d="M3.74 124.61 L4.1 124.61 L66.77 124.61" class="st8"/>
				</g>
			</g>
			<g id="shape201-62" v:mID="201" v:groupContext="shape">
				<title>Blad.201</title>
				<desc>10 m</desc>
				<v:textBlock v:margins="rect(4,4,4,4)" v:tabSpace="42.5197"/>
				<v:textRect cx="35.4331" cy="117.523" width="70.87" height="14.1732"/>
				<rect x="0" y="110.437" width="70.8661" height="14.1732" class="st10"/>
				<text x="23.27" y="121.12" class="st6" v:langID="1043"><v:paragraph v:horizAlign="1"/><v:tabList/>10 m</text>			</g>
		</g>
		<g id="group202-65" transform="translate(127.744,-0.375)" v:mID="202" v:groupContext="group">
			<title>Maatlijn.202</title>
			<g id="group203-66" transform="translate(0,-9.92126)" v:mID="203" v:groupContext="group">
				<title>Maatlijn.31</title>
				<g id="shape204-67" v:mID="204" v:groupContext="shape" transform="translate(124.61,116.106) rotate(90)">
					<title>Blad.204</title>
					<path d="M0 124.61 L8.5 124.61" class="st7"/>
				</g>
				<g id="shape205-70" v:mID="205" v:groupContext="shape" transform="translate(195.476,116.106) rotate(90)">
					<title>Blad.205</title>
					<path d="M0 124.61 L8.5 124.61" class="st7"/>
				</g>
				<g id="shape206-73" v:mID="206" v:groupContext="shape" transform="translate(0,-4.25197)">
					<title>Blad.206</title>
					<path d="M3.74 124.61 L4.1 124.61 L66.77 124.61" class="st8"/>
				</g>
			</g>
			<g id="shape207-80" v:mID="207" v:groupContext="shape">
				<title>Blad.207</title>
				<desc>10 m</desc>
				<v:textBlock v:margins="rect(4,4,4,4)" v:tabSpace="42.5197"/>
				<v:textRect cx="35.4331" cy="117.523" width="70.87" height="14.1732"/>
				<rect x="0" y="110.437" width="70.8661" height="14.1732" class="st10"/>
				<text x="23.27" y="121.12" class="st6" v:langID="1043"><v:paragraph v:horizAlign="1"/><v:tabList/>10 m</text>			</g>
		</g>
		<g id="group208-83" transform="translate(198.611,-0.375)" v:mID="208" v:groupContext="group">
			<title>Maatlijn.208</title>
			<g id="group209-84" transform="translate(0,-9.92126)" v:mID="209" v:groupContext="group">
				<title>Maatlijn.31</title>
				<g id="shape210-85" v:mID="210" v:groupContext="shape" transform="translate(124.61,116.106) rotate(90)">
					<title>Blad.210</title>
					<path d="M0 124.61 L8.5 124.61" class="st7"/>
				</g>
				<g id="shape211-88" v:mID="211" v:groupContext="shape" transform="translate(195.476,116.106) rotate(90)">
					<title>Blad.211</title>
					<path d="M0 124.61 L8.5 124.61" class="st7"/>
				</g>
				<g id="shape212-91" v:mID="212" v:groupContext="shape" transform="translate(0,-4.25197)">
					<title>Blad.212</title>
					<path d="M3.74 124.61 L4.1 124.61 L66.77 124.61" class="st8"/>
				</g>
			</g>
			<g id="shape213-98" v:mID="213" v:groupContext="shape">
				<title>Blad.213</title>
				<desc>10 m</desc>
				<v:textBlock v:margins="rect(4,4,4,4)" v:tabSpace="42.5197"/>
				<v:textRect cx="35.4331" cy="117.523" width="70.87" height="14.1732"/>
				<rect x="0" y="110.437" width="70.8661" height="14.1732" class="st10"/>
				<text x="23.27" y="121.12" class="st6" v:langID="1043"><v:paragraph v:horizAlign="1"/><v:tabList/>10 m</text>			</g>
		</g>
		<g id="group214-101" transform="translate(46.9571,-64.1545)" v:mID="214" v:groupContext="group">
			<title>Rol.214</title>
			<g id="group215-102" transform="translate(0.261477,-2.83465)" v:mID="215" v:groupContext="group">
				<title>Scharnier</title>
				<g id="shape216-103" v:mID="216" v:groupContext="shape" transform="translate(2.79729,0)">
					<title>Blad.216</title>
					<path d="M0 124.61 L13.99 124.61 L6.99 113.27 L0 124.61 Z" class="st11"/>
				</g>
				<g id="shape217-105" v:mID="217" v:groupContext="shape" transform="translate(2.79729,249.22) rotate(180)">
					<title>Blad.217</title>
					<path d="M0 124.61 L2.8 124.61" class="st12"/>
				</g>
				<g id="shape218-108" v:mID="218" v:groupContext="shape" transform="translate(16.7838,0)">
					<title>Blad.218</title>
					<path d="M0 124.61 L2.8 124.61" class="st12"/>
				</g>
			</g>
			<g id="shape219-111" v:mID="219" v:groupContext="shape">
				<title>Blad.219</title>
				<path d="M0 124.61 L19.84 124.61" class="st12"/>
			</g>
		</g>
		<g id="shape226-114" v:mID="226" v:groupContext="shape" transform="translate(181.619,46.2823) rotate(90)">
			<title>verplaatsing.226</title>
			<path d="M0 124.61 L21.26 124.61" class="st13"/>
		</g>
		<g id="shape227-120" v:mID="227" v:groupContext="shape" transform="translate(0.12,-57.0679)">
			<title>A.227</title>
			<desc>25 mm</desc>
			<v:textBlock v:margins="rect(4,4,4,4)" v:tabSpace="42.5197"/>
			<v:textRect cx="28.3465" cy="117.523" width="56.7" height="14.1732"/>
			<rect x="0" y="110.437" width="56.6929" height="14.1732" class="st5"/>
			<text x="11.51" y="121.12" class="st6" v:langID="1043"><v:paragraph v:horizAlign="1"/><v:tabList/>25 mm</text>		</g>
		<g id="group228-123" transform="translate(117.823,-64.1545)" v:mID="228" v:groupContext="group">
			<title>Rol.228</title>
			<g id="group229-124" transform="translate(0.261477,-2.83465)" v:mID="229" v:groupContext="group">
				<title>Scharnier</title>
				<g id="shape230-125" v:mID="230" v:groupContext="shape" transform="translate(2.79729,0)">
					<title>Blad.230</title>
					<path d="M0 124.61 L13.99 124.61 L6.99 113.27 L0 124.61 Z" class="st11"/>
				</g>
				<g id="shape231-127" v:mID="231" v:groupContext="shape" transform="translate(2.79729,249.22) rotate(180)">
					<title>Blad.231</title>
					<path d="M0 124.61 L2.8 124.61" class="st12"/>
				</g>
				<g id="shape232-130" v:mID="232" v:groupContext="shape" transform="translate(16.7838,0)">
					<title>Blad.232</title>
					<path d="M0 124.61 L2.8 124.61" class="st12"/>
				</g>
			</g>
			<g id="shape233-133" v:mID="233" v:groupContext="shape">
				<title>Blad.233</title>
				<path d="M0 124.61 L19.84 124.61" class="st12"/>
			</g>
		</g>
		<g id="group234-136" transform="translate(117.823,-42.8947)" v:mID="234" v:groupContext="group">
			<title>Rol.234</title>
			<g id="group235-137" transform="translate(0.261477,-2.83465)" v:mID="235" v:groupContext="group">
				<title>Scharnier</title>
				<g id="shape236-138" v:mID="236" v:groupContext="shape" transform="translate(2.79729,0)">
					<title>Blad.236</title>
					<path d="M0 124.61 L13.99 124.61 L6.99 113.27 L0 124.61 Z" class="st1"/>
				</g>
				<g id="shape237-140" v:mID="237" v:groupContext="shape" transform="translate(2.79729,249.22) rotate(180)">
					<title>Blad.237</title>
					<path d="M0 124.61 L2.8 124.61" class="st2"/>
				</g>
				<g id="shape238-143" v:mID="238" v:groupContext="shape" transform="translate(16.7838,0)">
					<title>Blad.238</title>
					<path d="M0 124.61 L2.8 124.61" class="st2"/>
				</g>
			</g>
			<g id="shape239-146" v:mID="239" v:groupContext="shape">
				<title>Blad.239</title>
				<path d="M0 124.61 L19.84 124.61" class="st2"/>
			</g>
		</g>
		<g id="shape240-149" v:mID="240" v:groupContext="shape" transform="translate(252.485,46.2823) rotate(90)">
			<title>verplaatsing.240</title>
			<path d="M0 124.61 L21.26 124.61" class="st13"/>
		</g>
		<g id="shape241-154" v:mID="241" v:groupContext="shape" transform="translate(70.9861,-57.0679)">
			<title>A.241</title>
			<desc>25 mm</desc>
			<v:textBlock v:margins="rect(4,4,4,4)" v:tabSpace="42.5197"/>
			<v:textRect cx="28.3465" cy="117.523" width="56.7" height="14.1732"/>
			<rect x="0" y="110.437" width="56.6929" height="14.1732" class="st5"/>
			<text x="11.51" y="121.12" class="st6" v:langID="1043"><v:paragraph v:horizAlign="1"/><v:tabList/>25 mm</text>		</g>
		<g id="shape242-157" v:mID="242" v:groupContext="shape" transform="translate(117.889,-108.092)">
			<title>Punt A.242</title>
			<desc>EI = 25 MNm2</desc>
			<v:textBlock v:margins="rect(4,4,4,4)" v:tabSpace="42.5197"/>
			<v:textRect cx="49.6063" cy="117.523" width="99.22" height="14.1732"/>
			<rect x="0" y="110.437" width="99.2126" height="14.1732" class="st5"/>
			<text x="13.77" y="121.12" class="st15" v:langID="1043"><v:paragraph v:horizAlign="1"/><v:tabList/>EI<tspan
						class="st16"> </tspan><tspan class="st16">= 25 MNm</tspan><tspan dy="-0.198em" class="st17"
						v:baseFontSize="12">2</tspan></text>		</g>
		<g id="shape243-163" v:mID="243" v:groupContext="shape" transform="translate(130.546,-78.3278)">
			<title>Punt A.243</title>
			<desc>EI = nEI</desc>
			<v:textBlock v:margins="rect(4,4,4,4)" v:tabSpace="42.5197"/>
			<v:textRect cx="25.4791" cy="117.523" width="50.96" height="14.1732"/>
			<rect x="0" y="110.437" width="50.9583" height="14.1732" class="st5"/>
			<text x="4.1" y="121.12" class="st15" v:langID="1043"><v:paragraph v:horizAlign="1"/><v:tabList/>EI = nEI</text>		</g>
		<g id="shape244-166" v:mID="244" v:groupContext="shape" transform="translate(181.619,67.5422) rotate(90)">
			<title>Kracht</title>
			<path d="M7.55 124.61 L7.91 124.61 L28.35 124.61" class="st18"/>
		</g>
		<g id="shape248-172" v:mID="248" v:groupContext="shape" transform="translate(254.273,157.737) rotate(153.435)">
			<title>Blad.248</title>
			<path d="M0 124.61 L47.54 124.61" class="st2"/>
		</g>
		<g id="shape249-175" v:mID="249" v:groupContext="shape" transform="translate(296.792,136.477) rotate(153.435)">
			<title>Blad.249</title>
			<path d="M0 124.61 L47.54 124.61" class="st2"/>
		</g>
		<g id="shape250-178" v:mID="250" v:groupContext="shape" transform="translate(44.6566,80.8813) rotate(74.1507) scale(1,-1)">
			<title>Hoekverdraaiing</title>
			<path d="M0 124.61 C5.56 123.03 10.36 123.73 14.97 124.61" class="st13"/>
		</g>
		<g id="shape251-183" v:mID="251" v:groupContext="shape" transform="translate(353.001,12.2503) rotate(74.1507) scale(-1,1)">
			<title>Hoekverdraaiing.92</title>
			<path d="M0 124.61 C5.56 123.03 10.36 123.73 14.97 124.61" class="st13"/>
		</g>
		<g id="shape252-188" v:mID="252" v:groupContext="shape" transform="translate(235.396,-85.4143)">
			<title>Punt A.94</title>
			<desc>φCCD</desc>
			<v:textBlock v:margins="rect(4,4,4,4)" v:tabSpace="42.5197"/>
			<v:textRect cx="17.0079" cy="117.523" width="34.02" height="14.1732"/>
			<rect x="0" y="110.437" width="34.0157" height="14.1732" class="st5"/>
			<text x="5.67" y="121.12" class="st15" v:langID="1043"><v:paragraph v:horizAlign="1"/><v:tabList/>φ<tspan dy="-0.279em"
						class="st20" v:baseFontSize="12">C</tspan><tspan dy="0.081em" class="st17" v:baseFontSize="12">CD</tspan></text>		</g>
		<g id="shape253-193" v:mID="253" v:groupContext="shape" transform="translate(141.852,-42.8947)">
			<title>Punt A.95</title>
			<desc>φCBC</desc>
			<v:textBlock v:margins="rect(4,4,4,4)" v:tabSpace="42.5197"/>
			<v:textRect cx="21.2598" cy="117.523" width="42.52" height="14.1732"/>
			<rect x="0" y="110.437" width="42.5197" height="14.1732" class="st5"/>
			<text x="10.14" y="121.12" class="st15" v:langID="1043"><v:paragraph v:horizAlign="1"/><v:tabList/>φ<tspan
						dy="-0.279em" class="st20" v:baseFontSize="12">C</tspan><tspan dy="0.081em" class="st17"
						v:baseFontSize="12">BC</tspan></text>		</g>
		<g id="shape254-198" v:mID="254" v:groupContext="shape" transform="translate(184.372,-92.501)">
			<title>Punt A.254</title>
			<desc>MC</desc>
			<v:textBlock v:margins="rect(4,4,4,4)" v:tabSpace="42.5197"/>
			<v:textRect cx="14.1732" cy="117.523" width="28.35" height="14.1732"/>
			<rect x="0" y="110.437" width="28.3465" height="14.1732" class="st5"/>
			<text x="6.57" y="121.12" class="st15" v:langID="1043"><v:paragraph v:horizAlign="1"/><v:tabList/>M<tspan dy="-0.279em"
						class="st20" v:baseFontSize="12">C</tspan></text>		</g>
		<g id="shape245-202" v:mID="245" v:groupContext="shape" transform="translate(196.485,-76.2018)">
			<title>Scharnier</title>
			<ellipse cx="2.12598" cy="122.484" rx="2.12598" ry="2.12598" class="st21"/>
		</g>
		<g id="shape247-204" v:mID="247" v:groupContext="shape" transform="translate(303.313,60.4555) rotate(90) scale(-1,1)">
			<title>Moment.247</title>
			<path d="M-0 124.61 A14.1732 14.1732 0 0 1 14.17 110.44 A14.1732 14.1732 0 0 1 26.14 117.01 L26.24 117.36" class="st22"/>
		</g>
		<g id="shape246-210" v:mID="246" v:groupContext="shape" transform="translate(94.3446,60.4555) rotate(-90)">
			<title>Moment</title>
			<path d="M-0 124.61 A14.1732 14.1732 0 0 1 14.17 110.44 A14.1732 14.1732 0 0 1 26.14 117.01 L26.24 117.36" class="st22"/>
		</g>
	</g>
</svg>
