<?xml version="1.0" encoding="UTF-8" standalone="no"?>
<!DOCTYPE svg PUBLIC "-//W3C//DTD SVG 1.1//EN" "http://www.w3.org/Graphics/SVG/1.1/DTD/svg11.dtd">
<!-- Gegenereerd door Microsoft Visio, SVG Export stat_deter.svg Pagina-1 -->
<svg xmlns="http://www.w3.org/2000/svg" xmlns:xlink="http://www.w3.org/1999/xlink" xmlns:ev="http://www.w3.org/2001/xml-events"
		xmlns:v="http://schemas.microsoft.com/visio/2003/SVGExtensions/" width="3.43036in" height="3.43036in"
		viewBox="0 0 246.986 246.986" xml:space="preserve" color-interpolation-filters="sRGB" class="st7">
	<v:documentProperties v:langID="1043" v:metric="true" v:viewMarkup="false"/>

	<style type="text/css">
	<![CDATA[
		.st1 {stroke:#000000;stroke-linecap:round;stroke-linejoin:round;stroke-width:2}
		.st2 {marker-start:url(#mrkr5-15);stroke:#00cc99;stroke-linecap:round;stroke-linejoin:round;stroke-width:2}
		.st3 {fill:#00cc99;fill-opacity:1;stroke:#00cc99;stroke-opacity:1;stroke-width:0.44247787610619}
		.st4 {marker-end:url(#mrkr5-26);stroke:#00cc99;stroke-linecap:round;stroke-linejoin:round;stroke-width:2}
		.st5 {marker-start:url(#mrkr5-47);stroke:#31859b;stroke-linecap:round;stroke-linejoin:round;stroke-width:2}
		.st6 {fill:#31859b;fill-opacity:1;stroke:#31859b;stroke-opacity:1;stroke-width:0.44247787610619}
		.st7 {fill:none;fill-rule:evenodd;font-size:12px;overflow:visible;stroke-linecap:square;stroke-miterlimit:3}
	]]>
	</style>

	<defs id="Markers">
		<g id="lend5">
			<path d="M 2 1 L 0 0 L 1.98117 -0.993387 C 1.67173 -0.364515 1.67301 0.372641 1.98465 1.00043 " style="stroke:none"/>
		</g>
		<marker id="mrkr5-15" class="st3" v:arrowType="5" v:arrowSize="2" v:setback="3.775" refX="3.775" orient="auto"
				markerUnits="strokeWidth" overflow="visible">
			<use xlink:href="#lend5" transform="scale(2.26) "/>
		</marker>
		<marker id="mrkr5-26" class="st3" v:arrowType="5" v:arrowSize="2" v:setback="3.775" refX="-3.775" orient="auto"
				markerUnits="strokeWidth" overflow="visible">
			<use xlink:href="#lend5" transform="scale(-2.26,-2.26) "/>
		</marker>
		<marker id="mrkr5-47" class="st6" v:arrowType="5" v:arrowSize="2" v:setback="3.775" refX="3.775" orient="auto"
				markerUnits="strokeWidth" overflow="visible">
			<use xlink:href="#lend5" transform="scale(2.26) "/>
		</marker>
	</defs>
	<g v:mID="0" v:index="1" v:groupContext="foregroundPage">
		<title>Pagina-1</title>
		<v:pageProperties v:drawingScale="0.0393701" v:pageScale="0.0393701" v:drawingUnits="24" v:shadowOffsetX="8.50394"
				v:shadowOffsetY="-8.50394"/>
		<g id="shape1893-1" v:mID="1893" v:groupContext="shape" transform="translate(38.4535,-222.705)">
			<title>Ligger, 2 pt.1893</title>
			<path d="M0 246.99 L85.04 246.99" class="st1"/>
		</g>
		<g id="shape1894-4" v:mID="1894" v:groupContext="shape" transform="translate(123.493,-222.705)">
			<title>Ligger, 2 pt.1894</title>
			<path d="M0 246.99 L85.04 246.99" class="st1"/>
		</g>
		<g id="shape1901-7" v:mID="1901" v:groupContext="shape" transform="translate(321.081,-53.045) rotate(53.1301)">
			<title>Ligger, 2 pt.1901</title>
			<path d="M0 246.99 L141.73 246.99" class="st1"/>
		</g>
		<g id="shape1929-10" v:mID="1929" v:groupContext="shape" transform="translate(285.439,24.2802) rotate(90)">
			<title>oplegreactie</title>
			<path d="M7.55 246.99 L7.91 246.99 L28.35 246.99" class="st2"/>
		</g>
		<g id="shape1930-16" v:mID="1930" v:groupContext="shape" transform="translate(38.4535,271.266) rotate(180)">
			<title>oplegreactie.1930</title>
			<path d="M7.55 246.99 L7.91 246.99 L28.35 246.99" class="st2"/>
		</g>
		<g id="shape1931-21" v:mID="1931" v:groupContext="shape" transform="translate(-208.532,38.4535) rotate(-90)">
			<title>Oplegmoment</title>
			<path d="M-0 246.99 A14.1732 14.1732 0 0 1 14.17 232.81 A14.1732 14.1732 0 0 1 26.14 239.39 L26.24 239.74" class="st4"/>
		</g>
		<g id="shape1932-27" v:mID="1932" v:groupContext="shape" transform="translate(455.518,24.2802) rotate(90)">
			<title>oplegreactie.1932</title>
			<path d="M7.55 246.99 L7.91 246.99 L28.35 246.99" class="st2"/>
		</g>
		<g id="shape1933-32" v:mID="1933" v:groupContext="shape" transform="translate(455.518,208.532) rotate(90)">
			<title>oplegreactie.1933</title>
			<path d="M7.55 246.99 L7.91 246.99 L28.35 246.99" class="st2"/>
		</g>
		<g id="shape1934-37" v:mID="1934" v:groupContext="shape" transform="translate(208.532,-38.4535)">
			<title>oplegreactie.1934</title>
			<path d="M7.55 246.99 L7.91 246.99 L28.35 246.99" class="st2"/>
		</g>
		<g id="shape1935-42" v:mID="1935" v:groupContext="shape" transform="translate(123.493,342.132) rotate(180)">
			<title>reactiekracht (scharnier/inwendig)</title>
			<path d="M7.55 246.99 L7.91 246.99 L28.35 246.99" class="st5"/>
		</g>
		<g id="shape1936-48" v:mID="1936" v:groupContext="shape" transform="translate(-123.493,95.1464) rotate(-90)">
			<title>reactiekracht (scharnier/inwendig).1936</title>
			<path d="M7.55 246.99 L7.91 246.99 L28.35 246.99" class="st5"/>
		</g>
		<g id="shape1937-53" v:mID="1937" v:groupContext="shape" transform="translate(370.479,24.2802) rotate(90)">
			<title>reactiekracht (scharnier/inwendig).1937</title>
			<path d="M7.55 246.99 L7.91 246.99 L28.35 246.99" class="st5"/>
		</g>
		<g id="shape1938-58" v:mID="1938" v:groupContext="shape" transform="translate(123.493,-217.036)">
			<title>reactiekracht (scharnier/inwendig).1938</title>
			<path d="M7.55 246.99 L7.91 246.99 L28.35 246.99" class="st5"/>
		</g>
	</g>
</svg>
