<?xml version="1.0" encoding="UTF-8" standalone="no"?>
<!DOCTYPE svg PUBLIC "-//W3C//DTD SVG 1.1//EN" "http://www.w3.org/Graphics/SVG/1.1/DTD/svg11.dtd">
<!-- Gegenereerd door Microsoft Visio, SVG Export constructie.svg Pagina-1 -->
<svg xmlns="http://www.w3.org/2000/svg" xmlns:xlink="http://www.w3.org/1999/xlink" xmlns:ev="http://www.w3.org/2001/xml-events"
		xmlns:v="http://schemas.microsoft.com/visio/2003/SVGExtensions/" width="6.05105in" height="5.50248in"
		viewBox="0 0 435.675 396.179" xml:space="preserve" color-interpolation-filters="sRGB" class="st22">
	<v:documentProperties v:langID="1043" v:metric="true" v:viewMarkup="false"/>

	<style type="text/css">
	<![CDATA[
		.st1 {fill:#7f7f7f;stroke:none;stroke-linecap:round;stroke-linejoin:round;stroke-width:0.75}
		.st2 {fill:none;stroke:none;stroke-linecap:round;stroke-linejoin:round;stroke-width:0.75}
		.st3 {fill:#000000;font-family:Times New Roman;font-size:1.00001em;font-style:italic}
		.st4 {stroke:#000000;stroke-linecap:round;stroke-linejoin:round;stroke-width:0.25}
		.st5 {marker-end:url(#mrkr4-17);marker-start:url(#mrkr4-15);stroke:#000000;stroke-linecap:round;stroke-linejoin:round;stroke-width:0.25}
		.st6 {fill:#000000;fill-opacity:1;stroke:#000000;stroke-opacity:1;stroke-width:0.12195121951219}
		.st7 {fill:#000000;font-family:Times New Roman;font-size:1.00001em}
		.st8 {fill:#a5a5a5;stroke:none;stroke-linecap:round;stroke-linejoin:round;stroke-width:0.75}
		.st9 {fill:#bfbfbf;stroke:none;stroke-linecap:round;stroke-linejoin:round;stroke-width:0.75}
		.st10 {fill:#d8d8d8;stroke:none;stroke-linecap:round;stroke-linejoin:round;stroke-width:0.75}
		.st11 {marker-end:url(#mrkr5-71);stroke:#000000;stroke-linecap:round;stroke-linejoin:round;stroke-width:0.75}
		.st12 {fill:#000000;fill-opacity:1;stroke:#000000;stroke-opacity:1;stroke-width:0.22935779816514}
		.st13 {stroke:#000000;stroke-linecap:round;stroke-linejoin:round;stroke-width:0.75}
		.st14 {fill:#00cc99;stroke:#000000;stroke-linecap:round;stroke-linejoin:round;stroke-width:0.75}
		.st15 {stroke:#000000;stroke-linecap:round;stroke-linejoin:round;stroke-width:2}
		.st16 {fill:none;stroke:none;stroke-linecap:round;stroke-linejoin:round;stroke-width:0.24}
		.st17 {marker-end:url(#mrkr5-210);stroke:#800000;stroke-linecap:round;stroke-linejoin:round;stroke-width:1.2}
		.st18 {fill:#800000;fill-opacity:1;stroke:#800000;stroke-opacity:1;stroke-width:0.45454545454546}
		.st19 {stroke:#800000;stroke-linecap:round;stroke-linejoin:round;stroke-width:1.2}
		.st20 {fill:#bfbfbf;stroke:#000000;stroke-linecap:round;stroke-linejoin:round;stroke-width:0.75}
		.st21 {stroke:#000000;stroke-linecap:round;stroke-linejoin:round;stroke-width:0.5}
		.st22 {fill:none;fill-rule:evenodd;font-size:12px;overflow:visible;stroke-linecap:square;stroke-miterlimit:3}
	]]>
	</style>

	<defs id="Markers">
		<g id="lend4">
			<path d="M 2 1 L 0 0 L 2 -1 L 2 1 " style="stroke:none"/>
		</g>
		<marker id="mrkr4-15" class="st6" v:arrowType="4" v:arrowSize="1" v:setback="14.96" refX="14.96" orient="auto"
				markerUnits="strokeWidth" overflow="visible">
			<use xlink:href="#lend4" transform="scale(8.2) "/>
		</marker>
		<marker id="mrkr4-17" class="st6" v:arrowType="4" v:arrowSize="1" v:setback="16.4" refX="-16.4" orient="auto"
				markerUnits="strokeWidth" overflow="visible">
			<use xlink:href="#lend4" transform="scale(-8.2,-8.2) "/>
		</marker>
		<g id="lend5">
			<path d="M 2 1 L 0 0 L 1.98117 -0.993387 C 1.67173 -0.364515 1.67301 0.372641 1.98465 1.00043 " style="stroke:none"/>
		</g>
		<marker id="mrkr5-71" class="st12" v:arrowType="5" v:arrowSize="2" v:setback="7.63" refX="-7.63" orient="auto"
				markerUnits="strokeWidth" overflow="visible">
			<use xlink:href="#lend5" transform="scale(-4.36,-4.36) "/>
		</marker>
		<marker id="mrkr5-210" class="st18" v:arrowType="5" v:arrowSize="0" v:setback="3.85" refX="-3.85" orient="auto"
				markerUnits="strokeWidth" overflow="visible">
			<use xlink:href="#lend5" transform="scale(-2.2,-2.2) "/>
		</marker>
	</defs>
	<g v:mID="0" v:index="1" v:groupContext="foregroundPage">
		<title>Pagina-1</title>
		<v:pageProperties v:drawingScale="0.0393701" v:pageScale="0.0393701" v:drawingUnits="24" v:shadowOffsetX="8.50394"
				v:shadowOffsetY="-8.50394"/>
		<g id="shape621-1" v:mID="621" v:groupContext="shape" transform="translate(122.812,-68.6704)">
			<title>Blad.621</title>
			<path d="M28.35 325.31 L0 304.05 L0 374.92 L28.35 396.18 L28.35 325.31 Z" class="st1"/>
		</g>
		<g id="shape623-3" v:mID="623" v:groupContext="shape" transform="translate(166.159,-8.13904)">
			<title>Blad.623</title>
			<desc>z</desc>
			<v:textBlock v:margins="rect(4,4,4,4)" v:tabSpace="42.5197"/>
			<v:textRect cx="14.1732" cy="389.092" width="28.35" height="14.1732"/>
			<rect x="0" y="382.006" width="28.3465" height="14.1732" class="st2"/>
			<text x="11.84" y="392.69" class="st3" v:langID="1043"><v:paragraph v:horizAlign="1"/><v:tabList/>z</text>		</g>
		<g id="shape624-6" v:mID="624" v:groupContext="shape" transform="translate(414.538,525.374) rotate(153.435)">
			<title>Blad.624</title>
			<path d="M0 396.18 L4.25 396.18" class="st4"/>
		</g>
		<g id="shape625-9" v:mID="625" v:groupContext="shape" transform="translate(-162.62,220.167) rotate(-90)">
			<title>Blad.625</title>
			<path d="M3.74 396.18 L4.1 396.18 L43.14 396.18" class="st5"/>
		</g>
		<g id="shape628-18" v:mID="628" v:groupContext="shape" transform="translate(57.9818,-153.396) rotate(-26.5651)">
			<title>Blad.628</title>
			<desc>167 mm</desc>
			<v:textBlock v:margins="rect(4,4,4,4)" v:tabSpace="42.5197"/>
			<v:textRect cx="28.3465" cy="394.761" width="56.7" height="2.83465"/>
			<rect x="0" y="393.344" width="56.6929" height="2.83465" class="st2"/>
			<text x="8.51" y="398.36" class="st7" v:langID="1043"><v:paragraph v:horizAlign="1"/><v:tabList/>167 mm</text>		</g>
		<g id="shape630-21" v:mID="630" v:groupContext="shape" transform="translate(60.5172,-81.3532) rotate(-26.5651)">
			<title>Blad.630</title>
			<desc>150 mm</desc>
			<v:textBlock v:margins="rect(4,4,4,4)" v:tabSpace="42.5197"/>
			<v:textRect cx="28.3465" cy="389.092" width="56.7" height="14.1732"/>
			<rect x="0" y="382.006" width="56.6929" height="14.1732" class="st2"/>
			<text x="8.51" y="392.69" class="st7" v:langID="1043"><v:paragraph v:horizAlign="1"/><v:tabList/>150 mm</text>		</g>
		<g id="shape631-24" v:mID="631" v:groupContext="shape" transform="translate(44.316,-15.9985) rotate(-26.5651) scale(-1,1)">
			<title>Blad.631</title>
			<desc>4 × 75 mm</desc>
			<v:textBlock v:margins="rect(4,4,4,4)" v:tabSpace="42.5197"/>
			<v:textRect cx="48.8145" cy="389.092" width="97.63" height="14.1732"/>
			<rect x="0" y="382.006" width="97.629" height="14.1732" class="st2"/>
			<text x="-75.03" y="392.69" transform="scale(-1,1)" class="st7" v:langID="1043"><v:paragraph v:horizAlign="1"/><v:tabList/>4 × 75 mm</text>		</g>
		<g id="shape632-27" v:mID="632" v:groupContext="shape" transform="translate(103.797,-144.202)">
			<title>Blad.632</title>
			<path d="M28.35 396.18 L0 374.92 L0 346.57 L28.35 367.83 L28.35 396.18 Z" class="st8"/>
		</g>
		<g id="shape633-29" v:mID="633" v:groupContext="shape" transform="translate(103.797,-172.549)">
			<title>Blad.633</title>
			<path d="M0 374.92 L28.35 396.18 L104.41 358.15 L76.06 336.89 L0 374.92 Z" class="st9"/>
		</g>
		<g id="shape634-31" v:mID="634" v:groupContext="shape" transform="translate(132.143,-68.6704)">
			<title>Blad.634</title>
			<path d="M0 292.3 L76.06 254.27 L76.06 282.62 L57.05 306.3 L57.05 377.16 L19.02 396.18 L19.02 325.31 L0 320.65 L0 292.3
						 Z" class="st10"/>
		</g>
		<g id="shape635-33" v:mID="635" v:groupContext="shape" transform="translate(410.735,527.276) rotate(153.435)">
			<title>Blad.635</title>
			<path d="M0 396.18 L4.25 396.18" class="st4"/>
		</g>
		<g id="shape640-36" v:mID="640" v:groupContext="shape" transform="translate(414.538,638.76) rotate(153.435)">
			<title>Blad.640</title>
			<path d="M0 396.18 L4.25 396.18" class="st4"/>
		</g>
		<g id="shape641-39" v:mID="641" v:groupContext="shape" transform="translate(410.735,640.661) rotate(153.435)">
			<title>Blad.641</title>
			<path d="M0 396.18 L4.25 396.18" class="st4"/>
		</g>
		<g id="shape642-42" v:mID="642" v:groupContext="shape" transform="translate(347.351,700.7) rotate(153.435)">
			<title>Blad.642</title>
			<path d="M3.74 396.18 L4.1 396.18 L17.16 396.18" class="st5"/>
		</g>
		<g id="shape643-49" v:mID="643" v:groupContext="shape" transform="translate(547.337,355.855) rotate(90)">
			<title>Blad.643</title>
			<path d="M0 396.18 L4.25 396.18" class="st4"/>
		</g>
		<g id="shape644-52" v:mID="644" v:groupContext="shape" transform="translate(-162.62,243.789) rotate(-90)">
			<title>Blad.644</title>
			<path d="M3.74 396.18 L4.1 396.18 L19.52 396.18" class="st5"/>
		</g>
		<g id="shape646-59" v:mID="646" v:groupContext="shape" transform="translate(414.538,572.618) rotate(153.435)">
			<title>Blad.646</title>
			<path d="M0 396.18 L4.25 396.18" class="st4"/>
		</g>
		<g id="shape647-62" v:mID="647" v:groupContext="shape" transform="translate(410.735,574.52) rotate(153.435)">
			<title>Blad.647</title>
			<path d="M0 396.18 L4.25 396.18" class="st4"/>
		</g>
		<g id="shape648-65" v:mID="648" v:groupContext="shape" transform="translate(81.7354,-146.863) rotate(-26.5651)">
			<title>Blad.648</title>
			<path d="M0 396.18 L22.62 396.18" class="st11"/>
		</g>
		<g id="shape649-72" v:mID="649" v:groupContext="shape" transform="translate(328.335,710.208) rotate(153.435)">
			<title>Blad.649</title>
			<path d="M3.74 396.18 L4.1 396.18 L17.16 396.18" class="st5"/>
		</g>
		<g id="shape650-79" v:mID="650" v:groupContext="shape" transform="translate(366.366,691.192) rotate(153.435)">
			<title>Blad.650</title>
			<path d="M3.74 396.18 L4.1 396.18 L17.16 396.18" class="st5"/>
		</g>
		<g id="shape651-86" v:mID="651" v:groupContext="shape" transform="translate(385.381,681.685) rotate(153.435)">
			<title>Blad.651</title>
			<path d="M3.74 396.18 L4.1 396.18 L17.16 396.18" class="st5"/>
		</g>
		<g id="shape652-93" v:mID="652" v:groupContext="shape" transform="translate(547.337,351.603) rotate(90)">
			<title>Blad.652</title>
			<path d="M0 396.18 L4.25 396.18" class="st4"/>
		</g>
		<g id="shape653-96" v:mID="653" v:groupContext="shape" transform="translate(528.322,365.363) rotate(90)">
			<title>Blad.653</title>
			<path d="M0 396.18 L4.25 396.18" class="st4"/>
		</g>
		<g id="shape654-99" v:mID="654" v:groupContext="shape" transform="translate(528.322,361.111) rotate(90)">
			<title>Blad.654</title>
			<path d="M0 396.18 L4.25 396.18" class="st4"/>
		</g>
		<g id="shape655-102" v:mID="655" v:groupContext="shape" transform="translate(566.353,346.347) rotate(90)">
			<title>Blad.655</title>
			<path d="M0 396.18 L4.25 396.18" class="st4"/>
		</g>
		<g id="shape656-105" v:mID="656" v:groupContext="shape" transform="translate(566.353,342.095) rotate(90)">
			<title>Blad.656</title>
			<path d="M0 396.18 L4.25 396.18" class="st4"/>
		</g>
		<g id="shape657-108" v:mID="657" v:groupContext="shape" transform="translate(585.368,336.839) rotate(90)">
			<title>Blad.657</title>
			<path d="M0 396.18 L4.25 396.18" class="st4"/>
		</g>
		<g id="shape658-111" v:mID="658" v:groupContext="shape" transform="translate(585.368,332.587) rotate(90)">
			<title>Blad.658</title>
			<path d="M0 396.18 L4.25 396.18" class="st4"/>
		</g>
		<g id="shape659-114" v:mID="659" v:groupContext="shape" transform="translate(604.383,327.332) rotate(90)">
			<title>Blad.659</title>
			<path d="M0 396.18 L4.25 396.18" class="st4"/>
		</g>
		<g id="shape660-117" v:mID="660" v:groupContext="shape" transform="translate(604.383,323.08) rotate(90)">
			<title>Blad.660</title>
			<path d="M0 396.18 L4.25 396.18" class="st4"/>
		</g>
		<g id="shape661-120" v:mID="661" v:groupContext="shape" transform="translate(566.353,360.52) rotate(90)">
			<title>Blad.661</title>
			<path d="M0 396.18 L22.62 396.18" class="st11"/>
		</g>
		<g id="shape662-125" v:mID="662" v:groupContext="shape" transform="translate(100.986,-142.66) rotate(-26.5651)">
			<title>Blad.662</title>
			<desc>y</desc>
			<v:textBlock v:margins="rect(4,4,4,4)" v:tabSpace="42.5197"/>
			<v:textRect cx="6.67304" cy="389.092" width="13.35" height="14.1732"/>
			<rect x="0" y="382.006" width="13.3461" height="14.1732" class="st2"/>
			<text x="4.01" y="392.69" class="st3" v:langID="1043"><v:paragraph v:horizAlign="1"/><v:tabList/>y</text>		</g>
		<g id="shape663-128" v:mID="663" v:groupContext="shape" transform="translate(166.371,-144.32)">
			<title>Blad.663</title>
			<path d="M7.61 390.03 L3.8 396.18 L0 393.83" class="st13"/>
		</g>
		<g id="shape664-131" v:mID="664" v:groupContext="shape" transform="translate(-34.3065,591.219) rotate(-148.283)">
			<title>Blad.664</title>
			<path d="M0 396.18 L4.47 396.18" class="st13"/>
		</g>
		<g id="shape665-134" v:mID="665" v:groupContext="shape" transform="translate(-170.639,49.7292) rotate(-58.2825)">
			<title>Blad.665</title>
			<path d="M0 396.18 L7.23 396.18" class="st13"/>
		</g>
		<g id="shape666-137" v:mID="666" v:groupContext="shape" transform="translate(-162.62,286.308) rotate(-90)">
			<title>Blad.666</title>
			<path d="M3.74 396.18 L4.1 396.18 L38.42 396.18" class="st5"/>
		</g>
		<g id="shape668-144" v:mID="668" v:groupContext="shape" transform="translate(-34.3065,614.841) rotate(-148.283)">
			<title>Blad.668</title>
			<path d="M0 396.18 L4.47 396.18" class="st13"/>
		</g>
		<g id="shape669-147" v:mID="669" v:groupContext="shape" transform="translate(-38.1096,588.869) rotate(-148.283)">
			<title>Blad.669</title>
			<path d="M0 396.18 L4.47 396.18" class="st13"/>
		</g>
		<g id="shape670-150" v:mID="670" v:groupContext="shape" transform="translate(-38.1096,612.491) rotate(-148.283)">
			<title>Blad.670</title>
			<path d="M0 396.18 L4.47 396.18" class="st13"/>
		</g>
		<g id="shape671-153" v:mID="671" v:groupContext="shape" transform="translate(-170.639,73.3512) rotate(-58.2825)">
			<title>Blad.671</title>
			<path d="M0 396.18 L7.23 396.18" class="st13"/>
		</g>
		<g id="shape672-156" v:mID="672" v:groupContext="shape" transform="translate(-166.836,67.1977) rotate(-58.2825)">
			<title>Blad.672</title>
			<path d="M0 396.18 L7.23 396.18" class="st13"/>
		</g>
		<g id="shape673-159" v:mID="673" v:groupContext="shape" transform="translate(-36.2306,-96.896) rotate(-26.5651)">
			<title>Blad.673</title>
			<desc>N.C.</desc>
			<v:textBlock v:margins="rect(4,4,4,4)" v:tabSpace="42.5197"/>
			<v:textRect cx="32.6077" cy="390.51" width="65.22" height="11.3386"/>
			<rect x="0" y="384.84" width="65.2155" height="11.3386" class="st2"/>
			<text x="21.27" y="394.11" class="st7" v:langID="1043"><v:paragraph v:horizAlign="1"/><v:tabList/>N.C.</text>		</g>
		<g id="shape674-162" v:mID="674" v:groupContext="shape" transform="translate(-17.2859,-54.3452) rotate(-26.5651)">
			<title>Blad.674</title>
			<desc>D</desc>
			<v:textBlock v:margins="rect(4,4,4,4)" v:tabSpace="42.5197"/>
			<v:textRect cx="17.0079" cy="390.51" width="34.02" height="11.3386"/>
			<rect x="0" y="384.84" width="34.0157" height="11.3386" class="st2"/>
			<text x="12.67" y="394.11" class="st7" v:langID="1043"><v:paragraph v:horizAlign="1"/><v:tabList/>D</text>		</g>
		<g id="shape675-165" v:mID="675" v:groupContext="shape" transform="translate(407.881,-65.084) rotate(36.8699)">
			<title>Blad.675</title>
			<path d="M0 396.18 L22.62 396.18" class="st11"/>
		</g>
		<g id="shape676-170" v:mID="676" v:groupContext="shape" transform="translate(422.291,-55.045) rotate(36.8699)">
			<title>Blad.676</title>
			<desc>x</desc>
			<v:textBlock v:margins="rect(4,4,4,4)" v:tabSpace="42.5197"/>
			<v:textRect cx="7.08661" cy="389.092" width="14.18" height="14.1732"/>
			<rect x="0" y="382.006" width="14.1732" height="14.1732" class="st2"/>
			<text x="4.42" y="392.69" class="st3" v:langID="1043"><v:paragraph v:horizAlign="1"/><v:tabList/>x</text>		</g>
		<g id="shape677-173" v:mID="677" v:groupContext="shape" transform="translate(258.285,-346.347)">
			<title>Blad.677</title>
			<desc>A</desc>
			<v:textBlock v:margins="rect(4,4,4,4)" v:tabSpace="42.5197"/>
			<v:textRect cx="7.08661" cy="389.092" width="14.18" height="14.1732"/>
			<rect x="0" y="382.006" width="14.1732" height="14.1732" class="st2"/>
			<text x="4" y="392.69" class="st7" v:langID="1043"><v:paragraph v:horizAlign="1"/><v:tabList/>A</text>		</g>
		<g id="group678-176" transform="translate(262.537,-335.009)" v:mID="678" v:groupContext="group">
			<title>Scharnieroplegging.678</title>
			<g id="shape679-177" v:mID="679" v:groupContext="shape" transform="translate(2.83465,0)">
				<title>Blad.679</title>
				<path d="M0 396.18 L14.17 396.18 L7.09 384.84 L0 396.18 Z" class="st14"/>
			</g>
			<g id="shape680-179" v:mID="680" v:groupContext="shape" transform="translate(2.83465,792.358) rotate(180)">
				<title>Blad.680</title>
				<path d="M0 396.18 L2.83 396.18" class="st13"/>
			</g>
			<g id="shape681-182" v:mID="681" v:groupContext="shape" transform="translate(17.0079,0)">
				<title>Blad.681</title>
				<path d="M0 396.18 L2.83 396.18" class="st13"/>
			</g>
		</g>
		<g id="group682-185" transform="translate(375.923,-332.174)" v:mID="682" v:groupContext="group">
			<title>Rol.682</title>
			<g id="group683-186" transform="translate(0.261477,-2.83465)" v:mID="683" v:groupContext="group">
				<title>Scharnier</title>
				<g id="shape684-187" v:mID="684" v:groupContext="shape" transform="translate(2.79729,0)">
					<title>Blad.684</title>
					<path d="M0 396.18 L13.99 396.18 L6.99 384.84 L0 396.18 Z" class="st14"/>
				</g>
				<g id="shape685-189" v:mID="685" v:groupContext="shape" transform="translate(2.79729,792.358) rotate(180)">
					<title>Blad.685</title>
					<path d="M0 396.18 L2.8 396.18" class="st13"/>
				</g>
				<g id="shape686-192" v:mID="686" v:groupContext="shape" transform="translate(16.7838,0)">
					<title>Blad.686</title>
					<path d="M0 396.18 L2.8 396.18" class="st13"/>
				</g>
			</g>
			<g id="shape687-195" v:mID="687" v:groupContext="shape">
				<title>Blad.687</title>
				<path d="M0 396.18 L19.84 396.18" class="st13"/>
			</g>
		</g>
		<g id="shape688-198" v:mID="688" v:groupContext="shape" transform="translate(272.458,-346.347)">
			<title>Ligger, 2 pt.688</title>
			<path d="M0 396.18 L113.52 396.18" class="st15"/>
		</g>
		<g id="group689-201" transform="translate(272.458,-346.347)" v:mID="689" v:groupContext="group">
			<title>qz-last constant.689</title>
			<g id="shape690-202" v:mID="690" v:groupContext="shape" transform="translate(0,-14.1732)">
				<title>A.58</title>
				<desc>384 kN/m</desc>
				<v:textBlock v:margins="rect(4,4,4,4)" v:tabSpace="42.5197"/>
				<v:textRect cx="35.4331" cy="389.092" width="70.87" height="14.1732"/>
				<rect x="0" y="382.006" width="70.8661" height="14.1732" class="st16"/>
				<text x="11.27" y="392.69" class="st7" v:langID="1043"><v:paragraph v:horizAlign="1"/><v:tabList/>384 kN/m</text>			</g>
			<g id="shape691-205" v:mID="691" v:groupContext="shape" transform="translate(396.179,382.006) rotate(90)">
				<title>Kracht.5</title>
				<path d="M0 396.18 L9.55 396.18" class="st17"/>
			</g>
			<g id="shape692-211" v:mID="692" v:groupContext="shape" transform="translate(3.9968E-15,-14.1732)">
				<title>Blad.692</title>
				<path d="M0 396.18 L70.87 396.18" class="st19"/>
			</g>
			<g id="shape693-214" v:mID="693" v:groupContext="shape" transform="translate(410.352,382.006) rotate(90)">
				<title>Kracht.4</title>
				<path d="M0 396.18 L9.55 396.18" class="st17"/>
			</g>
			<g id="shape694-219" v:mID="694" v:groupContext="shape" transform="translate(424.525,382.006) rotate(90)">
				<title>Kracht.9</title>
				<path d="M0 396.18 L9.55 396.18" class="st17"/>
			</g>
			<g id="shape695-224" v:mID="695" v:groupContext="shape" transform="translate(467.045,382.006) rotate(90)">
				<title>Kracht.6</title>
				<path d="M0 396.18 L9.55 396.18" class="st17"/>
			</g>
			<g id="shape696-229" v:mID="696" v:groupContext="shape" transform="translate(452.872,382.006) rotate(90)">
				<title>Kracht.37</title>
				<path d="M0 396.18 L9.55 396.18" class="st17"/>
			</g>
			<g id="shape697-234" v:mID="697" v:groupContext="shape" transform="translate(438.698,382.006) rotate(90)">
				<title>Kracht.7</title>
				<path d="M0 396.18 L9.55 396.18" class="st17"/>
			</g>
		</g>
		<g id="shape698-239" v:mID="698" v:groupContext="shape" transform="translate(385.844,-346.347)">
			<title>Blad.698</title>
			<desc>B</desc>
			<v:textBlock v:margins="rect(4,4,4,4)" v:tabSpace="42.5197"/>
			<v:textRect cx="7.08661" cy="389.092" width="14.18" height="14.1732"/>
			<rect x="0" y="382.006" width="14.1732" height="14.1732" class="st2"/>
			<text x="4" y="392.69" class="st7" v:langID="1043"><v:paragraph v:horizAlign="1"/><v:tabList/>B</text>		</g>
		<g id="shape699-242" v:mID="699" v:groupContext="shape" transform="translate(336.238,-332.174)">
			<title>Blad.699</title>
			<desc>C</desc>
			<v:textBlock v:margins="rect(4,4,4,4)" v:tabSpace="42.5197"/>
			<v:textRect cx="7.08661" cy="389.092" width="14.18" height="14.1732"/>
			<rect x="0" y="382.006" width="14.1732" height="14.1732" class="st2"/>
			<text x="4" y="392.69" class="st7" v:langID="1043"><v:paragraph v:horizAlign="1"/><v:tabList/>C</text>		</g>
		<g id="group700-245" transform="translate(400.017,-332.701)" v:mID="700" v:groupContext="group">
			<title>x-as.700</title>
			<g id="shape701-246" v:mID="701" v:groupContext="shape" transform="translate(-4.49935E-12,-14.1732)">
				<title>Blad.701</title>
				<path d="M0 396.18 L22.62 396.18" class="st11"/>
			</g>
			<g id="shape702-251" v:mID="702" v:groupContext="shape" transform="translate(14.1732,0)">
				<title>Blad.702</title>
				<desc>x</desc>
				<v:textBlock v:margins="rect(4,4,4,4)" v:tabSpace="42.5197"/>
				<v:textRect cx="7.08661" cy="389.092" width="14.18" height="14.1732"/>
				<rect x="0" y="382.006" width="14.1732" height="14.1732" class="st2"/>
				<text x="4.42" y="392.69" class="st3" v:langID="1043"><v:paragraph v:horizAlign="1"/><v:tabList/>x</text>			</g>
		</g>
		<g id="group703-254" transform="translate(272.458,-303.827)" v:mID="703" v:groupContext="group">
			<title>z-as.703</title>
			<g id="shape704-255" v:mID="704" v:groupContext="shape" transform="translate(396.179,367.832) rotate(90)">
				<title>Blad.704</title>
				<path d="M0 396.18 L22.62 396.18" class="st11"/>
			</g>
			<g id="shape705-260" v:mID="705" v:groupContext="shape">
				<title>Blad.705</title>
				<desc>z</desc>
				<v:textBlock v:margins="rect(4,4,4,4)" v:tabSpace="42.5197"/>
				<v:textRect cx="7.08661" cy="389.092" width="14.18" height="14.1732"/>
				<rect x="0" y="382.006" width="14.1732" height="14.1732" class="st2"/>
				<text x="4.75" y="392.69" class="st3" v:langID="1043"><v:paragraph v:horizAlign="1"/><v:tabList/>z</text>			</g>
		</g>
		<g id="group706-263" transform="translate(272.458,-275.481)" v:mID="706" v:groupContext="group">
			<title>Maatlijn.706</title>
			<g id="group707-264" transform="translate(0,-9.92126)" v:mID="707" v:groupContext="group">
				<title>Maatlijn.31</title>
				<g id="shape708-265" v:mID="708" v:groupContext="shape" transform="translate(396.179,387.675) rotate(90)">
					<title>Blad.708</title>
					<path d="M0 396.18 L8.5 396.18" class="st4"/>
				</g>
				<g id="shape709-268" v:mID="709" v:groupContext="shape" transform="translate(467.045,387.675) rotate(90)">
					<title>Blad.709</title>
					<path d="M0 396.18 L8.5 396.18" class="st4"/>
				</g>
				<g id="shape710-271" v:mID="710" v:groupContext="shape" transform="translate(0,-4.25197)">
					<title>Blad.710</title>
					<path d="M3.74 396.18 L4.1 396.18 L66.77 396.18" class="st5"/>
				</g>
			</g>
			<g id="shape711-278" v:mID="711" v:groupContext="shape">
				<title>Blad.711</title>
				<desc>5 m</desc>
				<v:textBlock v:margins="rect(4,4,4,4)" v:tabSpace="42.5197"/>
				<v:textRect cx="35.4331" cy="389.092" width="70.87" height="14.1732"/>
				<rect x="0" y="382.006" width="70.8661" height="14.1732" class="st2"/>
				<text x="26.27" y="392.69" class="st7" v:langID="1043"><v:paragraph v:horizAlign="1"/><v:tabList/>5 m</text>			</g>
		</g>
		<g id="group712-281" transform="translate(343.324,-275.481)" v:mID="712" v:groupContext="group">
			<title>Maatlijn.712</title>
			<g id="group713-282" transform="translate(0,-9.92126)" v:mID="713" v:groupContext="group">
				<title>Maatlijn.31</title>
				<g id="shape714-283" v:mID="714" v:groupContext="shape" transform="translate(396.179,387.675) rotate(90)">
					<title>Blad.714</title>
					<path d="M0 396.18 L8.5 396.18" class="st4"/>
				</g>
				<g id="shape715-286" v:mID="715" v:groupContext="shape" transform="translate(438.698,387.675) rotate(90)">
					<title>Blad.715</title>
					<path d="M0 396.18 L8.5 396.18" class="st4"/>
				</g>
				<g id="shape716-289" v:mID="716" v:groupContext="shape" transform="translate(0,-4.25197)">
					<title>Blad.716</title>
					<path d="M3.74 396.18 L4.1 396.18 L38.42 396.18" class="st5"/>
				</g>
			</g>
			<g id="shape717-296" v:mID="717" v:groupContext="shape">
				<title>Blad.717</title>
				<desc>3 m</desc>
				<v:textBlock v:margins="rect(4,4,4,4)" v:tabSpace="42.5197"/>
				<v:textRect cx="21.2598" cy="389.092" width="42.52" height="14.1732"/>
				<rect x="0" y="382.006" width="42.5197" height="14.1732" class="st2"/>
				<text x="12.09" y="392.69" class="st7" v:langID="1043"><v:paragraph v:horizAlign="1"/><v:tabList/>3 m</text>			</g>
		</g>
		<g id="shape722-299" v:mID="722" v:groupContext="shape" transform="translate(-39.9631,-120.782) rotate(-26.5651)">
			<title>Blad.722</title>
			<desc>Doorsnede C</desc>
			<v:textBlock v:margins="rect(4,4,4,4)" v:tabSpace="42.5197"/>
			<v:textRect cx="42.5825" cy="390.51" width="85.17" height="11.3386"/>
			<rect x="0" y="384.84" width="85.165" height="11.3386" class="st2"/>
			<text x="11.09" y="394.11" class="st7" v:langID="1043"><v:paragraph v:horizAlign="1"/><v:tabList/>Doorsnede C</text>		</g>
		<g id="shape749-302" v:mID="749" v:groupContext="shape" transform="translate(4.58394,-275.481)">
			<title>Blad.749</title>
			<path d="M0 282.79 L0 311.14 L21.26 325.31 L21.26 396.18 L63.78 396.18 L63.78 325.31 L85.04 311.14 L85.04 282.79 L0 282.79
						 Z" class="st20"/>
		</g>
		<g id="group750-304" transform="translate(160.49,-325.087)" v:mID="750" v:groupContext="group">
			<title>x-as.750</title>
			<g id="shape751-305" v:mID="751" v:groupContext="shape" transform="translate(-4.49935E-12,-14.1732)">
				<title>Blad.751</title>
				<path d="M0 396.18 L22.62 396.18" class="st11"/>
			</g>
			<g id="shape752-310" v:mID="752" v:groupContext="shape" transform="translate(14.1732,0)">
				<title>Blad.752</title>
				<desc>y</desc>
				<v:textBlock v:margins="rect(4,4,4,4)" v:tabSpace="42.5197"/>
				<v:textRect cx="7.08661" cy="389.092" width="14.18" height="14.1732"/>
				<rect x="0" y="382.006" width="14.1732" height="14.1732" class="st2"/>
				<text x="4.42" y="392.69" class="st3" v:langID="1043"><v:paragraph v:horizAlign="1"/><v:tabList/>y</text>			</g>
		</g>
		<g id="group753-313" transform="translate(99.5446,-360.52)" v:mID="753" v:groupContext="group">
			<title>Maatlijn verticaal.753</title>
			<g id="group754-314" transform="translate(-387.675,396.179) rotate(-90)" v:mID="754" v:groupContext="group">
				<title>Maatlijn.31</title>
				<g id="shape755-315" v:mID="755" v:groupContext="shape" transform="translate(396.179,387.675) rotate(90)">
					<title>Blad.755</title>
					<path d="M0 396.18 L8.5 396.18" class="st4"/>
				</g>
				<g id="shape756-318" v:mID="756" v:groupContext="shape" transform="translate(424.525,387.675) rotate(90)">
					<title>Blad.756</title>
					<path d="M0 396.18 L8.5 396.18" class="st4"/>
				</g>
				<g id="shape757-321" v:mID="757" v:groupContext="shape" transform="translate(0,-4.25197)">
					<title>Blad.757</title>
					<path d="M3.74 396.18 L4.1 396.18 L24.25 396.18" class="st5"/>
				</g>
			</g>
			<g id="shape758-328" v:mID="758" v:groupContext="shape" transform="translate(4.25197,-11.3386)">
				<title>Blad.758</title>
				<desc>100 mm</desc>
				<v:textBlock v:margins="rect(4,4,4,4)" v:tabSpace="42.5197"/>
				<v:textRect cx="28.3465" cy="393.344" width="56.7" height="5.66929"/>
				<rect x="0" y="390.51" width="56.6929" height="5.66929" class="st2"/>
				<text x="8.51" y="396.94" class="st7" v:langID="1043"><v:paragraph v:horizAlign="1"/><v:tabList/>100 mm</text>			</g>
		</g>
		<g id="group759-331" transform="translate(99.5446,-346.347)" v:mID="759" v:groupContext="group">
			<title>Maatlijn verticaal.759</title>
			<g id="group760-332" transform="translate(-387.675,396.179) rotate(-90)" v:mID="760" v:groupContext="group">
				<title>Maatlijn.31</title>
				<g id="shape761-333" v:mID="761" v:groupContext="shape" transform="translate(396.179,387.675) rotate(90)">
					<title>Blad.761</title>
					<path d="M0 396.18 L8.5 396.18" class="st4"/>
				</g>
				<g id="shape762-336" v:mID="762" v:groupContext="shape" transform="translate(410.352,387.675) rotate(90)">
					<title>Blad.762</title>
					<path d="M0 396.18 L8.5 396.18" class="st4"/>
				</g>
				<g id="shape763-339" v:mID="763" v:groupContext="shape" transform="translate(0,-4.25197)">
					<title>Blad.763</title>
					<path d="M3.74 396.18 L4.1 396.18 L10.07 396.18" class="st5"/>
				</g>
			</g>
			<g id="shape764-346" v:mID="764" v:groupContext="shape" transform="translate(4.25197,-5.66929)">
				<title>Blad.764</title>
				<desc>50 mm</desc>
				<v:textBlock v:margins="rect(4,4,4,4)" v:tabSpace="42.5197"/>
				<v:textRect cx="28.3465" cy="394.761" width="56.7" height="2.83465"/>
				<rect x="0" y="393.344" width="56.6929" height="2.83465" class="st2"/>
				<text x="11.51" y="398.36" class="st7" v:langID="1043"><v:paragraph v:horizAlign="1"/><v:tabList/>50 mm</text>			</g>
		</g>
		<g id="group765-349" transform="translate(99.5446,-275.481)" v:mID="765" v:groupContext="group">
			<title>Maatlijn verticaal.765</title>
			<g id="group766-350" transform="translate(-387.675,396.179) rotate(-90)" v:mID="766" v:groupContext="group">
				<title>Maatlijn.31</title>
				<g id="shape767-351" v:mID="767" v:groupContext="shape" transform="translate(396.179,387.675) rotate(90)">
					<title>Blad.767</title>
					<path d="M0 396.18 L8.5 396.18" class="st4"/>
				</g>
				<g id="shape768-354" v:mID="768" v:groupContext="shape" transform="translate(462.226,387.675) rotate(90)">
					<title>Blad.768</title>
					<path d="M0 396.18 L8.5 396.18" class="st4"/>
				</g>
				<g id="shape769-357" v:mID="769" v:groupContext="shape" transform="translate(0,-4.25197)">
					<title>Blad.769</title>
					<path d="M3.74 396.18 L4.1 396.18 L61.95 396.18" class="st5"/>
				</g>
			</g>
			<g id="shape770-364" v:mID="770" v:groupContext="shape" transform="translate(-2.83465,-26.4189)">
				<title>Blad.770</title>
				<desc>≈ 233 mm</desc>
				<v:textBlock v:margins="rect(4,4,4,4)" v:tabSpace="42.5197"/>
				<v:textRect cx="35.4331" cy="389.574" width="70.87" height="13.2094"/>
				<rect x="0" y="382.969" width="70.8661" height="13.2094" class="st2"/>
				<text x="10.81" y="393.17" class="st7" v:langID="1043"><v:paragraph v:horizAlign="1"/><v:tabList/>≈ 233 mm</text>			</g>
		</g>
		<g id="group771-367" transform="translate(160.49,-374.694)" v:mID="771" v:groupContext="group">
			<title>x-as.771</title>
			<g id="shape772-368" v:mID="772" v:groupContext="shape" transform="translate(-4.49935E-12,-14.1732)">
				<title>Blad.772</title>
				<path d="M0 396.18 L22.62 396.18" class="st11"/>
			</g>
			<g id="shape773-373" v:mID="773" v:groupContext="shape" transform="translate(14.1732,0)">
				<title>Blad.773</title>
				<desc>y</desc>
				<v:textBlock v:margins="rect(4,4,4,4)" v:tabSpace="42.5197"/>
				<v:textRect cx="7.08661" cy="389.092" width="14.18" height="14.1732"/>
				<rect x="0" y="382.006" width="14.1732" height="14.1732" class="st2"/>
				<text x="4.42" y="392.69" class="st3" v:langID="1043"><v:paragraph v:horizAlign="1"/><v:tabList/>y</text>			</g>
		</g>
		<g id="group780-376" transform="translate(68.3635,-247.135)" v:mID="780" v:groupContext="group">
			<title>Maatlijn.780</title>
			<g id="group781-377" transform="translate(0,-9.92126)" v:mID="781" v:groupContext="group">
				<title>Maatlijn.31</title>
				<g id="shape782-378" v:mID="782" v:groupContext="shape" transform="translate(396.179,387.675) rotate(90)">
					<title>Blad.782</title>
					<path d="M0 396.18 L8.5 396.18" class="st4"/>
				</g>
				<g id="shape783-381" v:mID="783" v:groupContext="shape" transform="translate(417.439,387.675) rotate(90)">
					<title>Blad.783</title>
					<path d="M0 396.18 L8.5 396.18" class="st4"/>
				</g>
				<g id="shape784-384" v:mID="784" v:groupContext="shape" transform="translate(0,-4.25197)">
					<title>Blad.784</title>
					<path d="M3.74 396.18 L4.1 396.18 L17.16 396.18" class="st5"/>
				</g>
			</g>
		</g>
		<g id="group786-391" transform="translate(25.8438,-247.135) scale(-1,1)" v:mID="786" v:groupContext="group">
			<title>Maatlijn.786</title>
			<g id="group787-392" transform="translate(0,-9.92126)" v:mID="787" v:groupContext="group">
				<title>Maatlijn.31</title>
				<g id="shape788-393" v:mID="788" v:groupContext="shape" transform="translate(396.179,387.675) rotate(90)">
					<title>Blad.788</title>
					<path d="M0 396.18 L8.5 396.18" class="st4"/>
				</g>
				<g id="shape789-396" v:mID="789" v:groupContext="shape" transform="translate(417.439,387.675) rotate(90)">
					<title>Blad.789</title>
					<path d="M0 396.18 L8.5 396.18" class="st4"/>
				</g>
				<g id="shape790-399" v:mID="790" v:groupContext="shape" transform="translate(0,-4.25197)">
					<title>Blad.790</title>
					<path d="M3.74 396.18 L4.1 396.18 L17.16 396.18" class="st5"/>
				</g>
			</g>
		</g>
		<g id="shape792-406" v:mID="792" v:groupContext="shape" transform="translate(179.482,-384.615)">
			<title>Blad.792</title>
			<path d="M0 396.18 L5.1 396.18" class="st21"/>
		</g>
		<g id="shape805-409" v:mID="805" v:groupContext="shape" transform="translate(-233.035,334.793) rotate(-135)">
			<title>Blad.805</title>
			<path d="M0 396.18 L6.01 396.18" class="st13"/>
		</g>
		<g id="shape806-412" v:mID="806" v:groupContext="shape" transform="translate(-237.287,-221.24) rotate(-44.9997)">
			<title>Blad.806</title>
			<path d="M0 396.18 L6.01 396.18" class="st13"/>
		</g>
		<g id="shape807-415" v:mID="807" v:groupContext="shape" transform="translate(-228.787,339.042) rotate(-135)">
			<title>Blad.807</title>
			<path d="M0 396.18 L6.01 396.18" class="st13"/>
		</g>
		<g id="shape808-418" v:mID="808" v:groupContext="shape" transform="translate(-233.039,-225.488) rotate(-45.0003)">
			<title>Blad.808</title>
			<path d="M0 396.18 L6.01 396.18" class="st13"/>
		</g>
		<g id="shape809-421" v:mID="809" v:groupContext="shape" transform="translate(14.4959,-349.182)">
			<title>Blad.809</title>
			<desc>N.C.</desc>
			<v:textBlock v:margins="rect(4,4,4,4)" v:tabSpace="42.5197"/>
			<v:textRect cx="32.6077" cy="390.51" width="65.22" height="11.3386"/>
			<rect x="0" y="384.84" width="65.2155" height="11.3386" class="st2"/>
			<text x="21.27" y="394.11" class="st7" v:langID="1043"><v:paragraph v:horizAlign="1"/><v:tabList/>N.C.</text>		</g>
		<g id="shape816-424" v:mID="816" v:groupContext="shape" transform="translate(499.975,49.8316) rotate(90)">
			<title>Blad.816</title>
			<path d="M0 396.18 L4.82 396.18" class="st4"/>
		</g>
		<g id="shape823-427" v:mID="823" v:groupContext="shape" transform="translate(96.7099,-341.812)">
			<title>Maatlijn verticaal.764</title>
			<desc>≈ 17 mm</desc>
			<v:textBlock v:margins="rect(4,4,4,4)" v:tabSpace="42.5197"/>
			<v:textRect cx="35.4331" cy="394.761" width="70.87" height="2.83465"/>
			<rect x="0" y="393.344" width="70.8661" height="2.83465" class="st2"/>
			<text x="13.81" y="398.36" class="st7" v:langID="1043"><v:paragraph v:horizAlign="1"/><v:tabList/>≈ 17 mm</text>		</g>
		<g id="group826-430" transform="translate(25.8438,-247.135)" v:mID="826" v:groupContext="group">
			<title>Maatlijn.826</title>
			<g id="group827-431" transform="translate(0,-9.92126)" v:mID="827" v:groupContext="group">
				<title>Maatlijn.31</title>
				<g id="shape828-432" v:mID="828" v:groupContext="shape" transform="translate(396.179,387.675) rotate(90)">
					<title>Blad.828</title>
					<path d="M0 396.18 L8.5 396.18" class="st4"/>
				</g>
				<g id="shape829-435" v:mID="829" v:groupContext="shape" transform="translate(417.439,387.675) rotate(90)">
					<title>Blad.829</title>
					<path d="M0 396.18 L8.5 396.18" class="st4"/>
				</g>
				<g id="shape830-438" v:mID="830" v:groupContext="shape" transform="translate(0,-4.25197)">
					<title>Blad.830</title>
					<path d="M3.74 396.18 L4.1 396.18 L17.16 396.18" class="st5"/>
				</g>
			</g>
			<g id="shape831-445" v:mID="831" v:groupContext="shape" transform="translate(-3.54331,5.68434E-14)">
				<title>Blad.831</title>
				<rect x="0" y="382.006" width="42.5197" height="14.1732" class="st2"/>
			</g>
		</g>
		<g id="group832-447" transform="translate(47.1036,-247.135)" v:mID="832" v:groupContext="group">
			<title>Maatlijn.832</title>
			<g id="group833-448" transform="translate(0,-9.92126)" v:mID="833" v:groupContext="group">
				<title>Maatlijn.31</title>
				<g id="shape834-449" v:mID="834" v:groupContext="shape" transform="translate(396.179,387.675) rotate(90)">
					<title>Blad.834</title>
					<path d="M0 396.18 L8.5 396.18" class="st4"/>
				</g>
				<g id="shape835-452" v:mID="835" v:groupContext="shape" transform="translate(417.439,387.675) rotate(90)">
					<title>Blad.835</title>
					<path d="M0 396.18 L8.5 396.18" class="st4"/>
				</g>
				<g id="shape836-455" v:mID="836" v:groupContext="shape" transform="translate(0,-4.25197)">
					<title>Blad.836</title>
					<path d="M3.74 396.18 L4.1 396.18 L17.16 396.18" class="st5"/>
				</g>
			</g>
			<g id="shape837-462" v:mID="837" v:groupContext="shape" transform="translate(-42.5197,5.68434E-14)">
				<title>Blad.837</title>
				<desc>4 × 75 mm</desc>
				<v:textBlock v:margins="rect(4,4,4,4)" v:tabSpace="42.5197"/>
				<v:textRect cx="42.5197" cy="389.092" width="85.04" height="14.1732"/>
				<rect x="0" y="382.006" width="85.0394" height="14.1732" class="st2"/>
				<text x="16.3" y="392.69" class="st7" v:langID="1043"><v:paragraph v:horizAlign="1"/><v:tabList/>4 × 75 mm</text>			</g>
		</g>
		<g id="shape838-465" v:mID="838" v:groupContext="shape" transform="translate(42.0012,-219.355)">
			<title>Blad.838</title>
			<desc>z</desc>
			<v:textBlock v:margins="rect(4,4,4,4)" v:tabSpace="42.5197"/>
			<v:textRect cx="14.1732" cy="389.092" width="28.35" height="14.1732"/>
			<rect x="0" y="382.006" width="28.3465" height="14.1732" class="st2"/>
			<text x="11.84" y="392.69" class="st3" v:langID="1043"><v:paragraph v:horizAlign="1"/><v:tabList/>z</text>		</g>
		<g id="shape839-468" v:mID="839" v:groupContext="shape" transform="translate(443.282,149.044) rotate(90)">
			<title>Blad.839</title>
			<path d="M0 396.18 L22.62 396.18" class="st11"/>
		</g>
		<g id="shape840-473" v:mID="840" v:groupContext="shape" transform="translate(57.9818,-114.762) rotate(-26.5651)">
			<title>Blad.840</title>
			<desc>83 mm</desc>
			<v:textBlock v:margins="rect(4,4,4,4)" v:tabSpace="42.5197"/>
			<v:textRect cx="28.3465" cy="394.761" width="56.7" height="2.83465"/>
			<rect x="0" y="393.344" width="56.6929" height="2.83465" class="st2"/>
			<text x="11.51" y="398.36" class="st7" v:langID="1043"><v:paragraph v:horizAlign="1"/><v:tabList/>83 mm</text>		</g>
	</g>
</svg>
