<?xml version="1.0" encoding="UTF-8" standalone="no"?>
<!DOCTYPE svg PUBLIC "-//W3C//DTD SVG 1.1//EN" "http://www.w3.org/Graphics/SVG/1.1/DTD/svg11.dtd">
<!-- Gegenereerd door Microsoft Visio, SVG Export constructie.svg Pagina-1 -->
<svg xmlns="http://www.w3.org/2000/svg" xmlns:xlink="http://www.w3.org/1999/xlink" xmlns:ev="http://www.w3.org/2001/xml-events"
		xmlns:v="http://schemas.microsoft.com/visio/2003/SVGExtensions/" width="4.97985in" height="3.55447in"
		viewBox="0 0 358.549 255.922" xml:space="preserve" color-interpolation-filters="sRGB" class="st22">
	<v:documentProperties v:langID="1043" v:metric="true" v:viewMarkup="false"/>

	<style type="text/css">
	<![CDATA[
		.st1 {fill:#7f7f7f;stroke:none;stroke-linecap:round;stroke-linejoin:round;stroke-width:0.75}
		.st2 {fill:none;stroke:none;stroke-linecap:round;stroke-linejoin:round;stroke-width:0.75}
		.st3 {fill:#000000;font-family:Times New Roman;font-size:1.00001em;font-style:italic}
		.st4 {stroke:#000000;stroke-linecap:round;stroke-linejoin:round;stroke-width:0.25}
		.st5 {marker-end:url(#mrkr4-17);marker-start:url(#mrkr4-15);stroke:#000000;stroke-linecap:round;stroke-linejoin:round;stroke-width:0.25}
		.st6 {fill:#000000;fill-opacity:1;stroke:#000000;stroke-opacity:1;stroke-width:0.12195121951219}
		.st7 {fill:#000000;font-family:Times New Roman;font-size:1.00001em}
		.st8 {fill:#a5a5a5;stroke:none;stroke-linecap:round;stroke-linejoin:round;stroke-width:0.75}
		.st9 {fill:#bfbfbf;stroke:none;stroke-linecap:round;stroke-linejoin:round;stroke-width:0.75}
		.st10 {fill:#d8d8d8;stroke:none;stroke-linecap:round;stroke-linejoin:round;stroke-width:0.75}
		.st11 {font-size:1em}
		.st12 {marker-end:url(#mrkr5-100);stroke:#000000;stroke-linecap:round;stroke-linejoin:round;stroke-width:0.75}
		.st13 {fill:#000000;fill-opacity:1;stroke:#000000;stroke-opacity:1;stroke-width:0.22935779816514}
		.st14 {stroke:#000000;stroke-linecap:round;stroke-linejoin:round;stroke-width:0.75}
		.st15 {fill:#00cc99;stroke:#000000;stroke-linecap:round;stroke-linejoin:round;stroke-width:0.75}
		.st16 {stroke:#000000;stroke-linecap:round;stroke-linejoin:round;stroke-width:2}
		.st17 {fill:none;stroke:none;stroke-linecap:round;stroke-linejoin:round;stroke-width:0.24}
		.st18 {marker-end:url(#mrkr5-242);stroke:#800000;stroke-linecap:round;stroke-linejoin:round;stroke-width:1.2}
		.st19 {fill:#800000;fill-opacity:1;stroke:#800000;stroke-opacity:1;stroke-width:0.45454545454546}
		.st20 {stroke:#800000;stroke-linecap:round;stroke-linejoin:round;stroke-width:1.2}
		.st21 {stroke:#000000;stroke-linecap:round;stroke-linejoin:round;stroke-width:0.5}
		.st22 {fill:none;fill-rule:evenodd;font-size:12px;overflow:visible;stroke-linecap:square;stroke-miterlimit:3}
	]]>
	</style>

	<defs id="Markers">
		<g id="lend4">
			<path d="M 2 1 L 0 0 L 2 -1 L 2 1 " style="stroke:none"/>
		</g>
		<marker id="mrkr4-15" class="st6" v:arrowType="4" v:arrowSize="1" v:setback="14.96" refX="14.96" orient="auto"
				markerUnits="strokeWidth" overflow="visible">
			<use xlink:href="#lend4" transform="scale(8.2) "/>
		</marker>
		<marker id="mrkr4-17" class="st6" v:arrowType="4" v:arrowSize="1" v:setback="16.4" refX="-16.4" orient="auto"
				markerUnits="strokeWidth" overflow="visible">
			<use xlink:href="#lend4" transform="scale(-8.2,-8.2) "/>
		</marker>
		<g id="lend5">
			<path d="M 2 1 L 0 0 L 1.98117 -0.993387 C 1.67173 -0.364515 1.67301 0.372641 1.98465 1.00043 " style="stroke:none"/>
		</g>
		<marker id="mrkr5-100" class="st13" v:arrowType="5" v:arrowSize="2" v:setback="7.63" refX="-7.63" orient="auto"
				markerUnits="strokeWidth" overflow="visible">
			<use xlink:href="#lend5" transform="scale(-4.36,-4.36) "/>
		</marker>
		<marker id="mrkr5-242" class="st19" v:arrowType="5" v:arrowSize="0" v:setback="3.85" refX="-3.85" orient="auto"
				markerUnits="strokeWidth" overflow="visible">
			<use xlink:href="#lend5" transform="scale(-2.2,-2.2) "/>
		</marker>
	</defs>
	<g v:mID="0" v:index="1" v:groupContext="foregroundPage">
		<title>Pagina-1</title>
		<v:pageProperties v:drawingScale="0.0393701" v:pageScale="0.0393701" v:drawingUnits="24" v:shadowOffsetX="8.50394"
				v:shadowOffsetY="-8.50394"/>
		<g id="shape351-1" v:mID="351" v:groupContext="shape" transform="translate(189.469,-68.6704)">
			<title>Blad.351</title>
			<path d="M28.35 185.06 L0 163.8 L0 234.66 L28.35 255.92 L28.35 185.06 Z" class="st1"/>
		</g>
		<g id="shape292-3" v:mID="292" v:groupContext="shape" transform="translate(232.816,-8.13904)">
			<title>Blad.292</title>
			<desc>z</desc>
			<v:textBlock v:margins="rect(4,4,4,4)" v:tabSpace="42.5197"/>
			<v:textRect cx="14.1732" cy="248.835" width="28.35" height="14.1732"/>
			<rect x="0" y="241.749" width="28.3465" height="14.1732" class="st2"/>
			<text x="11.84" y="252.44" class="st3" v:langID="1043"><v:paragraph v:horizAlign="1"/><v:tabList/>z</text>		</g>
		<g id="shape299-6" v:mID="299" v:groupContext="shape" transform="translate(418.471,259.668) rotate(153.435)">
			<title>Blad.299</title>
			<path d="M0 255.92 L4.25 255.92" class="st4"/>
		</g>
		<g id="shape300-9" v:mID="300" v:groupContext="shape" transform="translate(44.2936,61.0123) rotate(-90)">
			<title>Blad.300</title>
			<path d="M3.74 255.92 L4.1 255.92 L24.25 255.92" class="st5"/>
		</g>
		<g id="shape301-18" v:mID="301" v:groupContext="shape" transform="translate(186.711,-177.468) rotate(-26.5651)">
			<title>Blad.301</title>
			<desc>100 mm</desc>
			<v:textBlock v:margins="rect(4,4,4,4)" v:tabSpace="42.5197"/>
			<v:textRect cx="28.3465" cy="253.087" width="56.7" height="5.66929"/>
			<rect x="0" y="250.253" width="56.6929" height="5.66929" class="st2"/>
			<text x="8.51" y="256.69" class="st7" v:langID="1043"><v:paragraph v:horizAlign="1"/><v:tabList/>100 mm</text>		</g>
		<g id="shape306-21" v:mID="306" v:groupContext="shape" transform="translate(44.2936,75.1855) rotate(-90)">
			<title>Blad.306</title>
			<path d="M3.74 255.92 L4.1 255.92 L10.07 255.92" class="st5"/>
		</g>
		<g id="shape307-28" v:mID="307" v:groupContext="shape" transform="translate(187.187,-159.703) rotate(-26.5651)">
			<title>Blad.307</title>
			<desc>50 mm</desc>
			<v:textBlock v:margins="rect(4,4,4,4)" v:tabSpace="42.5197"/>
			<v:textRect cx="28.3465" cy="254.505" width="56.7" height="2.83465"/>
			<rect x="0" y="253.087" width="56.6929" height="2.83465" class="st2"/>
			<text x="11.51" y="258.1" class="st7" v:langID="1043"><v:paragraph v:horizAlign="1"/><v:tabList/>50 mm</text>		</g>
		<g id="shape312-31" v:mID="312" v:groupContext="shape" transform="translate(44.2936,79.9099) rotate(-90)">
			<title>Blad.312</title>
			<path d="M0 255.92 L4.72 255.92" class="st4"/>
		</g>
		<g id="shape313-34" v:mID="313" v:groupContext="shape" transform="translate(189.899,-96.1606) rotate(-26.5651)">
			<title>Blad.313</title>
			<desc>150 mm</desc>
			<v:textBlock v:margins="rect(4,4,4,4)" v:tabSpace="42.5197"/>
			<v:textRect cx="28.3465" cy="248.835" width="56.7" height="14.1732"/>
			<rect x="0" y="241.749" width="56.6929" height="14.1732" class="st2"/>
			<text x="8.51" y="252.44" class="st7" v:langID="1043"><v:paragraph v:horizAlign="1"/><v:tabList/>150 mm</text>		</g>
		<g id="shape334-37" v:mID="334" v:groupContext="shape" transform="translate(173.698,-30.8058) rotate(-26.5651) scale(-1,1)">
			<title>Blad.334</title>
			<desc>4 × 75 mm</desc>
			<v:textBlock v:margins="rect(4,4,4,4)" v:tabSpace="42.5197"/>
			<v:textRect cx="48.8145" cy="248.835" width="97.63" height="14.1732"/>
			<rect x="0" y="241.749" width="97.629" height="14.1732" class="st2"/>
			<text x="-75.03" y="252.44" transform="scale(-1,1)" class="st7" v:langID="1043"><v:paragraph v:horizAlign="1"/><v:tabList/>4 × 75 mm</text>		</g>
		<g id="shape348-40" v:mID="348" v:groupContext="shape" transform="translate(170.454,-144.202)">
			<title>Blad.348</title>
			<path d="M28.35 255.92 L0 234.66 L0 206.32 L28.35 227.58 L28.35 255.92 Z" class="st8"/>
		</g>
		<g id="shape353-42" v:mID="353" v:groupContext="shape" transform="translate(170.454,-172.549)">
			<title>Blad.353</title>
			<path d="M0 234.66 L28.35 255.92 L104.41 217.89 L76.06 196.63 L0 234.66 Z" class="st9"/>
		</g>
		<g id="shape339-44" v:mID="339" v:groupContext="shape" transform="translate(198.8,-68.6704)">
			<title>Blad.339</title>
			<path d="M0 152.04 L76.06 114.01 L76.06 142.36 L57.05 166.04 L57.05 236.91 L19.02 255.92 L19.02 185.06 L0 180.39 L0 152.04
						 Z" class="st10"/>
		</g>
		<g id="shape356-46" v:mID="356" v:groupContext="shape" transform="translate(414.668,261.569) rotate(153.435)">
			<title>Blad.356</title>
			<path d="M0 255.92 L4.25 255.92" class="st4"/>
		</g>
		<g id="shape357-49" v:mID="357" v:groupContext="shape" transform="translate(414.668,289.916) rotate(153.435)">
			<title>Blad.357</title>
			<path d="M0 255.92 L4.25 255.92" class="st4"/>
		</g>
		<g id="shape358-52" v:mID="358" v:groupContext="shape" transform="translate(418.471,288.014) rotate(153.435)">
			<title>Blad.358</title>
			<path d="M0 255.92 L4.25 255.92" class="st4"/>
		</g>
		<g id="shape359-55" v:mID="359" v:groupContext="shape" transform="translate(418.471,302.188) rotate(153.435)">
			<title>Blad.359</title>
			<path d="M0 255.92 L4.25 255.92" class="st4"/>
		</g>
		<g id="shape360-58" v:mID="360" v:groupContext="shape" transform="translate(414.668,304.089) rotate(153.435)">
			<title>Blad.360</title>
			<path d="M0 255.92 L4.25 255.92" class="st4"/>
		</g>
		<g id="shape361-61" v:mID="361" v:groupContext="shape" transform="translate(418.471,373.054) rotate(153.435)">
			<title>Blad.361</title>
			<path d="M0 255.92 L4.25 255.92" class="st4"/>
		</g>
		<g id="shape362-64" v:mID="362" v:groupContext="shape" transform="translate(414.668,374.955) rotate(153.435)">
			<title>Blad.362</title>
			<path d="M0 255.92 L4.25 255.92" class="st4"/>
		</g>
		<g id="shape367-67" v:mID="367" v:groupContext="shape" transform="translate(351.283,434.994) rotate(153.435)">
			<title>Blad.367</title>
			<path d="M3.74 255.92 L4.1 255.92 L17.16 255.92" class="st5"/>
		</g>
		<g id="shape374-74" v:mID="374" v:groupContext="shape" transform="translate(473.738,215.598) rotate(90)">
			<title>Blad.374</title>
			<path d="M0 255.92 L4.25 255.92" class="st4"/>
		</g>
		<g id="shape379-77" v:mID="379" v:groupContext="shape" transform="translate(44.2936,103.532) rotate(-90)">
			<title>Blad.379</title>
			<path d="M3.74 255.92 L4.1 255.92 L19.52 255.92" class="st5"/>
		</g>
		<g id="shape380-84" v:mID="380" v:groupContext="shape" transform="translate(147.77,-123.373) rotate(-26.5651)">
			<title>Blad.380</title>
			<desc>≈ 17 mm</desc>
			<v:textBlock v:margins="rect(4,4,4,4)" v:tabSpace="42.5197"/>
			<v:textRect cx="28.3465" cy="248.835" width="56.7" height="14.1732"/>
			<rect x="0" y="241.749" width="56.6929" height="14.1732" class="st2"/>
			<text x="17.55" y="245.24" class="st7" v:langID="1043"><v:paragraph v:horizAlign="1"/><v:tabList/>≈ 17<v:newlineChar/><tspan
						x="19.01" dy="1.2em" class="st11">mm</tspan></text>		</g>
		<g id="shape381-88" v:mID="381" v:groupContext="shape" transform="translate(418.471,306.912) rotate(153.435)">
			<title>Blad.381</title>
			<path d="M0 255.92 L4.25 255.92" class="st4"/>
		</g>
		<g id="shape382-91" v:mID="382" v:groupContext="shape" transform="translate(414.668,308.813) rotate(153.435)">
			<title>Blad.382</title>
			<path d="M0 255.92 L4.25 255.92" class="st4"/>
		</g>
		<g id="shape383-94" v:mID="383" v:groupContext="shape" transform="translate(211.117,-161.671) rotate(-26.5651)">
			<title>Blad.383</title>
			<path d="M0 255.92 L22.62 255.92" class="st12"/>
		</g>
		<g id="shape390-101" v:mID="390" v:groupContext="shape" transform="translate(332.268,444.502) rotate(153.435)">
			<title>Blad.390</title>
			<path d="M3.74 255.92 L4.1 255.92 L17.16 255.92" class="st5"/>
		</g>
		<g id="shape391-108" v:mID="391" v:groupContext="shape" transform="translate(370.298,425.486) rotate(153.435)">
			<title>Blad.391</title>
			<path d="M3.74 255.92 L4.1 255.92 L17.16 255.92" class="st5"/>
		</g>
		<g id="shape392-115" v:mID="392" v:groupContext="shape" transform="translate(389.314,415.979) rotate(153.435)">
			<title>Blad.392</title>
			<path d="M3.74 255.92 L4.1 255.92 L17.16 255.92" class="st5"/>
		</g>
		<g id="shape393-122" v:mID="393" v:groupContext="shape" transform="translate(473.738,211.346) rotate(90)">
			<title>Blad.393</title>
			<path d="M0 255.92 L4.25 255.92" class="st4"/>
		</g>
		<g id="shape394-125" v:mID="394" v:groupContext="shape" transform="translate(454.722,225.106) rotate(90)">
			<title>Blad.394</title>
			<path d="M0 255.92 L4.25 255.92" class="st4"/>
		</g>
		<g id="shape395-128" v:mID="395" v:groupContext="shape" transform="translate(454.722,220.854) rotate(90)">
			<title>Blad.395</title>
			<path d="M0 255.92 L4.25 255.92" class="st4"/>
		</g>
		<g id="shape396-131" v:mID="396" v:groupContext="shape" transform="translate(492.753,206.09) rotate(90)">
			<title>Blad.396</title>
			<path d="M0 255.92 L4.25 255.92" class="st4"/>
		</g>
		<g id="shape397-134" v:mID="397" v:groupContext="shape" transform="translate(492.753,201.838) rotate(90)">
			<title>Blad.397</title>
			<path d="M0 255.92 L4.25 255.92" class="st4"/>
		</g>
		<g id="shape398-137" v:mID="398" v:groupContext="shape" transform="translate(511.768,196.583) rotate(90)">
			<title>Blad.398</title>
			<path d="M0 255.92 L4.25 255.92" class="st4"/>
		</g>
		<g id="shape399-140" v:mID="399" v:groupContext="shape" transform="translate(511.768,192.331) rotate(90)">
			<title>Blad.399</title>
			<path d="M0 255.92 L4.25 255.92" class="st4"/>
		</g>
		<g id="shape400-143" v:mID="400" v:groupContext="shape" transform="translate(530.784,187.075) rotate(90)">
			<title>Blad.400</title>
			<path d="M0 255.92 L4.25 255.92" class="st4"/>
		</g>
		<g id="shape401-146" v:mID="401" v:groupContext="shape" transform="translate(530.784,182.823) rotate(90)">
			<title>Blad.401</title>
			<path d="M0 255.92 L4.25 255.92" class="st4"/>
		</g>
		<g id="shape402-149" v:mID="402" v:groupContext="shape" transform="translate(492.753,220.264) rotate(90)">
			<title>Blad.402</title>
			<path d="M0 255.92 L22.62 255.92" class="st12"/>
		</g>
		<g id="shape403-154" v:mID="403" v:groupContext="shape" transform="translate(230.368,-157.467) rotate(-26.5651)">
			<title>Blad.403</title>
			<desc>y</desc>
			<v:textBlock v:margins="rect(4,4,4,4)" v:tabSpace="42.5197"/>
			<v:textRect cx="6.67304" cy="248.835" width="13.35" height="14.1732"/>
			<rect x="0" y="241.749" width="13.3461" height="14.1732" class="st2"/>
			<text x="4.01" y="252.44" class="st3" v:langID="1043"><v:paragraph v:horizAlign="1"/><v:tabList/>y</text>		</g>
		<g id="shape414-157" v:mID="414" v:groupContext="shape" transform="translate(233.028,-144.32)">
			<title>Blad.414</title>
			<path d="M7.61 249.77 L3.8 255.92 L0 253.57" class="st14"/>
		</g>
		<g id="shape415-160" v:mID="415" v:groupContext="shape" transform="translate(106.088,331.653) rotate(-148.283)">
			<title>Blad.415</title>
			<path d="M0 255.92 L4.47 255.92" class="st14"/>
		</g>
		<g id="shape416-163" v:mID="416" v:groupContext="shape" transform="translate(15.3276,-16.7903) rotate(-58.2825)">
			<title>Blad.416</title>
			<path d="M0 255.92 L7.23 255.92" class="st14"/>
		</g>
		<g id="shape417-166" v:mID="417" v:groupContext="shape" transform="translate(44.2936,146.052) rotate(-90)">
			<title>Blad.417</title>
			<path d="M3.74 255.92 L4.1 255.92 L38.42 255.92" class="st5"/>
		</g>
		<g id="shape418-173" v:mID="418" v:groupContext="shape" transform="translate(187.065,-130.176) rotate(-26.5651)">
			<title>Blad.418</title>
			<desc>≈ 83 mm</desc>
			<v:textBlock v:margins="rect(4,4,4,4)" v:tabSpace="42.5197"/>
			<v:textRect cx="28.3465" cy="248.835" width="56.7" height="14.1732"/>
			<rect x="0" y="241.749" width="56.6929" height="14.1732" class="st2"/>
			<text x="6.72" y="252.44" class="st7" v:langID="1043"><v:paragraph v:horizAlign="1"/><v:tabList/>≈ 83 mm</text>		</g>
		<g id="shape420-176" v:mID="420" v:groupContext="shape" transform="translate(106.088,355.275) rotate(-148.283)">
			<title>Blad.420</title>
			<path d="M0 255.92 L4.47 255.92" class="st14"/>
		</g>
		<g id="shape422-179" v:mID="422" v:groupContext="shape" transform="translate(102.285,329.303) rotate(-148.283)">
			<title>Blad.422</title>
			<path d="M0 255.92 L4.47 255.92" class="st14"/>
		</g>
		<g id="shape423-182" v:mID="423" v:groupContext="shape" transform="translate(102.285,352.925) rotate(-148.283)">
			<title>Blad.423</title>
			<path d="M0 255.92 L4.47 255.92" class="st14"/>
		</g>
		<g id="shape425-185" v:mID="425" v:groupContext="shape" transform="translate(15.3276,6.83169) rotate(-58.2825)">
			<title>Blad.425</title>
			<path d="M0 255.92 L7.23 255.92" class="st14"/>
		</g>
		<g id="shape426-188" v:mID="426" v:groupContext="shape" transform="translate(19.1306,0.678177) rotate(-58.2825)">
			<title>Blad.426</title>
			<path d="M0 255.92 L7.23 255.92" class="st14"/>
		</g>
		<g id="shape427-191" v:mID="427" v:groupContext="shape" transform="translate(93.1514,-111.703) rotate(-26.5651)">
			<title>Blad.427</title>
			<desc>N.C.</desc>
			<v:textBlock v:margins="rect(4,4,4,4)" v:tabSpace="42.5197"/>
			<v:textRect cx="32.6077" cy="250.253" width="65.22" height="11.3386"/>
			<rect x="0" y="244.583" width="65.2155" height="11.3386" class="st2"/>
			<text x="21.27" y="253.85" class="st7" v:langID="1043"><v:paragraph v:horizAlign="1"/><v:tabList/>N.C.</text>		</g>
		<g id="shape429-194" v:mID="429" v:groupContext="shape" transform="translate(112.096,-69.1525) rotate(-26.5651)">
			<title>Blad.429</title>
			<desc>D</desc>
			<v:textBlock v:margins="rect(4,4,4,4)" v:tabSpace="42.5197"/>
			<v:textRect cx="17.0079" cy="250.253" width="34.02" height="11.3386"/>
			<rect x="0" y="244.583" width="34.0157" height="11.3386" class="st2"/>
			<text x="12.67" y="253.85" class="st7" v:langID="1043"><v:paragraph v:horizAlign="1"/><v:tabList/>D</text>		</g>
		<g id="shape431-197" v:mID="431" v:groupContext="shape" transform="translate(390.384,-93.1353) rotate(36.8699)">
			<title>Blad.431</title>
			<path d="M0 255.92 L22.62 255.92" class="st12"/>
		</g>
		<g id="shape432-202" v:mID="432" v:groupContext="shape" transform="translate(404.794,-83.0964) rotate(36.8699)">
			<title>Blad.432</title>
			<desc>x</desc>
			<v:textBlock v:margins="rect(4,4,4,4)" v:tabSpace="42.5197"/>
			<v:textRect cx="7.08661" cy="248.835" width="14.18" height="14.1732"/>
			<rect x="0" y="241.749" width="14.1732" height="14.1732" class="st2"/>
			<text x="4.42" y="252.44" class="st3" v:langID="1043"><v:paragraph v:horizAlign="1"/><v:tabList/>x</text>		</g>
		<g id="shape433-205" v:mID="433" v:groupContext="shape" transform="translate(0.375,-130.029)">
			<title>Blad.433</title>
			<desc>A</desc>
			<v:textBlock v:margins="rect(4,4,4,4)" v:tabSpace="42.5197"/>
			<v:textRect cx="7.08661" cy="248.835" width="14.18" height="14.1732"/>
			<rect x="0" y="241.749" width="14.1732" height="14.1732" class="st2"/>
			<text x="4" y="252.44" class="st7" v:langID="1043"><v:paragraph v:horizAlign="1"/><v:tabList/>A</text>		</g>
		<g id="group434-208" transform="translate(4.62697,-118.69)" v:mID="434" v:groupContext="group">
			<title>Scharnieroplegging.434</title>
			<g id="shape435-209" v:mID="435" v:groupContext="shape" transform="translate(2.83465,0)">
				<title>Blad.435</title>
				<path d="M0 255.92 L14.17 255.92 L7.09 244.58 L0 255.92 Z" class="st15"/>
			</g>
			<g id="shape436-211" v:mID="436" v:groupContext="shape" transform="translate(2.83465,511.844) rotate(180)">
				<title>Blad.436</title>
				<path d="M0 255.92 L2.83 255.92" class="st14"/>
			</g>
			<g id="shape437-214" v:mID="437" v:groupContext="shape" transform="translate(17.0079,0)">
				<title>Blad.437</title>
				<path d="M0 255.92 L2.83 255.92" class="st14"/>
			</g>
		</g>
		<g id="group438-217" transform="translate(118.013,-115.856)" v:mID="438" v:groupContext="group">
			<title>Rol.438</title>
			<g id="group439-218" transform="translate(0.261477,-2.83465)" v:mID="439" v:groupContext="group">
				<title>Scharnier</title>
				<g id="shape440-219" v:mID="440" v:groupContext="shape" transform="translate(2.79729,0)">
					<title>Blad.440</title>
					<path d="M0 255.92 L13.99 255.92 L6.99 244.58 L0 255.92 Z" class="st15"/>
				</g>
				<g id="shape441-221" v:mID="441" v:groupContext="shape" transform="translate(2.79729,511.844) rotate(180)">
					<title>Blad.441</title>
					<path d="M0 255.92 L2.8 255.92" class="st14"/>
				</g>
				<g id="shape442-224" v:mID="442" v:groupContext="shape" transform="translate(16.7838,0)">
					<title>Blad.442</title>
					<path d="M0 255.92 L2.8 255.92" class="st14"/>
				</g>
			</g>
			<g id="shape443-227" v:mID="443" v:groupContext="shape">
				<title>Blad.443</title>
				<path d="M0 255.92 L19.84 255.92" class="st14"/>
			</g>
		</g>
		<g id="shape444-230" v:mID="444" v:groupContext="shape" transform="translate(14.5482,-130.029)">
			<title>Ligger, 2 pt.444</title>
			<path d="M0 255.92 L113.52 255.92" class="st16"/>
		</g>
		<g id="group445-233" transform="translate(14.5482,-130.029)" v:mID="445" v:groupContext="group">
			<title>qz-last constant.445</title>
			<g id="shape446-234" v:mID="446" v:groupContext="shape" transform="translate(0,-14.1732)">
				<title>A.58</title>
				<desc>384 kN/m</desc>
				<v:textBlock v:margins="rect(4,4,4,4)" v:tabSpace="42.5197"/>
				<v:textRect cx="35.4331" cy="248.835" width="70.87" height="14.1732"/>
				<rect x="0" y="241.749" width="70.8661" height="14.1732" class="st17"/>
				<text x="11.27" y="252.44" class="st7" v:langID="1043"><v:paragraph v:horizAlign="1"/><v:tabList/>384 kN/m</text>			</g>
			<g id="shape447-237" v:mID="447" v:groupContext="shape" transform="translate(255.922,241.749) rotate(90)">
				<title>Kracht.5</title>
				<path d="M0 255.92 L9.55 255.92" class="st18"/>
			</g>
			<g id="shape448-243" v:mID="448" v:groupContext="shape" transform="translate(3.9968E-15,-14.1732)">
				<title>Blad.448</title>
				<path d="M0 255.92 L70.87 255.92" class="st20"/>
			</g>
			<g id="shape449-246" v:mID="449" v:groupContext="shape" transform="translate(270.095,241.749) rotate(90)">
				<title>Kracht.4</title>
				<path d="M0 255.92 L9.55 255.92" class="st18"/>
			</g>
			<g id="shape450-251" v:mID="450" v:groupContext="shape" transform="translate(284.268,241.749) rotate(90)">
				<title>Kracht.9</title>
				<path d="M0 255.92 L9.55 255.92" class="st18"/>
			</g>
			<g id="shape451-256" v:mID="451" v:groupContext="shape" transform="translate(326.788,241.749) rotate(90)">
				<title>Kracht.6</title>
				<path d="M0 255.92 L9.55 255.92" class="st18"/>
			</g>
			<g id="shape452-261" v:mID="452" v:groupContext="shape" transform="translate(312.615,241.749) rotate(90)">
				<title>Kracht.37</title>
				<path d="M0 255.92 L9.55 255.92" class="st18"/>
			</g>
			<g id="shape453-266" v:mID="453" v:groupContext="shape" transform="translate(298.442,241.749) rotate(90)">
				<title>Kracht.7</title>
				<path d="M0 255.92 L9.55 255.92" class="st18"/>
			</g>
		</g>
		<g id="shape454-271" v:mID="454" v:groupContext="shape" transform="translate(127.934,-130.029)">
			<title>Blad.454</title>
			<desc>B</desc>
			<v:textBlock v:margins="rect(4,4,4,4)" v:tabSpace="42.5197"/>
			<v:textRect cx="7.08661" cy="248.835" width="14.18" height="14.1732"/>
			<rect x="0" y="241.749" width="14.1732" height="14.1732" class="st2"/>
			<text x="4" y="252.44" class="st7" v:langID="1043"><v:paragraph v:horizAlign="1"/><v:tabList/>B</text>		</g>
		<g id="shape455-274" v:mID="455" v:groupContext="shape" transform="translate(78.3278,-115.856)">
			<title>Blad.455</title>
			<desc>C</desc>
			<v:textBlock v:margins="rect(4,4,4,4)" v:tabSpace="42.5197"/>
			<v:textRect cx="7.08661" cy="248.835" width="14.18" height="14.1732"/>
			<rect x="0" y="241.749" width="14.1732" height="14.1732" class="st2"/>
			<text x="4" y="252.44" class="st7" v:langID="1043"><v:paragraph v:horizAlign="1"/><v:tabList/>C</text>		</g>
		<g id="group456-277" transform="translate(142.107,-116.382)" v:mID="456" v:groupContext="group">
			<title>x-as.456</title>
			<g id="shape457-278" v:mID="457" v:groupContext="shape" transform="translate(-2.91426E-12,-14.1732)">
				<title>Blad.457</title>
				<path d="M0 255.92 L22.62 255.92" class="st12"/>
			</g>
			<g id="shape458-283" v:mID="458" v:groupContext="shape" transform="translate(14.1732,0)">
				<title>Blad.458</title>
				<desc>x</desc>
				<v:textBlock v:margins="rect(4,4,4,4)" v:tabSpace="42.5197"/>
				<v:textRect cx="7.08661" cy="248.835" width="14.18" height="14.1732"/>
				<rect x="0" y="241.749" width="14.1732" height="14.1732" class="st2"/>
				<text x="4.42" y="252.44" class="st3" v:langID="1043"><v:paragraph v:horizAlign="1"/><v:tabList/>x</text>			</g>
		</g>
		<g id="group459-286" transform="translate(14.5482,-87.5091)" v:mID="459" v:groupContext="group">
			<title>z-as.459</title>
			<g id="shape460-287" v:mID="460" v:groupContext="shape" transform="translate(255.922,227.576) rotate(90)">
				<title>Blad.460</title>
				<path d="M0 255.92 L22.62 255.92" class="st12"/>
			</g>
			<g id="shape461-292" v:mID="461" v:groupContext="shape">
				<title>Blad.461</title>
				<desc>z</desc>
				<v:textBlock v:margins="rect(4,4,4,4)" v:tabSpace="42.5197"/>
				<v:textRect cx="7.08661" cy="248.835" width="14.18" height="14.1732"/>
				<rect x="0" y="241.749" width="14.1732" height="14.1732" class="st2"/>
				<text x="4.75" y="252.44" class="st3" v:langID="1043"><v:paragraph v:horizAlign="1"/><v:tabList/>z</text>			</g>
		</g>
		<g id="group462-295" transform="translate(14.5482,-59.1627)" v:mID="462" v:groupContext="group">
			<title>Maatlijn.462</title>
			<g id="group463-296" transform="translate(0,-9.92126)" v:mID="463" v:groupContext="group">
				<title>Maatlijn.31</title>
				<g id="shape464-297" v:mID="464" v:groupContext="shape" transform="translate(255.922,247.418) rotate(90)">
					<title>Blad.464</title>
					<path d="M0 255.92 L8.5 255.92" class="st4"/>
				</g>
				<g id="shape465-300" v:mID="465" v:groupContext="shape" transform="translate(326.788,247.418) rotate(90)">
					<title>Blad.465</title>
					<path d="M0 255.92 L8.5 255.92" class="st4"/>
				</g>
				<g id="shape466-303" v:mID="466" v:groupContext="shape" transform="translate(0,-4.25197)">
					<title>Blad.466</title>
					<path d="M3.74 255.92 L4.1 255.92 L66.77 255.92" class="st5"/>
				</g>
			</g>
			<g id="shape467-310" v:mID="467" v:groupContext="shape">
				<title>Blad.467</title>
				<desc>5 m</desc>
				<v:textBlock v:margins="rect(4,4,4,4)" v:tabSpace="42.5197"/>
				<v:textRect cx="35.4331" cy="248.835" width="70.87" height="14.1732"/>
				<rect x="0" y="241.749" width="70.8661" height="14.1732" class="st2"/>
				<text x="26.27" y="252.44" class="st7" v:langID="1043"><v:paragraph v:horizAlign="1"/><v:tabList/>5 m</text>			</g>
		</g>
		<g id="group468-313" transform="translate(85.4144,-59.1627)" v:mID="468" v:groupContext="group">
			<title>Maatlijn.468</title>
			<g id="group469-314" transform="translate(0,-9.92126)" v:mID="469" v:groupContext="group">
				<title>Maatlijn.31</title>
				<g id="shape470-315" v:mID="470" v:groupContext="shape" transform="translate(255.922,247.418) rotate(90)">
					<title>Blad.470</title>
					<path d="M0 255.92 L8.5 255.92" class="st4"/>
				</g>
				<g id="shape471-318" v:mID="471" v:groupContext="shape" transform="translate(298.442,247.418) rotate(90)">
					<title>Blad.471</title>
					<path d="M0 255.92 L8.5 255.92" class="st4"/>
				</g>
				<g id="shape472-321" v:mID="472" v:groupContext="shape" transform="translate(0,-4.25197)">
					<title>Blad.472</title>
					<path d="M3.74 255.92 L4.1 255.92 L38.42 255.92" class="st5"/>
				</g>
			</g>
			<g id="shape473-328" v:mID="473" v:groupContext="shape">
				<title>Blad.473</title>
				<desc>3 m</desc>
				<v:textBlock v:margins="rect(4,4,4,4)" v:tabSpace="42.5197"/>
				<v:textRect cx="21.2598" cy="248.835" width="42.52" height="14.1732"/>
				<rect x="0" y="241.749" width="42.5197" height="14.1732" class="st2"/>
				<text x="12.09" y="252.44" class="st7" v:langID="1043"><v:paragraph v:horizAlign="1"/><v:tabList/>3 m</text>			</g>
		</g>
		<g id="shape476-331" v:mID="476" v:groupContext="shape" transform="translate(211.117,-208.915) rotate(-26.5651)">
			<title>Blad.476</title>
			<path d="M0 255.92 L22.62 255.92" class="st12"/>
		</g>
		<g id="shape477-336" v:mID="477" v:groupContext="shape" transform="translate(231.785,-200.585) rotate(-26.5651)">
			<title>Blad.477</title>
			<desc>y</desc>
			<v:textBlock v:margins="rect(4,4,4,4)" v:tabSpace="42.5197"/>
			<v:textRect cx="6.67304" cy="248.835" width="13.35" height="14.1732"/>
			<rect x="0" y="241.749" width="13.3461" height="14.1732" class="st2"/>
			<text x="4.01" y="252.44" class="st3" v:langID="1043"><v:paragraph v:horizAlign="1"/><v:tabList/>y</text>		</g>
		<g id="shape488-339" v:mID="488" v:groupContext="shape" transform="translate(0.375022,-23.7296)">
			<title>A.58</title>
			<desc>Belasting en oplegreacties grijpen aan in het normaalkrachten...</desc>
			<v:textBlock v:margins="rect(4,4,4,4)" v:tabSpace="42.5197"/>
			<v:textRect cx="92.126" cy="248.835" width="184.26" height="14.1732"/>
			<rect x="0" y="241.749" width="184.252" height="14.1732" class="st17"/>
			<text x="10.65" y="245.24" class="st7" v:langID="1043"><v:paragraph v:horizAlign="1"/><v:tabList/>Belasting en oplegreacties grijpen <tspan
						x="7.33" dy="1.2em" class="st11">aan in het normaalkrachtencentrum</tspan></text>		</g>
		<g id="shape548-343" v:mID="548" v:groupContext="shape" transform="translate(231.325,-211.294) rotate(-26.5651)">
			<title>Blad.548</title>
			<path d="M0 255.92 L4.95 255.92" class="st21"/>
		</g>
		<g id="shape551-346" v:mID="551" v:groupContext="shape" transform="translate(89.419,-135.589) rotate(-26.5651)">
			<title>Blad.551</title>
			<desc>Doorsnede C</desc>
			<v:textBlock v:margins="rect(4,4,4,4)" v:tabSpace="42.5197"/>
			<v:textRect cx="42.5825" cy="250.253" width="85.17" height="11.3386"/>
			<rect x="0" y="244.583" width="85.165" height="11.3386" class="st2"/>
			<text x="11.09" y="253.85" class="st7" v:langID="1043"><v:paragraph v:horizAlign="1"/><v:tabList/>Doorsnede C</text>		</g>
	</g>
</svg>
