<?xml version="1.0" encoding="UTF-8" standalone="no"?>
<!DOCTYPE svg PUBLIC "-//W3C//DTD SVG 1.1//EN" "http://www.w3.org/Graphics/SVG/1.1/DTD/svg11.dtd">
<!-- Gegenereerd door Microsoft Visio, SVG Export structure.svg Pagina-1 -->
<svg xmlns="http://www.w3.org/2000/svg" xmlns:xlink="http://www.w3.org/1999/xlink" xmlns:ev="http://www.w3.org/2001/xml-events"
		xmlns:v="http://schemas.microsoft.com/visio/2003/SVGExtensions/" width="6.97892in" height="3.80903in"
		viewBox="0 0 502.482 274.25" xml:space="preserve" color-interpolation-filters="sRGB" class="st21">
	<v:documentProperties v:langID="1043" v:metric="true" v:viewMarkup="false"/>

	<style type="text/css">
	<![CDATA[
		.st1 {fill:#00cc99;stroke:#000000;stroke-linecap:round;stroke-linejoin:round;stroke-width:0.75}
		.st2 {stroke:#000000;stroke-linecap:round;stroke-linejoin:round;stroke-width:0.75}
		.st3 {stroke:#000000;stroke-linecap:round;stroke-linejoin:round;stroke-width:2}
		.st4 {fill:none;stroke:none;stroke-linecap:round;stroke-linejoin:round;stroke-width:0.24}
		.st5 {fill:#000000;font-family:Times New Roman;font-size:1.00001em}
		.st6 {marker-end:url(#mrkr5-35);stroke:#800000;stroke-linecap:round;stroke-linejoin:round;stroke-width:1.2}
		.st7 {fill:#800000;fill-opacity:1;stroke:#800000;stroke-opacity:1;stroke-width:0.45454545454546}
		.st8 {stroke:#800000;stroke-linecap:round;stroke-linejoin:round;stroke-width:1.2}
		.st9 {marker-start:url(#mrkr5-69);stroke:#800000;stroke-linecap:round;stroke-linejoin:round;stroke-width:2}
		.st10 {fill:#800000;fill-opacity:1;stroke:#800000;stroke-opacity:1;stroke-width:0.44247787610619}
		.st11 {stroke:#000000;stroke-linecap:round;stroke-linejoin:round;stroke-width:0.25}
		.st12 {marker-end:url(#mrkr4-101);marker-start:url(#mrkr4-99);stroke:#000000;stroke-linecap:round;stroke-linejoin:round;stroke-width:0.25}
		.st13 {fill:#000000;fill-opacity:1;stroke:#000000;stroke-opacity:1;stroke-width:0.1219512195122}
		.st14 {fill:none;stroke:none;stroke-linecap:round;stroke-linejoin:round;stroke-width:0.75}
		.st15 {marker-end:url(#mrkr5-130);stroke:#000000;stroke-linecap:round;stroke-linejoin:round;stroke-width:0.75}
		.st16 {fill:#000000;fill-opacity:1;stroke:#000000;stroke-opacity:1;stroke-width:0.22935779816514}
		.st17 {fill:#000000;font-family:Times New Roman;font-size:1.00001em;font-style:italic}
		.st18 {fill:#7f7f7f;stroke:none;stroke-linecap:round;stroke-linejoin:round;stroke-width:0.75}
		.st19 {fill:#000000;font-family:Roboto;font-size:0.916672em}
		.st20 {font-size:1em}
		.st21 {fill:none;fill-rule:evenodd;font-size:12px;overflow:visible;stroke-linecap:square;stroke-miterlimit:3}
	]]>
	</style>

	<defs id="Markers">
		<g id="lend5">
			<path d="M 2 1 L 0 0 L 1.98117 -0.993387 C 1.67173 -0.364515 1.67301 0.372641 1.98465 1.00043 " style="stroke:none"/>
		</g>
		<marker id="mrkr5-35" class="st7" v:arrowType="5" v:arrowSize="0" v:setback="3.85" refX="-3.85" orient="auto"
				markerUnits="strokeWidth" overflow="visible">
			<use xlink:href="#lend5" transform="scale(-2.2,-2.2) "/>
		</marker>
		<marker id="mrkr5-69" class="st10" v:arrowType="5" v:arrowSize="2" v:setback="3.775" refX="3.775" orient="auto"
				markerUnits="strokeWidth" overflow="visible">
			<use xlink:href="#lend5" transform="scale(2.26) "/>
		</marker>
		<g id="lend4">
			<path d="M 2 1 L 0 0 L 2 -1 L 2 1 " style="stroke:none"/>
		</g>
		<marker id="mrkr4-99" class="st13" v:arrowType="4" v:arrowSize="1" v:setback="14.96" refX="14.96" orient="auto"
				markerUnits="strokeWidth" overflow="visible">
			<use xlink:href="#lend4" transform="scale(8.2) "/>
		</marker>
		<marker id="mrkr4-101" class="st13" v:arrowType="4" v:arrowSize="1" v:setback="16.4" refX="-16.4" orient="auto"
				markerUnits="strokeWidth" overflow="visible">
			<use xlink:href="#lend4" transform="scale(-8.2,-8.2) "/>
		</marker>
		<marker id="mrkr5-130" class="st16" v:arrowType="5" v:arrowSize="2" v:setback="7.63" refX="-7.63" orient="auto"
				markerUnits="strokeWidth" overflow="visible">
			<use xlink:href="#lend5" transform="scale(-4.36,-4.36) "/>
		</marker>
	</defs>
	<g v:mID="0" v:index="1" v:groupContext="foregroundPage">
		<title>Pagina-1</title>
		<v:pageProperties v:drawingScale="0.0393701" v:pageScale="0.0393701" v:drawingUnits="24" v:shadowOffsetX="8.50394"
				v:shadowOffsetY="-8.50394"/>
		<g id="group1-1" transform="translate(10.2963,-198.8)" v:mID="1" v:groupContext="group">
			<title>Scharnieroplegging</title>
			<g id="shape2-2" v:mID="2" v:groupContext="shape" transform="translate(2.83465,0)">
				<title>Blad.2</title>
				<path d="M0 274.25 L14.17 274.25 L7.09 262.91 L0 274.25 Z" class="st1"/>
			</g>
			<g id="shape3-4" v:mID="3" v:groupContext="shape" transform="translate(2.83465,548.5) rotate(180)">
				<title>Blad.3</title>
				<path d="M0 274.25 L2.83 274.25" class="st2"/>
			</g>
			<g id="shape4-7" v:mID="4" v:groupContext="shape" transform="translate(17.0079,0)">
				<title>Blad.4</title>
				<path d="M0 274.25 L2.83 274.25" class="st2"/>
			</g>
		</g>
		<g id="group5-10" transform="translate(180.375,-195.966)" v:mID="5" v:groupContext="group">
			<title>Rol</title>
			<g id="group6-11" transform="translate(0.261477,-2.83465)" v:mID="6" v:groupContext="group">
				<title>Scharnier</title>
				<g id="shape7-12" v:mID="7" v:groupContext="shape" transform="translate(2.79729,0)">
					<title>Blad.7</title>
					<path d="M0 274.25 L13.99 274.25 L6.99 262.91 L0 274.25 Z" class="st1"/>
				</g>
				<g id="shape8-14" v:mID="8" v:groupContext="shape" transform="translate(2.79729,548.5) rotate(180)">
					<title>Blad.8</title>
					<path d="M0 274.25 L2.8 274.25" class="st2"/>
				</g>
				<g id="shape9-17" v:mID="9" v:groupContext="shape" transform="translate(16.7838,0)">
					<title>Blad.9</title>
					<path d="M0 274.25 L2.8 274.25" class="st2"/>
				</g>
			</g>
			<g id="shape10-20" v:mID="10" v:groupContext="shape">
				<title>Blad.10</title>
				<path d="M0 274.25 L19.84 274.25" class="st2"/>
			</g>
		</g>
		<g id="shape11-23" v:mID="11" v:groupContext="shape" transform="translate(20.2175,-210.139)">
			<title>Ligger, 2 pt</title>
			<path d="M0 274.25 L170.21 274.25" class="st3"/>
		</g>
		<g id="group20-26" transform="translate(20.2175,-210.139)" v:mID="20" v:groupContext="group">
			<title>qz-last constant</title>
			<g id="shape21-27" v:mID="21" v:groupContext="shape" transform="translate(0,-14.1732)">
				<title>A.58</title>
				<desc>45.6 kN/m</desc>
				<v:textBlock v:margins="rect(4,4,4,4)" v:tabSpace="42.5197"/>
				<v:textRect cx="85.0394" cy="267.164" width="170.08" height="14.1732"/>
				<rect x="0" y="260.077" width="170.079" height="14.1732" class="st4"/>
				<text x="59.37" y="270.76" class="st5" v:langID="1043"><v:paragraph v:horizAlign="1"/><v:tabList/>45.6 kN/m</text>			</g>
			<g id="shape22-30" v:mID="22" v:groupContext="shape" transform="translate(274.25,260.077) rotate(90)">
				<title>Kracht.5</title>
				<path d="M0 274.25 L9.55 274.25" class="st6"/>
			</g>
			<g id="shape23-36" v:mID="23" v:groupContext="shape" transform="translate(7.99361E-14,-14.1732)">
				<title>Blad.23</title>
				<path d="M0 274.25 L170.08 274.25" class="st8"/>
			</g>
			<g id="shape24-39" v:mID="24" v:groupContext="shape" transform="translate(308.266,260.077) rotate(90)">
				<title>Kracht.4</title>
				<path d="M0 274.25 L9.55 274.25" class="st6"/>
			</g>
			<g id="shape25-44" v:mID="25" v:groupContext="shape" transform="translate(342.282,260.077) rotate(90)">
				<title>Kracht.9</title>
				<path d="M0 274.25 L9.55 274.25" class="st6"/>
			</g>
			<g id="shape26-49" v:mID="26" v:groupContext="shape" transform="translate(444.329,260.077) rotate(90)">
				<title>Kracht.6</title>
				<path d="M0 274.25 L9.55 274.25" class="st6"/>
			</g>
			<g id="shape27-54" v:mID="27" v:groupContext="shape" transform="translate(410.313,260.077) rotate(90)">
				<title>Kracht.37</title>
				<path d="M0 274.25 L9.55 274.25" class="st6"/>
			</g>
			<g id="shape28-59" v:mID="28" v:groupContext="shape" transform="translate(376.297,260.077) rotate(90)">
				<title>Kracht.7</title>
				<path d="M0 274.25 L9.55 274.25" class="st6"/>
			</g>
		</g>
		<g id="shape37-64" v:mID="37" v:groupContext="shape" transform="translate(190.427,-210.139)">
			<title>Kracht</title>
			<path d="M7.55 274.25 L7.91 274.25 L28.35 274.25" class="st9"/>
		</g>
		<g id="shape38-70" v:mID="38" v:groupContext="shape" transform="translate(379.507,61.2768) rotate(90)">
			<title>Blad.38</title>
			<path d="M0 274.25 L5.67 274.25" class="st2"/>
		</g>
		<g id="shape39-73" v:mID="39" v:groupContext="shape" transform="translate(195.257,-212.973)">
			<title>A.58</title>
			<desc>101.25 kN</desc>
			<v:textBlock v:margins="rect(4,4,4,4)" v:tabSpace="42.5197"/>
			<v:textRect cx="30.4724" cy="267.164" width="60.95" height="14.1732"/>
			<rect x="0" y="260.077" width="60.9449" height="14.1732" class="st4"/>
			<text x="5.14" y="270.76" class="st5" v:langID="1043"><v:paragraph v:horizAlign="1"/><v:tabList/>101.25 kN</text>		</g>
		<g id="shape40-76" v:mID="40" v:groupContext="shape" transform="translate(27.3041,-195.966)">
			<title>A.40</title>
			<desc>A</desc>
			<v:textBlock v:margins="rect(4,4,4,4)" v:tabSpace="42.5197"/>
			<v:textRect cx="7.08661" cy="267.164" width="14.18" height="14.1732"/>
			<rect x="0" y="260.077" width="14.1732" height="14.1732" class="st4"/>
			<text x="4" y="270.76" class="st5" v:langID="1043"><v:paragraph v:horizAlign="1"/><v:tabList/>A</text>		</g>
		<g id="shape41-79" v:mID="41" v:groupContext="shape" transform="translate(169.036,-195.966)">
			<title>A.41</title>
			<desc>B</desc>
			<v:textBlock v:margins="rect(4,4,4,4)" v:tabSpace="42.5197"/>
			<v:textRect cx="7.08661" cy="267.164" width="14.18" height="14.1732"/>
			<rect x="0" y="260.077" width="14.1732" height="14.1732" class="st4"/>
			<text x="4" y="270.76" class="st5" v:langID="1043"><v:paragraph v:horizAlign="1"/><v:tabList/>B</text>		</g>
		<g id="shape42-82" v:mID="42" v:groupContext="shape" transform="translate(97.3199,-194.832)">
			<title>A.42</title>
			<desc>C</desc>
			<v:textBlock v:margins="rect(4,4,4,4)" v:tabSpace="42.5197"/>
			<v:textRect cx="7.08661" cy="267.164" width="14.18" height="14.1732"/>
			<rect x="0" y="260.077" width="14.1732" height="14.1732" class="st4"/>
			<text x="4" y="270.76" class="st5" v:langID="1043"><v:paragraph v:horizAlign="1"/><v:tabList/>C</text>		</g>
		<g id="group43-85" transform="translate(20.2175,-167.619)" v:mID="43" v:groupContext="group">
			<title>Maatlijn</title>
			<g id="group44-86" transform="translate(0,-9.92126)" v:mID="44" v:groupContext="group">
				<title>Maatlijn.31</title>
				<g id="shape45-87" v:mID="45" v:groupContext="shape" transform="translate(274.25,265.746) rotate(90)">
					<title>Blad.45</title>
					<path d="M0 274.25 L8.5 274.25" class="st11"/>
				</g>
				<g id="shape46-90" v:mID="46" v:groupContext="shape" transform="translate(359.29,265.746) rotate(90)">
					<title>Blad.46</title>
					<path d="M0 274.25 L8.5 274.25" class="st11"/>
				</g>
				<g id="shape47-93" v:mID="47" v:groupContext="shape" transform="translate(0,-4.25197)">
					<title>Blad.47</title>
					<path d="M3.74 274.25 L4.1 274.25 L80.94 274.25" class="st12"/>
				</g>
			</g>
			<g id="shape48-102" v:mID="48" v:groupContext="shape">
				<title>Blad.48</title>
				<desc>3 m</desc>
				<v:textBlock v:margins="rect(4,4,4,4)" v:tabSpace="42.5197"/>
				<v:textRect cx="42.5197" cy="267.164" width="85.04" height="14.1732"/>
				<rect x="0" y="260.077" width="85.0394" height="14.1732" class="st14"/>
				<text x="33.35" y="270.76" class="st5" v:langID="1043"><v:paragraph v:horizAlign="1"/><v:tabList/>3 m</text>			</g>
		</g>
		<g id="group49-105" transform="translate(105.257,-167.619)" v:mID="49" v:groupContext="group">
			<title>Maatlijn.49</title>
			<g id="group50-106" transform="translate(0,-9.92126)" v:mID="50" v:groupContext="group">
				<title>Maatlijn.31</title>
				<g id="shape51-107" v:mID="51" v:groupContext="shape" transform="translate(274.25,265.746) rotate(90)">
					<title>Blad.51</title>
					<path d="M0 274.25 L8.5 274.25" class="st11"/>
				</g>
				<g id="shape52-110" v:mID="52" v:groupContext="shape" transform="translate(359.29,265.746) rotate(90)">
					<title>Blad.52</title>
					<path d="M0 274.25 L8.5 274.25" class="st11"/>
				</g>
				<g id="shape53-113" v:mID="53" v:groupContext="shape" transform="translate(0,-4.25197)">
					<title>Blad.53</title>
					<path d="M3.74 274.25 L4.1 274.25 L80.94 274.25" class="st12"/>
				</g>
			</g>
			<g id="shape54-120" v:mID="54" v:groupContext="shape">
				<title>Blad.54</title>
				<desc>3 m</desc>
				<v:textBlock v:margins="rect(4,4,4,4)" v:tabSpace="42.5197"/>
				<v:textRect cx="42.5197" cy="267.164" width="85.04" height="14.1732"/>
				<rect x="0" y="260.077" width="85.0394" height="14.1732" class="st14"/>
				<text x="33.35" y="270.76" class="st5" v:langID="1043"><v:paragraph v:horizAlign="1"/><v:tabList/>3 m</text>			</g>
		</g>
		<g id="group55-123" transform="translate(232.816,-195.966)" v:mID="55" v:groupContext="group">
			<title>x-as</title>
			<g id="shape56-124" v:mID="56" v:groupContext="shape" transform="translate(-3.12139E-12,-14.1732)">
				<title>Blad.56</title>
				<path d="M0 274.25 L22.62 274.25" class="st15"/>
			</g>
			<g id="shape57-131" v:mID="57" v:groupContext="shape" transform="translate(14.1732,0)">
				<title>Blad.57</title>
				<desc>x</desc>
				<v:textBlock v:margins="rect(4,4,4,4)" v:tabSpace="42.5197"/>
				<v:textRect cx="7.08661" cy="267.164" width="14.18" height="14.1732"/>
				<rect x="0" y="260.077" width="14.1732" height="14.1732" class="st14"/>
				<text x="4.42" y="270.76" class="st17" v:langID="1043"><v:paragraph v:horizAlign="1"/><v:tabList/>x</text>			</g>
		</g>
		<g id="group58-134" transform="translate(20.2175,-139.273)" v:mID="58" v:groupContext="group">
			<title>z-as</title>
			<g id="shape59-135" v:mID="59" v:groupContext="shape" transform="translate(274.25,245.904) rotate(90)">
				<title>Blad.59</title>
				<path d="M0 274.25 L22.62 274.25" class="st15"/>
			</g>
			<g id="shape60-140" v:mID="60" v:groupContext="shape">
				<title>Blad.60</title>
				<desc>z</desc>
				<v:textBlock v:margins="rect(4,4,4,4)" v:tabSpace="42.5197"/>
				<v:textRect cx="7.08661" cy="267.164" width="14.18" height="14.1732"/>
				<rect x="0" y="260.077" width="14.1732" height="14.1732" class="st14"/>
				<text x="4.75" y="270.76" class="st17" v:langID="1043"><v:paragraph v:horizAlign="1"/><v:tabList/>z</text>			</g>
		</g>
		<g id="shape61-143" v:mID="61" v:groupContext="shape" transform="translate(282.422,-116.595)">
			<title>Blad.61</title>
			<path d="M0 121.18 L127.56 121.18 L127.56 197.71 L63.78 274.25 L0 197.71 L0 121.18 Z" class="st18"/>
		</g>
		<g id="group66-145" transform="translate(417.068,-195.966)" v:mID="66" v:groupContext="group">
			<title>x-as.66</title>
			<g id="shape67-146" v:mID="67" v:groupContext="shape" transform="translate(-3.12139E-12,-14.1732)">
				<title>Blad.67</title>
				<path d="M0 274.25 L22.62 274.25" class="st15"/>
			</g>
			<g id="shape68-151" v:mID="68" v:groupContext="shape" transform="translate(14.1732,0)">
				<title>Blad.68</title>
				<desc>y</desc>
				<v:textBlock v:margins="rect(4,4,4,4)" v:tabSpace="42.5197"/>
				<v:textRect cx="7.08661" cy="267.164" width="14.18" height="14.1732"/>
				<rect x="0" y="260.077" width="14.1732" height="14.1732" class="st14"/>
				<text x="4.42" y="270.76" class="st17" v:langID="1043"><v:paragraph v:horizAlign="1"/><v:tabList/>y</text>			</g>
		</g>
		<g id="group70-154" transform="translate(346.202,-79.7451)" v:mID="70" v:groupContext="group">
			<title>z-as.70</title>
			<g id="shape71-155" v:mID="71" v:groupContext="shape" transform="translate(274.25,245.904) rotate(90)">
				<title>Blad.71</title>
				<path d="M0 274.25 L22.62 274.25" class="st15"/>
			</g>
			<g id="shape72-160" v:mID="72" v:groupContext="shape">
				<title>Blad.72</title>
				<desc>z</desc>
				<v:textBlock v:margins="rect(4,4,4,4)" v:tabSpace="42.5197"/>
				<v:textRect cx="7.08661" cy="267.164" width="14.18" height="14.1732"/>
				<rect x="0" y="260.077" width="14.1732" height="14.1732" class="st14"/>
				<text x="4.75" y="270.76" class="st17" v:langID="1043"><v:paragraph v:horizAlign="1"/><v:tabList/>z</text>			</g>
		</g>
		<g id="group73-163" transform="translate(282.422,-57.0679)" v:mID="73" v:groupContext="group">
			<title>Maatlijn.73</title>
			<g id="group74-164" transform="translate(0,-9.92126)" v:mID="74" v:groupContext="group">
				<title>Maatlijn.31</title>
				<g id="shape75-165" v:mID="75" v:groupContext="shape" transform="translate(274.25,265.746) rotate(90)">
					<title>Blad.75</title>
					<path d="M0 274.25 L8.5 274.25" class="st11"/>
				</g>
				<g id="shape76-168" v:mID="76" v:groupContext="shape" transform="translate(338.03,265.746) rotate(90)">
					<title>Blad.76</title>
					<path d="M0 274.25 L8.5 274.25" class="st11"/>
				</g>
				<g id="shape77-171" v:mID="77" v:groupContext="shape" transform="translate(0,-4.25197)">
					<title>Blad.77</title>
					<path d="M3.74 274.25 L4.1 274.25 L59.68 274.25" class="st12"/>
				</g>
			</g>
			<g id="shape78-178" v:mID="78" v:groupContext="shape">
				<title>Blad.78</title>
				<desc>75 mm</desc>
				<v:textBlock v:margins="rect(4,4,4,4)" v:tabSpace="42.5197"/>
				<v:textRect cx="31.8898" cy="267.164" width="63.78" height="14.1732"/>
				<rect x="0" y="260.077" width="63.7795" height="14.1732" class="st14"/>
				<text x="15.06" y="270.76" class="st5" v:langID="1043"><v:paragraph v:horizAlign="1"/><v:tabList/>75 mm</text>			</g>
		</g>
		<g id="group79-181" transform="translate(346.202,-57.0679)" v:mID="79" v:groupContext="group">
			<title>Maatlijn.79</title>
			<g id="group80-182" transform="translate(0,-9.92126)" v:mID="80" v:groupContext="group">
				<title>Maatlijn.31</title>
				<g id="shape81-183" v:mID="81" v:groupContext="shape" transform="translate(274.25,265.746) rotate(90)">
					<title>Blad.81</title>
					<path d="M0 274.25 L8.5 274.25" class="st11"/>
				</g>
				<g id="shape82-186" v:mID="82" v:groupContext="shape" transform="translate(338.03,265.746) rotate(90)">
					<title>Blad.82</title>
					<path d="M0 274.25 L8.5 274.25" class="st11"/>
				</g>
				<g id="shape83-189" v:mID="83" v:groupContext="shape" transform="translate(0,-4.25197)">
					<title>Blad.83</title>
					<path d="M3.74 274.25 L4.1 274.25 L59.68 274.25" class="st12"/>
				</g>
			</g>
			<g id="shape84-196" v:mID="84" v:groupContext="shape">
				<title>Blad.84</title>
				<desc>75 mm</desc>
				<v:textBlock v:margins="rect(4,4,4,4)" v:tabSpace="42.5197"/>
				<v:textRect cx="31.8898" cy="267.164" width="63.78" height="14.1732"/>
				<rect x="0" y="260.077" width="63.7795" height="14.1732" class="st14"/>
				<text x="15.06" y="270.76" class="st5" v:langID="1043"><v:paragraph v:horizAlign="1"/><v:tabList/>75 mm</text>			</g>
		</g>
		<g id="group85-199" transform="translate(448.249,-252.658)" v:mID="85" v:groupContext="group">
			<title>Maatlijn verticaal</title>
			<g id="group86-200" transform="translate(-265.746,274.25) rotate(-90)" v:mID="86" v:groupContext="group">
				<title>Maatlijn.31</title>
				<g id="shape87-201" v:mID="87" v:groupContext="shape" transform="translate(274.25,265.746) rotate(90)">
					<title>Blad.87</title>
					<path d="M0 274.25 L8.5 274.25" class="st11"/>
				</g>
				<g id="shape88-204" v:mID="88" v:groupContext="shape" transform="translate(291.258,265.746) rotate(90)">
					<title>Blad.88</title>
					<path d="M0 274.25 L8.5 274.25" class="st11"/>
				</g>
				<g id="shape89-207" v:mID="89" v:groupContext="shape" transform="translate(0,-4.25197)">
					<title>Blad.89</title>
					<path d="M3.74 274.25 L4.1 274.25 L12.91 274.25" class="st12"/>
				</g>
			</g>
			<g id="shape90-214" v:mID="90" v:groupContext="shape" transform="translate(4.25197,-6.80314)">
				<title>Blad.90</title>
				<desc>20 mm</desc>
				<v:textBlock v:margins="rect(4,4,4,4)" v:tabSpace="42.5197"/>
				<v:textRect cx="24.8031" cy="272.549" width="49.61" height="3.40157"/>
				<rect x="0" y="270.849" width="49.6063" height="3.40157" class="st14"/>
				<text x="7.97" y="276.15" class="st5" v:langID="1043"><v:paragraph v:horizAlign="1"/><v:tabList/>20 mm</text>			</g>
		</g>
		<g id="group91-217" transform="translate(448.249,-116.595)" v:mID="91" v:groupContext="group">
			<title>Maatlijn verticaal.91</title>
			<g id="group92-218" transform="translate(-265.746,274.25) rotate(-90)" v:mID="92" v:groupContext="group">
				<title>Maatlijn.31</title>
				<g id="shape93-219" v:mID="93" v:groupContext="shape" transform="translate(274.25,265.746) rotate(90)">
					<title>Blad.93</title>
					<path d="M0 274.25 L8.5 274.25" class="st11"/>
				</g>
				<g id="shape94-222" v:mID="94" v:groupContext="shape" transform="translate(350.786,265.746) rotate(90)">
					<title>Blad.94</title>
					<path d="M0 274.25 L8.5 274.25" class="st11"/>
				</g>
				<g id="shape95-225" v:mID="95" v:groupContext="shape" transform="translate(0,-4.25197)">
					<title>Blad.95</title>
					<path d="M3.74 274.25 L4.1 274.25 L72.44 274.25" class="st12"/>
				</g>
			</g>
			<g id="shape96-232" v:mID="96" v:groupContext="shape" transform="translate(4.25197,-30.6142)">
				<title>Blad.96</title>
				<desc>90 mm</desc>
				<v:textBlock v:margins="rect(4,4,4,4)" v:tabSpace="42.5197"/>
				<v:textRect cx="24.8031" cy="266.597" width="49.61" height="15.3071"/>
				<rect x="0" y="258.943" width="49.6063" height="15.3071" class="st14"/>
				<text x="7.97" y="270.2" class="st5" v:langID="1043"><v:paragraph v:horizAlign="1"/><v:tabList/>90 mm</text>			</g>
		</g>
		<g id="shape97-235" v:mID="97" v:groupContext="shape" transform="translate(0.375,-0.375)">
			<title>Blad.97</title>
			<desc>All loads are applied at in the normal force centre --- Alle ...</desc>
			<v:textBlock v:margins="rect(4,4,4,4)" v:tabSpace="42.5197"/>
			<v:textRect cx="250.866" cy="252.99" width="501.74" height="42.5197"/>
			<rect x="0" y="231.731" width="501.732" height="42.5197" class="st14"/>
			<text x="131.16" y="243.09" class="st19" v:langID="1043"><v:paragraph v:horizAlign="1"/><v:tabList/>All loads are applied at in the normal force centre<v:newlineChar/><tspan
						x="246.31" dy="1.2em" class="st20">---<v:newlineChar/></tspan><tspan x="112.67" dy="1.2em" class="st20">Alle krachten grijpen aan in het normaalkrachtencentrum</tspan></text>		</g>
		<g id="shape1716-240" v:mID="1716" v:groupContext="shape" transform="translate(726.751,4.58394) rotate(90)">
			<title>Blad.1716</title>
			<path d="M0 274.25 L17.01 274.25" class="st2"/>
		</g>
		<g id="group1717-243" transform="translate(448.249,-193.131)" v:mID="1717" v:groupContext="group">
			<title>Maatlijn verticaal.1717</title>
			<g id="group1718-244" transform="translate(-265.746,274.25) rotate(-90)" v:mID="1718" v:groupContext="group">
				<title>Maatlijn.31</title>
				<g id="shape1719-245" v:mID="1719" v:groupContext="shape" transform="translate(274.25,265.746) rotate(90)">
					<title>Blad.1719</title>
					<path d="M0 274.25 L8.5 274.25" class="st11"/>
				</g>
				<g id="shape1720-248" v:mID="1720" v:groupContext="shape" transform="translate(333.778,265.746) rotate(90)">
					<title>Blad.1720</title>
					<path d="M0 274.25 L8.5 274.25" class="st11"/>
				</g>
				<g id="shape1721-251" v:mID="1721" v:groupContext="shape" transform="translate(0,-4.25197)">
					<title>Blad.1721</title>
					<path d="M3.74 274.25 L4.1 274.25 L55.43 274.25" class="st12"/>
				</g>
			</g>
			<g id="shape1722-258" v:mID="1722" v:groupContext="shape" transform="translate(4.25197,-23.811)">
				<title>Blad.1722</title>
				<desc>70 mm</desc>
				<v:textBlock v:margins="rect(4,4,4,4)" v:tabSpace="42.5197"/>
				<v:textRect cx="24.8031" cy="268.297" width="49.61" height="11.9055"/>
				<rect x="0" y="262.345" width="49.6063" height="11.9055" class="st14"/>
				<text x="7.97" y="271.9" class="st5" v:langID="1043"><v:paragraph v:horizAlign="1"/><v:tabList/>70 mm</text>			</g>
		</g>
		<g id="shape1730-261" v:mID="1730" v:groupContext="shape" transform="translate(152.278,215.516) rotate(-135)">
			<title>Blad.1730</title>
			<path d="M0 274.25 L2.83 274.25" class="st2"/>
		</g>
		<g id="shape1731-264" v:mID="1731" v:groupContext="shape" transform="translate(150.273,-170.328) rotate(-45)">
			<title>Blad.1731</title>
			<path d="M0 274.25 L2.83 274.25" class="st2"/>
		</g>
		<g id="shape1732-267" v:mID="1732" v:groupContext="shape" transform="translate(152.278,-172.332) rotate(-45)">
			<title>Blad.1732</title>
			<path d="M0 274.25 L2.83 274.25" class="st2"/>
		</g>
		<g id="shape1733-270" v:mID="1733" v:groupContext="shape" transform="translate(154.282,217.52) rotate(-135)">
			<title>Blad.1733</title>
			<path d="M0 274.25 L2.83 274.25" class="st2"/>
		</g>
		<g id="shape1734-273" v:mID="1734" v:groupContext="shape" transform="translate(329.194,-245.572)">
			<title>A.1734</title>
			<desc>D</desc>
			<v:textBlock v:margins="rect(4,4,4,4)" v:tabSpace="42.5197"/>
			<v:textRect cx="7.08661" cy="267.164" width="14.18" height="14.1732"/>
			<rect x="0" y="260.077" width="14.1732" height="14.1732" class="st4"/>
			<text x="4" y="270.76" class="st5" v:langID="1043"><v:paragraph v:horizAlign="1"/><v:tabList/>D</text>		</g>
	</g>
</svg>
