<?xml version="1.0" encoding="UTF-8" standalone="no"?>
<!DOCTYPE svg PUBLIC "-//W3C//DTD SVG 1.1//EN" "http://www.w3.org/Graphics/SVG/1.1/DTD/svg11.dtd">
<!-- Generated by Microsoft Visio, SVG Export vergelijkingen.svg Page-1 -->
<svg xmlns="http://www.w3.org/2000/svg" xmlns:xlink="http://www.w3.org/1999/xlink" xmlns:ev="http://www.w3.org/2001/xml-events"
		xmlns:v="http://schemas.microsoft.com/visio/2003/SVGExtensions/" width="9.09874in" height="7.76107in"
		viewBox="0 0 655.109 558.797" xml:space="preserve" color-interpolation-filters="sRGB" class="st12">
	<v:documentProperties v:langID="1043" v:metric="true" v:viewMarkup="false"/>

	<style type="text/css">
	<![CDATA[
		.st1 {stroke:#000000;stroke-linecap:round;stroke-linejoin:round;stroke-width:2}
		.st2 {fill:#ffffff;stroke:#000000;stroke-linecap:round;stroke-linejoin:round;stroke-width:0.75}
		.st3 {marker-start:url(#mrkr5-37);stroke:#31859b;stroke-linecap:round;stroke-linejoin:round;stroke-opacity:0.5;stroke-width:2}
		.st4 {fill:#31859b;fill-opacity:0.5;stroke:#31859b;stroke-opacity:0.5;stroke-width:0.4424778761062}
		.st5 {marker-start:url(#mrkr5-43);stroke:#00cc99;stroke-linecap:round;stroke-linejoin:round;stroke-opacity:0.5;stroke-width:2}
		.st6 {fill:#00cc99;fill-opacity:0.5;stroke:#00cc99;stroke-opacity:0.5;stroke-width:0.4424778761062}
		.st7 {marker-end:url(#mrkr5-74);stroke:#31859b;stroke-linecap:round;stroke-linejoin:round;stroke-opacity:0.5;stroke-width:2}
		.st8 {marker-start:url(#mrkr5-130);stroke:#800000;stroke-linecap:round;stroke-linejoin:round;stroke-opacity:0.5;stroke-width:2}
		.st9 {fill:#800000;fill-opacity:0.5;stroke:#800000;stroke-opacity:0.5;stroke-width:0.4424778761062}
		.st10 {fill:none;stroke:none;stroke-linecap:round;stroke-linejoin:round;stroke-width:0.24}
		.st11 {fill:#000000;font-family:Times New Roman;font-size:1.00001em}
		.st12 {fill:none;fill-rule:evenodd;font-size:12px;overflow:visible;stroke-linecap:square;stroke-miterlimit:3}
	]]>
	</style>

	<defs id="Markers">
		<g id="lend5">
			<path d="M 2 1 L 0 0 L 1.98117 -0.993387 C 1.67173 -0.364515 1.67301 0.372641 1.98465 1.00043 " style="stroke:none"/>
		</g>
		<marker id="mrkr5-37" class="st4" v:arrowType="5" v:arrowSize="2" v:setback="3.775" refX="3.775" orient="auto"
				markerUnits="strokeWidth" overflow="visible">
			<use xlink:href="#lend5" transform="scale(2.26) "/>
		</marker>
		<marker id="mrkr5-43" class="st6" v:arrowType="5" v:arrowSize="2" v:setback="3.775" refX="3.775" orient="auto"
				markerUnits="strokeWidth" overflow="visible">
			<use xlink:href="#lend5" transform="scale(2.26) "/>
		</marker>
		<marker id="mrkr5-74" class="st4" v:arrowType="5" v:arrowSize="2" v:setback="3.775" refX="-3.775" orient="auto"
				markerUnits="strokeWidth" overflow="visible">
			<use xlink:href="#lend5" transform="scale(-2.26,-2.26) "/>
		</marker>
		<marker id="mrkr5-130" class="st9" v:arrowType="5" v:arrowSize="2" v:setback="3.775" refX="3.775" orient="auto"
				markerUnits="strokeWidth" overflow="visible">
			<use xlink:href="#lend5" transform="scale(2.26) "/>
		</marker>
	</defs>
	<g v:mID="0" v:index="1" v:groupContext="foregroundPage">
		<title>Page-1</title>
		<v:pageProperties v:drawingScale="0.0393701" v:pageScale="0.0393701" v:drawingUnits="24" v:shadowOffsetX="8.50394"
				v:shadowOffsetY="-8.50394"/>
		<g id="shape1-1" v:mID="1" v:groupContext="shape" transform="translate(-537.417,520.343) rotate(-90)">
			<title>Ligger, 2 pt.163</title>
			<path d="M0 558.8 L14.17 558.8" class="st1"/>
		</g>
		<g id="shape2-4" v:mID="2" v:groupContext="shape" transform="translate(21.3798,-279.398)">
			<title>Ligger, 2 pt.164</title>
			<path d="M0 558.8 L14.17 558.8" class="st1"/>
		</g>
		<g id="shape3-7" v:mID="3" v:groupContext="shape" transform="translate(-537.417,293.572) rotate(-90)">
			<title>Ligger, 2 pt.165</title>
			<path d="M0 558.8 L14.17 558.8" class="st1"/>
		</g>
		<g id="shape4-10" v:mID="4" v:groupContext="shape" transform="translate(19.2538,-277.272)">
			<title>Scharnier.166</title>
			<ellipse cx="2.12598" cy="556.671" rx="2.12598" ry="2.12598" class="st2"/>
		</g>
		<g id="shape5-12" v:mID="5" v:groupContext="shape" transform="translate(205.632,-279.398)">
			<title>Ligger, 2 pt.167</title>
			<path d="M0 558.8 L14.17 558.8" class="st1"/>
		</g>
		<g id="shape6-15" v:mID="6" v:groupContext="shape" transform="translate(219.805,-279.398)">
			<title>Ligger, 2 pt.168</title>
			<path d="M0 558.8 L14.17 558.8" class="st1"/>
		</g>
		<g id="shape7-18" v:mID="7" v:groupContext="shape" transform="translate(-112.22,279.398) rotate(-90)">
			<title>Ligger, 2 pt.169</title>
			<path d="M0 558.8 L14.17 558.8" class="st1"/>
		</g>
		<g id="shape8-21" v:mID="8" v:groupContext="shape" transform="translate(432.403,-279.398)">
			<title>Ligger, 2 pt.170</title>
			<path d="M0 558.8 L14.17 558.8" class="st1"/>
		</g>
		<g id="shape9-24" v:mID="9" v:groupContext="shape" transform="translate(446.577,-279.398)">
			<title>Ligger, 2 pt.171</title>
			<path d="M0 558.8 L14.17 558.8" class="st1"/>
		</g>
		<g id="shape10-27" v:mID="10" v:groupContext="shape" transform="translate(444.451,-279.398)">
			<title>Scharnier.172</title>
			<ellipse cx="2.12598" cy="556.671" rx="2.12598" ry="2.12598" class="st2"/>
		</g>
		<g id="shape11-29" v:mID="11" v:groupContext="shape" transform="translate(630.829,-279.398)">
			<title>Ligger, 2 pt.173</title>
			<path d="M0 558.8 L14.17 558.8" class="st1"/>
		</g>
		<g id="shape12-32" v:mID="12" v:groupContext="shape" transform="translate(-537.417,321.918) rotate(-90)">
			<title>Kracht.174</title>
			<path d="M7.55 558.8 L7.91 558.8 L28.35 558.8" class="st3"/>
		</g>
		<g id="shape13-38" v:mID="13" v:groupContext="shape" transform="translate(580.177,520.343) rotate(90)">
			<title>Kracht.175</title>
			<path d="M7.55 558.8 L7.91 558.8 L28.35 558.8" class="st5"/>
		</g>
		<g id="shape14-44" v:mID="14" v:groupContext="shape" transform="translate(580.177,477.824) rotate(90)">
			<title>Kracht.176</title>
			<path d="M7.55 558.8 L7.91 558.8 L28.35 558.8" class="st3"/>
		</g>
		<g id="shape15-49" v:mID="15" v:groupContext="shape" transform="translate(-523.244,307.745) rotate(-90)">
			<title>Kracht.177</title>
			<path d="M7.55 558.8 L7.91 558.8 L28.35 558.8" class="st3"/>
		</g>
		<g id="shape16-54" v:mID="16" v:groupContext="shape" transform="translate(262.325,838.195) rotate(180)">
			<title>Kracht.179</title>
			<path d="M7.55 558.8 L7.91 558.8 L28.35 558.8" class="st3"/>
		</g>
		<g id="shape17-59" v:mID="17" v:groupContext="shape" transform="translate(-324.819,307.745) rotate(-90)">
			<title>Kracht.180</title>
			<path d="M7.55 558.8 L7.91 558.8 L28.35 558.8" class="st3"/>
		</g>
		<g id="shape18-64" v:mID="18" v:groupContext="shape" transform="translate(778.602,279.398) rotate(90)">
			<title>Kracht.181</title>
			<path d="M7.55 558.8 L7.91 558.8 L28.35 558.8" class="st5"/>
		</g>
		<g id="shape19-69" v:mID="19" v:groupContext="shape" transform="translate(-353.165,293.572) rotate(-90)">
			<title>Moment.182</title>
			<path d="M-0 558.8 A14.1732 14.1732 0 0 1 14.17 544.62 A14.1732 14.1732 0 0 1 26.14 551.2 L26.24 551.55" class="st7"/>
		</g>
		<g id="shape20-75" v:mID="20" v:groupContext="shape" transform="translate(792.775,293.572) rotate(90) scale(-1,1)">
			<title>Moment.183</title>
			<path d="M-0 558.8 A14.1732 14.1732 0 0 1 14.17 544.62 A14.1732 14.1732 0 0 1 26.14 551.2 L26.24 551.55" class="st7"/>
		</g>
		<g id="shape21-80" v:mID="21" v:groupContext="shape" transform="translate(177.285,-279.398)">
			<title>Kracht.184</title>
			<path d="M7.55 558.8 L7.91 558.8 L28.35 558.8" class="st3"/>
		</g>
		<g id="shape22-85" v:mID="22" v:groupContext="shape" transform="translate(764.429,251.052) rotate(90)">
			<title>Kracht.185</title>
			<path d="M7.55 558.8 L7.91 558.8 L28.35 558.8" class="st3"/>
		</g>
		<g id="shape23-90" v:mID="23" v:groupContext="shape" transform="translate(489.096,838.195) rotate(180)">
			<title>Kracht.186</title>
			<path d="M7.55 558.8 L7.91 558.8 L28.35 558.8" class="st3"/>
		</g>
		<g id="shape24-95" v:mID="24" v:groupContext="shape" transform="translate(-98.0468,307.745) rotate(-90)">
			<title>Kracht.187</title>
			<path d="M7.55 558.8 L7.91 558.8 L28.35 558.8" class="st3"/>
		</g>
		<g id="shape25-100" v:mID="25" v:groupContext="shape" transform="translate(-126.393,293.572) rotate(-90)">
			<title>Moment.188</title>
			<path d="M-0 558.8 A14.1732 14.1732 0 0 1 14.17 544.62 A14.1732 14.1732 0 0 1 26.14 551.2 L26.24 551.55" class="st7"/>
		</g>
		<g id="shape26-105" v:mID="26" v:groupContext="shape" transform="translate(1019.55,293.572) rotate(90) scale(-1,1)">
			<title>Moment.189</title>
			<path d="M-0 558.8 A14.1732 14.1732 0 0 1 14.17 544.62 A14.1732 14.1732 0 0 1 26.14 551.2 L26.24 551.55" class="st7"/>
		</g>
		<g id="shape27-110" v:mID="27" v:groupContext="shape" transform="translate(404.057,-279.398)">
			<title>Kracht.190</title>
			<path d="M7.55 558.8 L7.91 558.8 L28.35 558.8" class="st3"/>
		</g>
		<g id="shape28-115" v:mID="28" v:groupContext="shape" transform="translate(991.2,251.052) rotate(90)">
			<title>Kracht.191</title>
			<path d="M7.55 558.8 L7.91 558.8 L28.35 558.8" class="st3"/>
		</g>
		<g id="shape29-120" v:mID="29" v:groupContext="shape" transform="translate(1189.63,251.052) rotate(90)">
			<title>Kracht.193</title>
			<path d="M7.55 558.8 L7.91 558.8 L28.35 558.8" class="st3"/>
		</g>
		<g id="shape30-125" v:mID="30" v:groupContext="shape" transform="translate(86.2052,307.745) rotate(-90)">
			<title>Kracht.194</title>
			<path d="M7.55 558.8 L7.91 558.8 L28.35 558.8" class="st8"/>
		</g>
		<g id="shape31-131" v:mID="31" v:groupContext="shape" transform="translate(1005.37,38.4535) rotate(90)">
			<title>Ligger, 2 pt.195</title>
			<path d="M0 558.8 L14.17 558.8" class="st1"/>
		</g>
		<g id="shape32-134" v:mID="32" v:groupContext="shape" transform="translate(1005.37,10.107) rotate(90)">
			<title>Kracht.196</title>
			<path d="M7.55 558.8 L7.91 558.8 L28.35 558.8" class="st5"/>
		</g>
		<g id="shape33-139" v:mID="33" v:groupContext="shape" transform="translate(-112.22,80.9732) rotate(-90)">
			<title>Kracht.197</title>
			<path d="M7.55 558.8 L7.91 558.8 L28.35 558.8" class="st3"/>
		</g>
		<g id="shape34-144" v:mID="34" v:groupContext="shape" transform="translate(-537.417,435.304) rotate(-90)">
			<title>Ligger, 2 pt.198</title>
			<path d="M0 558.8 L70.87 558.8" class="st1"/>
		</g>
		<g id="shape35-147" v:mID="35" v:groupContext="shape" transform="translate(580.177,336.091) rotate(90)">
			<title>Kracht.199</title>
			<path d="M7.55 558.8 L7.91 558.8 L28.35 558.8" class="st3"/>
		</g>
		<g id="shape36-152" v:mID="36" v:groupContext="shape" transform="translate(-537.417,463.65) rotate(-90)">
			<title>Kracht.200</title>
			<path d="M7.55 558.8 L7.91 558.8 L28.35 558.8" class="st3"/>
		</g>
		<g id="shape37-157" v:mID="37" v:groupContext="shape" transform="translate(49.7263,-279.398)">
			<title>Ligger, 2 pt.201</title>
			<path d="M0 558.8 L85.04 558.8" class="st1"/>
		</g>
		<g id="shape38-160" v:mID="38" v:groupContext="shape" transform="translate(608.523,251.052) rotate(90)">
			<title>Kracht.203</title>
			<path d="M7.55 558.8 L7.91 558.8 L28.35 558.8" class="st3"/>
		</g>
		<g id="shape39-165" v:mID="39" v:groupContext="shape" transform="translate(693.562,293.572) rotate(90) scale(-1,1)">
			<title>Moment.204</title>
			<path d="M-0 558.8 A14.1732 14.1732 0 0 1 14.17 544.62 A14.1732 14.1732 0 0 1 26.14 551.2 L26.24 551.55" class="st7"/>
		</g>
		<g id="shape40-170" v:mID="40" v:groupContext="shape" transform="translate(163.112,838.195) rotate(180)">
			<title>Kracht.205</title>
			<path d="M7.55 558.8 L7.91 558.8 L28.35 558.8" class="st3"/>
		</g>
		<g id="shape41-175" v:mID="41" v:groupContext="shape" transform="translate(-424.031,307.745) rotate(-90)">
			<title>Kracht.206</title>
			<path d="M7.55 558.8 L7.91 558.8 L28.35 558.8" class="st3"/>
		</g>
		<g id="shape42-180" v:mID="42" v:groupContext="shape" transform="translate(304.844,-279.398)">
			<title>Ligger, 2 pt.207</title>
			<path d="M0 558.8 L56.69 558.8" class="st1"/>
		</g>
		<g id="shape43-183" v:mID="43" v:groupContext="shape" transform="translate(276.498,-279.398)">
			<title>Kracht.208</title>
			<path d="M7.55 558.8 L7.91 558.8 L28.35 558.8" class="st3"/>
		</g>
		<g id="shape44-188" v:mID="44" v:groupContext="shape" transform="translate(863.641,251.052) rotate(90)">
			<title>Kracht.209</title>
			<path d="M7.55 558.8 L7.91 558.8 L28.35 558.8" class="st3"/>
		</g>
		<g id="shape45-193" v:mID="45" v:groupContext="shape" transform="translate(389.884,838.195) rotate(180)">
			<title>Kracht.211</title>
			<path d="M7.55 558.8 L7.91 558.8 L28.35 558.8" class="st3"/>
		</g>
		<g id="shape46-198" v:mID="46" v:groupContext="shape" transform="translate(-197.259,307.745) rotate(-90)">
			<title>Kracht.212</title>
			<path d="M7.55 558.8 L7.91 558.8 L28.35 558.8" class="st3"/>
		</g>
		<g id="shape47-203" v:mID="47" v:groupContext="shape" transform="translate(-253.952,293.572) rotate(-90)">
			<title>Moment.214</title>
			<path d="M-0 558.8 A14.1732 14.1732 0 0 1 14.17 544.62 A14.1732 14.1732 0 0 1 26.14 551.2 L26.24 551.55" class="st7"/>
		</g>
		<g id="shape48-208" v:mID="48" v:groupContext="shape" transform="translate(920.334,293.572) rotate(90) scale(-1,1)">
			<title>Moment.215</title>
			<path d="M-0 558.8 A14.1732 14.1732 0 0 1 14.17 544.62 A14.1732 14.1732 0 0 1 26.14 551.2 L26.24 551.55" class="st7"/>
		</g>
		<g id="shape49-213" v:mID="49" v:groupContext="shape" transform="translate(-112.22,194.359) rotate(-90)">
			<title>Ligger, 2 pt.216</title>
			<path d="M0 558.8 L70.87 558.8" class="st1"/>
		</g>
		<g id="shape50-216" v:mID="50" v:groupContext="shape" transform="translate(1005.37,222.705) rotate(90)">
			<title>Kracht.217</title>
			<path d="M7.55 558.8 L7.91 558.8 L28.35 558.8" class="st3"/>
		</g>
		<g id="shape51-221" v:mID="51" v:groupContext="shape" transform="translate(-112.22,222.705) rotate(-90)">
			<title>Kracht.218</title>
			<path d="M7.55 558.8 L7.91 558.8 L28.35 558.8" class="st3"/>
		</g>
		<g id="shape52-226" v:mID="52" v:groupContext="shape" transform="translate(1005.37,95.1464) rotate(90)">
			<title>Kracht.220</title>
			<path d="M7.55 558.8 L7.91 558.8 L28.35 558.8" class="st3"/>
		</g>
		<g id="shape53-231" v:mID="53" v:groupContext="shape" transform="translate(531.616,-279.398)">
			<title>Ligger, 2 pt.221</title>
			<path d="M0 558.8 L85.04 558.8" class="st1"/>
		</g>
		<g id="shape54-234" v:mID="54" v:groupContext="shape" transform="translate(503.27,-279.398)">
			<title>Kracht.222</title>
			<path d="M7.55 558.8 L7.91 558.8 L28.35 558.8" class="st3"/>
		</g>
		<g id="shape55-239" v:mID="55" v:groupContext="shape" transform="translate(1090.41,251.052) rotate(90)">
			<title>Kracht.223</title>
			<path d="M7.55 558.8 L7.91 558.8 L28.35 558.8" class="st3"/>
		</g>
		<g id="shape56-244" v:mID="56" v:groupContext="shape" transform="translate(57.8586,307.745) rotate(-90)">
			<title>Kracht.226</title>
			<path d="M7.55 558.8 L7.91 558.8 L28.35 558.8" class="st3"/>
		</g>
		<g id="shape57-249" v:mID="57" v:groupContext="shape" transform="translate(-28.598,293.572) rotate(-90)">
			<title>Moment.227</title>
			<path d="M-0 558.8 A14.1732 14.1732 0 0 1 14.17 544.62 A14.1732 14.1732 0 0 1 26.14 551.2 L26.24 551.55" class="st7"/>
		</g>
		<g id="shape58-254" v:mID="58" v:groupContext="shape" transform="translate(219.805,841.03) rotate(180)">
			<title>Kracht.236</title>
			<path d="M7.55 558.8 L7.91 558.8 L28.35 558.8" class="st5"/>
		</g>
		<g id="shape59-259" v:mID="59" v:groupContext="shape" transform="translate(28.4665,-38.4535)">
			<title>Punt A.243</title>
			<desc>1</desc>
			<v:textBlock v:margins="rect(4,4,4,4)" v:tabSpace="42.5197"/>
			<v:textRect cx="7.08661" cy="551.71" width="14.18" height="14.1732"/>
			<rect x="0" y="544.624" width="14.1732" height="14.1732" class="st10"/>
			<text x="4.09" y="555.31" class="st11" v:langID="1043"><v:paragraph v:horizAlign="1"/><v:tabList/>1</text>		</g>
		<g id="shape60-262" v:mID="60" v:groupContext="shape" transform="translate(28.4665,-151.839)">
			<title>Punt A.244</title>
			<desc>1</desc>
			<v:textBlock v:margins="rect(4,4,4,4)" v:tabSpace="42.5197"/>
			<v:textRect cx="7.08661" cy="551.71" width="14.18" height="14.1732"/>
			<rect x="0" y="544.624" width="14.1732" height="14.1732" class="st10"/>
			<text x="4.09" y="555.31" class="st11" v:langID="1043"><v:paragraph v:horizAlign="1"/><v:tabList/>1</text>		</g>
		<g id="shape61-265" v:mID="61" v:groupContext="shape" transform="translate(0.12,-286.485)">
			<title>Punt A.245</title>
			<desc>1</desc>
			<v:textBlock v:margins="rect(4,4,4,4)" v:tabSpace="42.5197"/>
			<v:textRect cx="7.08661" cy="551.71" width="14.18" height="14.1732"/>
			<rect x="0" y="544.624" width="14.1732" height="14.1732" class="st10"/>
			<text x="4.09" y="555.31" class="st11" v:langID="1043"><v:paragraph v:horizAlign="1"/><v:tabList/>1</text>		</g>
		<g id="shape62-268" v:mID="62" v:groupContext="shape" transform="translate(85.1594,-258.139)">
			<title>Punt A.483</title>
			<desc>3</desc>
			<v:textBlock v:margins="rect(4,4,4,4)" v:tabSpace="42.5197"/>
			<v:textRect cx="7.08661" cy="551.71" width="14.18" height="14.1732"/>
			<rect x="0" y="544.624" width="14.1732" height="14.1732" class="st10"/>
			<text x="4.09" y="555.31" class="st11" v:langID="1043"><v:paragraph v:horizAlign="1"/><v:tabList/>3</text>		</g>
		<g id="shape63-271" v:mID="63" v:groupContext="shape" transform="translate(212.718,-286.485)">
			<title>Punt A.484</title>
			<desc>3</desc>
			<v:textBlock v:margins="rect(4,4,4,4)" v:tabSpace="42.5197"/>
			<v:textRect cx="7.08661" cy="551.71" width="14.18" height="14.1732"/>
			<rect x="0" y="544.624" width="14.1732" height="14.1732" class="st10"/>
			<text x="4.09" y="555.31" class="st11" v:langID="1043"><v:paragraph v:horizAlign="1"/><v:tabList/>3</text>		</g>
		<g id="shape64-274" v:mID="64" v:groupContext="shape" transform="translate(326.104,-286.485)">
			<title>Punt A.485</title>
			<desc>3</desc>
			<v:textBlock v:margins="rect(4,4,4,4)" v:tabSpace="42.5197"/>
			<v:textRect cx="7.08661" cy="551.71" width="14.18" height="14.1732"/>
			<rect x="0" y="544.624" width="14.1732" height="14.1732" class="st10"/>
			<text x="4.09" y="555.31" class="st11" v:langID="1043"><v:paragraph v:horizAlign="1"/><v:tabList/>3</text>		</g>
		<g id="shape65-277" v:mID="65" v:groupContext="shape" transform="translate(439.49,-258.139)">
			<title>Punt A.486</title>
			<desc>3</desc>
			<v:textBlock v:margins="rect(4,4,4,4)" v:tabSpace="42.5197"/>
			<v:textRect cx="7.08661" cy="551.71" width="14.18" height="14.1732"/>
			<rect x="0" y="544.624" width="14.1732" height="14.1732" class="st10"/>
			<text x="4.09" y="555.31" class="st11" v:langID="1043"><v:paragraph v:horizAlign="1"/><v:tabList/>3</text>		</g>
		<g id="shape66-280" v:mID="66" v:groupContext="shape" transform="translate(567.049,-286.485)">
			<title>Punt A.487</title>
			<desc>3</desc>
			<v:textBlock v:margins="rect(4,4,4,4)" v:tabSpace="42.5197"/>
			<v:textRect cx="7.08661" cy="551.71" width="14.18" height="14.1732"/>
			<rect x="0" y="544.624" width="14.1732" height="14.1732" class="st10"/>
			<text x="4.09" y="555.31" class="st11" v:langID="1043"><v:paragraph v:horizAlign="1"/><v:tabList/>3</text>		</g>
		<g id="shape67-283" v:mID="67" v:groupContext="shape" transform="translate(637.915,-286.485)">
			<title>Punt A.488</title>
			<desc>1</desc>
			<v:textBlock v:margins="rect(4,4,4,4)" v:tabSpace="42.5197"/>
			<v:textRect cx="7.08661" cy="551.71" width="14.18" height="14.1732"/>
			<rect x="0" y="544.624" width="14.1732" height="14.1732" class="st10"/>
			<text x="4.09" y="555.31" class="st11" v:langID="1043"><v:paragraph v:horizAlign="1"/><v:tabList/>1</text>		</g>
		<g id="shape68-286" v:mID="68" v:groupContext="shape" transform="translate(453.663,-392.784)">
			<title>Punt A.489</title>
			<desc>1</desc>
			<v:textBlock v:margins="rect(4,4,4,4)" v:tabSpace="42.5197"/>
			<v:textRect cx="7.08661" cy="551.71" width="14.18" height="14.1732"/>
			<rect x="0" y="544.624" width="14.1732" height="14.1732" class="st10"/>
			<text x="4.09" y="555.31" class="st11" v:langID="1043"><v:paragraph v:horizAlign="1"/><v:tabList/>1</text>		</g>
		<g id="shape69-289" v:mID="69" v:groupContext="shape" transform="translate(453.663,-506.17)">
			<title>Punt A.490</title>
			<desc>1</desc>
			<v:textBlock v:margins="rect(4,4,4,4)" v:tabSpace="42.5197"/>
			<v:textRect cx="7.08661" cy="551.71" width="14.18" height="14.1732"/>
			<rect x="0" y="544.624" width="14.1732" height="14.1732" class="st10"/>
			<text x="4.09" y="555.31" class="st11" v:langID="1043"><v:paragraph v:horizAlign="1"/><v:tabList/>1</text>		</g>
	</g>
</svg>
