<?xml version="1.0" encoding="UTF-8" standalone="no"?>
<!DOCTYPE svg PUBLIC "-//W3C//DTD SVG 1.1//EN" "http://www.w3.org/Graphics/SVG/1.1/DTD/svg11.dtd">
<!-- Generated by Microsoft Visio, SVG Export onbekenden.svg Page-1 -->
<svg xmlns="http://www.w3.org/2000/svg" xmlns:xlink="http://www.w3.org/1999/xlink" xmlns:ev="http://www.w3.org/2001/xml-events"
		xmlns:v="http://schemas.microsoft.com/visio/2003/SVGExtensions/" width="9.33587in" height="0.871302in"
		viewBox="0 0 672.183 62.7337" xml:space="preserve" color-interpolation-filters="sRGB" class="st12">
	<v:documentProperties v:langID="1043" v:metric="true" v:viewMarkup="false"/>

	<style type="text/css">
	<![CDATA[
		.st1 {fill:none;stroke:none;stroke-linecap:round;stroke-linejoin:round;stroke-width:0.75}
		.st2 {fill:#000000;font-family:Times New Roman;font-size:1.00001em}
		.st3 {stroke:#000000;stroke-linecap:round;stroke-linejoin:round;stroke-opacity:0.5;stroke-width:2}
		.st4 {marker-end:url(#mrkr5-18);stroke:#800000;stroke-linecap:round;stroke-linejoin:round;stroke-opacity:0.5;stroke-width:1.2}
		.st5 {fill:#800000;fill-opacity:0.5;stroke:#800000;stroke-opacity:0.5;stroke-width:0.45454545454546}
		.st6 {stroke:#800000;stroke-linecap:round;stroke-linejoin:round;stroke-opacity:0.5;stroke-width:1.2}
		.st7 {marker-start:url(#mrkr5-55);stroke:#00cc99;stroke-linecap:round;stroke-linejoin:round;stroke-width:2}
		.st8 {fill:#00cc99;fill-opacity:1;stroke:#00cc99;stroke-opacity:1;stroke-width:0.4424778761062}
		.st9 {marker-start:url(#mrkr5-66);stroke:#31859b;stroke-linecap:round;stroke-linejoin:round;stroke-width:2}
		.st10 {fill:#31859b;fill-opacity:1;stroke:#31859b;stroke-opacity:1;stroke-width:0.4424778761062}
		.st11 {marker-end:url(#mrkr5-92);stroke:#31859b;stroke-linecap:round;stroke-linejoin:round;stroke-width:2}
		.st12 {fill:none;fill-rule:evenodd;font-size:12px;overflow:visible;stroke-linecap:square;stroke-miterlimit:3}
	]]>
	</style>

	<defs id="Markers">
		<g id="lend5">
			<path d="M 2 1 L 0 0 L 1.98117 -0.993387 C 1.67173 -0.364515 1.67301 0.372641 1.98465 1.00043 " style="stroke:none"/>
		</g>
		<marker id="mrkr5-18" class="st5" v:arrowType="5" v:arrowSize="0" v:setback="3.85" refX="-3.85" orient="auto"
				markerUnits="strokeWidth" overflow="visible">
			<use xlink:href="#lend5" transform="scale(-2.2,-2.2) "/>
		</marker>
		<marker id="mrkr5-55" class="st8" v:arrowType="5" v:arrowSize="2" v:setback="3.775" refX="3.775" orient="auto"
				markerUnits="strokeWidth" overflow="visible">
			<use xlink:href="#lend5" transform="scale(2.26) "/>
		</marker>
		<marker id="mrkr5-66" class="st10" v:arrowType="5" v:arrowSize="2" v:setback="3.775" refX="3.775" orient="auto"
				markerUnits="strokeWidth" overflow="visible">
			<use xlink:href="#lend5" transform="scale(2.26) "/>
		</marker>
		<marker id="mrkr5-92" class="st10" v:arrowType="5" v:arrowSize="2" v:setback="3.775" refX="-3.775" orient="auto"
				markerUnits="strokeWidth" overflow="visible">
			<use xlink:href="#lend5" transform="scale(-2.26,-2.26) "/>
		</marker>
	</defs>
	<g v:mID="0" v:index="1" v:groupContext="foregroundPage">
		<title>Page-1</title>
		<v:pageProperties v:drawingScale="0.0393701" v:pageScale="0.0393701" v:drawingUnits="24" v:shadowOffsetX="8.50394"
				v:shadowOffsetY="-8.50394"/>
		<g id="shape62-1" v:mID="62" v:groupContext="shape" transform="translate(17.1936,-17.1936)">
			<title>Maatlijn.35</title>
			<desc>2</desc>
			<v:textBlock v:margins="rect(4,4,4,4)" v:tabSpace="42.5197"/>
			<v:textRect cx="7.08661" cy="55.6471" width="14.18" height="14.1732"/>
			<rect x="0" y="48.5605" width="14.1732" height="14.1732" class="st1"/>
			<text x="4.09" y="59.25" class="st2" v:langID="1043"><v:paragraph v:horizAlign="1"/><v:tabList/>2</text>		</g>
		<g id="shape63-4" v:mID="63" v:groupContext="shape" transform="translate(123.493,-38.4535)">
			<title>Ligger, 2 pt.446</title>
			<path d="M0 62.73 L113.39 62.73" class="st3"/>
		</g>
		<g id="shape64-7" v:mID="64" v:groupContext="shape" transform="translate(406.957,-38.4535)">
			<title>Ligger, 2 pt.447</title>
			<path d="M0 62.73 L85.04 62.73" class="st3"/>
		</g>
		<g id="shape65-10" v:mID="65" v:groupContext="shape" transform="translate(491.997,-38.4535)">
			<title>Ligger, 2 pt.448</title>
			<path d="M0 62.73 L85.04 62.73" class="st3"/>
		</g>
		<g id="shape66-13" v:mID="66" v:groupContext="shape" transform="translate(186.227,10.107) rotate(90)">
			<title>Kracht.5</title>
			<path d="M0 62.73 L9.55 62.73" class="st4"/>
		</g>
		<g id="shape67-19" v:mID="67" v:groupContext="shape" transform="translate(123.493,-52.6267)">
			<title>Sheet.67</title>
			<path d="M0 62.73 L113.39 62.73" class="st6"/>
		</g>
		<g id="shape68-22" v:mID="68" v:groupContext="shape" transform="translate(208.904,10.107) rotate(90)">
			<title>Kracht.4</title>
			<path d="M0 62.73 L9.55 62.73" class="st4"/>
		</g>
		<g id="shape69-27" v:mID="69" v:groupContext="shape" transform="translate(231.581,10.107) rotate(90)">
			<title>Kracht.9</title>
			<path d="M0 62.73 L9.55 62.73" class="st4"/>
		</g>
		<g id="shape70-32" v:mID="70" v:groupContext="shape" transform="translate(299.612,10.107) rotate(90)">
			<title>Kracht.6</title>
			<path d="M0 62.73 L9.55 62.73" class="st4"/>
		</g>
		<g id="shape71-37" v:mID="71" v:groupContext="shape" transform="translate(276.935,10.107) rotate(90)">
			<title>Kracht.37</title>
			<path d="M0 62.73 L9.55 62.73" class="st4"/>
		</g>
		<g id="shape72-42" v:mID="72" v:groupContext="shape" transform="translate(254.258,10.107) rotate(90)">
			<title>Kracht.7</title>
			<path d="M0 62.73 L9.55 62.73" class="st4"/>
		</g>
		<g id="shape73-47" v:mID="73" v:groupContext="shape" transform="translate(38.4535,-38.4535)">
			<title>Ligger, 2 pt.457</title>
			<path d="M0 62.73 L14.17 62.73" class="st3"/>
		</g>
		<g id="shape74-50" v:mID="74" v:groupContext="shape" transform="translate(101.187,24.2803) rotate(90)">
			<title>Kracht.458</title>
			<path d="M7.55 62.73 L7.91 62.73 L28.35 62.73" class="st7"/>
		</g>
		<g id="shape75-56" v:mID="75" v:groupContext="shape" transform="translate(38.4535,87.014) rotate(180)">
			<title>Kracht.459</title>
			<path d="M7.55 62.73 L7.91 62.73 L28.35 62.73" class="st7"/>
		</g>
		<g id="shape76-61" v:mID="76" v:groupContext="shape" transform="translate(80.9732,87.014) rotate(180)">
			<title>Kracht.460</title>
			<path d="M7.55 62.73 L7.91 62.73 L28.35 62.73" class="st9"/>
		</g>
		<g id="shape77-67" v:mID="77" v:groupContext="shape" transform="translate(115.36,24.2803) rotate(90)">
			<title>Kracht.461</title>
			<path d="M7.55 62.73 L7.91 62.73 L28.35 62.73" class="st9"/>
		</g>
		<g id="shape78-72" v:mID="78" v:groupContext="shape" transform="translate(95.1464,-38.4535)">
			<title>Kracht.462</title>
			<path d="M7.55 62.73 L7.91 62.73 L28.35 62.73" class="st9"/>
		</g>
		<g id="shape79-77" v:mID="79" v:groupContext="shape" transform="translate(265.225,87.014) rotate(180)">
			<title>Kracht.464</title>
			<path d="M7.55 62.73 L7.91 62.73 L28.35 62.73" class="st9"/>
		</g>
		<g id="shape80-82" v:mID="80" v:groupContext="shape" transform="translate(299.612,24.2803) rotate(90)">
			<title>Kracht.465</title>
			<path d="M7.55 62.73 L7.91 62.73 L28.35 62.73" class="st9"/>
		</g>
		<g id="shape81-87" v:mID="81" v:groupContext="shape" transform="translate(299.612,10.107) rotate(90)">
			<title>Moment.466</title>
			<path d="M-0 62.73 A14.1732 14.1732 0 0 1 14.17 48.56 A14.1732 14.1732 0 0 1 26.14 55.14 L26.24 55.48" class="st11"/>
		</g>
		<g id="shape82-93" v:mID="82" v:groupContext="shape" transform="translate(307.745,-38.4535)">
			<title>Ligger, 2 pt.467</title>
			<path d="M0 62.73 L28.35 62.73" class="st3"/>
		</g>
		<g id="shape83-96" v:mID="83" v:groupContext="shape" transform="translate(364.438,87.014) rotate(180)">
			<title>Kracht.469</title>
			<path d="M7.55 62.73 L7.91 62.73 L28.35 62.73" class="st9"/>
		</g>
		<g id="shape84-101" v:mID="84" v:groupContext="shape" transform="translate(398.825,24.2803) rotate(90)">
			<title>Kracht.470</title>
			<path d="M7.55 62.73 L7.91 62.73 L28.35 62.73" class="st9"/>
		</g>
		<g id="shape85-106" v:mID="85" v:groupContext="shape" transform="translate(279.398,-38.4535)">
			<title>Kracht.471</title>
			<path d="M7.55 62.73 L7.91 62.73 L28.35 62.73" class="st9"/>
		</g>
		<g id="shape86-111" v:mID="86" v:groupContext="shape" transform="translate(398.825,10.107) rotate(90)">
			<title>Moment.473</title>
			<path d="M-0 62.73 A14.1732 14.1732 0 0 1 14.17 48.56 A14.1732 14.1732 0 0 1 26.14 55.14 L26.24 55.48" class="st11"/>
		</g>
		<g id="shape87-116" v:mID="87" v:groupContext="shape" transform="translate(245.011,10.107) rotate(-90) scale(-1,1)">
			<title>Moment.474</title>
			<path d="M-0 62.73 A14.1732 14.1732 0 0 1 14.17 48.56 A14.1732 14.1732 0 0 1 26.14 55.14 L26.24 55.48" class="st11"/>
		</g>
		<g id="shape88-121" v:mID="88" v:groupContext="shape" transform="translate(378.611,-38.4535)">
			<title>Kracht.475</title>
			<path d="M7.55 62.73 L7.91 62.73 L28.35 62.73" class="st9"/>
		</g>
		<g id="shape89-126" v:mID="89" v:groupContext="shape" transform="translate(344.224,10.107) rotate(-90) scale(-1,1)">
			<title>Moment.477</title>
			<path d="M-0 62.73 A14.1732 14.1732 0 0 1 14.17 48.56 A14.1732 14.1732 0 0 1 26.14 55.14 L26.24 55.48" class="st11"/>
		</g>
		<g id="shape90-131" v:mID="90" v:groupContext="shape" transform="translate(605.383,87.014) rotate(180)">
			<title>Kracht.478</title>
			<path d="M7.55 62.73 L7.91 62.73 L28.35 62.73" class="st9"/>
		</g>
		<g id="shape91-136" v:mID="91" v:groupContext="shape" transform="translate(639.77,24.2803) rotate(90)">
			<title>Kracht.479</title>
			<path d="M7.55 62.73 L7.91 62.73 L28.35 62.73" class="st9"/>
		</g>
		<g id="shape92-141" v:mID="92" v:groupContext="shape" transform="translate(647.902,-38.4535)">
			<title>Ligger, 2 pt.480</title>
			<path d="M0 62.73 L14.17 62.73" class="st3"/>
		</g>
		<g id="shape93-144" v:mID="93" v:groupContext="shape" transform="translate(724.809,24.2803) rotate(90)">
			<title>Kracht.481</title>
			<path d="M7.55 62.73 L7.91 62.73 L28.35 62.73" class="st7"/>
		</g>
		<g id="shape94-149" v:mID="94" v:groupContext="shape" transform="translate(619.556,-38.4535)">
			<title>Kracht.482</title>
			<path d="M7.55 62.73 L7.91 62.73 L28.35 62.73" class="st9"/>
		</g>
		<g id="shape95-154" v:mID="95" v:groupContext="shape" transform="translate(80.9732,-45.5401)">
			<title>Maatlijn.485</title>
			<desc>2</desc>
			<v:textBlock v:margins="rect(4,4,4,4)" v:tabSpace="42.5197"/>
			<v:textRect cx="7.08661" cy="55.6471" width="14.18" height="14.1732"/>
			<rect x="0" y="48.5605" width="14.1732" height="14.1732" class="st1"/>
			<text x="4.09" y="59.25" class="st2" v:langID="1043"><v:paragraph v:horizAlign="1"/><v:tabList/>2</text>		</g>
		<g id="shape96-157" v:mID="96" v:groupContext="shape" transform="translate(265.225,-45.5401)">
			<title>Maatlijn.486</title>
			<desc>3</desc>
			<v:textBlock v:margins="rect(4,4,4,4)" v:tabSpace="42.5197"/>
			<v:textRect cx="7.08661" cy="55.6471" width="14.18" height="14.1732"/>
			<rect x="0" y="48.5605" width="14.1732" height="14.1732" class="st1"/>
			<text x="4.09" y="59.25" class="st2" v:langID="1043"><v:paragraph v:horizAlign="1"/><v:tabList/>3</text>		</g>
		<g id="shape97-160" v:mID="97" v:groupContext="shape" transform="translate(300.658,-3.02041)">
			<title>Maatlijn.487</title>
			<desc>1</desc>
			<v:textBlock v:margins="rect(4,4,4,4)" v:tabSpace="42.5197"/>
			<v:textRect cx="7.08661" cy="55.6471" width="14.18" height="14.1732"/>
			<rect x="0" y="48.5605" width="14.1732" height="14.1732" class="st1"/>
			<text x="4.09" y="59.25" class="st2" v:langID="1043"><v:paragraph v:horizAlign="1"/><v:tabList/>1</text>		</g>
		<g id="shape98-163" v:mID="98" v:groupContext="shape" transform="translate(364.438,-45.5401)">
			<title>Maatlijn.488</title>
			<desc>3</desc>
			<v:textBlock v:margins="rect(4,4,4,4)" v:tabSpace="42.5197"/>
			<v:textRect cx="7.08661" cy="55.6471" width="14.18" height="14.1732"/>
			<rect x="0" y="48.5605" width="14.1732" height="14.1732" class="st1"/>
			<text x="4.09" y="59.25" class="st2" v:langID="1043"><v:paragraph v:horizAlign="1"/><v:tabList/>3</text>		</g>
		<g id="shape99-166" v:mID="99" v:groupContext="shape" transform="translate(605.383,-45.5401)">
			<title>Maatlijn.489</title>
			<desc>2</desc>
			<v:textBlock v:margins="rect(4,4,4,4)" v:tabSpace="42.5197"/>
			<v:textRect cx="7.08661" cy="55.6471" width="14.18" height="14.1732"/>
			<rect x="0" y="48.5605" width="14.1732" height="14.1732" class="st1"/>
			<text x="4.09" y="59.25" class="st2" v:langID="1043"><v:paragraph v:horizAlign="1"/><v:tabList/>2</text>		</g>
		<g id="shape100-169" v:mID="100" v:groupContext="shape" transform="translate(640.816,-17.1936)">
			<title>Maatlijn.490</title>
			<desc>1</desc>
			<v:textBlock v:margins="rect(4,4,4,4)" v:tabSpace="42.5197"/>
			<v:textRect cx="7.08661" cy="55.6471" width="14.18" height="14.1732"/>
			<rect x="0" y="48.5605" width="14.1732" height="14.1732" class="st1"/>
			<text x="4.09" y="59.25" class="st2" v:langID="1043"><v:paragraph v:horizAlign="1"/><v:tabList/>1</text>		</g>
		<g id="shape101-172" v:mID="101" v:groupContext="shape" transform="translate(384.652,24.2803) rotate(90)">
			<title>Kracht.491</title>
			<path d="M7.55 62.73 L7.91 62.73 L28.35 62.73" class="st7"/>
		</g>
	</g>
</svg>
