<?xml version="1.0" encoding="UTF-8" standalone="no"?>
<!DOCTYPE svg PUBLIC "-//W3C//DTD SVG 1.1//EN" "http://www.w3.org/Graphics/SVG/1.1/DTD/svg11.dtd">
<!-- Gegenereerd door Microsoft Visio, SVG Export optie1.svg Pagina-1 -->
<svg xmlns="http://www.w3.org/2000/svg" xmlns:xlink="http://www.w3.org/1999/xlink" xmlns:ev="http://www.w3.org/2001/xml-events"
		xmlns:v="http://schemas.microsoft.com/visio/2003/SVGExtensions/" width="4.22302in" height="0.995848in"
		viewBox="0 0 304.057 71.7011" xml:space="preserve" color-interpolation-filters="sRGB" class="st17">
	<v:documentProperties v:langID="1043" v:metric="true" v:viewMarkup="false"/>

	<style type="text/css">
	<![CDATA[
		.st1 {stroke:#000000;stroke-linecap:round;stroke-linejoin:round;stroke-width:0.75}
		.st2 {fill:#00cc99;stroke:#000000;stroke-linecap:round;stroke-linejoin:round;stroke-width:0.75}
		.st3 {stroke:#000000;stroke-linecap:round;stroke-linejoin:round;stroke-width:2}
		.st4 {fill:#ffffff;stroke:#000000;stroke-linecap:round;stroke-linejoin:round;stroke-width:0.75}
		.st5 {marker-end:url(#mrkr5-45);stroke:#800000;stroke-linecap:round;stroke-linejoin:round;stroke-width:2}
		.st6 {fill:#800000;fill-opacity:1;stroke:#800000;stroke-opacity:1;stroke-width:0.44247787610619}
		.st7 {marker-end:url(#mrkr1-56);stroke:#000000;stroke-linecap:butt;stroke-width:3}
		.st8 {fill:#000000;fill-opacity:1;stroke:#000000;stroke-opacity:1;stroke-width:0.67567567567568}
		.st9 {fill:none;stroke:none;stroke-linecap:round;stroke-linejoin:round;stroke-width:0.24}
		.st10 {fill:#000000;font-family:Times New Roman;font-size:1.00001em;font-style:italic}
		.st11 {baseline-shift:-32.4941%;font-size:0.649882em;font-style:normal}
		.st12 {baseline-shift:32.4941%;font-size:0.649882em;font-style:normal}
		.st13 {font-size:1em;font-style:normal}
		.st14 {marker-end:url(#mrkr5-99);stroke:#800000;stroke-linecap:round;stroke-linejoin:round;stroke-width:1.2}
		.st15 {fill:#800000;fill-opacity:1;stroke:#800000;stroke-opacity:1;stroke-width:0.45454545454546}
		.st16 {stroke:#800000;stroke-linecap:round;stroke-linejoin:round;stroke-width:1.2}
		.st17 {fill:none;fill-rule:evenodd;font-size:12px;overflow:visible;stroke-linecap:square;stroke-miterlimit:3}
	]]>
	</style>

	<defs id="Markers">
		<g id="lend5">
			<path d="M 2 1 L 0 0 L 1.98117 -0.993387 C 1.67173 -0.364515 1.67301 0.372641 1.98465 1.00043 " style="stroke:none"/>
		</g>
		<marker id="mrkr5-45" class="st6" v:arrowType="5" v:arrowSize="2" v:setback="3.775" refX="-3.775" orient="auto"
				markerUnits="strokeWidth" overflow="visible">
			<use xlink:href="#lend5" transform="scale(-2.26,-2.26) "/>
		</marker>
		<g id="lend1">
			<path d="M 1 -1 L 0 0 L 1 1 " style="stroke-linecap:round;stroke-linejoin:round;fill:none"/>
		</g>
		<marker id="mrkr1-56" class="st8" v:arrowType="1" v:arrowSize="0" orient="auto" markerUnits="strokeWidth"
				overflow="visible">
			<use xlink:href="#lend1" transform="scale(-1.48,-1.48) "/>
		</marker>
		<marker id="mrkr5-99" class="st15" v:arrowType="5" v:arrowSize="0" v:setback="3.85" refX="-3.85" orient="auto"
				markerUnits="strokeWidth" overflow="visible">
			<use xlink:href="#lend5" transform="scale(-2.2,-2.2) "/>
		</marker>
	</defs>
	<g v:mID="0" v:index="1" v:groupContext="foregroundPage">
		<title>Pagina-1</title>
		<v:pageProperties v:drawingScale="0.0393701" v:pageScale="0.0393701" v:drawingUnits="24" v:shadowOffsetX="8.50394"
				v:shadowOffsetY="-8.50394"/>
		<g id="shape151-1" v:mID="151" v:groupContext="shape" transform="translate(155.748,92.4778) rotate(153.435)">
			<title>Blad.151</title>
			<path d="M0 71.7 L47.54 71.7" class="st1"/>
		</g>
		<g id="shape152-4" v:mID="152" v:groupContext="shape" transform="translate(198.267,71.218) rotate(153.435)">
			<title>Blad.152</title>
			<path d="M0 71.7 L47.54 71.7" class="st1"/>
		</g>
		<g id="group153-7" transform="translate(0.375,-32.016)" v:mID="153" v:groupContext="group">
			<title>Scharnieroplegging.153</title>
			<g id="shape154-8" v:mID="154" v:groupContext="shape" transform="translate(2.83465,0)">
				<title>Blad.154</title>
				<path d="M0 71.7 L14.17 71.7 L7.09 60.36 L0 71.7 Z" class="st2"/>
			</g>
			<g id="shape155-10" v:mID="155" v:groupContext="shape" transform="translate(2.83465,143.402) rotate(180)">
				<title>Blad.155</title>
				<path d="M0 71.7 L2.83 71.7" class="st1"/>
			</g>
			<g id="shape156-13" v:mID="156" v:groupContext="shape" transform="translate(17.0079,0)">
				<title>Blad.156</title>
				<path d="M0 71.7 L2.83 71.7" class="st1"/>
			</g>
		</g>
		<g id="shape157-16" v:mID="157" v:groupContext="shape" transform="translate(10.2963,-43.3546)">
			<title>Ligger, 2 pt.157</title>
			<path d="M0 71.7 L113.39 71.7" class="st3"/>
		</g>
		<g id="group158-19" transform="translate(113.761,-29.1814)" v:mID="158" v:groupContext="group">
			<title>Rol.158</title>
			<g id="group159-20" transform="translate(0.261477,-2.83465)" v:mID="159" v:groupContext="group">
				<title>Scharnier</title>
				<g id="shape160-21" v:mID="160" v:groupContext="shape" transform="translate(2.79729,0)">
					<title>Blad.160</title>
					<path d="M0 71.7 L13.99 71.7 L6.99 60.36 L0 71.7 Z" class="st2"/>
				</g>
				<g id="shape161-23" v:mID="161" v:groupContext="shape" transform="translate(2.79729,143.402) rotate(180)">
					<title>Blad.161</title>
					<path d="M0 71.7 L2.8 71.7" class="st1"/>
				</g>
				<g id="shape162-26" v:mID="162" v:groupContext="shape" transform="translate(16.7838,0)">
					<title>Blad.162</title>
					<path d="M0 71.7 L2.8 71.7" class="st1"/>
				</g>
			</g>
			<g id="shape163-29" v:mID="163" v:groupContext="shape">
				<title>Blad.163</title>
				<path d="M0 71.7 L19.84 71.7" class="st1"/>
			</g>
		</g>
		<g id="shape164-32" v:mID="164" v:groupContext="shape" transform="translate(123.682,-43.3546)">
			<title>Ligger, 2 pt.164</title>
			<path d="M0 71.7 L85.04 71.7" class="st3"/>
		</g>
		<g id="shape165-35" v:mID="165" v:groupContext="shape" transform="translate(208.721,-43.3546)">
			<title>Ligger, 2 pt.165</title>
			<path d="M0 71.7 L85.04 71.7" class="st3"/>
		</g>
		<g id="shape194-38" v:mID="194" v:groupContext="shape" transform="translate(121.556,-41.2286)">
			<title>Scharnier.194</title>
			<ellipse cx="2.12598" cy="69.5751" rx="2.12598" ry="2.12598" class="st4"/>
		</g>
		<g id="shape195-40" v:mID="195" v:groupContext="shape" transform="translate(73.2409,42.5197) rotate(-90)">
			<title>Moment.195</title>
			<path d="M-0 71.7 A14.1732 14.1732 0 0 1 14.17 57.53 A14.1732 14.1732 0 0 1 26.14 64.11 L26.24 64.45" class="st5"/>
		</g>
		<g id="shape196-46" v:mID="196" v:groupContext="shape" transform="translate(174.123,42.5197) rotate(90) scale(-1,1)">
			<title>Moment.196</title>
			<path d="M-0 71.7 A14.1732 14.1732 0 0 1 14.17 57.53 A14.1732 14.1732 0 0 1 26.14 64.11 L26.24 64.45" class="st5"/>
		</g>
		<g id="shape198-51" v:mID="198" v:groupContext="shape" transform="translate(20.6911,48.4956) rotate(74.1507) scale(1,-1)">
			<title>Hoekverdraaiing.198</title>
			<path d="M0 71.7 C5.56 70.12 10.36 70.82 14.97 71.7" class="st7"/>
		</g>
		<g id="shape199-57" v:mID="199" v:groupContext="shape" transform="translate(227.24,8.7643) rotate(74.1507) scale(-1,1)">
			<title>Hoekverdraaiing.199</title>
			<path d="M0 71.7 C5.56 70.12 10.36 70.82 14.97 71.7" class="st7"/>
		</g>
		<g id="shape201-62" v:mID="201" v:groupContext="shape" transform="translate(160.532,-50.4412)">
			<title>Punt A.201</title>
			<desc>φBBC</desc>
			<v:textBlock v:margins="rect(4,4,4,4)" v:tabSpace="42.5197"/>
			<v:textRect cx="17.0079" cy="64.6144" width="34.02" height="14.1732"/>
			<rect x="0" y="57.5278" width="34.0157" height="14.1732" class="st9"/>
			<text x="5.89" y="68.22" class="st10" v:langID="1043"><v:paragraph v:horizAlign="1"/><v:tabList/>φ<tspan dy="-0.279em"
						class="st11" v:baseFontSize="12">B</tspan><tspan dy="0.081em" class="st12" v:baseFontSize="12">BC</tspan></text>		</g>
		<g id="shape202-67" v:mID="202" v:groupContext="shape" transform="translate(52.8159,-22.0948)">
			<title>Punt A.202</title>
			<desc>φBAB</desc>
			<v:textBlock v:margins="rect(4,4,4,4)" v:tabSpace="42.5197"/>
			<v:textRect cx="17.0079" cy="64.6144" width="34.02" height="14.1732"/>
			<rect x="0" y="57.5278" width="34.0157" height="14.1732" class="st9"/>
			<text x="5.67" y="68.22" class="st10" v:langID="1043"><v:paragraph v:horizAlign="1"/><v:tabList/>φ<tspan dy="-0.279em"
						class="st11" v:baseFontSize="12">B</tspan><tspan dy="0.081em" class="st12" v:baseFontSize="12">AB</tspan></text>		</g>
		<g id="shape203-72" v:mID="203" v:groupContext="shape" transform="translate(81.1624,-0.83492)">
			<title>Punt A.203</title>
			<desc>φBAB = φBBC</desc>
			<v:textBlock v:margins="rect(4,4,4,4)" v:tabSpace="42.5197"/>
			<v:textRect cx="42.5197" cy="64.6144" width="85.04" height="14.1732"/>
			<rect x="0" y="57.5278" width="85.0394" height="14.1732" class="st9"/>
			<text x="14.2" y="68.22" class="st10" v:langID="1043"><v:paragraph v:horizAlign="1"/><v:tabList/>φ<tspan dy="-0.279em"
						class="st11" v:baseFontSize="12">B</tspan><tspan dy="0.081em" class="st12" v:baseFontSize="12">AB </tspan><tspan
						dy="0.129em" class="st13">= </tspan>φ<tspan dy="-0.279em" class="st11" v:baseFontSize="12">B</tspan><tspan
						dy="0.081em" class="st12" v:baseFontSize="12">BC</tspan></text>		</g>
		<g id="group284-80" transform="translate(283.84,-29.1814)" v:mID="284" v:groupContext="group">
			<title>Rol.284</title>
			<g id="group285-81" transform="translate(0.261477,-2.83465)" v:mID="285" v:groupContext="group">
				<title>Scharnier</title>
				<g id="shape286-82" v:mID="286" v:groupContext="shape" transform="translate(2.79729,0)">
					<title>Blad.286</title>
					<path d="M0 71.7 L13.99 71.7 L6.99 60.36 L0 71.7 Z" class="st2"/>
				</g>
				<g id="shape287-84" v:mID="287" v:groupContext="shape" transform="translate(2.79729,143.402) rotate(180)">
					<title>Blad.287</title>
					<path d="M0 71.7 L2.8 71.7" class="st1"/>
				</g>
				<g id="shape288-87" v:mID="288" v:groupContext="shape" transform="translate(16.7838,0)">
					<title>Blad.288</title>
					<path d="M0 71.7 L2.8 71.7" class="st1"/>
				</g>
			</g>
			<g id="shape289-90" v:mID="289" v:groupContext="shape">
				<title>Blad.289</title>
				<path d="M0 71.7 L19.84 71.7" class="st1"/>
			</g>
		</g>
		<g id="group342-93" transform="translate(10.2963,-43.3546)" v:mID="342" v:groupContext="group">
			<title>qz-last constant.342</title>
			<g id="shape343-94" v:mID="343" v:groupContext="shape" transform="translate(71.7011,57.5278) rotate(90)">
				<title>Kracht.5</title>
				<path d="M0 71.7 L9.55 71.7" class="st14"/>
			</g>
			<g id="shape344-100" v:mID="344" v:groupContext="shape" transform="translate(1.59872E-14,-14.1732)">
				<title>Blad.344</title>
				<path d="M0 71.7 L113.39 71.7" class="st16"/>
			</g>
			<g id="shape345-103" v:mID="345" v:groupContext="shape" transform="translate(94.3782,57.5278) rotate(90)">
				<title>Kracht.4</title>
				<path d="M0 71.7 L9.55 71.7" class="st14"/>
			</g>
			<g id="shape346-108" v:mID="346" v:groupContext="shape" transform="translate(117.055,57.5278) rotate(90)">
				<title>Kracht.9</title>
				<path d="M0 71.7 L9.55 71.7" class="st14"/>
			</g>
			<g id="shape347-113" v:mID="347" v:groupContext="shape" transform="translate(185.087,57.5278) rotate(90)">
				<title>Kracht.6</title>
				<path d="M0 71.7 L9.55 71.7" class="st14"/>
			</g>
			<g id="shape348-118" v:mID="348" v:groupContext="shape" transform="translate(162.41,57.5278) rotate(90)">
				<title>Kracht.37</title>
				<path d="M0 71.7 L9.55 71.7" class="st14"/>
			</g>
			<g id="shape349-123" v:mID="349" v:groupContext="shape" transform="translate(139.733,57.5278) rotate(90)">
				<title>Kracht.7</title>
				<path d="M0 71.7 L9.55 71.7" class="st14"/>
			</g>
		</g>
	</g>
</svg>
