<?xml version="1.0" encoding="UTF-8" standalone="no"?>
<!DOCTYPE svg PUBLIC "-//W3C//DTD SVG 1.1//EN" "http://www.w3.org/Graphics/SVG/1.1/DTD/svg11.dtd">
<!-- Generated by Microsoft Visio, SVG Export vergelijkingen.svg Page-1 -->
<svg xmlns="http://www.w3.org/2000/svg" xmlns:xlink="http://www.w3.org/1999/xlink" xmlns:ev="http://www.w3.org/2001/xml-events"
		xmlns:v="http://schemas.microsoft.com/visio/2003/SVGExtensions/" width="9.33587in" height="1.06815in"
		viewBox="0 0 672.183 76.907" xml:space="preserve" color-interpolation-filters="sRGB" class="st12">
	<v:documentProperties v:langID="1043" v:metric="true" v:viewMarkup="false"/>

	<style type="text/css">
	<![CDATA[
		.st1 {stroke:#000000;stroke-linecap:round;stroke-linejoin:round;stroke-width:2}
		.st2 {marker-end:url(#mrkr5-15);stroke:#800000;stroke-linecap:round;stroke-linejoin:round;stroke-opacity:0.5;stroke-width:1.2}
		.st3 {fill:#800000;fill-opacity:0.5;stroke:#800000;stroke-opacity:0.5;stroke-width:0.45454545454546}
		.st4 {stroke:#800000;stroke-linecap:round;stroke-linejoin:round;stroke-opacity:0.5;stroke-width:1.2}
		.st5 {marker-start:url(#mrkr5-52);stroke:#00cc99;stroke-linecap:round;stroke-linejoin:round;stroke-opacity:0.5;stroke-width:2}
		.st6 {fill:#00cc99;fill-opacity:0.5;stroke:#00cc99;stroke-opacity:0.5;stroke-width:0.4424778761062}
		.st7 {marker-start:url(#mrkr5-63);stroke:#31859b;stroke-linecap:round;stroke-linejoin:round;stroke-opacity:0.5;stroke-width:2}
		.st8 {fill:#31859b;fill-opacity:0.5;stroke:#31859b;stroke-opacity:0.5;stroke-width:0.4424778761062}
		.st9 {marker-end:url(#mrkr5-94);stroke:#31859b;stroke-linecap:round;stroke-linejoin:round;stroke-opacity:0.5;stroke-width:2}
		.st10 {fill:none;stroke:none;stroke-linecap:round;stroke-linejoin:round;stroke-width:0.75}
		.st11 {fill:#000000;font-family:Times New Roman;font-size:1.00001em}
		.st12 {fill:none;fill-rule:evenodd;font-size:12px;overflow:visible;stroke-linecap:square;stroke-miterlimit:3}
	]]>
	</style>

	<defs id="Markers">
		<g id="lend5">
			<path d="M 2 1 L 0 0 L 1.98117 -0.993387 C 1.67173 -0.364515 1.67301 0.372641 1.98465 1.00043 " style="stroke:none"/>
		</g>
		<marker id="mrkr5-15" class="st3" v:arrowType="5" v:arrowSize="0" v:setback="3.85" refX="-3.85" orient="auto"
				markerUnits="strokeWidth" overflow="visible">
			<use xlink:href="#lend5" transform="scale(-2.2,-2.2) "/>
		</marker>
		<marker id="mrkr5-52" class="st6" v:arrowType="5" v:arrowSize="2" v:setback="3.775" refX="3.775" orient="auto"
				markerUnits="strokeWidth" overflow="visible">
			<use xlink:href="#lend5" transform="scale(2.26) "/>
		</marker>
		<marker id="mrkr5-63" class="st8" v:arrowType="5" v:arrowSize="2" v:setback="3.775" refX="3.775" orient="auto"
				markerUnits="strokeWidth" overflow="visible">
			<use xlink:href="#lend5" transform="scale(2.26) "/>
		</marker>
		<marker id="mrkr5-94" class="st8" v:arrowType="5" v:arrowSize="2" v:setback="3.775" refX="-3.775" orient="auto"
				markerUnits="strokeWidth" overflow="visible">
			<use xlink:href="#lend5" transform="scale(-2.26,-2.26) "/>
		</marker>
	</defs>
	<g v:mID="0" v:index="1" v:groupContext="foregroundPage">
		<title>Page-1</title>
		<v:pageProperties v:drawingScale="0.0393701" v:pageScale="0.0393701" v:drawingUnits="24" v:shadowOffsetX="8.50394"
				v:shadowOffsetY="-8.50394"/>
		<g id="shape102-1" v:mID="102" v:groupContext="shape" transform="translate(123.493,-38.4535)">
			<title>Ligger, 2 pt.376</title>
			<path d="M0 76.91 L113.39 76.91" class="st1"/>
		</g>
		<g id="shape103-4" v:mID="103" v:groupContext="shape" transform="translate(406.957,-38.4535)">
			<title>Ligger, 2 pt.383</title>
			<path d="M0 76.91 L85.04 76.91" class="st1"/>
		</g>
		<g id="shape104-7" v:mID="104" v:groupContext="shape" transform="translate(491.997,-38.4535)">
			<title>Ligger, 2 pt.384</title>
			<path d="M0 76.91 L85.04 76.91" class="st1"/>
		</g>
		<g id="shape105-10" v:mID="105" v:groupContext="shape" transform="translate(200.4,24.2803) rotate(90)">
			<title>Kracht.387</title>
			<path d="M0 76.91 L9.55 76.91" class="st2"/>
		</g>
		<g id="shape106-16" v:mID="106" v:groupContext="shape" transform="translate(123.493,-52.6267)">
			<title>Sheet.106</title>
			<path d="M0 76.91 L113.39 76.91" class="st4"/>
		</g>
		<g id="shape107-19" v:mID="107" v:groupContext="shape" transform="translate(223.077,24.2803) rotate(90)">
			<title>Kracht.389</title>
			<path d="M0 76.91 L9.55 76.91" class="st2"/>
		</g>
		<g id="shape108-24" v:mID="108" v:groupContext="shape" transform="translate(245.754,24.2803) rotate(90)">
			<title>Kracht.390</title>
			<path d="M0 76.91 L9.55 76.91" class="st2"/>
		</g>
		<g id="shape109-29" v:mID="109" v:groupContext="shape" transform="translate(313.786,24.2803) rotate(90)">
			<title>Kracht.391</title>
			<path d="M0 76.91 L9.55 76.91" class="st2"/>
		</g>
		<g id="shape110-34" v:mID="110" v:groupContext="shape" transform="translate(291.108,24.2803) rotate(90)">
			<title>Kracht.392</title>
			<path d="M0 76.91 L9.55 76.91" class="st2"/>
		</g>
		<g id="shape111-39" v:mID="111" v:groupContext="shape" transform="translate(268.431,24.2803) rotate(90)">
			<title>Kracht.393</title>
			<path d="M0 76.91 L9.55 76.91" class="st2"/>
		</g>
		<g id="shape112-44" v:mID="112" v:groupContext="shape" transform="translate(38.4535,-38.4535)">
			<title>Ligger, 2 pt.415</title>
			<path d="M0 76.91 L14.17 76.91" class="st1"/>
		</g>
		<g id="shape113-47" v:mID="113" v:groupContext="shape" transform="translate(115.36,38.4535) rotate(90)">
			<title>Kracht.416</title>
			<path d="M7.55 76.91 L7.91 76.91 L28.35 76.91" class="st5"/>
		</g>
		<g id="shape114-53" v:mID="114" v:groupContext="shape" transform="translate(38.4535,115.36) rotate(180)">
			<title>Kracht.417</title>
			<path d="M7.55 76.91 L7.91 76.91 L28.35 76.91" class="st5"/>
		</g>
		<g id="shape115-58" v:mID="115" v:groupContext="shape" transform="translate(80.9732,115.36) rotate(180)">
			<title>Kracht.418</title>
			<path d="M7.55 76.91 L7.91 76.91 L28.35 76.91" class="st7"/>
		</g>
		<g id="shape116-64" v:mID="116" v:groupContext="shape" transform="translate(129.534,38.4535) rotate(90)">
			<title>Kracht.419</title>
			<path d="M7.55 76.91 L7.91 76.91 L28.35 76.91" class="st7"/>
		</g>
		<g id="shape117-69" v:mID="117" v:groupContext="shape" transform="translate(95.1464,-38.4535)">
			<title>Kracht.420</title>
			<path d="M7.55 76.91 L7.91 76.91 L28.35 76.91" class="st7"/>
		</g>
		<g id="shape118-74" v:mID="118" v:groupContext="shape" transform="translate(46.5859,38.4535) rotate(-90)">
			<title>Kracht.421</title>
			<path d="M7.55 76.91 L7.91 76.91 L28.35 76.91" class="st7"/>
		</g>
		<g id="shape119-79" v:mID="119" v:groupContext="shape" transform="translate(265.225,115.36) rotate(180)">
			<title>Kracht.422</title>
			<path d="M7.55 76.91 L7.91 76.91 L28.35 76.91" class="st7"/>
		</g>
		<g id="shape120-84" v:mID="120" v:groupContext="shape" transform="translate(313.786,38.4535) rotate(90)">
			<title>Kracht.423</title>
			<path d="M7.55 76.91 L7.91 76.91 L28.35 76.91" class="st7"/>
		</g>
		<g id="shape121-89" v:mID="121" v:groupContext="shape" transform="translate(313.786,24.2803) rotate(90)">
			<title>Moment.424</title>
			<path d="M-0 76.91 A14.1732 14.1732 0 0 1 14.17 62.73 A14.1732 14.1732 0 0 1 26.14 69.31 L26.24 69.66" class="st9"/>
		</g>
		<g id="shape122-95" v:mID="122" v:groupContext="shape" transform="translate(307.745,-38.4535)">
			<title>Ligger, 2 pt.425</title>
			<path d="M0 76.91 L28.35 76.91" class="st1"/>
		</g>
		<g id="shape123-98" v:mID="123" v:groupContext="shape" transform="translate(398.825,38.4535) rotate(90)">
			<title>Kracht.426</title>
			<path d="M7.55 76.91 L7.91 76.91 L28.35 76.91" class="st5"/>
		</g>
		<g id="shape124-103" v:mID="124" v:groupContext="shape" transform="translate(364.438,115.36) rotate(180)">
			<title>Kracht.427</title>
			<path d="M7.55 76.91 L7.91 76.91 L28.35 76.91" class="st7"/>
		</g>
		<g id="shape125-108" v:mID="125" v:groupContext="shape" transform="translate(412.998,38.4535) rotate(90)">
			<title>Kracht.428</title>
			<path d="M7.55 76.91 L7.91 76.91 L28.35 76.91" class="st7"/>
		</g>
		<g id="shape126-113" v:mID="126" v:groupContext="shape" transform="translate(279.398,-38.4535)">
			<title>Kracht.429</title>
			<path d="M7.55 76.91 L7.91 76.91 L28.35 76.91" class="st7"/>
		</g>
		<g id="shape127-118" v:mID="127" v:groupContext="shape" transform="translate(230.838,38.4535) rotate(-90)">
			<title>Kracht.430</title>
			<path d="M7.55 76.91 L7.91 76.91 L28.35 76.91" class="st7"/>
		</g>
		<g id="shape128-123" v:mID="128" v:groupContext="shape" transform="translate(412.998,24.2803) rotate(90)">
			<title>Moment.431</title>
			<path d="M-0 76.91 A14.1732 14.1732 0 0 1 14.17 62.73 A14.1732 14.1732 0 0 1 26.14 69.31 L26.24 69.66" class="st9"/>
		</g>
		<g id="shape129-128" v:mID="129" v:groupContext="shape" transform="translate(230.838,24.2803) rotate(-90) scale(-1,1)">
			<title>Moment.432</title>
			<path d="M-0 76.91 A14.1732 14.1732 0 0 1 14.17 62.73 A14.1732 14.1732 0 0 1 26.14 69.31 L26.24 69.66" class="st9"/>
		</g>
		<g id="shape130-133" v:mID="130" v:groupContext="shape" transform="translate(378.611,-38.4535)">
			<title>Kracht.433</title>
			<path d="M7.55 76.91 L7.91 76.91 L28.35 76.91" class="st7"/>
		</g>
		<g id="shape131-138" v:mID="131" v:groupContext="shape" transform="translate(330.05,38.4535) rotate(-90)">
			<title>Kracht.434</title>
			<path d="M7.55 76.91 L7.91 76.91 L28.35 76.91" class="st7"/>
		</g>
		<g id="shape132-143" v:mID="132" v:groupContext="shape" transform="translate(330.05,24.2803) rotate(-90) scale(-1,1)">
			<title>Moment.435</title>
			<path d="M-0 76.91 A14.1732 14.1732 0 0 1 14.17 62.73 A14.1732 14.1732 0 0 1 26.14 69.31 L26.24 69.66" class="st9"/>
		</g>
		<g id="shape133-148" v:mID="133" v:groupContext="shape" transform="translate(605.383,115.36) rotate(180)">
			<title>Kracht.436</title>
			<path d="M7.55 76.91 L7.91 76.91 L28.35 76.91" class="st7"/>
		</g>
		<g id="shape134-153" v:mID="134" v:groupContext="shape" transform="translate(653.943,38.4535) rotate(90)">
			<title>Kracht.437</title>
			<path d="M7.55 76.91 L7.91 76.91 L28.35 76.91" class="st7"/>
		</g>
		<g id="shape135-158" v:mID="135" v:groupContext="shape" transform="translate(647.902,-38.4535)">
			<title>Ligger, 2 pt.438</title>
			<path d="M0 76.91 L14.17 76.91" class="st1"/>
		</g>
		<g id="shape136-161" v:mID="136" v:groupContext="shape" transform="translate(738.983,38.4535) rotate(90)">
			<title>Kracht.439</title>
			<path d="M7.55 76.91 L7.91 76.91 L28.35 76.91" class="st5"/>
		</g>
		<g id="shape137-166" v:mID="137" v:groupContext="shape" transform="translate(619.556,-38.4535)">
			<title>Kracht.441</title>
			<path d="M7.55 76.91 L7.91 76.91 L28.35 76.91" class="st7"/>
		</g>
		<g id="shape138-171" v:mID="138" v:groupContext="shape" transform="translate(570.995,38.4535) rotate(-90)">
			<title>Kracht.442</title>
			<path d="M7.55 76.91 L7.91 76.91 L28.35 76.91" class="st7"/>
		</g>
		<g id="shape139-176" v:mID="139" v:groupContext="shape" transform="translate(38.4535,-44.1228)">
			<title>Maatlijn.492</title>
			<desc>2</desc>
			<v:textBlock v:margins="rect(4,4,4,4)" v:tabSpace="42.5197"/>
			<v:textRect cx="7.08661" cy="69.8204" width="14.18" height="14.1732"/>
			<rect x="0" y="62.7337" width="14.1732" height="14.1732" class="st10"/>
			<text x="4.09" y="73.42" class="st11" v:langID="1043"><v:paragraph v:horizAlign="1"/><v:tabList/>2</text>		</g>
		<g id="shape140-179" v:mID="140" v:groupContext="shape" transform="translate(173.099,-59.7133)">
			<title>Maatlijn.493</title>
			<desc>3</desc>
			<v:textBlock v:margins="rect(4,4,4,4)" v:tabSpace="42.5197"/>
			<v:textRect cx="7.08661" cy="69.8204" width="14.18" height="14.1732"/>
			<rect x="0" y="62.7337" width="14.1732" height="14.1732" class="st10"/>
			<text x="4.09" y="73.42" class="st11" v:langID="1043"><v:paragraph v:horizAlign="1"/><v:tabList/>3</text>		</g>
		<g id="shape141-182" v:mID="141" v:groupContext="shape" transform="translate(314.831,-45.5401)">
			<title>Maatlijn.494</title>
			<desc>3</desc>
			<v:textBlock v:margins="rect(4,4,4,4)" v:tabSpace="42.5197"/>
			<v:textRect cx="7.08661" cy="69.8204" width="14.18" height="14.1732"/>
			<rect x="0" y="62.7337" width="14.1732" height="14.1732" class="st10"/>
			<text x="4.09" y="73.42" class="st11" v:langID="1043"><v:paragraph v:horizAlign="1"/><v:tabList/>3</text>		</g>
		<g id="shape142-185" v:mID="142" v:groupContext="shape" transform="translate(484.91,-45.5401)">
			<title>Maatlijn.495</title>
			<desc>3</desc>
			<v:textBlock v:margins="rect(4,4,4,4)" v:tabSpace="42.5197"/>
			<v:textRect cx="7.08661" cy="69.8204" width="14.18" height="14.1732"/>
			<rect x="0" y="62.7337" width="14.1732" height="14.1732" class="st10"/>
			<text x="4.09" y="73.42" class="st11" v:langID="1043"><v:paragraph v:horizAlign="1"/><v:tabList/>3</text>		</g>
		<g id="shape143-188" v:mID="143" v:groupContext="shape" transform="translate(654.989,-45.5401)">
			<title>Maatlijn.496</title>
			<desc>2</desc>
			<v:textBlock v:margins="rect(4,4,4,4)" v:tabSpace="42.5197"/>
			<v:textRect cx="7.08661" cy="69.8204" width="14.18" height="14.1732"/>
			<rect x="0" y="62.7337" width="14.1732" height="14.1732" class="st10"/>
			<text x="4.09" y="73.42" class="st11" v:langID="1043"><v:paragraph v:horizAlign="1"/><v:tabList/>2</text>		</g>
	</g>
</svg>
