<?xml version="1.0" encoding="UTF-8" standalone="no"?>
<!DOCTYPE svg PUBLIC "-//W3C//DTD SVG 1.1//EN" "http://www.w3.org/Graphics/SVG/1.1/DTD/svg11.dtd">
<!-- Gegenereerd door Microsoft Visio, SVG Export constructie.svg Pagina-1 -->
<svg xmlns="http://www.w3.org/2000/svg" xmlns:xlink="http://www.w3.org/1999/xlink" xmlns:ev="http://www.w3.org/2001/xml-events"
		xmlns:v="http://schemas.microsoft.com/visio/2003/SVGExtensions/" width="6.70333in" height="2.96917in"
		viewBox="0 0 482.64 213.78" xml:space="preserve" color-interpolation-filters="sRGB" class="st26">
	<v:documentProperties v:langID="1043" v:metric="true" v:viewMarkup="false"/>

	<style type="text/css">
	<![CDATA[
		.st1 {stroke:#000000;stroke-linecap:round;stroke-linejoin:round;stroke-width:2}
		.st2 {stroke:#000000;stroke-linecap:round;stroke-linejoin:round;stroke-width:1.2}
		.st3 {stroke:#000000;stroke-linecap:round;stroke-linejoin:round;stroke-width:0.75}
		.st4 {marker-start:url(#mrkr5-94);stroke:#800000;stroke-linecap:round;stroke-linejoin:round;stroke-width:2}
		.st5 {fill:#800000;fill-opacity:1;stroke:#800000;stroke-opacity:1;stroke-width:0.44247787610619}
		.st6 {fill:none;stroke:none;stroke-linecap:round;stroke-linejoin:round;stroke-width:0.24}
		.st7 {fill:#000000;font-family:Times New Roman;font-size:1.00001em;font-style:italic}
		.st8 {baseline-shift:-32.4941%;font-size:0.649882em}
		.st9 {font-size:1em;font-style:normal}
		.st10 {stroke:#000000;stroke-linecap:round;stroke-linejoin:round;stroke-width:0.25}
		.st11 {marker-end:url(#mrkr4-112);marker-start:url(#mrkr4-110);stroke:#000000;stroke-linecap:round;stroke-linejoin:round;stroke-width:0.25}
		.st12 {fill:#000000;fill-opacity:1;stroke:#000000;stroke-opacity:1;stroke-width:0.12195121951219}
		.st13 {fill:none;stroke:none;stroke-linecap:round;stroke-linejoin:round;stroke-width:0.75}
		.st14 {fill:#000000;font-family:Times New Roman;font-size:1.00001em}
		.st15 {marker-end:url(#mrkr5-137);stroke:#000000;stroke-linecap:round;stroke-linejoin:round;stroke-width:0.75}
		.st16 {fill:#000000;fill-opacity:1;stroke:#000000;stroke-opacity:1;stroke-width:0.22935779816514}
		.st17 {stroke:#000000;stroke-linecap:round;stroke-linejoin:round;stroke-width:6}
		.st18 {marker-start:url(#mrkr4-189);stroke:#000000;stroke-linecap:round;stroke-linejoin:round;stroke-width:0.25}
		.st19 {fill:#000000;fill-opacity:1;stroke:#000000;stroke-opacity:1;stroke-width:0.14792899408284}
		.st20 {font-size:1em;font-style:italic}
		.st21 {baseline-shift:-32.4941%;font-size:0.649882em;font-style:italic}
		.st22 {font-size:1em}
		.st23 {marker-start:url(#mrkr39-338);stroke:#800000;stroke-linecap:round;stroke-linejoin:round;stroke-width:2}
		.st24 {baseline-shift:-32.4941%;font-size:0.649882em;font-style:normal}
		.st25 {stroke:#a5a5a5;stroke-linecap:round;stroke-linejoin:round;stroke-width:1.5}
		.st26 {fill:none;fill-rule:evenodd;font-size:12px;overflow:visible;stroke-linecap:square;stroke-miterlimit:3}
	]]>
	</style>

	<defs id="Markers">
		<g id="lend5">
			<path d="M 2 1 L 0 0 L 1.98117 -0.993387 C 1.67173 -0.364515 1.67301 0.372641 1.98465 1.00043 " style="stroke:none"/>
		</g>
		<marker id="mrkr5-94" class="st5" v:arrowType="5" v:arrowSize="2" v:setback="3.775" refX="3.775" orient="auto"
				markerUnits="strokeWidth" overflow="visible">
			<use xlink:href="#lend5" transform="scale(2.26) "/>
		</marker>
		<g id="lend4">
			<path d="M 2 1 L 0 0 L 2 -1 L 2 1 " style="stroke:none"/>
		</g>
		<marker id="mrkr4-110" class="st12" v:arrowType="4" v:arrowSize="1" v:setback="14.96" refX="14.96" orient="auto"
				markerUnits="strokeWidth" overflow="visible">
			<use xlink:href="#lend4" transform="scale(8.2) "/>
		</marker>
		<marker id="mrkr4-112" class="st12" v:arrowType="4" v:arrowSize="1" v:setback="16.4" refX="-16.4" orient="auto"
				markerUnits="strokeWidth" overflow="visible">
			<use xlink:href="#lend4" transform="scale(-8.2,-8.2) "/>
		</marker>
		<marker id="mrkr5-137" class="st16" v:arrowType="5" v:arrowSize="2" v:setback="7.63" refX="-7.63" orient="auto"
				markerUnits="strokeWidth" overflow="visible">
			<use xlink:href="#lend5" transform="scale(-4.36,-4.36) "/>
		</marker>
		<marker id="mrkr4-189" class="st19" v:arrowType="4" v:arrowSize="0" v:setback="12.08" refX="12.08" orient="auto"
				markerUnits="strokeWidth" overflow="visible">
			<use xlink:href="#lend4" transform="scale(6.76) "/>
		</marker>
		<g id="lend39">
			<path d="M 0 0 L 2 -1 L 2 1 L 0 0 M 2 0 L 4 -1 L 4 1 L 2 0 " style="stroke:none"/>
		</g>
		<marker id="mrkr39-338" class="st5" v:arrowType="39" v:arrowSize="2" v:setback="8.86" refX="8.86" orient="auto"
				markerUnits="strokeWidth" overflow="visible">
			<use xlink:href="#lend39" transform="scale(2.26) "/>
		</marker>
	</defs>
	<g v:mID="0" v:index="1" v:groupContext="foregroundPage">
		<title>Pagina-1</title>
		<v:pageProperties v:drawingScale="0.0393701" v:pageScale="0.0393701" v:drawingUnits="24" v:shadowOffsetX="8.50394"
				v:shadowOffsetY="-8.50394"/>
		<g id="shape1391-1" v:mID="1391" v:groupContext="shape" transform="translate(213.682,-121.298) rotate(36.8699)">
			<title>Ligger, 2 pt.1391</title>
			<path d="M0 213.78 L113.39 213.78" class="st1"/>
		</g>
		<g id="group1395-4" transform="translate(64.1546,-149.88)" v:mID="1395" v:groupContext="group">
			<title>Inklemming 3D.1395</title>
			<g id="shape1396-5" v:mID="1396" v:groupContext="shape" transform="translate(234.908,185.434) rotate(90)">
				<title>Blad.1396</title>
				<path d="M0 213.78 L28.35 213.78" class="st2"/>
			</g>
			<g id="shape1397-8" v:mID="1397" v:groupContext="shape" transform="translate(160.955,25.7641) rotate(44.9999)">
				<title>Blad.1397</title>
				<path d="M0 213.78 L16.04 213.78" class="st3"/>
			</g>
			<g id="shape1398-11" v:mID="1398" v:groupContext="shape" transform="translate(160.955,28.599) rotate(45)">
				<title>Blad.1398</title>
				<path d="M0 213.78 L16.04 213.78" class="st3"/>
			</g>
			<g id="shape1399-14" v:mID="1399" v:groupContext="shape" transform="translate(160.955,31.4336) rotate(45)">
				<title>Blad.1399</title>
				<path d="M0 213.78 L16.04 213.78" class="st3"/>
			</g>
			<g id="shape1400-17" v:mID="1400" v:groupContext="shape" transform="translate(160.955,34.2683) rotate(45)">
				<title>Blad.1400</title>
				<path d="M0 213.78 L16.04 213.78" class="st3"/>
			</g>
			<g id="shape1401-20" v:mID="1401" v:groupContext="shape" transform="translate(160.955,37.1029) rotate(45)">
				<title>Blad.1401</title>
				<path d="M0 213.78 L16.04 213.78" class="st3"/>
			</g>
			<g id="shape1402-23" v:mID="1402" v:groupContext="shape" transform="translate(170.404,49.3864) rotate(45)">
				<title>Blad.1402</title>
				<path d="M0 213.78 L2.67 213.78" class="st3"/>
			</g>
			<g id="shape1403-26" v:mID="1403" v:groupContext="shape" transform="translate(168.514,50.3313) rotate(45)">
				<title>Blad.1403</title>
				<path d="M0 213.78 L5.35 213.78" class="st3"/>
			</g>
			<g id="shape1404-29" v:mID="1404" v:groupContext="shape" transform="translate(166.624,51.2762) rotate(45)">
				<title>Blad.1404</title>
				<path d="M0 213.78 L8.02 213.78" class="st3"/>
			</g>
			<g id="shape1405-32" v:mID="1405" v:groupContext="shape" transform="translate(163.98,51.5406) rotate(44.7325)">
				<title>Blad.1405</title>
				<path d="M0 213.78 L10.71 213.78" class="st3"/>
			</g>
			<g id="shape1406-35" v:mID="1406" v:groupContext="shape" transform="translate(162.845,53.1659) rotate(45)">
				<title>Blad.1406</title>
				<path d="M0 213.78 L13.36 213.78" class="st3"/>
			</g>
			<g id="shape1407-38" v:mID="1407" v:groupContext="shape" transform="translate(129.411,384.479) rotate(153.435)">
				<title>Blad.1407</title>
				<path d="M0 213.78 L28.35 213.78" class="st2"/>
			</g>
			<g id="shape1408-41" v:mID="1408" v:groupContext="shape" transform="translate(234.924,259.604) rotate(108.435)">
				<title>Blad.1408</title>
				<path d="M0 213.78 L2.67 213.78" class="st3"/>
			</g>
			<g id="shape1409-44" v:mID="1409" v:groupContext="shape" transform="translate(233.234,258.336) rotate(108.435)">
				<title>Blad.1409</title>
				<path d="M0 213.78 L5.35 213.78" class="st3"/>
			</g>
			<g id="shape1410-47" v:mID="1410" v:groupContext="shape" transform="translate(231.544,257.068) rotate(108.435)">
				<title>Blad.1410</title>
				<path d="M0 213.78 L8.02 213.78" class="st3"/>
			</g>
			<g id="shape1411-50" v:mID="1411" v:groupContext="shape" transform="translate(229.854,255.801) rotate(108.435)">
				<title>Blad.1411</title>
				<path d="M0 213.78 L10.69 213.78" class="st3"/>
			</g>
			<g id="shape1412-53" v:mID="1412" v:groupContext="shape" transform="translate(228.163,254.533) rotate(108.435)">
				<title>Blad.1412</title>
				<path d="M0 213.78 L13.36 213.78" class="st3"/>
			</g>
			<g id="shape1413-56" v:mID="1413" v:groupContext="shape" transform="translate(226.473,253.265) rotate(108.435)">
				<title>Blad.1413</title>
				<path d="M0 213.78 L7.12 213.78" class="st3"/>
			</g>
			<g id="shape1414-59" v:mID="1414" v:groupContext="shape" transform="translate(220.557,264.674) rotate(108.435)">
				<title>Blad.1414</title>
				<path d="M0 213.78 L5.35 213.78" class="st3"/>
			</g>
			<g id="shape1415-62" v:mID="1415" v:groupContext="shape" transform="translate(218.867,263.407) rotate(108.435)">
				<title>Blad.1415</title>
				<path d="M0 213.78 L8.02 213.78" class="st3"/>
			</g>
			<g id="shape1416-65" v:mID="1416" v:groupContext="shape" transform="translate(217.177,262.139) rotate(108.435)">
				<title>Blad.1416</title>
				<path d="M0 213.78 L10.69 213.78" class="st3"/>
			</g>
			<g id="shape1417-68" v:mID="1417" v:groupContext="shape" transform="translate(215.487,260.871) rotate(108.435)">
				<title>Blad.1417</title>
				<path d="M0 213.78 L13.36 213.78" class="st3"/>
			</g>
			<g id="shape1418-71" v:mID="1418" v:groupContext="shape" transform="translate(213.796,259.604) rotate(108.435)">
				<title>Blad.1418</title>
				<path d="M0 213.78 L13.36 213.78" class="st3"/>
			</g>
			<g id="shape1419-74" v:mID="1419" v:groupContext="shape" transform="translate(211.261,260.871) rotate(108.435)">
				<title>Blad.1419</title>
				<path d="M0 213.78 L10.69 213.78" class="st3"/>
			</g>
			<g id="shape1420-77" v:mID="1420" v:groupContext="shape" transform="translate(208.725,262.139) rotate(108.435)">
				<title>Blad.1420</title>
				<path d="M0 213.78 L8.02 213.78" class="st3"/>
			</g>
			<g id="shape1421-80" v:mID="1421" v:groupContext="shape" transform="translate(206.19,263.407) rotate(108.435)">
				<title>Blad.1421</title>
				<path d="M0 213.78 L5.35 213.78" class="st3"/>
			</g>
			<g id="shape1422-83" v:mID="1422" v:groupContext="shape" transform="translate(203.655,264.674) rotate(108.435)">
				<title>Blad.1422</title>
				<path d="M0 213.78 L2.67 213.78" class="st3"/>
			</g>
			<g id="shape1423-86" v:mID="1423" v:groupContext="shape" transform="translate(222.248,265.942) rotate(108.435)">
				<title>Blad.1423</title>
				<path d="M0 213.78 L2.67 213.78" class="st3"/>
			</g>
		</g>
		<g id="shape1427-89" v:mID="1427" v:groupContext="shape" transform="translate(-37.6569,117.758) rotate(-90)">
			<title>Kracht.1427</title>
			<path d="M7.55 213.78 L7.91 213.78 L27.25 213.78" class="st4"/>
		</g>
		<g id="shape1429-95" v:mID="1429" v:groupContext="shape" transform="translate(140.407,-123.235)">
			<title>A.1429</title>
			<desc>Fz = 2 kN</desc>
			<v:textBlock v:margins="rect(4,4,4,4)" v:tabSpace="42.5197"/>
			<v:textRect cx="35.4331" cy="206.693" width="70.87" height="14.1732"/>
			<rect x="0" y="199.607" width="70.8661" height="14.1732" class="st6"/>
			<text x="12.03" y="210.29" class="st7" v:langID="1043"><v:paragraph v:horizAlign="1"/><v:tabList/>F<tspan dy="-0.279em"
						class="st8" v:baseFontSize="12">z</tspan><tspan dy="0.181em" class="st9"> </tspan><tspan class="st9">= 2 kN</tspan></text>		</g>
		<g id="shape1434-101" v:mID="1434" v:groupContext="shape" transform="translate(297.699,20.9458) rotate(36.8699)">
			<title>Blad.1434</title>
			<path d="M0 213.78 L4.25 213.78" class="st10"/>
		</g>
		<g id="shape1435-104" v:mID="1435" v:groupContext="shape" transform="translate(73.8259,0.759278) rotate(-26.5651)">
			<title>Blad.1435</title>
			<path d="M3.74 213.78 L4.1 213.78 L66.77 213.78" class="st11"/>
		</g>
		<g id="shape1436-113" v:mID="1436" v:groupContext="shape" transform="translate(80.3409,13.4362) rotate(-26.5651)">
			<title>Blad.1436</title>
			<desc>2 m</desc>
			<v:textBlock v:margins="rect(4,4,4,4)" v:tabSpace="42.5197"/>
			<v:textRect cx="35.4331" cy="206.693" width="70.87" height="14.1732"/>
			<rect x="0" y="199.607" width="70.8661" height="14.1732" class="st13"/>
			<text x="26.27" y="210.29" class="st14" v:langID="1043"><v:paragraph v:horizAlign="1"/><v:tabList/>2 m</text>		</g>
		<g id="shape1437-116" v:mID="1437" v:groupContext="shape" transform="translate(304.391,-53.2662) rotate(36.8699)">
			<title>Kracht.1437</title>
			<path d="M7.55 213.78 L7.91 213.78 L28.35 213.78" class="st4"/>
		</g>
		<g id="shape1438-121" v:mID="1438" v:groupContext="shape" transform="translate(184.627,-90.4425)">
			<title>A.1438</title>
			<desc>Fx = 30 kN</desc>
			<v:textBlock v:margins="rect(4,4,4,4)" v:tabSpace="42.5197"/>
			<v:textRect cx="35.4331" cy="206.693" width="70.87" height="14.1732"/>
			<rect x="0" y="199.607" width="70.8661" height="14.1732" class="st6"/>
			<text x="8.82" y="210.29" class="st7" v:langID="1043"><v:paragraph v:horizAlign="1"/><v:tabList/>F<tspan dy="-0.279em"
						class="st8" v:baseFontSize="12">x</tspan><tspan dy="0.181em" class="st9"> </tspan><tspan class="st9">= 30 kN</tspan></text>		</g>
		<g id="shape1441-127" v:mID="1441" v:groupContext="shape" transform="translate(248.407,-42.164)">
			<title>Blad.1441</title>
			<desc>x</desc>
			<v:textBlock v:margins="rect(4,4,4,4)" v:tabSpace="42.5197"/>
			<v:textRect cx="7.08661" cy="206.693" width="14.18" height="14.1732"/>
			<rect x="0" y="199.607" width="14.1732" height="14.1732" class="st13"/>
			<text x="4.42" y="210.29" class="st7" v:langID="1043"><v:paragraph v:horizAlign="1"/><v:tabList/>x</text>		</g>
		<g id="group1443-130" transform="translate(85.4144,-114.447)" v:mID="1443" v:groupContext="group">
			<title>z-as.1443</title>
			<g id="shape1444-131" v:mID="1444" v:groupContext="shape" transform="translate(213.78,185.434) rotate(90)">
				<title>Blad.1444</title>
				<path d="M0 213.78 L22.62 213.78" class="st15"/>
			</g>
			<g id="shape1445-138" v:mID="1445" v:groupContext="shape">
				<title>Blad.1445</title>
				<desc>z</desc>
				<v:textBlock v:margins="rect(4,4,4,4)" v:tabSpace="42.5197"/>
				<v:textRect cx="7.08661" cy="206.693" width="14.18" height="14.1732"/>
				<rect x="0" y="199.607" width="14.1732" height="14.1732" class="st13"/>
				<text x="4.75" y="210.29" class="st7" v:langID="1043"><v:paragraph v:horizAlign="1"/><v:tabList/>z</text>			</g>
		</g>
		<g id="shape1447-141" v:mID="1447" v:groupContext="shape" transform="translate(157.666,252.548) rotate(153.435)">
			<title>Blad.1447</title>
			<path d="M0 213.78 L22.62 213.78" class="st15"/>
		</g>
		<g id="shape1451-146" v:mID="1451" v:groupContext="shape" transform="translate(42.8947,-128.621)">
			<title>z-as.1445</title>
			<desc>y</desc>
			<v:textBlock v:margins="rect(4,4,4,4)" v:tabSpace="42.5197"/>
			<v:textRect cx="7.08661" cy="206.693" width="14.18" height="14.1732"/>
			<rect x="0" y="199.607" width="14.1732" height="14.1732" class="st13"/>
			<text x="4.42" y="210.29" class="st7" v:langID="1043"><v:paragraph v:horizAlign="1"/><v:tabList/>y</text>		</g>
		<g id="shape1453-149" v:mID="1453" v:groupContext="shape" transform="translate(294.298,18.3947) rotate(36.8699)">
			<title>Blad.1453</title>
			<path d="M0 213.78 L4.25 213.78" class="st10"/>
		</g>
		<g id="shape1457-152" v:mID="1457" v:groupContext="shape" transform="translate(4.45605,-35.422) rotate(-26.5651)">
			<title>Blad.1457</title>
			<path d="M0 213.78 L4.25 213.78" class="st10"/>
		</g>
		<g id="shape1458-155" v:mID="1458" v:groupContext="shape" transform="translate(137.621,-83.2669) rotate(36.8699)">
			<title>Blad.1458</title>
			<path d="M3.74 213.78 L4.1 213.78 L109.29 213.78" class="st11"/>
		</g>
		<g id="shape1459-162" v:mID="1459" v:groupContext="shape" transform="translate(128.643,-71.6914) rotate(36.8699)">
			<title>Blad.1459</title>
			<desc>4 m</desc>
			<v:textBlock v:margins="rect(4,4,4,4)" v:tabSpace="42.5197"/>
			<v:textRect cx="56.6929" cy="206.693" width="113.39" height="14.1732"/>
			<rect x="0" y="199.607" width="113.386" height="14.1732" class="st13"/>
			<text x="47.53" y="210.29" class="st14" v:langID="1043"><v:paragraph v:horizAlign="1"/><v:tabList/>4 m</text>		</g>
		<g id="shape1461-165" v:mID="1461" v:groupContext="shape" transform="translate(0.65298,-33.5205) rotate(-26.5651)">
			<title>Blad.1461</title>
			<path d="M0 213.78 L4.25 213.78" class="st10"/>
		</g>
		<g id="shape1462-168" v:mID="1462" v:groupContext="shape" transform="translate(-86.2526,-103.454) rotate(-26.5651)">
			<title>Blad.1462</title>
			<path d="M0 213.78 L4.25 213.78" class="st10"/>
		</g>
		<g id="shape1463-171" v:mID="1463" v:groupContext="shape" transform="translate(-90.0557,-101.552) rotate(-26.5651)">
			<title>Blad.1463</title>
			<path d="M0 213.78 L4.25 213.78" class="st10"/>
		</g>
		<g id="shape1464-174" v:mID="1464" v:groupContext="shape" transform="translate(92.501,-156.967)">
			<title>Punt A.1464</title>
			<desc>A</desc>
			<v:textBlock v:margins="rect(4,4,4,4)" v:tabSpace="42.5197"/>
			<v:textRect cx="7.08661" cy="206.693" width="14.18" height="14.1732"/>
			<rect x="0" y="199.607" width="14.1732" height="14.1732" class="st6"/>
			<text x="4" y="210.29" class="st14" v:langID="1043"><v:paragraph v:horizAlign="1"/><v:tabList/>A</text>		</g>
		<g id="shape1465-177" v:mID="1465" v:groupContext="shape" transform="translate(153.729,-87.5183)">
			<title>Punt A.1465</title>
			<desc>B</desc>
			<v:textBlock v:margins="rect(4,4,4,4)" v:tabSpace="42.5197"/>
			<v:textRect cx="7.08661" cy="206.693" width="14.18" height="14.1732"/>
			<rect x="0" y="199.607" width="14.1732" height="14.1732" class="st6"/>
			<text x="4" y="210.29" class="st14" v:langID="1043"><v:paragraph v:horizAlign="1"/><v:tabList/>B</text>		</g>
		<g id="shape1467-180" v:mID="1467" v:groupContext="shape" transform="translate(312.186,-79.0143)">
			<title>Blad.1467</title>
			<path d="M113.39 128.74 L113.39 100.39 L0 100.39 L0 213.78 L113.39 213.78 L113.39 185.43" class="st17"/>
		</g>
		<g id="group1468-183" transform="translate(340.532,-178.227)" v:mID="1468" v:groupContext="group">
			<title>Dikte dunwandige doorsnede.1468</title>
			<g id="shape1469-184" v:mID="1469" v:groupContext="shape" transform="translate(-213.78,196.772) rotate(-90)">
				<title>Blad.1469</title>
				<path d="M3.02 213.78 L3.38 213.78 L11.34 213.78" class="st18"/>
			</g>
			<g id="shape1470-190" v:mID="1470" v:groupContext="shape" transform="translate(213.78,202.441) rotate(90)">
				<title>Blad.1470</title>
				<path d="M3.02 213.78 L3.38 213.78 L11.34 213.78" class="st18"/>
			</g>
		</g>
		<g id="shape1471-195" v:mID="1471" v:groupContext="shape" transform="translate(340.532,-199.487)">
			<title>A.1471</title>
			<desc>15 mm</desc>
			<v:textBlock v:margins="rect(4,4,4,4)" v:tabSpace="42.5197"/>
			<v:textRect cx="23.3858" cy="206.693" width="46.78" height="14.1732"/>
			<rect x="0" y="199.607" width="46.7716" height="14.1732" class="st6"/>
			<text x="6.55" y="210.29" class="st14" v:langID="1043"><v:paragraph v:horizAlign="1"/><v:tabList/>15 mm</text>		</g>
		<g id="group1472-198" transform="translate(368.879,277.68) rotate(180)" v:mID="1472" v:groupContext="group">
			<title>x-as.1472</title>
			<g id="shape1473-199" v:mID="1473" v:groupContext="shape" transform="translate(-2.43799E-12,-14.1732)">
				<title>Blad.1473</title>
				<path d="M0 213.78 L22.62 213.78" class="st15"/>
			</g>
			<g id="shape1474-204" v:mID="1474" v:groupContext="shape" transform="translate(28.3465,399.214) rotate(180)">
				<title>Blad.1474</title>
				<desc>y</desc>
				<v:textBlock v:margins="rect(4,4,4,4)" v:tabSpace="42.5197"/>
				<v:textRect cx="7.08661" cy="206.693" width="14.18" height="14.1732"/>
				<rect x="0" y="199.607" width="14.1732" height="14.1732" class="st13"/>
				<text x="4.42" y="210.29" class="st7" v:langID="1043"><v:paragraph v:horizAlign="1"/><v:tabList/>y</text>			</g>
		</g>
		<g id="group1475-207" transform="translate(369.881,-93.1876)" v:mID="1475" v:groupContext="group">
			<title>z-as.1475</title>
			<g id="shape1476-208" v:mID="1476" v:groupContext="shape" transform="translate(213.78,171.26) rotate(90)">
				<title>Blad.1476</title>
				<path d="M0 213.78 L36.8 213.78" class="st15"/>
			</g>
			<g id="shape1477-213" v:mID="1477" v:groupContext="shape">
				<title>Blad.1477</title>
				<desc>z</desc>
				<v:textBlock v:margins="rect(4,4,4,4)" v:tabSpace="42.5197"/>
				<v:textRect cx="7.08661" cy="203.15" width="14.18" height="21.2598"/>
				<rect x="0" y="192.52" width="14.1732" height="21.2598" class="st13"/>
				<text x="4.75" y="206.75" class="st7" v:langID="1043"><v:paragraph v:horizAlign="1"/><v:tabList/>z</text>			</g>
		</g>
		<g id="group1478-216" transform="translate(435.493,-164.054)" v:mID="1478" v:groupContext="group">
			<title>Maatlijn verticaal.1478</title>
			<g id="group1479-217" transform="translate(-205.276,213.78) rotate(-90)" v:mID="1479" v:groupContext="group">
				<title>Maatlijn.31</title>
				<g id="shape1480-218" v:mID="1480" v:groupContext="shape" transform="translate(213.78,205.276) rotate(90)">
					<title>Blad.1480</title>
					<path d="M0 213.78 L8.5 213.78" class="st10"/>
				</g>
				<g id="shape1481-221" v:mID="1481" v:groupContext="shape" transform="translate(242.126,205.276) rotate(90)">
					<title>Blad.1481</title>
					<path d="M0 213.78 L8.5 213.78" class="st10"/>
				</g>
				<g id="shape1482-224" v:mID="1482" v:groupContext="shape" transform="translate(0,-4.25197)">
					<title>Blad.1482</title>
					<path d="M3.74 213.78 L4.1 213.78 L24.25 213.78" class="st11"/>
				</g>
			</g>
			<g id="shape1483-231" v:mID="1483" v:groupContext="shape" transform="translate(4.25197,-11.3386)">
				<title>Blad.1483</title>
				<desc>50 mm</desc>
				<v:textBlock v:margins="rect(4,4,4,4)" v:tabSpace="42.5197"/>
				<v:textRect cx="21.2598" cy="210.945" width="42.52" height="5.66929"/>
				<rect x="0" y="208.111" width="42.5197" height="5.66929" class="st13"/>
				<text x="4.43" y="214.55" class="st14" v:langID="1043"><v:paragraph v:horizAlign="1"/><v:tabList/>50 mm</text>			</g>
		</g>
		<g id="group1484-234" transform="translate(435.493,-135.707)" v:mID="1484" v:groupContext="group">
			<title>Maatlijn verticaal.1484</title>
			<g id="group1485-235" transform="translate(-205.276,213.78) rotate(-90)" v:mID="1485" v:groupContext="group">
				<title>Maatlijn.31</title>
				<g id="shape1486-236" v:mID="1486" v:groupContext="shape" transform="translate(213.78,205.276) rotate(90)">
					<title>Blad.1486</title>
					<path d="M0 213.78 L8.5 213.78" class="st10"/>
				</g>
				<g id="shape1487-239" v:mID="1487" v:groupContext="shape" transform="translate(242.126,205.276) rotate(90)">
					<title>Blad.1487</title>
					<path d="M0 213.78 L8.5 213.78" class="st10"/>
				</g>
				<g id="shape1488-242" v:mID="1488" v:groupContext="shape" transform="translate(0,-4.25197)">
					<title>Blad.1488</title>
					<path d="M3.74 213.78 L4.1 213.78 L24.25 213.78" class="st11"/>
				</g>
			</g>
			<g id="shape1489-249" v:mID="1489" v:groupContext="shape" transform="translate(4.25197,-11.3386)">
				<title>Blad.1489</title>
				<desc>50 mm</desc>
				<v:textBlock v:margins="rect(4,4,4,4)" v:tabSpace="42.5197"/>
				<v:textRect cx="21.2598" cy="210.945" width="42.52" height="5.66929"/>
				<rect x="0" y="208.111" width="42.5197" height="5.66929" class="st13"/>
				<text x="4.43" y="214.55" class="st14" v:langID="1043"><v:paragraph v:horizAlign="1"/><v:tabList/>50 mm</text>			</g>
		</g>
		<g id="group1490-252" transform="translate(435.493,-107.361)" v:mID="1490" v:groupContext="group">
			<title>Maatlijn verticaal.1490</title>
			<g id="group1491-253" transform="translate(-205.276,213.78) rotate(-90)" v:mID="1491" v:groupContext="group">
				<title>Maatlijn.31</title>
				<g id="shape1492-254" v:mID="1492" v:groupContext="shape" transform="translate(213.78,205.276) rotate(90)">
					<title>Blad.1492</title>
					<path d="M0 213.78 L8.5 213.78" class="st10"/>
				</g>
				<g id="shape1493-257" v:mID="1493" v:groupContext="shape" transform="translate(242.126,205.276) rotate(90)">
					<title>Blad.1493</title>
					<path d="M0 213.78 L8.5 213.78" class="st10"/>
				</g>
				<g id="shape1494-260" v:mID="1494" v:groupContext="shape" transform="translate(0,-4.25197)">
					<title>Blad.1494</title>
					<path d="M3.74 213.78 L4.1 213.78 L24.25 213.78" class="st11"/>
				</g>
			</g>
			<g id="shape1495-267" v:mID="1495" v:groupContext="shape" transform="translate(4.25197,-11.3386)">
				<title>Blad.1495</title>
				<desc>50 mm</desc>
				<v:textBlock v:margins="rect(4,4,4,4)" v:tabSpace="42.5197"/>
				<v:textRect cx="21.2598" cy="210.945" width="42.52" height="5.66929"/>
				<rect x="0" y="208.111" width="42.5197" height="5.66929" class="st13"/>
				<text x="4.43" y="214.55" class="st14" v:langID="1043"><v:paragraph v:horizAlign="1"/><v:tabList/>50 mm</text>			</g>
		</g>
		<g id="group1496-270" transform="translate(435.493,-79.0143)" v:mID="1496" v:groupContext="group">
			<title>Maatlijn verticaal.1496</title>
			<g id="group1497-271" transform="translate(-205.276,213.78) rotate(-90)" v:mID="1497" v:groupContext="group">
				<title>Maatlijn.31</title>
				<g id="shape1498-272" v:mID="1498" v:groupContext="shape" transform="translate(213.78,205.276) rotate(90)">
					<title>Blad.1498</title>
					<path d="M0 213.78 L8.5 213.78" class="st10"/>
				</g>
				<g id="shape1499-275" v:mID="1499" v:groupContext="shape" transform="translate(242.126,205.276) rotate(90)">
					<title>Blad.1499</title>
					<path d="M0 213.78 L8.5 213.78" class="st10"/>
				</g>
				<g id="shape1500-278" v:mID="1500" v:groupContext="shape" transform="translate(0,-4.25197)">
					<title>Blad.1500</title>
					<path d="M3.74 213.78 L4.1 213.78 L24.25 213.78" class="st11"/>
				</g>
			</g>
			<g id="shape1501-285" v:mID="1501" v:groupContext="shape" transform="translate(4.25197,-11.3386)">
				<title>Blad.1501</title>
				<desc>50 mm</desc>
				<v:textBlock v:margins="rect(4,4,4,4)" v:tabSpace="42.5197"/>
				<v:textRect cx="21.2598" cy="210.945" width="42.52" height="5.66929"/>
				<rect x="0" y="208.111" width="42.5197" height="5.66929" class="st13"/>
				<text x="4.43" y="214.55" class="st14" v:langID="1043"><v:paragraph v:horizAlign="1"/><v:tabList/>50 mm</text>			</g>
		</g>
		<g id="group1502-288" transform="translate(368.879,-50.6679)" v:mID="1502" v:groupContext="group">
			<title>Maatlijn.1502</title>
			<g id="group1503-289" transform="translate(0,-9.92126)" v:mID="1503" v:groupContext="group">
				<title>Maatlijn.31</title>
				<g id="shape1504-290" v:mID="1504" v:groupContext="shape" transform="translate(213.78,205.276) rotate(90)">
					<title>Blad.1504</title>
					<path d="M0 213.78 L8.5 213.78" class="st10"/>
				</g>
				<g id="shape1505-293" v:mID="1505" v:groupContext="shape" transform="translate(270.473,205.276) rotate(90)">
					<title>Blad.1505</title>
					<path d="M0 213.78 L8.5 213.78" class="st10"/>
				</g>
				<g id="shape1506-296" v:mID="1506" v:groupContext="shape" transform="translate(0,-4.25197)">
					<title>Blad.1506</title>
					<path d="M3.74 213.78 L4.1 213.78 L52.59 213.78" class="st11"/>
				</g>
			</g>
			<g id="shape1507-303" v:mID="1507" v:groupContext="shape">
				<title>Blad.1507</title>
				<desc>100 mm</desc>
				<v:textBlock v:margins="rect(4,4,4,4)" v:tabSpace="42.5197"/>
				<v:textRect cx="28.3465" cy="206.693" width="56.7" height="14.1732"/>
				<rect x="0" y="199.607" width="56.6929" height="14.1732" class="st13"/>
				<text x="8.51" y="210.29" class="st14" v:langID="1043"><v:paragraph v:horizAlign="1"/><v:tabList/>100 mm</text>			</g>
		</g>
		<g id="group1508-306" transform="translate(312.186,-50.6679)" v:mID="1508" v:groupContext="group">
			<title>Maatlijn.1508</title>
			<g id="group1509-307" transform="translate(0,-9.92126)" v:mID="1509" v:groupContext="group">
				<title>Maatlijn.31</title>
				<g id="shape1510-308" v:mID="1510" v:groupContext="shape" transform="translate(213.78,205.276) rotate(90)">
					<title>Blad.1510</title>
					<path d="M0 213.78 L8.5 213.78" class="st10"/>
				</g>
				<g id="shape1511-311" v:mID="1511" v:groupContext="shape" transform="translate(270.473,205.276) rotate(90)">
					<title>Blad.1511</title>
					<path d="M0 213.78 L8.5 213.78" class="st10"/>
				</g>
				<g id="shape1512-314" v:mID="1512" v:groupContext="shape" transform="translate(0,-4.25197)">
					<title>Blad.1512</title>
					<path d="M3.74 213.78 L4.1 213.78 L52.59 213.78" class="st11"/>
				</g>
			</g>
			<g id="shape1513-321" v:mID="1513" v:groupContext="shape">
				<title>Blad.1513</title>
				<desc>100 mm</desc>
				<v:textBlock v:margins="rect(4,4,4,4)" v:tabSpace="42.5197"/>
				<v:textRect cx="28.3465" cy="206.693" width="56.7" height="14.1732"/>
				<rect x="0" y="199.607" width="56.6929" height="14.1732" class="st13"/>
				<text x="8.51" y="210.29" class="st14" v:langID="1043"><v:paragraph v:horizAlign="1"/><v:tabList/>100 mm</text>			</g>
		</g>
		<g id="shape1514-324" v:mID="1514" v:groupContext="shape" transform="translate(269.666,-8.1482)">
			<title>A.1514</title>
			<desc>E = 210 GPa, G = 80 GPa Fx applied at normal force center Fz ...</desc>
			<v:textBlock v:margins="rect(4,4,4,4)" v:tabSpace="42.5197"/>
			<v:textRect cx="99.2126" cy="199.607" width="198.43" height="28.3465"/>
			<rect x="0" y="185.434" width="198.425" height="28.3465" class="st6"/>
			<text x="36.78" y="188.8" class="st14" v:langID="1043"><v:paragraph v:horizAlign="1"/><v:tabList/>E = 210 GPa, G = 80 GPa<v:newlineChar/><tspan
						x="20.35" dy="1.2em" class="st20">F</tspan><tspan dy="-0.279em" class="st21" v:baseFontSize="12">x</tspan><tspan
						dy="0.181em" class="st22"> </tspan>applied at normal force center<v:newlineChar/><tspan x="24.9" dy="1.2em"
						class="st20">F</tspan><tspan dy="-0.279em" class="st21" v:baseFontSize="12">z</tspan><tspan dy="0.181em"
						class="st22"> </tspan>applied at shear force center</text>		</g>
		<g id="shape1516-333" v:mID="1516" v:groupContext="shape" transform="translate(327.068,-36.2583) rotate(36.8699)">
			<title>Wringend moment.1516</title>
			<path d="M17.72 213.78 L18.08 213.78 L28.35 213.78" class="st23"/>
		</g>
		<g id="shape1517-339" v:mID="1517" v:groupContext="shape" transform="translate(361.084,-10.7465) rotate(36.8699)">
			<title>Blad.1517</title>
			<path d="M0 213.78 L22.62 213.78" class="st15"/>
		</g>
		<g id="shape1518-344" v:mID="1518" v:groupContext="shape" transform="translate(136.438,-50.6679)">
			<title>A.1518</title>
			<desc>Mt = 0.4 kNm</desc>
			<v:textBlock v:margins="rect(4,4,4,4)" v:tabSpace="42.5197"/>
			<v:textRect cx="41.811" cy="206.693" width="83.63" height="14.1732"/>
			<rect x="0" y="199.607" width="83.622" height="14.1732" class="st6"/>
			<text x="8.35" y="210.29" class="st7" v:langID="1043"><v:paragraph v:horizAlign="1"/><v:tabList/>M<tspan dy="-0.279em"
						class="st24" v:baseFontSize="12">t</tspan><tspan dy="0.181em" class="st9"> </tspan><tspan class="st9">= 0.4 kNm</tspan></text>		</g>
		<g id="shape1519-350" v:mID="1519" v:groupContext="shape" transform="translate(322.107,-156.967)">
			<title>Punt A.1519</title>
			<desc>C</desc>
			<v:textBlock v:margins="rect(4,4,4,4)" v:tabSpace="42.5197"/>
			<v:textRect cx="7.08661" cy="206.693" width="14.18" height="14.1732"/>
			<rect x="0" y="199.607" width="14.1732" height="14.1732" class="st6"/>
			<text x="4" y="210.29" class="st14" v:langID="1043"><v:paragraph v:horizAlign="1"/><v:tabList/>C</text>		</g>
		<g id="shape1520-353" v:mID="1520" v:groupContext="shape" transform="translate(164.099,200.892) rotate(-135)">
			<title>Blad.1520</title>
			<path d="M0 213.78 L5.67 213.78" class="st25"/>
		</g>
		<g id="shape1521-356" v:mID="1521" v:groupContext="shape" transform="translate(168.107,204.9) rotate(-135)">
			<title>Blad.1521</title>
			<path d="M0 213.78 L5.67 213.78" class="st25"/>
		</g>
		<g id="shape1522-359" v:mID="1522" v:groupContext="shape" transform="translate(160.09,-97.4302) rotate(-45)">
			<title>Blad.1522</title>
			<path d="M0 213.78 L5.67 213.78" class="st25"/>
		</g>
		<g id="shape1523-362" v:mID="1523" v:groupContext="shape" transform="translate(164.099,-101.439) rotate(-45)">
			<title>Blad.1523</title>
			<path d="M0 213.78 L5.67 213.78" class="st25"/>
		</g>
	</g>
</svg>
