<?xml version="1.0" encoding="UTF-8" standalone="no"?>
<!DOCTYPE svg PUBLIC "-//W3C//DTD SVG 1.1//EN" "http://www.w3.org/Graphics/SVG/1.1/DTD/svg11.dtd">
<!-- Gegenereerd door Microsoft Visio, SVG Export constructie.svg Pagina-1 -->
<svg xmlns="http://www.w3.org/2000/svg" xmlns:xlink="http://www.w3.org/1999/xlink" xmlns:ev="http://www.w3.org/2001/xml-events"
		xmlns:v="http://schemas.microsoft.com/visio/2003/SVGExtensions/" width="3.55018in" height="2.47705in"
		viewBox="0 0 255.613 178.348" xml:space="preserve" color-interpolation-filters="sRGB" class="st17">
	<v:documentProperties v:langID="1043" v:metric="true" v:viewMarkup="false"/>

	<style type="text/css">
	<![CDATA[
		.st1 {stroke:#000000;stroke-linecap:round;stroke-linejoin:round;stroke-width:2}
		.st2 {stroke:#000000;stroke-linecap:round;stroke-linejoin:round;stroke-width:1.2}
		.st3 {stroke:#000000;stroke-linecap:round;stroke-linejoin:round;stroke-width:0.75}
		.st4 {marker-start:url(#mrkr5-97);stroke:#800000;stroke-linecap:round;stroke-linejoin:round;stroke-width:2}
		.st5 {fill:#800000;fill-opacity:1;stroke:#800000;stroke-opacity:1;stroke-width:0.44247787610619}
		.st6 {fill:none;stroke:none;stroke-linecap:round;stroke-linejoin:round;stroke-width:0.24}
		.st7 {fill:#000000;font-family:Times New Roman;font-size:1.00001em;font-style:italic}
		.st8 {baseline-shift:-32.4941%;font-size:0.649882em}
		.st9 {font-size:1em;font-style:normal}
		.st10 {stroke:#000000;stroke-linecap:round;stroke-linejoin:round;stroke-width:0.25}
		.st11 {marker-end:url(#mrkr4-126);marker-start:url(#mrkr4-124);stroke:#000000;stroke-linecap:round;stroke-linejoin:round;stroke-width:0.25}
		.st12 {fill:#000000;fill-opacity:1;stroke:#000000;stroke-opacity:1;stroke-width:0.12195121951219}
		.st13 {fill:none;stroke:none;stroke-linecap:round;stroke-linejoin:round;stroke-width:0.75}
		.st14 {fill:#000000;font-family:Times New Roman;font-size:1.00001em}
		.st15 {marker-end:url(#mrkr5-150);stroke:#000000;stroke-linecap:round;stroke-linejoin:round;stroke-width:0.75}
		.st16 {fill:#000000;fill-opacity:1;stroke:#000000;stroke-opacity:1;stroke-width:0.22935779816514}
		.st17 {fill:none;fill-rule:evenodd;font-size:12px;overflow:visible;stroke-linecap:square;stroke-miterlimit:3}
	]]>
	</style>

	<defs id="Markers">
		<g id="lend5">
			<path d="M 2 1 L 0 0 L 1.98117 -0.993387 C 1.67173 -0.364515 1.67301 0.372641 1.98465 1.00043 " style="stroke:none"/>
		</g>
		<marker id="mrkr5-97" class="st5" v:arrowType="5" v:arrowSize="2" v:setback="3.775" refX="3.775" orient="auto"
				markerUnits="strokeWidth" overflow="visible">
			<use xlink:href="#lend5" transform="scale(2.26) "/>
		</marker>
		<g id="lend4">
			<path d="M 2 1 L 0 0 L 2 -1 L 2 1 " style="stroke:none"/>
		</g>
		<marker id="mrkr4-124" class="st12" v:arrowType="4" v:arrowSize="1" v:setback="14.96" refX="14.96" orient="auto"
				markerUnits="strokeWidth" overflow="visible">
			<use xlink:href="#lend4" transform="scale(8.2) "/>
		</marker>
		<marker id="mrkr4-126" class="st12" v:arrowType="4" v:arrowSize="1" v:setback="16.4" refX="-16.4" orient="auto"
				markerUnits="strokeWidth" overflow="visible">
			<use xlink:href="#lend4" transform="scale(-8.2,-8.2) "/>
		</marker>
		<marker id="mrkr5-150" class="st16" v:arrowType="5" v:arrowSize="2" v:setback="7.63" refX="-7.63" orient="auto"
				markerUnits="strokeWidth" overflow="visible">
			<use xlink:href="#lend5" transform="scale(-4.36,-4.36) "/>
		</marker>
	</defs>
	<g v:mID="0" v:index="1" v:groupContext="foregroundPage">
		<title>Pagina-1</title>
		<v:pageProperties v:drawingScale="0.0393701" v:pageScale="0.0393701" v:drawingUnits="24" v:shadowOffsetX="8.50394"
				v:shadowOffsetY="-8.50394"/>
		<g id="shape1391-1" v:mID="1391" v:groupContext="shape" transform="translate(192.423,-119.626) rotate(36.8699)">
			<title>Ligger, 2 pt.1391</title>
			<path d="M0 178.35 L113.39 178.35" class="st1"/>
		</g>
		<g id="group1395-4" transform="translate(64.1546,-141.122)" v:mID="1395" v:groupContext="group">
			<title>Inklemming 3D.1395</title>
			<g id="shape1396-5" v:mID="1396" v:groupContext="shape" transform="translate(199.476,150.001) rotate(90)">
				<title>Blad.1396</title>
				<path d="M0 178.35 L28.35 178.35" class="st2"/>
			</g>
			<g id="shape1397-8" v:mID="1397" v:groupContext="shape" transform="translate(135.9,15.3862) rotate(44.9999)">
				<title>Blad.1397</title>
				<path d="M0 178.35 L16.04 178.35" class="st3"/>
			</g>
			<g id="shape1398-11" v:mID="1398" v:groupContext="shape" transform="translate(135.9,18.2211) rotate(45)">
				<title>Blad.1398</title>
				<path d="M0 178.35 L16.04 178.35" class="st3"/>
			</g>
			<g id="shape1399-14" v:mID="1399" v:groupContext="shape" transform="translate(135.9,21.0557) rotate(45)">
				<title>Blad.1399</title>
				<path d="M0 178.35 L16.04 178.35" class="st3"/>
			</g>
			<g id="shape1400-17" v:mID="1400" v:groupContext="shape" transform="translate(135.9,23.8903) rotate(45)">
				<title>Blad.1400</title>
				<path d="M0 178.35 L16.04 178.35" class="st3"/>
			</g>
			<g id="shape1401-20" v:mID="1401" v:groupContext="shape" transform="translate(135.9,26.725) rotate(45)">
				<title>Blad.1401</title>
				<path d="M0 178.35 L16.04 178.35" class="st3"/>
			</g>
			<g id="shape1402-23" v:mID="1402" v:groupContext="shape" transform="translate(145.349,39.0085) rotate(45)">
				<title>Blad.1402</title>
				<path d="M0 178.35 L2.67 178.35" class="st3"/>
			</g>
			<g id="shape1403-26" v:mID="1403" v:groupContext="shape" transform="translate(143.459,39.9534) rotate(45)">
				<title>Blad.1403</title>
				<path d="M0 178.35 L5.35 178.35" class="st3"/>
			</g>
			<g id="shape1404-29" v:mID="1404" v:groupContext="shape" transform="translate(141.57,40.8982) rotate(45)">
				<title>Blad.1404</title>
				<path d="M0 178.35 L8.02 178.35" class="st3"/>
			</g>
			<g id="shape1405-32" v:mID="1405" v:groupContext="shape" transform="translate(139.043,41.2794) rotate(44.7325)">
				<title>Blad.1405</title>
				<path d="M0 178.35 L10.71 178.35" class="st3"/>
			</g>
			<g id="shape1406-35" v:mID="1406" v:groupContext="shape" transform="translate(137.79,42.788) rotate(45)">
				<title>Blad.1406</title>
				<path d="M0 178.35 L13.36 178.35" class="st3"/>
			</g>
			<g id="shape1407-38" v:mID="1407" v:groupContext="shape" transform="translate(113.565,317.355) rotate(153.435)">
				<title>Blad.1407</title>
				<path d="M0 178.35 L28.35 178.35" class="st2"/>
			</g>
			<g id="shape1408-41" v:mID="1408" v:groupContext="shape" transform="translate(201.31,212.967) rotate(108.435)">
				<title>Blad.1408</title>
				<path d="M0 178.35 L2.67 178.35" class="st3"/>
			</g>
			<g id="shape1409-44" v:mID="1409" v:groupContext="shape" transform="translate(199.62,211.699) rotate(108.435)">
				<title>Blad.1409</title>
				<path d="M0 178.35 L5.35 178.35" class="st3"/>
			</g>
			<g id="shape1410-47" v:mID="1410" v:groupContext="shape" transform="translate(197.93,210.431) rotate(108.435)">
				<title>Blad.1410</title>
				<path d="M0 178.35 L8.02 178.35" class="st3"/>
			</g>
			<g id="shape1411-50" v:mID="1411" v:groupContext="shape" transform="translate(196.24,209.163) rotate(108.435)">
				<title>Blad.1411</title>
				<path d="M0 178.35 L10.69 178.35" class="st3"/>
			</g>
			<g id="shape1412-53" v:mID="1412" v:groupContext="shape" transform="translate(194.549,207.896) rotate(108.435)">
				<title>Blad.1412</title>
				<path d="M0 178.35 L13.36 178.35" class="st3"/>
			</g>
			<g id="shape1413-56" v:mID="1413" v:groupContext="shape" transform="translate(192.859,206.628) rotate(108.435)">
				<title>Blad.1413</title>
				<path d="M0 178.35 L7.12 178.35" class="st3"/>
			</g>
			<g id="shape1414-59" v:mID="1414" v:groupContext="shape" transform="translate(186.943,218.037) rotate(108.435)">
				<title>Blad.1414</title>
				<path d="M0 178.35 L5.35 178.35" class="st3"/>
			</g>
			<g id="shape1415-62" v:mID="1415" v:groupContext="shape" transform="translate(185.253,216.77) rotate(108.435)">
				<title>Blad.1415</title>
				<path d="M0 178.35 L8.02 178.35" class="st3"/>
			</g>
			<g id="shape1416-65" v:mID="1416" v:groupContext="shape" transform="translate(183.563,215.502) rotate(108.435)">
				<title>Blad.1416</title>
				<path d="M0 178.35 L10.69 178.35" class="st3"/>
			</g>
			<g id="shape1417-68" v:mID="1417" v:groupContext="shape" transform="translate(181.872,214.234) rotate(108.435)">
				<title>Blad.1417</title>
				<path d="M0 178.35 L13.36 178.35" class="st3"/>
			</g>
			<g id="shape1418-71" v:mID="1418" v:groupContext="shape" transform="translate(180.182,212.967) rotate(108.435)">
				<title>Blad.1418</title>
				<path d="M0 178.35 L13.36 178.35" class="st3"/>
			</g>
			<g id="shape1419-74" v:mID="1419" v:groupContext="shape" transform="translate(177.647,214.234) rotate(108.435)">
				<title>Blad.1419</title>
				<path d="M0 178.35 L10.69 178.35" class="st3"/>
			</g>
			<g id="shape1420-77" v:mID="1420" v:groupContext="shape" transform="translate(175.111,215.502) rotate(108.435)">
				<title>Blad.1420</title>
				<path d="M0 178.35 L8.02 178.35" class="st3"/>
			</g>
			<g id="shape1421-80" v:mID="1421" v:groupContext="shape" transform="translate(172.576,216.77) rotate(108.435)">
				<title>Blad.1421</title>
				<path d="M0 178.35 L5.35 178.35" class="st3"/>
			</g>
			<g id="shape1422-83" v:mID="1422" v:groupContext="shape" transform="translate(170.041,218.037) rotate(108.435)">
				<title>Blad.1422</title>
				<path d="M0 178.35 L2.67 178.35" class="st3"/>
			</g>
			<g id="shape1423-86" v:mID="1423" v:groupContext="shape" transform="translate(188.633,219.305) rotate(108.435)">
				<title>Blad.1423</title>
				<path d="M0 178.35 L2.67 178.35" class="st3"/>
			</g>
		</g>
		<g id="shape1424-89" v:mID="1424" v:groupContext="shape" transform="translate(45.6559,-43.0814) rotate(-26.5651)">
			<title>Ligger, 2 pt.1424</title>
			<path d="M0 178.35 L56.69 178.35" class="st1"/>
		</g>
		<g id="shape1425-92" v:mID="1425" v:groupContext="shape" transform="translate(303.763,116.437) rotate(90)">
			<title>Kracht.1425</title>
			<path d="M7.55 178.35 L7.91 178.35 L28.35 178.35" class="st4"/>
		</g>
		<g id="shape1427-98" v:mID="1427" v:groupContext="shape" transform="translate(-2.22452,91.0837) rotate(-90)">
			<title>Kracht.1427</title>
			<path d="M7.55 178.35 L7.91 178.35 L27.25 178.35" class="st4"/>
		</g>
		<g id="shape1429-103" v:mID="1429" v:groupContext="shape" transform="translate(140.407,-114.477)">
			<title>A.1429</title>
			<desc>Fz = 2.2 kN</desc>
			<v:textBlock v:margins="rect(4,4,4,4)" v:tabSpace="42.5197"/>
			<v:textRect cx="35.4331" cy="171.261" width="70.87" height="14.1732"/>
			<rect x="0" y="164.174" width="70.8661" height="14.1732" class="st6"/>
			<text x="7.53" y="174.86" class="st7" v:langID="1043"><v:paragraph v:horizAlign="1"/><v:tabList/>F<tspan dy="-0.279em"
						class="st8" v:baseFontSize="12">z</tspan><tspan dy="0.181em" class="st9"> </tspan><tspan class="st9">= 2.2 kN</tspan></text>		</g>
		<g id="shape1430-109" v:mID="1430" v:groupContext="shape" transform="translate(127.934,-34.823)">
			<title>A.1430</title>
			<desc>Fz = 0.2 kN</desc>
			<v:textBlock v:margins="rect(4,4,4,4)" v:tabSpace="42.5197"/>
			<v:textRect cx="35.4331" cy="171.261" width="70.87" height="14.1732"/>
			<rect x="0" y="164.174" width="70.8661" height="14.1732" class="st6"/>
			<text x="7.53" y="174.86" class="st7" v:langID="1043"><v:paragraph v:horizAlign="1"/><v:tabList/>F<tspan dy="-0.279em"
						class="st8" v:baseFontSize="12">z</tspan><tspan dy="0.181em" class="st9"> </tspan><tspan class="st9">= 0.2 kN</tspan></text>		</g>
		<g id="shape1434-115" v:mID="1434" v:groupContext="shape" transform="translate(276.44,22.6176) rotate(36.8699)">
			<title>Blad.1434</title>
			<path d="M0 178.35 L4.25 178.35" class="st10"/>
		</g>
		<g id="shape1435-118" v:mID="1435" v:groupContext="shape" transform="translate(89.6718,5.77683) rotate(-26.5651)">
			<title>Blad.1435</title>
			<path d="M3.74 178.35 L4.1 178.35 L66.77 178.35" class="st11"/>
		</g>
		<g id="shape1436-127" v:mID="1436" v:groupContext="shape" transform="translate(96.1868,18.4537) rotate(-26.5651)">
			<title>Blad.1436</title>
			<desc>2 m</desc>
			<v:textBlock v:margins="rect(4,4,4,4)" v:tabSpace="42.5197"/>
			<v:textRect cx="35.4331" cy="171.261" width="70.87" height="14.1732"/>
			<rect x="0" y="164.174" width="70.8661" height="14.1732" class="st13"/>
			<text x="26.27" y="174.86" class="st14" v:langID="1043"><v:paragraph v:horizAlign="1"/><v:tabList/>2 m</text>		</g>
		<g id="shape1437-130" v:mID="1437" v:groupContext="shape" transform="translate(283.132,-51.5944) rotate(36.8699)">
			<title>Kracht.1437</title>
			<path d="M7.55 178.35 L7.91 178.35 L28.35 178.35" class="st4"/>
		</g>
		<g id="shape1438-135" v:mID="1438" v:groupContext="shape" transform="translate(184.627,-81.6842)">
			<title>A.1438</title>
			<desc>Fx = 30 kN</desc>
			<v:textBlock v:margins="rect(4,4,4,4)" v:tabSpace="42.5197"/>
			<v:textRect cx="35.4331" cy="171.261" width="70.87" height="14.1732"/>
			<rect x="0" y="164.174" width="70.8661" height="14.1732" class="st6"/>
			<text x="8.82" y="174.86" class="st7" v:langID="1043"><v:paragraph v:horizAlign="1"/><v:tabList/>F<tspan dy="-0.279em"
						class="st8" v:baseFontSize="12">x</tspan><tspan dy="0.181em" class="st9"> </tspan><tspan class="st9">= 30 kN</tspan></text>		</g>
		<g id="shape1441-141" v:mID="1441" v:groupContext="shape" transform="translate(232.816,-41.9096)">
			<title>Blad.1441</title>
			<desc>x</desc>
			<v:textBlock v:margins="rect(4,4,4,4)" v:tabSpace="42.5197"/>
			<v:textRect cx="7.08661" cy="171.261" width="14.18" height="14.1732"/>
			<rect x="0" y="164.174" width="14.1732" height="14.1732" class="st13"/>
			<text x="4.42" y="174.86" class="st7" v:langID="1043"><v:paragraph v:horizAlign="1"/><v:tabList/>x</text>		</g>
		<g id="shape1442-144" v:mID="1442" v:groupContext="shape" transform="translate(328.486,-17.5787) rotate(36.8699)">
			<title>Blad.1442</title>
			<path d="M0 178.35 L22.62 178.35" class="st15"/>
		</g>
		<g id="group1443-151" transform="translate(85.4144,-105.689)" v:mID="1443" v:groupContext="group">
			<title>z-as.1443</title>
			<g id="shape1444-152" v:mID="1444" v:groupContext="shape" transform="translate(178.348,150.001) rotate(90)">
				<title>Blad.1444</title>
				<path d="M0 178.35 L22.62 178.35" class="st15"/>
			</g>
			<g id="shape1445-157" v:mID="1445" v:groupContext="shape">
				<title>Blad.1445</title>
				<desc>z</desc>
				<v:textBlock v:margins="rect(4,4,4,4)" v:tabSpace="42.5197"/>
				<v:textRect cx="7.08661" cy="171.261" width="14.18" height="14.1732"/>
				<rect x="0" y="164.174" width="14.1732" height="14.1732" class="st13"/>
				<text x="4.75" y="174.86" class="st7" v:langID="1043"><v:paragraph v:horizAlign="1"/><v:tabList/>z</text>			</g>
		</g>
		<g id="shape1447-160" v:mID="1447" v:groupContext="shape" transform="translate(141.82,194.182) rotate(153.435)">
			<title>Blad.1447</title>
			<path d="M0 178.35 L22.62 178.35" class="st15"/>
		</g>
		<g id="shape1451-165" v:mID="1451" v:groupContext="shape" transform="translate(42.8947,-119.862)">
			<title>z-as.1445</title>
			<desc>y</desc>
			<v:textBlock v:margins="rect(4,4,4,4)" v:tabSpace="42.5197"/>
			<v:textRect cx="7.08661" cy="171.261" width="14.18" height="14.1732"/>
			<rect x="0" y="164.174" width="14.1732" height="14.1732" class="st13"/>
			<text x="4.42" y="174.86" class="st7" v:langID="1043"><v:paragraph v:horizAlign="1"/><v:tabList/>y</text>		</g>
		<g id="shape1453-168" v:mID="1453" v:groupContext="shape" transform="translate(273.038,20.0664) rotate(36.8699)">
			<title>Blad.1453</title>
			<path d="M0 178.35 L4.25 178.35" class="st10"/>
		</g>
		<g id="shape1457-171" v:mID="1457" v:groupContext="shape" transform="translate(20.3019,-30.4045) rotate(-26.5651)">
			<title>Blad.1457</title>
			<path d="M0 178.35 L4.25 178.35" class="st10"/>
		</g>
		<g id="shape1458-174" v:mID="1458" v:groupContext="shape" transform="translate(116.361,-81.5952) rotate(36.8699)">
			<title>Blad.1458</title>
			<path d="M3.74 178.35 L4.1 178.35 L109.29 178.35" class="st11"/>
		</g>
		<g id="shape1459-181" v:mID="1459" v:groupContext="shape" transform="translate(107.384,-70.0196) rotate(36.8699)">
			<title>Blad.1459</title>
			<desc>4 m</desc>
			<v:textBlock v:margins="rect(4,4,4,4)" v:tabSpace="42.5197"/>
			<v:textRect cx="56.6929" cy="171.261" width="113.39" height="14.1732"/>
			<rect x="0" y="164.174" width="113.386" height="14.1732" class="st13"/>
			<text x="47.53" y="174.86" class="st14" v:langID="1043"><v:paragraph v:horizAlign="1"/><v:tabList/>4 m</text>		</g>
		<g id="shape1461-184" v:mID="1461" v:groupContext="shape" transform="translate(16.4989,-28.5029) rotate(-26.5651)">
			<title>Blad.1461</title>
			<path d="M0 178.35 L4.25 178.35" class="st10"/>
		</g>
		<g id="shape1462-187" v:mID="1462" v:groupContext="shape" transform="translate(-70.4067,-98.436) rotate(-26.5651)">
			<title>Blad.1462</title>
			<path d="M0 178.35 L4.25 178.35" class="st10"/>
		</g>
		<g id="shape1463-190" v:mID="1463" v:groupContext="shape" transform="translate(-74.2098,-96.5344) rotate(-26.5651)">
			<title>Blad.1463</title>
			<path d="M0 178.35 L4.25 178.35" class="st10"/>
		</g>
		<g id="shape1464-193" v:mID="1464" v:groupContext="shape" transform="translate(92.501,-148.209)">
			<title>Punt A.1464</title>
			<desc>A</desc>
			<v:textBlock v:margins="rect(4,4,4,4)" v:tabSpace="42.5197"/>
			<v:textRect cx="7.08661" cy="171.261" width="14.18" height="14.1732"/>
			<rect x="0" y="164.174" width="14.1732" height="14.1732" class="st6"/>
			<text x="4" y="174.86" class="st14" v:langID="1043"><v:paragraph v:horizAlign="1"/><v:tabList/>A</text>		</g>
		<g id="shape1465-196" v:mID="1465" v:groupContext="shape" transform="translate(166.351,-70.2561)">
			<title>Punt A.1465</title>
			<desc>B</desc>
			<v:textBlock v:margins="rect(4,4,4,4)" v:tabSpace="42.5197"/>
			<v:textRect cx="7.08661" cy="171.261" width="14.18" height="14.1732"/>
			<rect x="0" y="164.174" width="14.1732" height="14.1732" class="st6"/>
			<text x="4" y="174.86" class="st14" v:langID="1043"><v:paragraph v:horizAlign="1"/><v:tabList/>B</text>		</g>
		<g id="shape1466-199" v:mID="1466" v:groupContext="shape" transform="translate(110.777,-60.7974)">
			<title>Punt A.1466</title>
			<desc>C</desc>
			<v:textBlock v:margins="rect(4,4,4,4)" v:tabSpace="42.5197"/>
			<v:textRect cx="7.08661" cy="171.261" width="14.18" height="14.1732"/>
			<rect x="0" y="164.174" width="14.1732" height="14.1732" class="st6"/>
			<text x="4" y="174.86" class="st14" v:langID="1043"><v:paragraph v:horizAlign="1"/><v:tabList/>C</text>		</g>
	</g>
</svg>
