<?xml version="1.0" encoding="UTF-8" standalone="no"?>
<!DOCTYPE svg PUBLIC "-//W3C//DTD SVG 1.1//EN" "http://www.w3.org/Graphics/SVG/1.1/DTD/svg11.dtd">
<!-- Gegenereerd door Microsoft Visio, SVG Export SD.svg Pagina-1 -->
<svg xmlns="http://www.w3.org/2000/svg" xmlns:xlink="http://www.w3.org/1999/xlink" xmlns:ev="http://www.w3.org/2001/xml-events"
		xmlns:v="http://schemas.microsoft.com/visio/2003/SVGExtensions/" width="3.80963in" height="2.95963in"
		viewBox="0 0 274.293 213.093" xml:space="preserve" color-interpolation-filters="sRGB" class="st21">
	<v:documentProperties v:langID="1043" v:metric="true" v:viewMarkup="false"/>

	<style type="text/css">
	<![CDATA[
		.st1 {marker-start:url(#mrkr5-6);stroke:#800000;stroke-linecap:round;stroke-linejoin:round;stroke-width:2}
		.st2 {fill:#800000;fill-opacity:1;stroke:#800000;stroke-opacity:1;stroke-width:0.44247787610619}
		.st3 {stroke:#000000;stroke-linecap:round;stroke-linejoin:round;stroke-width:1.2}
		.st4 {stroke:#000000;stroke-linecap:round;stroke-linejoin:round;stroke-width:0.75}
		.st5 {stroke:#000000;stroke-linecap:round;stroke-linejoin:round;stroke-width:2}
		.st6 {fill:#ffffff;stroke:#000000;stroke-linecap:round;stroke-linejoin:round;stroke-width:0.75}
		.st7 {fill:none;stroke:none;stroke-linecap:round;stroke-linejoin:round;stroke-width:0.75}
		.st8 {fill:#000000;font-family:Times New Roman;font-size:1.00001em}
		.st9 {baseline-shift:32.4941%;font-size:0.649882em}
		.st10 {font-size:1em}
		.st11 {stroke:#000000;stroke-linecap:round;stroke-linejoin:round;stroke-width:0.25}
		.st12 {marker-end:url(#mrkr4-138);marker-start:url(#mrkr4-136);stroke:#000000;stroke-linecap:round;stroke-linejoin:round;stroke-width:0.25}
		.st13 {fill:#000000;fill-opacity:1;stroke:#000000;stroke-opacity:1;stroke-width:0.1219512195122}
		.st14 {fill:none;stroke:none;stroke-linecap:round;stroke-linejoin:round;stroke-width:0.24}
		.st15 {marker-end:url(#mrkr1-205);stroke:#000000;stroke-linecap:butt;stroke-width:3}
		.st16 {fill:#000000;fill-opacity:1;stroke:#000000;stroke-opacity:1;stroke-width:0.67567567567568}
		.st17 {fill:#000000;font-family:Times New Roman;font-size:1.00001em;font-style:italic}
		.st18 {baseline-shift:-32.4941%;font-size:0.649882em;font-style:normal}
		.st19 {baseline-shift:32.4941%;font-size:0.649882em;font-style:normal}
		.st20 {font-size:1em;font-style:normal}
		.st21 {fill:none;fill-rule:evenodd;font-size:12px;overflow:visible;stroke-linecap:square;stroke-miterlimit:3}
	]]>
	</style>

	<defs id="Markers">
		<g id="lend5">
			<path d="M 2 1 L 0 0 L 1.98117 -0.993387 C 1.67173 -0.364515 1.67301 0.372641 1.98465 1.00043 " style="stroke:none"/>
		</g>
		<marker id="mrkr5-6" class="st2" v:arrowType="5" v:arrowSize="2" v:setback="3.775" refX="3.775" orient="auto"
				markerUnits="strokeWidth" overflow="visible">
			<use xlink:href="#lend5" transform="scale(2.26) "/>
		</marker>
		<g id="lend4">
			<path d="M 2 1 L 0 0 L 2 -1 L 2 1 " style="stroke:none"/>
		</g>
		<marker id="mrkr4-136" class="st13" v:arrowType="4" v:arrowSize="1" v:setback="14.96" refX="14.96" orient="auto"
				markerUnits="strokeWidth" overflow="visible">
			<use xlink:href="#lend4" transform="scale(8.2) "/>
		</marker>
		<marker id="mrkr4-138" class="st13" v:arrowType="4" v:arrowSize="1" v:setback="16.4" refX="-16.4" orient="auto"
				markerUnits="strokeWidth" overflow="visible">
			<use xlink:href="#lend4" transform="scale(-8.2,-8.2) "/>
		</marker>
		<g id="lend1">
			<path d="M 1 -1 L 0 0 L 1 1 " style="stroke-linecap:round;stroke-linejoin:round;fill:none"/>
		</g>
		<marker id="mrkr1-205" class="st16" v:arrowType="1" v:arrowSize="0" orient="auto" markerUnits="strokeWidth"
				overflow="visible">
			<use xlink:href="#lend1" transform="scale(-1.48,-1.48) "/>
		</marker>
	</defs>
	<g v:mID="0" v:index="1" v:groupContext="foregroundPage">
		<title>Pagina-1</title>
		<v:pageProperties v:drawingScale="0.0393701" v:pageScale="0.0393701" v:drawingUnits="24" v:shadowOffsetX="8.50394"
				v:shadowOffsetY="-8.50394"/>
		<g id="shape1975-1" v:mID="1975" v:groupContext="shape" transform="translate(160.532,-184.627)">
			<title>Kracht.1975</title>
			<path d="M7.55 213.09 L7.91 213.09 L28.35 213.09" class="st1"/>
		</g>
		<g id="shape1972-7" v:mID="1972" v:groupContext="shape" transform="translate(47.1466,241.56) rotate(180)">
			<title>Kracht.1972</title>
			<path d="M7.55 213.09 L7.91 213.09 L28.35 213.09" class="st1"/>
		</g>
		<g id="shape1971-12" v:mID="1971" v:groupContext="shape" transform="translate(217.225,241.56) rotate(180)">
			<title>Kracht.1971</title>
			<path d="M7.55 213.09 L7.91 213.09 L28.35 213.09" class="st1"/>
		</g>
		<g id="group1908-17" transform="translate(-151.774,110.671) rotate(-90)" v:mID="1908" v:groupContext="group">
			<title>Inklemming.1908</title>
			<g id="shape1909-18" v:mID="1909" v:groupContext="shape" transform="translate(224.432,184.747) rotate(90)">
				<title>Blad.1909</title>
				<path d="M0 213.09 L28.35 213.09" class="st3"/>
			</g>
			<g id="shape1910-21" v:mID="1910" v:groupContext="shape" transform="translate(159.184,34.0672) rotate(45)">
				<title>Blad.1910</title>
				<path d="M0 213.09 L4.01 213.09" class="st4"/>
			</g>
			<g id="shape1911-24" v:mID="1911" v:groupContext="shape" transform="translate(156.349,34.0672) rotate(45)">
				<title>Blad.1911</title>
				<path d="M0 213.09 L8.02 213.09" class="st4"/>
			</g>
			<g id="shape1912-27" v:mID="1912" v:groupContext="shape" transform="translate(153.514,34.0672) rotate(45)">
				<title>Blad.1912</title>
				<path d="M0 213.09 L12.03 213.09" class="st4"/>
			</g>
			<g id="shape1913-30" v:mID="1913" v:groupContext="shape" transform="translate(150.68,34.0672) rotate(45)">
				<title>Blad.1913</title>
				<path d="M0 213.09 L16.04 213.09" class="st4"/>
			</g>
			<g id="shape1914-33" v:mID="1914" v:groupContext="shape" transform="translate(150.68,36.9018) rotate(45)">
				<title>Blad.1914</title>
				<path d="M0 213.09 L16.04 213.09" class="st4"/>
			</g>
			<g id="shape1915-36" v:mID="1915" v:groupContext="shape" transform="translate(150.68,39.7365) rotate(45)">
				<title>Blad.1915</title>
				<path d="M0 213.09 L16.04 213.09" class="st4"/>
			</g>
			<g id="shape1916-39" v:mID="1916" v:groupContext="shape" transform="translate(150.68,42.5711) rotate(45)">
				<title>Blad.1916</title>
				<path d="M0 213.09 L16.04 213.09" class="st4"/>
			</g>
			<g id="shape1917-42" v:mID="1917" v:groupContext="shape" transform="translate(150.68,45.4057) rotate(45)">
				<title>Blad.1917</title>
				<path d="M0 213.09 L16.04 213.09" class="st4"/>
			</g>
			<g id="shape1918-45" v:mID="1918" v:groupContext="shape" transform="translate(150.68,48.2404) rotate(45)">
				<title>Blad.1918</title>
				<path d="M0 213.09 L16.04 213.09" class="st4"/>
			</g>
			<g id="shape1919-48" v:mID="1919" v:groupContext="shape" transform="translate(150.68,51.075) rotate(45)">
				<title>Blad.1919</title>
				<path d="M0 213.09 L16.04 213.09" class="st4"/>
			</g>
			<g id="shape1920-51" v:mID="1920" v:groupContext="shape" transform="translate(150.68,53.9097) rotate(45)">
				<title>Blad.1920</title>
				<path d="M0 213.09 L12.03 213.09" class="st4"/>
			</g>
			<g id="shape1921-54" v:mID="1921" v:groupContext="shape" transform="translate(150.68,56.7443) rotate(45)">
				<title>Blad.1921</title>
				<path d="M0 213.09 L8.02 213.09" class="st4"/>
			</g>
			<g id="shape1922-57" v:mID="1922" v:groupContext="shape" transform="translate(150.68,59.579) rotate(45)">
				<title>Blad.1922</title>
				<path d="M0 213.09 L4.01 213.09" class="st4"/>
			</g>
		</g>
		<g id="shape1923-60" v:mID="1923" v:groupContext="shape" transform="translate(-165.947,99.3326) rotate(-90)">
			<title>Ligger, 2 pt.1923</title>
			<path d="M0 213.09 L70.87 213.09" class="st5"/>
		</g>
		<g id="group1924-63" transform="translate(-10.0412,181.537) rotate(-90)" v:mID="1924" v:groupContext="group">
			<title>Inklemming.1924</title>
			<g id="shape1925-64" v:mID="1925" v:groupContext="shape" transform="translate(224.432,184.747) rotate(90)">
				<title>Blad.1925</title>
				<path d="M0 213.09 L28.35 213.09" class="st3"/>
			</g>
			<g id="shape1926-67" v:mID="1926" v:groupContext="shape" transform="translate(159.184,34.0672) rotate(45)">
				<title>Blad.1926</title>
				<path d="M0 213.09 L4.01 213.09" class="st4"/>
			</g>
			<g id="shape1927-70" v:mID="1927" v:groupContext="shape" transform="translate(156.349,34.0672) rotate(45)">
				<title>Blad.1927</title>
				<path d="M0 213.09 L8.02 213.09" class="st4"/>
			</g>
			<g id="shape1928-73" v:mID="1928" v:groupContext="shape" transform="translate(153.514,34.0672) rotate(45)">
				<title>Blad.1928</title>
				<path d="M0 213.09 L12.03 213.09" class="st4"/>
			</g>
			<g id="shape1929-76" v:mID="1929" v:groupContext="shape" transform="translate(150.68,34.0672) rotate(45)">
				<title>Blad.1929</title>
				<path d="M0 213.09 L16.04 213.09" class="st4"/>
			</g>
			<g id="shape1930-79" v:mID="1930" v:groupContext="shape" transform="translate(150.68,36.9018) rotate(45)">
				<title>Blad.1930</title>
				<path d="M0 213.09 L16.04 213.09" class="st4"/>
			</g>
			<g id="shape1931-82" v:mID="1931" v:groupContext="shape" transform="translate(150.68,39.7365) rotate(45)">
				<title>Blad.1931</title>
				<path d="M0 213.09 L16.04 213.09" class="st4"/>
			</g>
			<g id="shape1932-85" v:mID="1932" v:groupContext="shape" transform="translate(150.68,42.5711) rotate(45)">
				<title>Blad.1932</title>
				<path d="M0 213.09 L16.04 213.09" class="st4"/>
			</g>
			<g id="shape1933-88" v:mID="1933" v:groupContext="shape" transform="translate(150.68,45.4057) rotate(45)">
				<title>Blad.1933</title>
				<path d="M0 213.09 L16.04 213.09" class="st4"/>
			</g>
			<g id="shape1934-91" v:mID="1934" v:groupContext="shape" transform="translate(150.68,48.2404) rotate(45)">
				<title>Blad.1934</title>
				<path d="M0 213.09 L16.04 213.09" class="st4"/>
			</g>
			<g id="shape1935-94" v:mID="1935" v:groupContext="shape" transform="translate(150.68,51.075) rotate(45)">
				<title>Blad.1935</title>
				<path d="M0 213.09 L16.04 213.09" class="st4"/>
			</g>
			<g id="shape1936-97" v:mID="1936" v:groupContext="shape" transform="translate(150.68,53.9097) rotate(45)">
				<title>Blad.1936</title>
				<path d="M0 213.09 L12.03 213.09" class="st4"/>
			</g>
			<g id="shape1937-100" v:mID="1937" v:groupContext="shape" transform="translate(150.68,56.7443) rotate(45)">
				<title>Blad.1937</title>
				<path d="M0 213.09 L8.02 213.09" class="st4"/>
			</g>
			<g id="shape1938-103" v:mID="1938" v:groupContext="shape" transform="translate(150.68,59.579) rotate(45)">
				<title>Blad.1938</title>
				<path d="M0 213.09 L4.01 213.09" class="st4"/>
			</g>
		</g>
		<g id="shape1939-106" v:mID="1939" v:groupContext="shape" transform="translate(-24.2145,170.199) rotate(-90)">
			<title>Ligger, 2 pt.1939</title>
			<path d="M0 213.09 L141.73 213.09" class="st5"/>
		</g>
		<g id="shape1940-109" v:mID="1940" v:groupContext="shape" transform="translate(47.1467,-184.627) rotate(4.10644E-06)">
			<title>Ligger, 2 pt.1940</title>
			<path d="M0 213.09 L70.87 213.09" class="st5"/>
		</g>
		<g id="shape1941-112" v:mID="1941" v:groupContext="shape" transform="translate(45.0207,-182.501)">
			<title>Scharnier.1941</title>
			<ellipse cx="2.12598" cy="210.967" rx="2.12598" ry="2.12598" class="st6"/>
		</g>
		<g id="shape1942-114" v:mID="1942" v:groupContext="shape" transform="translate(25.8868,-71.2411)">
			<title>Maatlijn.1942</title>
			<desc>EI = 500 MNm2 EA = 20 MN</desc>
			<v:textBlock v:margins="rect(4,4,4,4)" v:tabSpace="42.5197"/>
			<v:textRect cx="46.063" cy="206.007" width="92.13" height="14.1732"/>
			<rect x="0" y="198.92" width="92.126" height="14.1732" class="st7"/>
			<text x="7.23" y="202.41" class="st8" v:langID="1043"><v:paragraph v:horizAlign="1"/><v:tabList/>EI = 500 MNm<tspan
						dy="-0.198em" class="st9" v:baseFontSize="12">2<v:newlineChar/></tspan><tspan x="14.51" dy="1.329em"
						class="st10">EA = 20 MN</tspan></text>		</g>
		<g id="shape1944-119" v:mID="1944" v:groupContext="shape" transform="translate(167.619,-170.454)">
			<title>Maatlijn.1944</title>
			<desc>45 kN</desc>
			<v:textBlock v:margins="rect(4,4,4,4)" v:tabSpace="42.5197"/>
			<v:textRect cx="42.5197" cy="206.007" width="85.04" height="14.1732"/>
			<rect x="0" y="198.92" width="85.0394" height="14.1732" class="st7"/>
			<text x="27.69" y="209.61" class="st8" v:langID="1043"><v:paragraph v:horizAlign="1"/><v:tabList/>45 kN</text>		</g>
		<g id="group1945-122" transform="translate(47.1467,-0.375)" v:mID="1945" v:groupContext="group">
			<title>Maatlijn.1945</title>
			<g id="group1946-123" transform="translate(0,-9.92126)" v:mID="1946" v:groupContext="group">
				<title>Maatlijn.31</title>
				<g id="shape1947-124" v:mID="1947" v:groupContext="shape" transform="translate(213.093,204.589) rotate(90)">
					<title>Blad.1947</title>
					<path d="M0 213.09 L8.5 213.09" class="st11"/>
				</g>
				<g id="shape1948-127" v:mID="1948" v:groupContext="shape" transform="translate(283.96,204.589) rotate(90)">
					<title>Blad.1948</title>
					<path d="M0 213.09 L8.5 213.09" class="st11"/>
				</g>
				<g id="shape1949-130" v:mID="1949" v:groupContext="shape" transform="translate(0,-4.25197)">
					<title>Blad.1949</title>
					<path d="M3.74 213.09 L4.1 213.09 L66.77 213.09" class="st12"/>
				</g>
			</g>
			<g id="shape1950-139" v:mID="1950" v:groupContext="shape">
				<title>Blad.1950</title>
				<desc>5 m</desc>
				<v:textBlock v:margins="rect(4,4,4,4)" v:tabSpace="42.5197"/>
				<v:textRect cx="35.4331" cy="206.007" width="70.87" height="14.1732"/>
				<rect x="0" y="198.92" width="70.8661" height="14.1732" class="st7"/>
				<text x="26.27" y="209.61" class="st8" v:langID="1043"><v:paragraph v:horizAlign="1"/><v:tabList/>5 m</text>			</g>
		</g>
		<g id="group1951-142" transform="translate(241.32,-113.761)" v:mID="1951" v:groupContext="group">
			<title>Maatlijn verticaal.1951</title>
			<g id="group1952-143" transform="translate(-204.589,213.093) rotate(-90)" v:mID="1952" v:groupContext="group">
				<title>Maatlijn.31</title>
				<g id="shape1953-144" v:mID="1953" v:groupContext="shape" transform="translate(213.093,204.589) rotate(90)">
					<title>Blad.1953</title>
					<path d="M0 213.09 L8.5 213.09" class="st11"/>
				</g>
				<g id="shape1954-147" v:mID="1954" v:groupContext="shape" transform="translate(283.96,204.589) rotate(90)">
					<title>Blad.1954</title>
					<path d="M0 213.09 L8.5 213.09" class="st11"/>
				</g>
				<g id="shape1955-150" v:mID="1955" v:groupContext="shape" transform="translate(0,-4.25197)">
					<title>Blad.1955</title>
					<path d="M3.74 213.09 L4.1 213.09 L66.77 213.09" class="st12"/>
				</g>
			</g>
			<g id="shape1956-157" v:mID="1956" v:groupContext="shape" transform="translate(4.25197,-28.3465)">
				<title>Blad.1956</title>
				<desc>5 m</desc>
				<v:textBlock v:margins="rect(4,4,4,4)" v:tabSpace="42.5197"/>
				<v:textRect cx="14.1732" cy="206.007" width="28.35" height="14.1732"/>
				<rect x="0" y="198.92" width="28.3465" height="14.1732" class="st7"/>
				<text x="5.01" y="209.61" class="st8" v:langID="1043"><v:paragraph v:horizAlign="1"/><v:tabList/>5 m</text>			</g>
		</g>
		<g id="group1957-160" transform="translate(241.32,-42.8947)" v:mID="1957" v:groupContext="group">
			<title>Maatlijn verticaal.1957</title>
			<g id="group1958-161" transform="translate(-204.589,213.093) rotate(-90)" v:mID="1958" v:groupContext="group">
				<title>Maatlijn.31</title>
				<g id="shape1959-162" v:mID="1959" v:groupContext="shape" transform="translate(213.093,204.589) rotate(90)">
					<title>Blad.1959</title>
					<path d="M0 213.09 L8.5 213.09" class="st11"/>
				</g>
				<g id="shape1960-165" v:mID="1960" v:groupContext="shape" transform="translate(283.96,204.589) rotate(90)">
					<title>Blad.1960</title>
					<path d="M0 213.09 L8.5 213.09" class="st11"/>
				</g>
				<g id="shape1961-168" v:mID="1961" v:groupContext="shape" transform="translate(0,-4.25197)">
					<title>Blad.1961</title>
					<path d="M3.74 213.09 L4.1 213.09 L66.77 213.09" class="st12"/>
				</g>
			</g>
			<g id="shape1962-175" v:mID="1962" v:groupContext="shape" transform="translate(4.25197,-28.3465)">
				<title>Blad.1962</title>
				<desc>5 m</desc>
				<v:textBlock v:margins="rect(4,4,4,4)" v:tabSpace="42.5197"/>
				<v:textRect cx="14.1732" cy="206.007" width="28.35" height="14.1732"/>
				<rect x="0" y="198.92" width="28.3465" height="14.1732" class="st7"/>
				<text x="5.01" y="209.61" class="st8" v:langID="1043"><v:paragraph v:horizAlign="1"/><v:tabList/>5 m</text>			</g>
		</g>
		<g id="shape1963-178" v:mID="1963" v:groupContext="shape" transform="translate(32.9734,-113.761)">
			<title>Punt A.1963</title>
			<desc>A</desc>
			<v:textBlock v:margins="rect(4,4,4,4)" v:tabSpace="42.5197"/>
			<v:textRect cx="7.08661" cy="206.007" width="14.18" height="14.1732"/>
			<rect x="0" y="198.92" width="14.1732" height="14.1732" class="st14"/>
			<text x="4" y="209.61" class="st8" v:langID="1043"><v:paragraph v:horizAlign="1"/><v:tabList/>A</text>		</g>
		<g id="shape1964-181" v:mID="1964" v:groupContext="shape" transform="translate(174.706,-42.8947)">
			<title>Punt A.1964</title>
			<desc>B</desc>
			<v:textBlock v:margins="rect(4,4,4,4)" v:tabSpace="42.5197"/>
			<v:textRect cx="7.08661" cy="206.007" width="14.18" height="14.1732"/>
			<rect x="0" y="198.92" width="14.1732" height="14.1732" class="st14"/>
			<text x="4" y="209.61" class="st8" v:langID="1043"><v:paragraph v:horizAlign="1"/><v:tabList/>B</text>		</g>
		<g id="shape1965-184" v:mID="1965" v:groupContext="shape" transform="translate(32.9734,-170.454)">
			<title>Punt A.1965</title>
			<desc>C</desc>
			<v:textBlock v:margins="rect(4,4,4,4)" v:tabSpace="42.5197"/>
			<v:textRect cx="7.08661" cy="206.007" width="14.18" height="14.1732"/>
			<rect x="0" y="198.92" width="14.1732" height="14.1732" class="st14"/>
			<text x="4" y="209.61" class="st8" v:langID="1043"><v:paragraph v:horizAlign="1"/><v:tabList/>C</text>		</g>
		<g id="shape1966-187" v:mID="1966" v:groupContext="shape" transform="translate(174.706,-184.627)">
			<title>Punt A.1966</title>
			<desc>D</desc>
			<v:textBlock v:margins="rect(4,4,4,4)" v:tabSpace="42.5197"/>
			<v:textRect cx="7.08661" cy="206.007" width="14.18" height="14.1732"/>
			<rect x="0" y="198.92" width="14.1732" height="14.1732" class="st14"/>
			<text x="4" y="209.61" class="st8" v:langID="1043"><v:paragraph v:horizAlign="1"/><v:tabList/>D</text>		</g>
		<g id="shape1967-190" v:mID="1967" v:groupContext="shape" transform="translate(186.753,-182.501)">
			<title>Scharnier.1967</title>
			<ellipse cx="2.12598" cy="210.967" rx="2.12598" ry="2.12598" class="st6"/>
		</g>
		<g id="shape1968-192" v:mID="1968" v:groupContext="shape" transform="translate(0.375,-188.879)">
			<title>Maatlijn.1968</title>
			<desc>45 kN</desc>
			<v:textBlock v:margins="rect(4,4,4,4)" v:tabSpace="42.5197"/>
			<v:textRect cx="42.5197" cy="206.007" width="85.04" height="14.1732"/>
			<rect x="0" y="198.92" width="85.0394" height="14.1732" class="st7"/>
			<text x="27.69" y="209.61" class="st8" v:langID="1043"><v:paragraph v:horizAlign="1"/><v:tabList/>45 kN</text>		</g>
		<g id="shape1970-195" v:mID="1970" v:groupContext="shape" transform="translate(146.359,241.56) rotate(180)">
			<title>Kracht</title>
			<path d="M7.55 213.09 L7.91 213.09 L28.35 213.09" class="st1"/>
		</g>
		<g id="shape1976-200" v:mID="1976" v:groupContext="shape" transform="translate(118.013,-191.714)">
			<title>verplaatsing</title>
			<path d="M0 213.09 L28.35 213.09" class="st15"/>
		</g>
		<g id="shape1977-206" v:mID="1977" v:groupContext="shape" transform="translate(188.879,-191.714)">
			<title>verplaatsing.1977</title>
			<path d="M0 213.09 L28.35 213.09" class="st15"/>
		</g>
		<g id="shape1978-211" v:mID="1978" v:groupContext="shape" transform="translate(118.013,-198.8)">
			<title>Punt A.1978</title>
			<desc>wD</desc>
			<v:textBlock v:margins="rect(4,4,4,4)" v:tabSpace="42.5197"/>
			<v:textRect cx="14.1732" cy="206.007" width="28.35" height="14.1732"/>
			<rect x="0" y="198.92" width="28.3465" height="14.1732" class="st14"/>
			<text x="7.36" y="209.61" class="st17" v:langID="1043"><v:paragraph v:horizAlign="1"/><v:tabList/>w<tspan dy="-0.279em"
						class="st18" v:baseFontSize="12">D</tspan></text>		</g>
		<g id="shape1979-215" v:mID="1979" v:groupContext="shape" transform="translate(188.879,-198.8)">
			<title>Punt A.1979</title>
			<desc>wD</desc>
			<v:textBlock v:margins="rect(4,4,4,4)" v:tabSpace="42.5197"/>
			<v:textRect cx="14.1732" cy="206.007" width="28.35" height="14.1732"/>
			<rect x="0" y="198.92" width="28.3465" height="14.1732" class="st14"/>
			<text x="7.36" y="209.61" class="st17" v:langID="1043"><v:paragraph v:horizAlign="1"/><v:tabList/>w<tspan dy="-0.279em"
						class="st18" v:baseFontSize="12">D</tspan></text>		</g>
		<g id="shape1980-219" v:mID="1980" v:groupContext="shape" transform="translate(113.761,-163.367)">
			<title>Punt A.1980</title>
			<desc>NDCD</desc>
			<v:textBlock v:margins="rect(4,4,4,4)" v:tabSpace="42.5197"/>
			<v:textRect cx="21.2598" cy="206.007" width="42.52" height="14.1732"/>
			<rect x="0" y="198.92" width="42.5197" height="14.1732" class="st14"/>
			<text x="9.02" y="209.61" class="st17" v:langID="1043"><v:paragraph v:horizAlign="1"/><v:tabList/>N<tspan dy="-0.279em"
						class="st18" v:baseFontSize="12">D</tspan><tspan dy="0.081em" class="st19" v:baseFontSize="12">CD</tspan></text>		</g>
		<g id="shape1981-224" v:mID="1981" v:groupContext="shape" transform="translate(150.611,-163.367)">
			<title>Punt A.1981</title>
			<desc>NDBD</desc>
			<v:textBlock v:margins="rect(4,4,4,4)" v:tabSpace="42.5197"/>
			<v:textRect cx="21.2598" cy="206.007" width="42.52" height="14.1732"/>
			<rect x="0" y="198.92" width="42.5197" height="14.1732" class="st14"/>
			<text x="9.02" y="209.61" class="st17" v:langID="1043"><v:paragraph v:horizAlign="1"/><v:tabList/>N<tspan dy="-0.279em"
						class="st18" v:baseFontSize="12">D</tspan><tspan dy="0.081em" class="st19" v:baseFontSize="12">BD</tspan></text>		</g>
		<g id="shape1983-229" v:mID="1983" v:groupContext="shape" transform="translate(103.84,-135.021)">
			<title>Punt A.1983</title>
			<desc>NDCD = NDBD</desc>
			<v:textBlock v:margins="rect(4,4,4,4)" v:tabSpace="42.5197"/>
			<v:textRect cx="42.5197" cy="206.007" width="85.04" height="14.1732"/>
			<rect x="0" y="198.92" width="85.0394" height="14.1732" class="st14"/>
			<text x="11.67" y="209.61" class="st17" v:langID="1043"><v:paragraph v:horizAlign="1"/><v:tabList/>N<tspan
						dy="-0.279em" class="st18" v:baseFontSize="12">D</tspan><tspan dy="0.081em" class="st19"
						v:baseFontSize="12">CD</tspan><tspan dy="0.129em" class="st20"> </tspan><tspan class="st20">= </tspan>N<tspan
						dy="-0.279em" class="st18" v:baseFontSize="12">D</tspan><tspan dy="0.081em" class="st19"
						v:baseFontSize="12">BD</tspan></text>		</g>
	</g>
</svg>
