<?xml version="1.0" encoding="UTF-8" standalone="no"?>
<!DOCTYPE svg PUBLIC "-//W3C//DTD SVG 1.1//EN" "http://www.w3.org/Graphics/SVG/1.1/DTD/svg11.dtd">
<!-- Gegenereerd door Microsoft Visio, SVG Export displaced.svg Pagina-1 -->
<svg xmlns="http://www.w3.org/2000/svg" xmlns:xlink="http://www.w3.org/1999/xlink" xmlns:ev="http://www.w3.org/2001/xml-events"
		xmlns:v="http://schemas.microsoft.com/visio/2003/SVGExtensions/" width="5.01042in" height="1.18364in"
		viewBox="0 0 360.75 85.2224" xml:space="preserve" color-interpolation-filters="sRGB" class="st8">
	<v:documentProperties v:langID="1043" v:metric="true" v:viewMarkup="false"/>

	<style type="text/css">
	<![CDATA[
		.st1 {stroke:#000000;stroke-linecap:round;stroke-linejoin:round;stroke-width:0.75}
		.st2 {fill:#00cc99;stroke:#000000;stroke-linecap:round;stroke-linejoin:round;stroke-width:0.75}
		.st3 {fill:#ffffff;stroke:#000000;stroke-linecap:round;stroke-linejoin:round;stroke-width:0.75}
		.st4 {fill:none;stroke:none;stroke-linecap:round;stroke-linejoin:round;stroke-width:0.24}
		.st5 {fill:#000000;font-family:Times New Roman;font-size:1.00001em}
		.st6 {baseline-shift:-32.4941%;font-size:0.649882em}
		.st7 {stroke:#000000;stroke-linecap:round;stroke-linejoin:round;stroke-width:2.25}
		.st8 {fill:none;fill-rule:evenodd;font-size:12px;overflow:visible;stroke-linecap:square;stroke-miterlimit:3}
	]]>
	</style>

	<g v:mID="0" v:index="1" v:groupContext="foregroundPage">
		<title>Pagina-1</title>
		<v:pageProperties v:drawingScale="0.0393701" v:pageScale="0.0393701" v:drawingUnits="24" v:shadowOffsetX="9"
				v:shadowOffsetY="-9" v:shadowType="1"/>
		<g id="shape30925-1" v:mID="30925" v:groupContext="shape" transform="translate(208.538,32.9727) rotate(-89.9995)">
			<title>Blad.30925</title>
			<path d="M0 85.22 L2.83 85.22" class="st1"/>
		</g>
		<g id="shape30926-4" v:mID="30926" v:groupContext="shape" transform="translate(10.2963,-55.0836)">
			<title>Ligger, 2 pt.30926</title>
			<path d="M0 85.22 L56.69 85.22" class="st1"/>
		</g>
		<g id="shape30927-7" v:mID="30927" v:groupContext="shape" transform="translate(66.9892,-55.0836)">
			<title>Ligger, 2 pt.30927</title>
			<path d="M0 85.22 L56.69 85.22" class="st1"/>
		</g>
		<g id="shape30928-10" v:mID="30928" v:groupContext="shape" transform="translate(123.682,-55.0836)">
			<title>Ligger, 2 pt.30928</title>
			<path d="M0 85.22 L56.69 85.22" class="st1"/>
		</g>
		<g id="shape30929-13" v:mID="30929" v:groupContext="shape" transform="translate(180.375,-55.0836)">
			<title>Ligger, 2 pt.30929</title>
			<path d="M0 85.22 L56.69 85.22" class="st1"/>
		</g>
		<g id="shape30930-16" v:mID="30930" v:groupContext="shape" transform="translate(237.068,-55.0836)">
			<title>Ligger, 2 pt.30930</title>
			<path d="M0 85.22 L56.69 85.22" class="st1"/>
		</g>
		<g id="shape30931-19" v:mID="30931" v:groupContext="shape" transform="translate(293.761,-55.0836)">
			<title>Ligger, 2 pt.30931</title>
			<path d="M0 85.22 L56.69 85.22" class="st1"/>
		</g>
		<g id="group30932-22" transform="translate(0.375,-43.745)" v:mID="30932" v:groupContext="group">
			<title>Scharnieroplegging.30932</title>
			<g id="shape30933-23" v:mID="30933" v:groupContext="shape" transform="translate(2.83465,0)">
				<title>Blad.30933</title>
				<path d="M0 85.22 L14.17 85.22 L7.09 73.88 L0 85.22 Z" class="st2"/>
			</g>
			<g id="shape30934-25" v:mID="30934" v:groupContext="shape" transform="translate(2.83465,170.445) rotate(180)">
				<title>Blad.30934</title>
				<path d="M0 85.22 L2.83 85.22" class="st1"/>
			</g>
			<g id="shape30935-28" v:mID="30935" v:groupContext="shape" transform="translate(17.0079,0)">
				<title>Blad.30935</title>
				<path d="M0 85.22 L2.83 85.22" class="st1"/>
			</g>
		</g>
		<g id="group30936-31" transform="translate(113.761,-40.9103)" v:mID="30936" v:groupContext="group">
			<title>Rol.30936</title>
			<g id="group30937-32" transform="translate(0.261477,-2.83465)" v:mID="30937" v:groupContext="group">
				<title>Scharnier</title>
				<g id="shape30938-33" v:mID="30938" v:groupContext="shape" transform="translate(2.79729,0)">
					<title>Blad.30938</title>
					<path d="M0 85.22 L13.99 85.22 L6.99 73.88 L0 85.22 Z" class="st2"/>
				</g>
				<g id="shape30939-35" v:mID="30939" v:groupContext="shape" transform="translate(2.79729,170.445) rotate(180)">
					<title>Blad.30939</title>
					<path d="M0 85.22 L2.8 85.22" class="st1"/>
				</g>
				<g id="shape30940-38" v:mID="30940" v:groupContext="shape" transform="translate(16.7838,0)">
					<title>Blad.30940</title>
					<path d="M0 85.22 L2.8 85.22" class="st1"/>
				</g>
			</g>
			<g id="shape30941-41" v:mID="30941" v:groupContext="shape">
				<title>Blad.30941</title>
				<path d="M0 85.22 L19.84 85.22" class="st1"/>
			</g>
		</g>
		<g id="group30942-44" transform="translate(340.533,-40.9103)" v:mID="30942" v:groupContext="group">
			<title>Rol.30942</title>
			<g id="group30943-45" transform="translate(0.261477,-2.83465)" v:mID="30943" v:groupContext="group">
				<title>Scharnier</title>
				<g id="shape30944-46" v:mID="30944" v:groupContext="shape" transform="translate(2.79729,0)">
					<title>Blad.30944</title>
					<path d="M0 85.22 L13.99 85.22 L6.99 73.88 L0 85.22 Z" class="st2"/>
				</g>
				<g id="shape30945-48" v:mID="30945" v:groupContext="shape" transform="translate(2.79729,170.445) rotate(180)">
					<title>Blad.30945</title>
					<path d="M0 85.22 L2.8 85.22" class="st1"/>
				</g>
				<g id="shape30946-51" v:mID="30946" v:groupContext="shape" transform="translate(16.7838,0)">
					<title>Blad.30946</title>
					<path d="M0 85.22 L2.8 85.22" class="st1"/>
				</g>
			</g>
			<g id="shape30947-54" v:mID="30947" v:groupContext="shape">
				<title>Blad.30947</title>
				<path d="M0 85.22 L19.84 85.22" class="st1"/>
			</g>
		</g>
		<g id="group30948-57" transform="translate(227.147,-40.9103)" v:mID="30948" v:groupContext="group">
			<title>Rol.30948</title>
			<g id="group30949-58" transform="translate(0.261477,-2.83465)" v:mID="30949" v:groupContext="group">
				<title>Scharnier</title>
				<g id="shape30950-59" v:mID="30950" v:groupContext="shape" transform="translate(2.79729,0)">
					<title>Blad.30950</title>
					<path d="M0 85.22 L13.99 85.22 L6.99 73.88 L0 85.22 Z" class="st2"/>
				</g>
				<g id="shape30951-61" v:mID="30951" v:groupContext="shape" transform="translate(2.79729,170.445) rotate(180)">
					<title>Blad.30951</title>
					<path d="M0 85.22 L2.8 85.22" class="st1"/>
				</g>
				<g id="shape30952-64" v:mID="30952" v:groupContext="shape" transform="translate(16.7838,0)">
					<title>Blad.30952</title>
					<path d="M0 85.22 L2.8 85.22" class="st1"/>
				</g>
			</g>
			<g id="shape30953-67" v:mID="30953" v:groupContext="shape">
				<title>Blad.30953</title>
				<path d="M0 85.22 L19.84 85.22" class="st1"/>
			</g>
		</g>
		<g id="shape30954-70" v:mID="30954" v:groupContext="shape" transform="translate(64.8632,-52.9576)">
			<title>Scharnier.30954</title>
			<ellipse cx="2.12598" cy="83.0964" rx="2.12598" ry="2.12598" class="st3"/>
		</g>
		<g id="shape30955-72" v:mID="30955" v:groupContext="shape" transform="translate(178.249,-52.9576)">
			<title>Scharnier.30955</title>
			<ellipse cx="2.12598" cy="83.0964" rx="2.12598" ry="2.12598" class="st3"/>
		</g>
		<g id="shape31001-74" v:mID="31001" v:groupContext="shape" transform="translate(3.20965,-26.7371)">
			<title>Punt A.31001</title>
			<desc>A</desc>
			<v:textBlock v:margins="rect(4,4,4,4)" v:tabSpace="42.5197"/>
			<v:textRect cx="7.08661" cy="78.1358" width="14.18" height="14.1732"/>
			<rect x="0" y="71.0491" width="14.1732" height="14.1732" class="st4"/>
			<text x="4" y="81.74" class="st5" v:langID="1043"><v:paragraph v:horizAlign="1"/><v:tabList/>A</text>		</g>
		<g id="shape31002-77" v:mID="31002" v:groupContext="shape" transform="translate(116.595,-26.7371)">
			<title>Punt A.31002</title>
			<desc>B</desc>
			<v:textBlock v:margins="rect(4,4,4,4)" v:tabSpace="42.5197"/>
			<v:textRect cx="7.08661" cy="78.1358" width="14.18" height="14.1732"/>
			<rect x="0" y="71.0491" width="14.1732" height="14.1732" class="st4"/>
			<text x="4" y="81.74" class="st5" v:langID="1043"><v:paragraph v:horizAlign="1"/><v:tabList/>B</text>		</g>
		<g id="shape31003-80" v:mID="31003" v:groupContext="shape" transform="translate(229.981,-26.7371)">
			<title>Punt A.31003</title>
			<desc>C</desc>
			<v:textBlock v:margins="rect(4,4,4,4)" v:tabSpace="42.5197"/>
			<v:textRect cx="7.08661" cy="78.1358" width="14.18" height="14.1732"/>
			<rect x="0" y="71.0491" width="14.1732" height="14.1732" class="st4"/>
			<text x="4" y="81.74" class="st5" v:langID="1043"><v:paragraph v:horizAlign="1"/><v:tabList/>C</text>		</g>
		<g id="shape31004-83" v:mID="31004" v:groupContext="shape" transform="translate(343.367,-26.7371)">
			<title>Punt A.31004</title>
			<desc>D</desc>
			<v:textBlock v:margins="rect(4,4,4,4)" v:tabSpace="42.5197"/>
			<v:textRect cx="7.08661" cy="78.1358" width="14.18" height="14.1732"/>
			<rect x="0" y="71.0491" width="14.1732" height="14.1732" class="st4"/>
			<text x="4" y="81.74" class="st5" v:langID="1043"><v:paragraph v:horizAlign="1"/><v:tabList/>D</text>		</g>
		<g id="shape31005-86" v:mID="31005" v:groupContext="shape" transform="translate(286.674,-36.6583)">
			<title>Punt A.31005</title>
			<desc>E</desc>
			<v:textBlock v:margins="rect(4,4,4,4)" v:tabSpace="42.5197"/>
			<v:textRect cx="7.08661" cy="78.1358" width="14.18" height="14.1732"/>
			<rect x="0" y="71.0491" width="14.1732" height="14.1732" class="st4"/>
			<text x="4" y="81.74" class="st5" v:langID="1043"><v:paragraph v:horizAlign="1"/><v:tabList/>E</text>		</g>
		<g id="shape31006-89" v:mID="31006" v:groupContext="shape" transform="translate(52.816,-36.6583)">
			<title>Punt A.31006</title>
			<desc>S1</desc>
			<v:textBlock v:margins="rect(4,4,4,4)" v:tabSpace="42.5197"/>
			<v:textRect cx="14.1732" cy="78.1358" width="28.35" height="14.1732"/>
			<rect x="0" y="71.0491" width="28.3465" height="14.1732" class="st4"/>
			<text x="8.89" y="81.74" class="st5" v:langID="1043"><v:paragraph v:horizAlign="1"/><v:tabList/>S<tspan dy="-0.279em"
						class="st6" v:baseFontSize="12">1</tspan></text>		</g>
		<g id="shape31007-93" v:mID="31007" v:groupContext="shape" transform="translate(166.202,-36.6583)">
			<title>Punt A.31007</title>
			<desc>S2</desc>
			<v:textBlock v:margins="rect(4,4,4,4)" v:tabSpace="42.5197"/>
			<v:textRect cx="14.1732" cy="78.1358" width="28.35" height="14.1732"/>
			<rect x="0" y="71.0491" width="28.3465" height="14.1732" class="st4"/>
			<text x="8.89" y="81.74" class="st5" v:langID="1043"><v:paragraph v:horizAlign="1"/><v:tabList/>S<tspan dy="-0.279em"
						class="st6" v:baseFontSize="12">2</tspan></text>		</g>
		<g id="shape31008-97" v:mID="31008" v:groupContext="shape" transform="translate(350.454,115.361) rotate(180)">
			<title>Blad.31008</title>
			<path d="M0 85.22 C22.81 79.55 59.66 65.38 113.39 85.22" class="st7"/>
		</g>
		<g id="shape31009-100" v:mID="31009" v:groupContext="shape" transform="translate(199.086,106.364) rotate(-153.435)">
			<title>Blad.31009</title>
			<path d="M0 85.22 C26.54 82.07 49.87 83.26 63.38 85.22" class="st7"/>
		</g>
		<g id="shape31010-103" v:mID="31010" v:groupContext="shape" transform="translate(10.2963,-1.934)">
			<title>Blad.31010</title>
			<path d="M170.21 3.73 C150.24 11.8 122.87 20.35 91.48 50.21 C82.75 58.53 73.7 68.5 56.69 85.22 L0 32.07" class="st7"/>
		</g>
		<g id="shape31011-106" v:mID="31011" v:groupContext="shape" transform="translate(178.249,-80.5954)">
			<title>Scharnier.31011</title>
			<ellipse cx="2.12598" cy="83.0964" rx="2.12598" ry="2.12598" class="st3"/>
		</g>
		<g id="shape31012-108" v:mID="31012" v:groupContext="shape" transform="translate(64.8632,-0.375)">
			<title>Scharnier.31012</title>
			<ellipse cx="2.12598" cy="83.0964" rx="2.12598" ry="2.12598" class="st3"/>
		</g>
	</g>
</svg>
