<?xml version="1.0" encoding="UTF-8" standalone="no"?>
<!DOCTYPE svg PUBLIC "-//W3C//DTD SVG 1.1//EN" "http://www.w3.org/Graphics/SVG/1.1/DTD/svg11.dtd">
<!-- Gegenereerd door Microsoft Visio, SVG Export AD.svg Pagina-1 -->
<svg xmlns="http://www.w3.org/2000/svg" xmlns:xlink="http://www.w3.org/1999/xlink" xmlns:ev="http://www.w3.org/2001/xml-events"
		xmlns:v="http://schemas.microsoft.com/visio/2003/SVGExtensions/" width="2.16133in" height="1.85935in"
		viewBox="0 0 155.616 133.873" xml:space="preserve" color-interpolation-filters="sRGB" class="st15">
	<v:documentProperties v:langID="1043" v:metric="true" v:viewMarkup="false"/>

	<style type="text/css">
	<![CDATA[
		.st1 {fill:#00cc99;stroke:#000000;stroke-linecap:round;stroke-linejoin:round;stroke-width:0.75}
		.st2 {stroke:#000000;stroke-linecap:round;stroke-linejoin:round;stroke-width:0.75}
		.st3 {stroke:#000000;stroke-linecap:round;stroke-linejoin:round;stroke-width:2}
		.st4 {stroke:#000000;stroke-linecap:round;stroke-linejoin:round;stroke-width:1.2}
		.st5 {marker-end:url(#mrkr1-65);stroke:#000000;stroke-linecap:butt;stroke-width:3}
		.st6 {fill:#000000;fill-opacity:1;stroke:#000000;stroke-opacity:1;stroke-width:0.67567567567568}
		.st7 {fill:none;stroke:none;stroke-linecap:round;stroke-linejoin:round;stroke-width:0.24}
		.st8 {fill:#000000;font-family:Times New Roman;font-size:1.00001em;font-style:italic}
		.st9 {baseline-shift:-32.4941%;font-size:0.649882em;font-style:normal}
		.st10 {marker-end:url(#mrkr5-75);stroke:#800000;stroke-linecap:round;stroke-linejoin:round;stroke-width:2}
		.st11 {fill:#800000;fill-opacity:1;stroke:#800000;stroke-opacity:1;stroke-width:0.44247787610619}
		.st12 {baseline-shift:32.4941%;font-size:0.649882em;font-style:normal}
		.st13 {fill:none;stroke:none;stroke-linecap:round;stroke-linejoin:round;stroke-width:0.75}
		.st14 {fill:#000000;font-family:Times New Roman;font-size:1.00001em}
		.st15 {fill:none;fill-rule:evenodd;font-size:12px;overflow:visible;stroke-linecap:square;stroke-miterlimit:3}
	]]>
	</style>

	<defs id="Markers">
		<g id="lend1">
			<path d="M 1 -1 L 0 0 L 1 1 " style="stroke-linecap:round;stroke-linejoin:round;fill:none"/>
		</g>
		<marker id="mrkr1-65" class="st6" v:arrowType="1" v:arrowSize="0" orient="auto" markerUnits="strokeWidth"
				overflow="visible">
			<use xlink:href="#lend1" transform="scale(-1.48,-1.48) "/>
		</marker>
		<g id="lend5">
			<path d="M 2 1 L 0 0 L 1.98117 -0.993387 C 1.67173 -0.364515 1.67301 0.372641 1.98465 1.00043 " style="stroke:none"/>
		</g>
		<marker id="mrkr5-75" class="st11" v:arrowType="5" v:arrowSize="2" v:setback="3.775" refX="-3.775" orient="auto"
				markerUnits="strokeWidth" overflow="visible">
			<use xlink:href="#lend5" transform="scale(-2.26,-2.26) "/>
		</marker>
	</defs>
	<g v:mID="0" v:index="1" v:groupContext="foregroundPage">
		<title>Pagina-1</title>
		<v:pageProperties v:drawingScale="0.0393701" v:pageScale="0.0393701" v:drawingUnits="24" v:shadowOffsetX="8.50394"
				v:shadowOffsetY="-8.50394"/>
		<g id="group3636-1" transform="translate(121.415,-91.8425)" v:mID="3636" v:groupContext="group">
			<title>Scharnieroplegging.3636</title>
			<g id="shape3637-2" v:mID="3637" v:groupContext="shape" transform="translate(2.83465,0)">
				<title>Blad.3637</title>
				<path d="M0 133.87 L14.17 133.87 L7.09 122.53 L0 133.87 Z" class="st1"/>
			</g>
			<g id="shape3638-4" v:mID="3638" v:groupContext="shape" transform="translate(2.83465,267.746) rotate(180)">
				<title>Blad.3638</title>
				<path d="M0 133.87 L2.83 133.87" class="st2"/>
			</g>
			<g id="shape3639-7" v:mID="3639" v:groupContext="shape" transform="translate(17.0079,0)">
				<title>Blad.3639</title>
				<path d="M0 133.87 L2.83 133.87" class="st2"/>
			</g>
		</g>
		<g id="shape3616-10" v:mID="3616" v:groupContext="shape" transform="translate(-62.3737,8.63285) rotate(-36.8699)">
			<title>Ligger, 2 pt.3616</title>
			<path d="M0 133.87 L141.73 133.87" class="st3"/>
		</g>
		<g id="group3617-13" transform="translate(-62.9408,26.7746) rotate(-36.8699)" v:mID="3617" v:groupContext="group">
			<title>Inklemming.3617</title>
			<g id="shape3618-14" v:mID="3618" v:groupContext="shape" transform="translate(145.211,105.526) rotate(90)">
				<title>Blad.3618</title>
				<path d="M0 133.87 L28.35 133.87" class="st4"/>
			</g>
			<g id="shape3619-17" v:mID="3619" v:groupContext="shape" transform="translate(103.166,10.864) rotate(45)">
				<title>Blad.3619</title>
				<path d="M0 133.87 L4.01 133.87" class="st2"/>
			</g>
			<g id="shape3620-20" v:mID="3620" v:groupContext="shape" transform="translate(100.332,10.864) rotate(45)">
				<title>Blad.3620</title>
				<path d="M0 133.87 L8.02 133.87" class="st2"/>
			</g>
			<g id="shape3621-23" v:mID="3621" v:groupContext="shape" transform="translate(97.497,10.864) rotate(45)">
				<title>Blad.3621</title>
				<path d="M0 133.87 L12.03 133.87" class="st2"/>
			</g>
			<g id="shape3622-26" v:mID="3622" v:groupContext="shape" transform="translate(94.6624,10.864) rotate(45)">
				<title>Blad.3622</title>
				<path d="M0 133.87 L16.04 133.87" class="st2"/>
			</g>
			<g id="shape3623-29" v:mID="3623" v:groupContext="shape" transform="translate(94.6624,13.6986) rotate(45)">
				<title>Blad.3623</title>
				<path d="M0 133.87 L16.04 133.87" class="st2"/>
			</g>
			<g id="shape3624-32" v:mID="3624" v:groupContext="shape" transform="translate(94.6624,16.5333) rotate(45)">
				<title>Blad.3624</title>
				<path d="M0 133.87 L16.04 133.87" class="st2"/>
			</g>
			<g id="shape3625-35" v:mID="3625" v:groupContext="shape" transform="translate(94.6624,19.3679) rotate(45)">
				<title>Blad.3625</title>
				<path d="M0 133.87 L16.04 133.87" class="st2"/>
			</g>
			<g id="shape3626-38" v:mID="3626" v:groupContext="shape" transform="translate(94.6624,22.2026) rotate(45)">
				<title>Blad.3626</title>
				<path d="M0 133.87 L16.04 133.87" class="st2"/>
			</g>
			<g id="shape3627-41" v:mID="3627" v:groupContext="shape" transform="translate(94.6624,25.0372) rotate(45)">
				<title>Blad.3627</title>
				<path d="M0 133.87 L16.04 133.87" class="st2"/>
			</g>
			<g id="shape3628-44" v:mID="3628" v:groupContext="shape" transform="translate(94.6624,27.8719) rotate(45)">
				<title>Blad.3628</title>
				<path d="M0 133.87 L16.04 133.87" class="st2"/>
			</g>
			<g id="shape3629-47" v:mID="3629" v:groupContext="shape" transform="translate(94.6624,30.7065) rotate(45)">
				<title>Blad.3629</title>
				<path d="M0 133.87 L12.03 133.87" class="st2"/>
			</g>
			<g id="shape3630-50" v:mID="3630" v:groupContext="shape" transform="translate(94.6624,33.5412) rotate(45)">
				<title>Blad.3630</title>
				<path d="M0 133.87 L8.02 133.87" class="st2"/>
			</g>
			<g id="shape3631-53" v:mID="3631" v:groupContext="shape" transform="translate(94.6624,36.3758) rotate(45)">
				<title>Blad.3631</title>
				<path d="M0 133.87 L4.01 133.87" class="st2"/>
			</g>
		</g>
		<g id="group3632-56" transform="translate(7.07493,-16.879) rotate(-36.8699)" v:mID="3632" v:groupContext="group">
			<title>Hoekverdraaiing.3632</title>
			<g id="shape3633-57" v:mID="3633" v:groupContext="shape" transform="translate(130.736,232.353) rotate(153.435)">
				<title>Blad.3633</title>
				<path d="M0 133.87 L47.54 133.87" class="st2"/>
			</g>
			<g id="shape3634-60" v:mID="3634" v:groupContext="shape"
					transform="translate(-91.933,149.742) rotate(74.1507) scale(1,-1)">
				<title>Hoekverdraaiing</title>
				<path d="M0 133.87 C5.56 132.29 10.36 132.99 14.97 133.87" class="st5"/>
			</g>
			<g id="shape3635-66" v:mID="3635" v:groupContext="shape" transform="translate(90.8119,29.3258) rotate(36.8699)">
				<title>Punt A.95</title>
				<desc>φD</desc>
				<v:textBlock v:margins="rect(4,4,4,4)" v:tabSpace="42.5197"/>
				<v:textRect cx="17.0079" cy="126.786" width="34.02" height="14.1732"/>
				<rect x="0" y="119.7" width="34.0157" height="14.1732" class="st7"/>
				<text x="10.87" y="130.39" class="st8" v:langID="1043"><v:paragraph v:horizAlign="1"/><v:tabList/>φ<tspan
							dy="-0.279em" class="st9" v:baseFontSize="12">D</tspan></text>			</g>
		</g>
		<g id="shape3640-70" v:mID="3640" v:groupContext="shape" transform="translate(177.475,-92.1179) rotate(14) scale(-1,1)">
			<title>Moment.3640</title>
			<path d="M-0 133.87 A14.1732 14.1732 0 0 1 14.17 119.7 A14.1732 14.1732 0 0 1 26.14 126.28 L26.24 126.62" class="st10"/>
		</g>
		<g id="shape3641-76" v:mID="3641" v:groupContext="shape" transform="translate(110.076,-117.354)">
			<title>Punt A.3641</title>
			<desc>MDAD</desc>
			<v:textBlock v:margins="rect(4,4,4,4)" v:tabSpace="42.5197"/>
			<v:textRect cx="21.2598" cy="126.786" width="42.52" height="14.1732"/>
			<rect x="0" y="119.7" width="42.5197" height="14.1732" class="st7"/>
			<text x="7.81" y="130.39" class="st8" v:langID="1043"><v:paragraph v:horizAlign="1"/><v:tabList/>M<tspan dy="-0.279em"
						class="st9" v:baseFontSize="12">D</tspan><tspan dy="0.081em" class="st12" v:baseFontSize="12">AD</tspan></text>		</g>
		<g id="shape3642-81" v:mID="3642" v:groupContext="shape" transform="translate(17.9501,-8.50392)">
			<title>Blad.3642</title>
			<desc>A</desc>
			<v:textBlock v:margins="rect(4,4,4,4)" v:tabSpace="42.5197"/>
			<v:textRect cx="14.1732" cy="126.786" width="28.35" height="14.1733"/>
			<rect x="0" y="119.7" width="28.3465" height="14.1733" class="st13"/>
			<text x="9.84" y="130.39" class="st14" v:langID="1043"><v:paragraph v:horizAlign="1"/><v:tabList/>A</text>		</g>
		<g id="shape3643-84" v:mID="3643" v:groupContext="shape" transform="translate(127.084,-74.2404)">
			<title>Blad.3643</title>
			<desc>D</desc>
			<v:textBlock v:margins="rect(4,4,4,4)" v:tabSpace="42.5197"/>
			<v:textRect cx="7.08661" cy="126.786" width="14.18" height="14.1733"/>
			<rect x="0" y="119.7" width="14.1732" height="14.1733" class="st13"/>
			<text x="4" y="130.39" class="st14" v:langID="1043"><v:paragraph v:horizAlign="1"/><v:tabList/>D</text>		</g>
	</g>
</svg>
