<?xml version="1.0" encoding="UTF-8" standalone="no"?>
<!DOCTYPE svg PUBLIC "-//W3C//DTD SVG 1.1//EN" "http://www.w3.org/Graphics/SVG/1.1/DTD/svg11.dtd">
<!-- Gegenereerd door Microsoft Visio, SVG Export phi_C.svg Pagina-1 -->
<svg xmlns="http://www.w3.org/2000/svg" xmlns:xlink="http://www.w3.org/1999/xlink" xmlns:ev="http://www.w3.org/2001/xml-events"
		xmlns:v="http://schemas.microsoft.com/visio/2003/SVGExtensions/" width="4.53798in" height="3.09056in"
		viewBox="0 0 326.734 222.521" xml:space="preserve" color-interpolation-filters="sRGB" class="st20">
	<v:documentProperties v:langID="1043" v:metric="true" v:viewMarkup="false"/>

	<style type="text/css">
	<![CDATA[
		.st1 {fill:#00cc99;stroke:#000000;stroke-linecap:round;stroke-linejoin:round;stroke-width:0.75}
		.st2 {stroke:#000000;stroke-linecap:round;stroke-linejoin:round;stroke-width:0.75}
		.st3 {stroke:#000000;stroke-linecap:round;stroke-linejoin:round;stroke-width:2}
		.st4 {marker-start:url(#mrkr5-24);stroke:#800000;stroke-linecap:round;stroke-linejoin:round;stroke-width:2}
		.st5 {fill:#800000;fill-opacity:1;stroke:#800000;stroke-opacity:1;stroke-width:0.44247787610619}
		.st6 {fill:none;stroke:none;stroke-linecap:round;stroke-linejoin:round;stroke-width:0.75}
		.st7 {fill:#000000;font-family:Times New Roman;font-size:1.00001em}
		.st8 {fill:#000000;font-family:Times New Roman;font-size:1.00001em;font-style:italic}
		.st9 {font-size:1em;font-style:normal}
		.st10 {baseline-shift:32.4941%;font-size:0.649882em;font-style:normal}
		.st11 {font-size:1em}
		.st12 {stroke:#000000;stroke-linecap:round;stroke-linejoin:round;stroke-width:1.2}
		.st13 {stroke:#000000;stroke-linecap:round;stroke-linejoin:round;stroke-width:0.25}
		.st14 {marker-end:url(#mrkr4-108);marker-start:url(#mrkr4-106);stroke:#000000;stroke-linecap:round;stroke-linejoin:round;stroke-width:0.25}
		.st15 {fill:#000000;fill-opacity:1;stroke:#000000;stroke-opacity:1;stroke-width:0.1219512195122}
		.st16 {baseline-shift:-32.4941%;font-size:0.649882em;font-style:normal}
		.st17 {marker-end:url(#mrkr1-158);stroke:#000000;stroke-linecap:butt;stroke-width:3}
		.st18 {fill:#000000;fill-opacity:1;stroke:#000000;stroke-opacity:1;stroke-width:0.67567567567568}
		.st19 {fill:none;stroke:none;stroke-linecap:round;stroke-linejoin:round;stroke-width:0.24}
		.st20 {fill:none;fill-rule:evenodd;font-size:12px;overflow:visible;stroke-linecap:square;stroke-miterlimit:3}
	]]>
	</style>

	<defs id="Markers">
		<g id="lend5">
			<path d="M 2 1 L 0 0 L 1.98117 -0.993387 C 1.67173 -0.364515 1.67301 0.372641 1.98465 1.00043 " style="stroke:none"/>
		</g>
		<marker id="mrkr5-24" class="st5" v:arrowType="5" v:arrowSize="2" v:setback="3.775" refX="3.775" orient="auto"
				markerUnits="strokeWidth" overflow="visible">
			<use xlink:href="#lend5" transform="scale(2.26) "/>
		</marker>
		<g id="lend4">
			<path d="M 2 1 L 0 0 L 2 -1 L 2 1 " style="stroke:none"/>
		</g>
		<marker id="mrkr4-106" class="st15" v:arrowType="4" v:arrowSize="1" v:setback="14.96" refX="14.96" orient="auto"
				markerUnits="strokeWidth" overflow="visible">
			<use xlink:href="#lend4" transform="scale(8.2) "/>
		</marker>
		<marker id="mrkr4-108" class="st15" v:arrowType="4" v:arrowSize="1" v:setback="16.4" refX="-16.4" orient="auto"
				markerUnits="strokeWidth" overflow="visible">
			<use xlink:href="#lend4" transform="scale(-8.2,-8.2) "/>
		</marker>
		<g id="lend1">
			<path d="M 1 -1 L 0 0 L 1 1 " style="stroke-linecap:round;stroke-linejoin:round;fill:none"/>
		</g>
		<marker id="mrkr1-158" class="st18" v:arrowType="1" v:arrowSize="0" orient="auto" markerUnits="strokeWidth"
				overflow="visible">
			<use xlink:href="#lend1" transform="scale(-1.48,-1.48) "/>
		</marker>
	</defs>
	<g v:mID="0" v:index="1" v:groupContext="foregroundPage">
		<title>Pagina-1</title>
		<v:pageProperties v:drawingScale="0.0393701" v:pageScale="0.0393701" v:drawingUnits="24" v:shadowOffsetX="8.50394"
				v:shadowOffsetY="-8.50394"/>
		<g id="group127-1" transform="translate(118.013,-31.5561)" v:mID="127" v:groupContext="group">
			<title>Scharnieroplegging.127</title>
			<g id="shape128-2" v:mID="128" v:groupContext="shape" transform="translate(2.83465,2.84217E-14)">
				<title>Blad.128</title>
				<path d="M0 222.52 L14.17 222.52 L7.09 211.18 L0 222.52 Z" class="st1"/>
			</g>
			<g id="shape129-4" v:mID="129" v:groupContext="shape" transform="translate(2.83465,445.041) rotate(180)">
				<title>Blad.129</title>
				<path d="M0 222.52 L2.83 222.52" class="st2"/>
			</g>
			<g id="shape130-7" v:mID="130" v:groupContext="shape" transform="translate(17.0079,2.84217E-14)">
				<title>Blad.130</title>
				<path d="M0 222.52 L2.83 222.52" class="st2"/>
			</g>
		</g>
		<g id="shape131-10" v:mID="131" v:groupContext="shape" transform="translate(-94.5865,179.626) rotate(-90)">
			<title>Ligger, 2 pt.131</title>
			<path d="M0 222.52 L113.39 222.52" class="st3"/>
		</g>
		<g id="shape132-13" v:mID="132" v:groupContext="shape" transform="translate(127.934,-156.281)">
			<title>Ligger, 2 pt.132</title>
			<path d="M0 222.52 L141.73 222.52" class="st3"/>
		</g>
		<g id="shape133-16" v:mID="133" v:groupContext="shape" transform="translate(14.5482,-156.281)">
			<title>Ligger, 2 pt.133</title>
			<path d="M0 222.52 L113.39 222.52" class="st3"/>
		</g>
		<g id="shape134-19" v:mID="134" v:groupContext="shape" transform="translate(-207.972,66.24) rotate(-90)">
			<title>Kracht.134</title>
			<path d="M7.55 222.52 L7.91 222.52 L28.35 222.52" class="st4"/>
		</g>
		<g id="shape135-25" v:mID="135" v:groupContext="shape" transform="translate(14.5482,-170.454)">
			<title>Blad.135</title>
			<desc>111.6 kN</desc>
			<v:textBlock v:margins="rect(4,4,4,4)" v:tabSpace="42.5197"/>
			<v:textRect cx="28.3465" cy="215.434" width="56.7" height="14.1732"/>
			<rect x="0" y="208.347" width="56.6929" height="14.1732" class="st6"/>
			<text x="6.01" y="219.03" class="st7" v:langID="1043"><v:paragraph v:horizAlign="1"/><v:tabList/>111.6 kN</text>		</g>
		<g id="shape136-28" v:mID="136" v:groupContext="shape" transform="translate(78.3278,-198.8)">
			<title>Blad.136</title>
			<desc>EI = 320 MNm2 EA &#62;&#62; EI</desc>
			<v:textBlock v:margins="rect(4,4,4,4)" v:tabSpace="42.5197"/>
			<v:textRect cx="49.6063" cy="215.434" width="99.22" height="14.1732"/>
			<rect x="0" y="208.347" width="99.2126" height="14.1732" class="st6"/>
			<text x="10.77" y="211.83" class="st8" v:langID="1043"><v:paragraph v:horizAlign="1"/><v:tabList/>EI<tspan class="st9"> </tspan><tspan
						class="st9">= 320 MNm</tspan><tspan dy="-0.198em" class="st10" v:baseFontSize="12">2<v:newlineChar/></tspan><tspan
						x="26.85" dy="1.329em" class="st11">EA</tspan><tspan class="st9"> </tspan><tspan class="st9">&#62;&#62; </tspan>EI</text>		</g>
		<g id="group137-37" transform="translate(281.005,274.587) rotate(180)" v:mID="137" v:groupContext="group">
			<title>Inklemming.137</title>
			<g id="shape138-38" v:mID="138" v:groupContext="shape" transform="translate(233.859,194.174) rotate(90)">
				<title>Blad.138</title>
				<path d="M0 222.52 L28.35 222.52" class="st12"/>
			</g>
			<g id="shape139-41" v:mID="139" v:groupContext="shape" transform="translate(165.85,36.8283) rotate(45)">
				<title>Blad.139</title>
				<path d="M0 222.52 L4.01 222.52" class="st2"/>
			</g>
			<g id="shape140-44" v:mID="140" v:groupContext="shape" transform="translate(163.015,36.8283) rotate(45)">
				<title>Blad.140</title>
				<path d="M0 222.52 L8.02 222.52" class="st2"/>
			</g>
			<g id="shape141-47" v:mID="141" v:groupContext="shape" transform="translate(160.18,36.8283) rotate(45)">
				<title>Blad.141</title>
				<path d="M0 222.52 L12.03 222.52" class="st2"/>
			</g>
			<g id="shape142-50" v:mID="142" v:groupContext="shape" transform="translate(157.346,36.8283) rotate(45)">
				<title>Blad.142</title>
				<path d="M0 222.52 L16.04 222.52" class="st2"/>
			</g>
			<g id="shape143-53" v:mID="143" v:groupContext="shape" transform="translate(157.346,39.663) rotate(45)">
				<title>Blad.143</title>
				<path d="M0 222.52 L16.04 222.52" class="st2"/>
			</g>
			<g id="shape144-56" v:mID="144" v:groupContext="shape" transform="translate(157.346,42.4976) rotate(45)">
				<title>Blad.144</title>
				<path d="M0 222.52 L16.04 222.52" class="st2"/>
			</g>
			<g id="shape145-59" v:mID="145" v:groupContext="shape" transform="translate(157.346,45.3322) rotate(45)">
				<title>Blad.145</title>
				<path d="M0 222.52 L16.04 222.52" class="st2"/>
			</g>
			<g id="shape146-62" v:mID="146" v:groupContext="shape" transform="translate(157.346,48.1669) rotate(45)">
				<title>Blad.146</title>
				<path d="M0 222.52 L16.04 222.52" class="st2"/>
			</g>
			<g id="shape147-65" v:mID="147" v:groupContext="shape" transform="translate(157.346,51.0015) rotate(45)">
				<title>Blad.147</title>
				<path d="M0 222.52 L16.04 222.52" class="st2"/>
			</g>
			<g id="shape148-68" v:mID="148" v:groupContext="shape" transform="translate(157.346,53.8362) rotate(45)">
				<title>Blad.148</title>
				<path d="M0 222.52 L16.04 222.52" class="st2"/>
			</g>
			<g id="shape149-71" v:mID="149" v:groupContext="shape" transform="translate(157.346,56.6708) rotate(45)">
				<title>Blad.149</title>
				<path d="M0 222.52 L12.03 222.52" class="st2"/>
			</g>
			<g id="shape150-74" v:mID="150" v:groupContext="shape" transform="translate(157.346,59.5055) rotate(45)">
				<title>Blad.150</title>
				<path d="M0 222.52 L8.02 222.52" class="st2"/>
			</g>
			<g id="shape151-77" v:mID="151" v:groupContext="shape" transform="translate(157.346,62.3401) rotate(45)">
				<title>Blad.151</title>
				<path d="M0 222.52 L4.01 222.52" class="st2"/>
			</g>
		</g>
		<g id="shape152-80" v:mID="152" v:groupContext="shape" transform="translate(113.761,-42.8947)">
			<title>Blad.152</title>
			<desc>A</desc>
			<v:textBlock v:margins="rect(4,4,4,4)" v:tabSpace="42.5197"/>
			<v:textRect cx="7.08662" cy="215.434" width="14.18" height="14.1732"/>
			<rect x="0" y="208.347" width="14.1732" height="14.1732" class="st6"/>
			<text x="4" y="219.03" class="st7" v:langID="1043"><v:paragraph v:horizAlign="1"/><v:tabList/>A</text>		</g>
		<g id="shape153-83" v:mID="153" v:groupContext="shape" transform="translate(255.493,-156.281)">
			<title>Blad.153</title>
			<desc>B</desc>
			<v:textBlock v:margins="rect(4,4,4,4)" v:tabSpace="42.5197"/>
			<v:textRect cx="7.08662" cy="215.434" width="14.18" height="14.1732"/>
			<rect x="0" y="208.347" width="14.1732" height="14.1732" class="st6"/>
			<text x="4" y="219.03" class="st7" v:langID="1043"><v:paragraph v:horizAlign="1"/><v:tabList/>B</text>		</g>
		<g id="shape154-86" v:mID="154" v:groupContext="shape" transform="translate(120.847,-156.281)">
			<title>Blad.154</title>
			<desc>C</desc>
			<v:textBlock v:margins="rect(4,4,4,4)" v:tabSpace="42.5197"/>
			<v:textRect cx="7.08662" cy="215.434" width="14.18" height="14.1732"/>
			<rect x="0" y="208.347" width="14.1732" height="14.1732" class="st6"/>
			<text x="4" y="219.03" class="st7" v:langID="1043"><v:paragraph v:horizAlign="1"/><v:tabList/>C</text>		</g>
		<g id="shape155-89" v:mID="155" v:groupContext="shape" transform="translate(0.375,-142.107)">
			<title>Blad.155</title>
			<desc>D</desc>
			<v:textBlock v:margins="rect(4,4,4,4)" v:tabSpace="42.5197"/>
			<v:textRect cx="7.08662" cy="215.434" width="14.18" height="14.1732"/>
			<rect x="0" y="208.347" width="14.1732" height="14.1732" class="st6"/>
			<text x="4" y="219.03" class="st7" v:langID="1043"><v:paragraph v:horizAlign="1"/><v:tabList/>D</text>		</g>
		<g id="group156-92" transform="translate(14.5482,-0.375)" v:mID="156" v:groupContext="group">
			<title>Maatlijn.156</title>
			<g id="group157-93" transform="translate(0,-9.92126)" v:mID="157" v:groupContext="group">
				<title>Maatlijn.31</title>
				<g id="shape158-94" v:mID="158" v:groupContext="shape" transform="translate(222.521,214.017) rotate(90)">
					<title>Blad.158</title>
					<path d="M0 222.52 L8.5 222.52" class="st13"/>
				</g>
				<g id="shape159-97" v:mID="159" v:groupContext="shape" transform="translate(335.906,214.017) rotate(90)">
					<title>Blad.159</title>
					<path d="M0 222.52 L8.5 222.52" class="st13"/>
				</g>
				<g id="shape160-100" v:mID="160" v:groupContext="shape" transform="translate(0,-4.25197)">
					<title>Blad.160</title>
					<path d="M3.74 222.52 L4.1 222.52 L109.29 222.52" class="st14"/>
				</g>
			</g>
			<g id="shape161-109" v:mID="161" v:groupContext="shape">
				<title>Blad.161</title>
				<desc>4 m</desc>
				<v:textBlock v:margins="rect(4,4,4,4)" v:tabSpace="42.5197"/>
				<v:textRect cx="56.6929" cy="215.434" width="113.39" height="14.1732"/>
				<rect x="0" y="208.347" width="113.386" height="14.1732" class="st6"/>
				<text x="47.53" y="219.03" class="st7" v:langID="1043"><v:paragraph v:horizAlign="1"/><v:tabList/>4 m</text>			</g>
		</g>
		<g id="group162-112" transform="translate(127.934,-0.375)" v:mID="162" v:groupContext="group">
			<title>Maatlijn.162</title>
			<g id="group163-113" transform="translate(0,-9.92126)" v:mID="163" v:groupContext="group">
				<title>Maatlijn.31</title>
				<g id="shape164-114" v:mID="164" v:groupContext="shape" transform="translate(222.521,214.017) rotate(90)">
					<title>Blad.164</title>
					<path d="M0 222.52 L8.5 222.52" class="st13"/>
				</g>
				<g id="shape165-117" v:mID="165" v:groupContext="shape" transform="translate(364.253,214.017) rotate(90)">
					<title>Blad.165</title>
					<path d="M0 222.52 L8.5 222.52" class="st13"/>
				</g>
				<g id="shape166-120" v:mID="166" v:groupContext="shape" transform="translate(0,-4.25197)">
					<title>Blad.166</title>
					<path d="M3.74 222.52 L4.1 222.52 L137.63 222.52" class="st14"/>
				</g>
			</g>
			<g id="shape167-127" v:mID="167" v:groupContext="shape">
				<title>Blad.167</title>
				<desc>5 m</desc>
				<v:textBlock v:margins="rect(4,4,4,4)" v:tabSpace="42.5197"/>
				<v:textRect cx="70.8661" cy="215.434" width="141.74" height="14.1732"/>
				<rect x="0" y="208.347" width="141.732" height="14.1732" class="st6"/>
				<text x="61.7" y="219.03" class="st7" v:langID="1043"><v:paragraph v:horizAlign="1"/><v:tabList/>5 m</text>			</g>
		</g>
		<g id="group168-130" transform="translate(293.761,-42.8947)" v:mID="168" v:groupContext="group">
			<title>Maatlijn verticaal.168</title>
			<g id="group169-131" transform="translate(-214.017,222.521) rotate(-90)" v:mID="169" v:groupContext="group">
				<title>Maatlijn.31</title>
				<g id="shape170-132" v:mID="170" v:groupContext="shape" transform="translate(222.521,214.017) rotate(90)">
					<title>Blad.170</title>
					<path d="M0 222.52 L8.5 222.52" class="st13"/>
				</g>
				<g id="shape171-135" v:mID="171" v:groupContext="shape" transform="translate(335.906,214.017) rotate(90)">
					<title>Blad.171</title>
					<path d="M0 222.52 L8.5 222.52" class="st13"/>
				</g>
				<g id="shape172-138" v:mID="172" v:groupContext="shape" transform="translate(0,-4.25197)">
					<title>Blad.172</title>
					<path d="M3.74 222.52 L4.1 222.52 L109.29 222.52" class="st14"/>
				</g>
			</g>
			<g id="shape173-145" v:mID="173" v:groupContext="shape" transform="translate(4.25197,-45.3543)">
				<title>Blad.173</title>
				<desc>4 m</desc>
				<v:textBlock v:margins="rect(4,4,4,4)" v:tabSpace="42.5197"/>
				<v:textRect cx="14.1732" cy="211.182" width="28.35" height="22.6772"/>
				<rect x="0" y="199.843" width="28.3465" height="22.6772" class="st6"/>
				<text x="5.01" y="214.78" class="st7" v:langID="1043"><v:paragraph v:horizAlign="1"/><v:tabList/>4 m</text>			</g>
		</g>
		<g id="shape174-148" v:mID="174" v:groupContext="shape" transform="translate(127.934,-71.2412)">
			<title>Blad.174</title>
			<desc>EIAC = n · EI</desc>
			<v:textBlock v:margins="rect(4,4,4,4)" v:tabSpace="42.5197"/>
			<v:textRect cx="39.685" cy="215.434" width="79.38" height="14.1732"/>
			<rect x="0" y="208.347" width="79.3701" height="14.1732" class="st6"/>
			<text x="8.39" y="219.04" class="st8" v:langID="1043"><v:paragraph v:horizAlign="1"/><v:tabList/>EI<tspan dy="-0.279em"
						class="st16" v:baseFontSize="12">AC</tspan><tspan dy="0.181em" class="st11"> </tspan>= n · EI</text>		</g>
		<g id="shape175-153" v:mID="175" v:groupContext="shape" transform="translate(237.069,66.2401) rotate(90)">
			<title>verplaatsing.175</title>
			<path d="M0 222.52 L28.35 222.52" class="st17"/>
		</g>
		<g id="shape176-159" v:mID="176" v:groupContext="shape" transform="translate(14.5482,-127.934)">
			<title>Blad.176</title>
			<desc>wD = ?</desc>
			<v:textBlock v:margins="rect(4,4,4,4)" v:tabSpace="42.5197"/>
			<v:textRect cx="24.8032" cy="215.434" width="49.61" height="14.1732"/>
			<rect x="0" y="208.347" width="49.6063" height="14.1732" class="st6"/>
			<text x="8.94" y="219.04" class="st8" v:langID="1043"><v:paragraph v:horizAlign="1"/><v:tabList/>w<tspan dy="-0.279em"
						class="st16" v:baseFontSize="12">D</tspan><tspan dy="0.181em" class="st9"> </tspan><tspan class="st9">= ?</tspan></text>		</g>
		<g id="group177-165" transform="translate(57.0679,-135.021)" v:mID="177" v:groupContext="group">
			<title>Hoekverdraaiing.166</title>
			<g id="shape178-166" v:mID="178" v:groupContext="shape" transform="translate(170.38,400.289) rotate(153.435)">
				<title>Blad.178</title>
				<path d="M0 222.52 L47.54 222.52" class="st2"/>
			</g>
			<g id="shape179-169" v:mID="179" v:groupContext="shape"
					transform="translate(-177.211,262.6) rotate(74.1507) scale(1,-1)">
				<title>Hoekverdraaiing</title>
				<path d="M0 222.52 C5.56 220.94 10.36 221.64 14.97 222.52" class="st17"/>
			</g>
			<g id="shape180-174" v:mID="180" v:groupContext="shape" transform="translate(14.1732,-6.90492E-07)">
				<title>Punt A.95</title>
				<desc>φC</desc>
				<v:textBlock v:margins="rect(4,4,4,4)" v:tabSpace="42.5197"/>
				<v:textRect cx="9.92126" cy="215.434" width="19.85" height="14.1732"/>
				<rect x="0" y="208.347" width="19.8425" height="14.1732" class="st19"/>
				<text x="4" y="219.04" class="st8" v:langID="1043"><v:paragraph v:horizAlign="1"/><v:tabList/>φ<tspan dy="-0.279em"
							class="st16" v:baseFontSize="12">C</tspan></text>			</g>
		</g>
		<g id="group181-178" transform="translate(-73.3267,137.106) rotate(-90)" v:mID="181" v:groupContext="group">
			<title>Hoekverdraaiing.181</title>
			<g id="shape182-179" v:mID="182" v:groupContext="shape" transform="translate(170.38,400.289) rotate(153.435)">
				<title>Blad.182</title>
				<path d="M0 222.52 L47.54 222.52" class="st2"/>
			</g>
			<g id="shape183-182" v:mID="183" v:groupContext="shape"
					transform="translate(-177.211,262.6) rotate(74.1507) scale(1,-1)">
				<title>Hoekverdraaiing</title>
				<path d="M0 222.52 C5.56 220.94 10.36 221.64 14.97 222.52" class="st17"/>
			</g>
			<g id="shape184-187" v:mID="184" v:groupContext="shape" transform="translate(243.78,202.678) rotate(90)">
				<title>Punt A.95</title>
				<desc>φC</desc>
				<v:textBlock v:margins="rect(4,4,4,4)" v:tabSpace="42.5197"/>
				<v:textRect cx="9.92126" cy="215.434" width="19.85" height="14.1732"/>
				<rect x="0" y="208.347" width="19.8425" height="14.1732" class="st19"/>
				<text x="4" y="219.04" class="st8" v:langID="1043"><v:paragraph v:horizAlign="1"/><v:tabList/>φ<tspan dy="-0.279em"
							class="st16" v:baseFontSize="12">C</tspan></text>			</g>
		</g>
		<g id="group185-191" transform="translate(198.8,267.501) rotate(180)" v:mID="185" v:groupContext="group">
			<title>Hoekverdraaiing.185</title>
			<g id="shape186-192" v:mID="186" v:groupContext="shape" transform="translate(170.38,400.289) rotate(153.435)">
				<title>Blad.186</title>
				<path d="M0 222.52 L47.54 222.52" class="st2"/>
			</g>
			<g id="shape187-195" v:mID="187" v:groupContext="shape"
					transform="translate(-177.211,262.6) rotate(74.1507) scale(1,-1)">
				<title>Hoekverdraaiing</title>
				<path d="M0 222.52 C5.56 220.94 10.36 221.64 14.97 222.52" class="st17"/>
			</g>
			<g id="shape188-200" v:mID="188" v:groupContext="shape" transform="translate(34.0157,430.868) rotate(180)">
				<title>Punt A.95</title>
				<desc>φC</desc>
				<v:textBlock v:margins="rect(4,4,4,4)" v:tabSpace="42.5197"/>
				<v:textRect cx="9.92126" cy="215.434" width="19.85" height="14.1732"/>
				<rect x="0" y="208.347" width="19.8425" height="14.1732" class="st19"/>
				<text x="4" y="219.04" class="st8" v:langID="1043"><v:paragraph v:horizAlign="1"/><v:tabList/>φ<tspan dy="-0.279em"
							class="st16" v:baseFontSize="12">C</tspan></text>			</g>
		</g>
	</g>
</svg>
