<?xml version="1.0" encoding="UTF-8" standalone="no"?>
<!DOCTYPE svg PUBLIC "-//W3C//DTD SVG 1.1//EN" "http://www.w3.org/Graphics/SVG/1.1/DTD/svg11.dtd">
<!-- Gegenereerd door Microsoft Visio, SVG Export phi_D.svg Pagina-1 -->
<svg xmlns="http://www.w3.org/2000/svg" xmlns:xlink="http://www.w3.org/1999/xlink" xmlns:ev="http://www.w3.org/2001/xml-events"
		xmlns:v="http://schemas.microsoft.com/visio/2003/SVGExtensions/" width="3.23679in" height="2.23128in"
		viewBox="0 0 233.049 160.652" xml:space="preserve" color-interpolation-filters="sRGB" class="st14">
	<v:documentProperties v:langID="1043" v:metric="true" v:viewMarkup="false"/>

	<style type="text/css">
	<![CDATA[
		.st1 {stroke:#000000;stroke-linecap:round;stroke-linejoin:round;stroke-width:2}
		.st2 {fill:#00cc99;stroke:#000000;stroke-linecap:round;stroke-linejoin:round;stroke-width:0.75}
		.st3 {stroke:#000000;stroke-linecap:round;stroke-linejoin:round;stroke-width:0.75}
		.st4 {stroke:#000000;stroke-linecap:round;stroke-linejoin:round;stroke-width:1.2}
		.st5 {marker-end:url(#mrkr5-80);stroke:#800000;stroke-linecap:round;stroke-linejoin:round;stroke-width:2}
		.st6 {fill:#800000;fill-opacity:1;stroke:#800000;stroke-opacity:1;stroke-width:0.44247787610619}
		.st7 {fill:none;stroke:none;stroke-linecap:round;stroke-linejoin:round;stroke-width:0.75}
		.st8 {fill:#000000;font-family:Times New Roman;font-size:1.00001em}
		.st9 {marker-end:url(#mrkr1-101);stroke:#000000;stroke-linecap:butt;stroke-width:3}
		.st10 {fill:#000000;fill-opacity:1;stroke:#000000;stroke-opacity:1;stroke-width:0.67567567567568}
		.st11 {fill:none;stroke:none;stroke-linecap:round;stroke-linejoin:round;stroke-width:0.24}
		.st12 {fill:#000000;font-family:Times New Roman;font-size:1.00001em;font-style:italic}
		.st13 {baseline-shift:-32.4941%;font-size:0.649882em;font-style:normal}
		.st14 {fill:none;fill-rule:evenodd;font-size:12px;overflow:visible;stroke-linecap:square;stroke-miterlimit:3}
	]]>
	</style>

	<defs id="Markers">
		<g id="lend5">
			<path d="M 2 1 L 0 0 L 1.98117 -0.993387 C 1.67173 -0.364515 1.67301 0.372641 1.98465 1.00043 " style="stroke:none"/>
		</g>
		<marker id="mrkr5-80" class="st6" v:arrowType="5" v:arrowSize="2" v:setback="3.775" refX="-3.775" orient="auto"
				markerUnits="strokeWidth" overflow="visible">
			<use xlink:href="#lend5" transform="scale(-2.26,-2.26) "/>
		</marker>
		<g id="lend1">
			<path d="M 1 -1 L 0 0 L 1 1 " style="stroke-linecap:round;stroke-linejoin:round;fill:none"/>
		</g>
		<marker id="mrkr1-101" class="st10" v:arrowType="1" v:arrowSize="0" orient="auto" markerUnits="strokeWidth"
				overflow="visible">
			<use xlink:href="#lend1" transform="scale(-1.48,-1.48) "/>
		</marker>
	</defs>
	<g v:mID="0" v:index="1" v:groupContext="foregroundPage">
		<title>Pagina-1</title>
		<v:pageProperties v:drawingScale="0.0393701" v:pageScale="0.0393701" v:drawingUnits="24" v:shadowOffsetX="8.50394"
				v:shadowOffsetY="-8.50394"/>
		<g id="shape3492-1" v:mID="3492" v:groupContext="shape" transform="translate(-78.4415,-7.92956) rotate(-36.8699)">
			<title>Ligger, 2 pt.3492</title>
			<path d="M0 160.65 L141.73 160.65" class="st1"/>
		</g>
		<g id="shape3493-4" v:mID="3493" v:groupContext="shape" transform="translate(259.858,-60.8384) rotate(53.1301)">
			<title>Ligger, 2 pt.3493</title>
			<path d="M0 160.65 L141.73 160.65" class="st1"/>
		</g>
		<g id="shape3494-7" v:mID="3494" v:groupContext="shape" transform="translate(131.336,-125.099)">
			<title>Ligger, 2 pt.3494</title>
			<path d="M0 160.65 L56.69 160.65" class="st1"/>
		</g>
		<g id="group3495-10" transform="translate(206.454,-0.375)" v:mID="3495" v:groupContext="group">
			<title>Scharnieroplegging.3495</title>
			<g id="shape3496-11" v:mID="3496" v:groupContext="shape" transform="translate(2.83465,0)">
				<title>Blad.3496</title>
				<path d="M0 160.65 L14.17 160.65 L7.09 149.31 L0 160.65 Z" class="st2"/>
			</g>
			<g id="shape3497-13" v:mID="3497" v:groupContext="shape" transform="translate(2.83465,321.305) rotate(180)">
				<title>Blad.3497</title>
				<path d="M0 160.65 L2.83 160.65" class="st3"/>
			</g>
			<g id="shape3498-16" v:mID="3498" v:groupContext="shape" transform="translate(17.0079,0)">
				<title>Blad.3498</title>
				<path d="M0 160.65 L2.83 160.65" class="st3"/>
			</g>
		</g>
		<g id="group3531-19" transform="translate(178.107,-110.926)" v:mID="3531" v:groupContext="group">
			<title>Rol.3531</title>
			<g id="group3532-20" transform="translate(0.261477,-2.83465)" v:mID="3532" v:groupContext="group">
				<title>Scharnier</title>
				<g id="shape3533-21" v:mID="3533" v:groupContext="shape" transform="translate(2.79729,0)">
					<title>Blad.3533</title>
					<path d="M0 160.65 L13.99 160.65 L6.99 149.31 L0 160.65 Z" class="st2"/>
				</g>
				<g id="shape3534-23" v:mID="3534" v:groupContext="shape" transform="translate(2.79729,321.305) rotate(180)">
					<title>Blad.3534</title>
					<path d="M0 160.65 L2.8 160.65" class="st3"/>
				</g>
				<g id="shape3535-26" v:mID="3535" v:groupContext="shape" transform="translate(16.7838,0)">
					<title>Blad.3535</title>
					<path d="M0 160.65 L2.8 160.65" class="st3"/>
				</g>
			</g>
			<g id="shape3536-29" v:mID="3536" v:groupContext="shape">
				<title>Blad.3536</title>
				<path d="M0 160.65 L19.84 160.65" class="st3"/>
			</g>
		</g>
		<g id="group3547-32" transform="translate(-79.0086,10.2122) rotate(-36.8699)" v:mID="3547" v:groupContext="group">
			<title>Inklemming.3547</title>
			<g id="shape3548-33" v:mID="3548" v:groupContext="shape" transform="translate(171.991,132.306) rotate(90)">
				<title>Blad.3548</title>
				<path d="M0 160.65 L28.35 160.65" class="st4"/>
			</g>
			<g id="shape3549-36" v:mID="3549" v:groupContext="shape" transform="translate(122.102,18.7076) rotate(45)">
				<title>Blad.3549</title>
				<path d="M0 160.65 L4.01 160.65" class="st3"/>
			</g>
			<g id="shape3550-39" v:mID="3550" v:groupContext="shape" transform="translate(119.268,18.7076) rotate(45)">
				<title>Blad.3550</title>
				<path d="M0 160.65 L8.02 160.65" class="st3"/>
			</g>
			<g id="shape3551-42" v:mID="3551" v:groupContext="shape" transform="translate(116.433,18.7076) rotate(45)">
				<title>Blad.3551</title>
				<path d="M0 160.65 L12.03 160.65" class="st3"/>
			</g>
			<g id="shape3552-45" v:mID="3552" v:groupContext="shape" transform="translate(113.598,18.7076) rotate(45)">
				<title>Blad.3552</title>
				<path d="M0 160.65 L16.04 160.65" class="st3"/>
			</g>
			<g id="shape3553-48" v:mID="3553" v:groupContext="shape" transform="translate(113.598,21.5422) rotate(45)">
				<title>Blad.3553</title>
				<path d="M0 160.65 L16.04 160.65" class="st3"/>
			</g>
			<g id="shape3554-51" v:mID="3554" v:groupContext="shape" transform="translate(113.598,24.3769) rotate(45)">
				<title>Blad.3554</title>
				<path d="M0 160.65 L16.04 160.65" class="st3"/>
			</g>
			<g id="shape3555-54" v:mID="3555" v:groupContext="shape" transform="translate(113.598,27.2115) rotate(45)">
				<title>Blad.3555</title>
				<path d="M0 160.65 L16.04 160.65" class="st3"/>
			</g>
			<g id="shape3556-57" v:mID="3556" v:groupContext="shape" transform="translate(113.598,30.0462) rotate(45)">
				<title>Blad.3556</title>
				<path d="M0 160.65 L16.04 160.65" class="st3"/>
			</g>
			<g id="shape3557-60" v:mID="3557" v:groupContext="shape" transform="translate(113.598,32.8808) rotate(45)">
				<title>Blad.3557</title>
				<path d="M0 160.65 L16.04 160.65" class="st3"/>
			</g>
			<g id="shape3558-63" v:mID="3558" v:groupContext="shape" transform="translate(113.598,35.7154) rotate(45)">
				<title>Blad.3558</title>
				<path d="M0 160.65 L16.04 160.65" class="st3"/>
			</g>
			<g id="shape3559-66" v:mID="3559" v:groupContext="shape" transform="translate(113.598,38.5501) rotate(45)">
				<title>Blad.3559</title>
				<path d="M0 160.65 L12.03 160.65" class="st3"/>
			</g>
			<g id="shape3560-69" v:mID="3560" v:groupContext="shape" transform="translate(113.598,41.3847) rotate(45)">
				<title>Blad.3560</title>
				<path d="M0 160.65 L8.02 160.65" class="st3"/>
			</g>
			<g id="shape3561-72" v:mID="3561" v:groupContext="shape" transform="translate(113.598,44.2194) rotate(45)">
				<title>Blad.3561</title>
				<path d="M0 160.65 L4.01 160.65" class="st3"/>
			</g>
		</g>
		<g id="shape3562-75" v:mID="3562" v:groupContext="shape" transform="translate(63.0709,-110.563) rotate(-20)">
			<title>Moment.3562</title>
			<path d="M-0 160.65 A14.1732 14.1732 0 0 1 14.17 146.48 A14.1732 14.1732 0 0 1 26.14 153.06 L26.24 153.4" class="st5"/>
		</g>
		<g id="shape3563-81" v:mID="3563" v:groupContext="shape" transform="translate(106.533,-139.273)">
			<title>Blad.3563</title>
			<desc>29 kNm</desc>
			<v:textBlock v:margins="rect(4,4,4,4)" v:tabSpace="42.5197"/>
			<v:textRect cx="24.8031" cy="153.566" width="49.61" height="14.1733"/>
			<rect x="0" y="146.479" width="49.6063" height="14.1733" class="st7"/>
			<text x="5.3" y="157.17" class="st8" v:langID="1043"><v:paragraph v:horizAlign="1"/><v:tabList/>29 kNm</text>		</g>
		<g id="shape3564-84" v:mID="3564" v:groupContext="shape" transform="translate(183.068,-139.273)">
			<title>Blad.3564</title>
			<desc>29 kNm</desc>
			<v:textBlock v:margins="rect(4,4,4,4)" v:tabSpace="42.5197"/>
			<v:textRect cx="24.8031" cy="153.566" width="49.61" height="14.1733"/>
			<rect x="0" y="146.479" width="49.6063" height="14.1733" class="st7"/>
			<text x="5.3" y="157.17" class="st8" v:langID="1043"><v:paragraph v:horizAlign="1"/><v:tabList/>29 kNm</text>		</g>
		<g id="shape3565-87" v:mID="3565" v:groupContext="shape" transform="translate(256.294,-110.563) rotate(20) scale(-1,1)">
			<title>Moment.3565</title>
			<path d="M-0 160.65 A14.1732 14.1732 0 0 1 14.17 146.48 A14.1732 14.1732 0 0 1 26.14 153.06 L26.24 153.4" class="st5"/>
		</g>
		<g id="group3566-92" transform="translate(-8.99286,-33.4414) rotate(-36.8699)" v:mID="3566" v:groupContext="group">
			<title>Hoekverdraaiing.3566</title>
			<g id="shape3567-93" v:mID="3567" v:groupContext="shape" transform="translate(142.712,283.085) rotate(153.435)">
				<title>Blad.3567</title>
				<path d="M0 160.65 L47.54 160.65" class="st3"/>
			</g>
			<g id="shape3568-96" v:mID="3568" v:groupContext="shape"
					transform="translate(-117.695,183.835) rotate(74.1507) scale(1,-1)">
				<title>Hoekverdraaiing</title>
				<path d="M0 160.65 C5.56 159.07 10.36 159.77 14.97 160.65" class="st9"/>
			</g>
			<g id="shape3569-102" v:mID="3569" v:groupContext="shape" transform="translate(106.88,34.6817) rotate(36.8699)">
				<title>Punt A.95</title>
				<desc>φD</desc>
				<v:textBlock v:margins="rect(4,4,4,4)" v:tabSpace="42.5197"/>
				<v:textRect cx="17.0079" cy="153.566" width="34.02" height="14.1732"/>
				<rect x="0" y="146.479" width="34.0157" height="14.1732" class="st11"/>
				<text x="10.87" y="157.17" class="st12" v:langID="1043"><v:paragraph v:horizAlign="1"/><v:tabList/>φ<tspan
							dy="-0.279em" class="st13" v:baseFontSize="12">D</tspan></text>			</g>
		</g>
		<g id="group3570-106" transform="translate(62.3412,175.882) rotate(-126.87)" v:mID="3570" v:groupContext="group">
			<title>Hoekverdraaiing.3570</title>
			<g id="shape3571-107" v:mID="3571" v:groupContext="shape" transform="translate(142.712,283.085) rotate(153.435)">
				<title>Blad.3571</title>
				<path d="M0 160.65 L47.54 160.65" class="st3"/>
			</g>
			<g id="shape3572-110" v:mID="3572" v:groupContext="shape"
					transform="translate(-117.695,183.835) rotate(74.1507) scale(1,-1)">
				<title>Hoekverdraaiing</title>
				<path d="M0 160.65 C5.56 159.07 10.36 159.77 14.97 160.65" class="st9"/>
			</g>
		</g>
		<g id="group3574-115" transform="translate(202.202,174.946) rotate(180)" v:mID="3574" v:groupContext="group">
			<title>Hoekverdraaiing.3574</title>
			<g id="shape3575-116" v:mID="3575" v:groupContext="shape" transform="translate(142.712,283.085) rotate(153.435)">
				<title>Blad.3575</title>
				<path d="M0 160.65 L47.54 160.65" class="st3"/>
			</g>
			<g id="shape3576-119" v:mID="3576" v:groupContext="shape"
					transform="translate(-117.695,183.835) rotate(74.1507) scale(1,-1)">
				<title>Hoekverdraaiing</title>
				<path d="M0 160.65 C5.56 159.07 10.36 159.77 14.97 160.65" class="st9"/>
			</g>
		</g>
		<g id="shape3582-124" v:mID="3582" v:groupContext="shape" transform="translate(154.013,-91.9054)">
			<title>Punt A.3582</title>
			<desc>φD</desc>
			<v:textBlock v:margins="rect(4,4,4,4)" v:tabSpace="42.5197"/>
			<v:textRect cx="17.0079" cy="153.566" width="34.02" height="14.1732"/>
			<rect x="0" y="146.479" width="34.0157" height="14.1732" class="st11"/>
			<text x="10.87" y="157.17" class="st12" v:langID="1043"><v:paragraph v:horizAlign="1"/><v:tabList/>φ<tspan
						dy="-0.279em" class="st13" v:baseFontSize="12">D</tspan></text>		</g>
		<g id="shape3583-128" v:mID="3583" v:groupContext="shape" transform="translate(145.509,-146.359)">
			<title>Punt A.3583</title>
			<desc>φD</desc>
			<v:textBlock v:margins="rect(4,4,4,4)" v:tabSpace="42.5197"/>
			<v:textRect cx="17.0079" cy="153.566" width="34.02" height="14.1732"/>
			<rect x="0" y="146.479" width="34.0157" height="14.1732" class="st11"/>
			<text x="10.87" y="157.17" class="st12" v:langID="1043"><v:paragraph v:horizAlign="1"/><v:tabList/>φ<tspan
						dy="-0.279em" class="st13" v:baseFontSize="12">D</tspan></text>		</g>
	</g>
</svg>
