<?xml version="1.0" encoding="UTF-8" standalone="no"?>
<!DOCTYPE svg PUBLIC "-//W3C//DTD SVG 1.1//EN" "http://www.w3.org/Graphics/SVG/1.1/DTD/svg11.dtd">
<!-- Generated by Microsoft Visio, SVG Export Oefening_2.svg Page-1 -->
<svg xmlns="http://www.w3.org/2000/svg" xmlns:xlink="http://www.w3.org/1999/xlink" xmlns:ev="http://www.w3.org/2001/xml-events"
		xmlns:v="http://schemas.microsoft.com/visio/2003/SVGExtensions/" width="5.07415in" height="2.27878in"
		viewBox="0 0 365.339 164.072" xml:space="preserve" color-interpolation-filters="sRGB" class="st14">
	<v:documentProperties v:langID="1043" v:metric="true" v:viewMarkup="false"/>

	<style type="text/css">
	<![CDATA[
		.st1 {stroke:#000000;stroke-linecap:round;stroke-linejoin:round;stroke-opacity:0.5;stroke-width:2}
		.st2 {marker-start:url(#mrkr5-21);stroke:#800000;stroke-linecap:round;stroke-linejoin:round;stroke-opacity:0.5;stroke-width:2}
		.st3 {fill:#800000;fill-opacity:0.5;stroke:#800000;stroke-opacity:0.5;stroke-width:0.4424778761062}
		.st4 {marker-start:url(#mrkr5-27);stroke:#00cc99;stroke-linecap:round;stroke-linejoin:round;stroke-width:2}
		.st5 {fill:#00cc99;fill-opacity:1;stroke:#00cc99;stroke-opacity:1;stroke-width:0.4424778761062}
		.st6 {marker-start:url(#mrkr5-58);stroke:#31859b;stroke-linecap:round;stroke-linejoin:round;stroke-width:2}
		.st7 {fill:#31859b;fill-opacity:1;stroke:#31859b;stroke-opacity:1;stroke-width:0.4424778761062}
		.st8 {marker-end:url(#mrkr5-99);stroke:#31859b;stroke-linecap:round;stroke-linejoin:round;stroke-width:2}
		.st9 {fill:#ffffff;stroke:#000000;stroke-linecap:round;stroke-linejoin:round;stroke-opacity:0.5;stroke-width:0.75}
		.st10 {fill:none;stroke:none;stroke-linecap:round;stroke-linejoin:round;stroke-width:0.24}
		.st11 {fill:#999999;font-family:Times New Roman;font-size:1.00001em}
		.st12 {fill:none;stroke:none;stroke-linecap:round;stroke-linejoin:round;stroke-width:0.75}
		.st13 {fill:#000000;font-family:Times New Roman;font-size:1.00001em}
		.st14 {fill:none;fill-rule:evenodd;font-size:12px;overflow:visible;stroke-linecap:square;stroke-miterlimit:3}
	]]>
	</style>

	<defs id="Markers">
		<g id="lend5">
			<path d="M 2 1 L 0 0 L 1.98117 -0.993387 C 1.67173 -0.364515 1.67301 0.372641 1.98465 1.00043 " style="stroke:none"/>
		</g>
		<marker id="mrkr5-21" class="st3" v:arrowType="5" v:arrowSize="2" v:setback="3.775" refX="3.775" orient="auto"
				markerUnits="strokeWidth" overflow="visible">
			<use xlink:href="#lend5" transform="scale(2.26) "/>
		</marker>
		<marker id="mrkr5-27" class="st5" v:arrowType="5" v:arrowSize="2" v:setback="3.775" refX="3.775" orient="auto"
				markerUnits="strokeWidth" overflow="visible">
			<use xlink:href="#lend5" transform="scale(2.26) "/>
		</marker>
		<marker id="mrkr5-58" class="st7" v:arrowType="5" v:arrowSize="2" v:setback="3.775" refX="3.775" orient="auto"
				markerUnits="strokeWidth" overflow="visible">
			<use xlink:href="#lend5" transform="scale(2.26) "/>
		</marker>
		<marker id="mrkr5-99" class="st7" v:arrowType="5" v:arrowSize="2" v:setback="3.775" refX="-3.775" orient="auto"
				markerUnits="strokeWidth" overflow="visible">
			<use xlink:href="#lend5" transform="scale(-2.26,-2.26) "/>
		</marker>
	</defs>
	<g v:mID="0" v:index="1" v:groupContext="foregroundPage">
		<title>Page-1</title>
		<v:pageProperties v:drawingScale="0.0393701" v:pageScale="0.0393701" v:drawingUnits="24" v:shadowOffsetX="8.50394"
				v:shadowOffsetY="-8.50394"/>
		<g id="shape138-1" v:mID="138" v:groupContext="shape" transform="translate(40.5794,-123.493)">
			<title>Ligger, 2 pt.451</title>
			<path d="M0 164.07 L14.17 164.07" class="st1"/>
		</g>
		<g id="shape139-4" v:mID="139" v:groupContext="shape" transform="translate(379.695,124.994) rotate(120.964)">
			<title>Ligger, 2 pt.452</title>
			<path d="M0 164.07 L14.17 164.07" class="st1"/>
		</g>
		<g id="shape140-7" v:mID="140" v:groupContext="shape" transform="translate(280.483,-43.835) rotate(59.0362)">
			<title>Ligger, 2 pt.453</title>
			<path d="M0 164.07 L2.83 164.07" class="st1"/>
		</g>
		<g id="shape141-10" v:mID="141" v:groupContext="shape" transform="translate(322.797,29.0509) rotate(59.0362)">
			<title>Ligger, 2 pt.454</title>
			<path d="M0 164.07 L14.17 164.07" class="st1"/>
		</g>
		<g id="shape142-13" v:mID="142" v:groupContext="shape" transform="translate(337.381,197.88) rotate(120.964)">
			<title>Ligger, 2 pt.455</title>
			<path d="M0 164.07 L14.17 164.07" class="st1"/>
		</g>
		<g id="shape143-16" v:mID="143" v:groupContext="shape" transform="translate(74.9323,38.4535) rotate(-90)">
			<title>Kracht.456</title>
			<path d="M7.55 164.07 L7.91 164.07 L28.35 164.07" class="st2"/>
		</g>
		<g id="shape144-22" v:mID="144" v:groupContext="shape" transform="translate(204.652,42.7055) rotate(90)">
			<title>Kracht.457</title>
			<path d="M7.55 164.07 L7.91 164.07 L28.35 164.07" class="st4"/>
		</g>
		<g id="shape145-28" v:mID="145" v:groupContext="shape" transform="translate(353.471,125.619) rotate(90)">
			<title>Kracht.458</title>
			<path d="M7.55 164.07 L7.91 164.07 L28.35 164.07" class="st4"/>
		</g>
		<g id="shape146-33" v:mID="146" v:groupContext="shape" transform="translate(452.683,125.619) rotate(90)">
			<title>Kracht.459</title>
			<path d="M7.55 164.07 L7.91 164.07 L28.35 164.07" class="st4"/>
		</g>
		<g id="shape147-38" v:mID="147" v:groupContext="shape" transform="translate(288.611,-38.4535)">
			<title>Kracht.460</title>
			<path d="M7.55 164.07 L7.91 164.07 L28.35 164.07" class="st4"/>
		</g>
		<g id="shape148-43" v:mID="148" v:groupContext="shape" transform="translate(189.398,-38.4535)">
			<title>Kracht.461</title>
			<path d="M7.55 164.07 L7.91 164.07 L28.35 164.07" class="st4"/>
		</g>
		<g id="shape149-48" v:mID="149" v:groupContext="shape" transform="translate(38.4535,204.652) rotate(180)">
			<title>Kracht.462</title>
			<path d="M7.55 164.07 L7.91 164.07 L28.35 164.07" class="st4"/>
		</g>
		<g id="shape150-53" v:mID="150" v:groupContext="shape" transform="translate(83.0991,204.652) rotate(180)">
			<title>Kracht.463</title>
			<path d="M7.55 164.07 L7.91 164.07 L28.35 164.07" class="st6"/>
		</g>
		<g id="shape151-59" v:mID="151" v:groupContext="shape" transform="translate(-109.32,40.5795) rotate(-90)">
			<title>Kracht.464</title>
			<path d="M7.55 164.07 L7.91 164.07 L28.35 164.07" class="st6"/>
		</g>
		<g id="shape152-64" v:mID="152" v:groupContext="shape" transform="translate(-10.1071,40.5795) rotate(-90)">
			<title>Kracht.465</title>
			<path d="M7.55 164.07 L7.91 164.07 L28.35 164.07" class="st6"/>
		</g>
		<g id="shape153-69" v:mID="153" v:groupContext="shape" transform="translate(289.691,40.5795) rotate(90)">
			<title>Kracht.466</title>
			<path d="M7.55 164.07 L7.91 164.07 L28.35 164.07" class="st6"/>
		</g>
		<g id="shape154-74" v:mID="154" v:groupContext="shape" transform="translate(20.9774,161.454) rotate(-120.964)">
			<title>Kracht.467</title>
			<path d="M7.55 164.07 L7.91 164.07 L28.35 164.07" class="st6"/>
		</g>
		<g id="shape155-79" v:mID="155" v:groupContext="shape" transform="translate(182.312,204.652) rotate(180)">
			<title>Kracht.468</title>
			<path d="M7.55 164.07 L7.91 164.07 L28.35 164.07" class="st6"/>
		</g>
		<g id="shape156-84" v:mID="156" v:groupContext="shape" transform="translate(97.2723,-123.493)">
			<title>Kracht.469</title>
			<path d="M7.55 164.07 L7.91 164.07 L28.35 164.07" class="st6"/>
		</g>
		<g id="shape157-89" v:mID="157" v:groupContext="shape" transform="translate(38.3626,-73.3737) rotate(-30.9638)">
			<title>Kracht.470</title>
			<path d="M7.55 164.07 L7.91 164.07 L28.35 164.07" class="st6"/>
		</g>
		<g id="shape158-94" v:mID="158" v:groupContext="shape" transform="translate(-38.4536,54.7527) rotate(-90)">
			<title>Moment.471</title>
			<path d="M-0 164.07 A14.1732 14.1732 0 0 1 14.17 149.9 A14.1732 14.1732 0 0 1 26.14 156.48 L26.24 156.82" class="st8"/>
		</g>
		<g id="shape159-100" v:mID="159" v:groupContext="shape" transform="translate(318.038,54.7527) rotate(90) scale(-1,1)">
			<title>Moment.472</title>
			<path d="M-0 164.07 A14.1732 14.1732 0 0 1 14.17 149.9 A14.1732 14.1732 0 0 1 26.14 156.48 L26.24 156.82" class="st8"/>
		</g>
		<g id="shape160-105" v:mID="160" v:groupContext="shape" transform="translate(196.485,-123.493)">
			<title>Kracht.473</title>
			<path d="M7.55 164.07 L7.91 164.07 L28.35 164.07" class="st6"/>
		</g>
		<g id="shape161-110" v:mID="161" v:groupContext="shape" transform="translate(281.524,204.652) rotate(180)">
			<title>Kracht.474</title>
			<path d="M7.55 164.07 L7.91 164.07 L28.35 164.07" class="st6"/>
		</g>
		<g id="shape162-115" v:mID="162" v:groupContext="shape" transform="translate(6.39328,137.148) rotate(-120.964)">
			<title>Ligger, 2 pt.475</title>
			<path d="M0 164.07 L14.17 164.07" class="st1"/>
		</g>
		<g id="shape163-118" v:mID="163" v:groupContext="shape" transform="translate(139.083,-118.532)">
			<title>Scharnier.476</title>
			<ellipse cx="2.12598" cy="161.946" rx="2.12598" ry="2.12598" class="st9"/>
		</g>
		<g id="shape164-120" v:mID="164" v:groupContext="shape" transform="translate(125.619,-123.493)">
			<title>Ligger, 2 pt.477</title>
			<path d="M0 164.07 L14.17 164.07" class="st1"/>
		</g>
		<g id="shape165-123" v:mID="165" v:groupContext="shape" transform="translate(139.792,-123.493)">
			<title>Ligger, 2 pt.478</title>
			<path d="M0 164.07 L14.17 164.07" class="st1"/>
		</g>
		<g id="shape166-126" v:mID="166" v:groupContext="shape" transform="translate(224.831,-123.493)">
			<title>Ligger, 2 pt.479</title>
			<path d="M0 164.07 L14.17 164.07" class="st1"/>
		</g>
		<g id="shape167-129" v:mID="167" v:groupContext="shape" transform="translate(239.005,-123.493)">
			<title>Ligger, 2 pt.480</title>
			<path d="M0 164.07 L14.17 164.07" class="st1"/>
		</g>
		<g id="shape168-132" v:mID="168" v:groupContext="shape" transform="translate(105.606,137.148) rotate(-120.964)">
			<title>Ligger, 2 pt.481</title>
			<path d="M0 164.07 L14.17 164.07" class="st1"/>
		</g>
		<g id="shape169-135" v:mID="169" v:groupContext="shape" transform="translate(236.879,-121.367)">
			<title>Scharnier.482</title>
			<ellipse cx="2.12598" cy="161.946" rx="2.12598" ry="2.12598" class="st9"/>
		</g>
		<g id="shape170-137" v:mID="170" v:groupContext="shape" transform="translate(388.904,40.5795) rotate(90)">
			<title>Kracht.483</title>
			<path d="M7.55 164.07 L7.91 164.07 L28.35 164.07" class="st6"/>
		</g>
		<g id="shape171-142" v:mID="171" v:groupContext="shape" transform="translate(308.213,4.7439) rotate(59.0362)">
			<title>Kracht.484</title>
			<path d="M7.55 164.07 L7.91 164.07 L28.35 164.07" class="st6"/>
		</g>
		<g id="shape172-147" v:mID="172" v:groupContext="shape" transform="translate(73.3847,-12.6412) rotate(-30.9638)">
			<title>Kracht.485</title>
			<path d="M7.55 164.07 L7.91 164.07 L28.35 164.07" class="st6"/>
		</g>
		<g id="shape173-152" v:mID="173" v:groupContext="shape" transform="translate(351.965,173.573) rotate(120.964)">
			<title>Kracht.486</title>
			<path d="M7.55 164.07 L7.91 164.07 L28.35 164.07" class="st6"/>
		</g>
		<g id="shape174-157" v:mID="174" v:groupContext="shape" transform="translate(136.583,268.74) rotate(-149.036)">
			<title>Kracht.487</title>
			<path d="M7.55 164.07 L7.91 164.07 L28.35 164.07" class="st6"/>
		</g>
		<g id="shape175-162" v:mID="175" v:groupContext="shape" transform="translate(76.4376,-7.37481) rotate(-59.0362)">
			<title>Kracht.488</title>
			<path d="M7.55 164.07 L7.91 164.07 L28.35 164.07" class="st6"/>
		</g>
		<g id="shape176-167" v:mID="176" v:groupContext="shape" transform="translate(171.605,208.008) rotate(-149.036)">
			<title>Kracht.489</title>
			<path d="M7.55 164.07 L7.91 164.07 L28.35 164.07" class="st6"/>
		</g>
		<g id="shape177-172" v:mID="177" v:groupContext="shape" transform="translate(120.19,161.454) rotate(-120.964)">
			<title>Kracht.490</title>
			<path d="M7.55 164.07 L7.91 164.07 L28.35 164.07" class="st6"/>
		</g>
		<g id="shape178-177" v:mID="178" v:groupContext="shape" transform="translate(355.018,178.84) rotate(149.036)">
			<title>Kracht.491</title>
			<path d="M7.55 164.07 L7.91 164.07 L28.35 164.07" class="st6"/>
		</g>
		<g id="shape179-182" v:mID="179" v:groupContext="shape" transform="translate(478.908,124.994) rotate(120.964)">
			<title>Ligger, 2 pt.492</title>
			<path d="M0 164.07 L14.17 164.07" class="st1"/>
		</g>
		<g id="shape180-185" v:mID="180" v:groupContext="shape" transform="translate(324.044,-123.493)">
			<title>Ligger, 2 pt.493</title>
			<path d="M0 164.07 L14.17 164.07" class="st1"/>
		</g>
		<g id="shape181-188" v:mID="181" v:groupContext="shape" transform="translate(336.091,-121.367)">
			<title>Scharnier.494</title>
			<ellipse cx="2.12598" cy="161.946" rx="2.12598" ry="2.12598" class="st9"/>
		</g>
		<g id="shape182-190" v:mID="182" v:groupContext="shape" transform="translate(295.698,-123.493)">
			<title>Kracht.495</title>
			<path d="M7.55 164.07 L7.91 164.07 L28.35 164.07" class="st6"/>
		</g>
		<g id="shape183-195" v:mID="183" v:groupContext="shape" transform="translate(175.65,-7.37484) rotate(-59.0362)">
			<title>Kracht.496</title>
			<path d="M7.55 164.07 L7.91 164.07 L28.35 164.07" class="st6"/>
		</g>
		<g id="shape184-200" v:mID="184" v:groupContext="shape" transform="translate(270.817,208.008) rotate(-149.036)">
			<title>Kracht.497</title>
			<path d="M7.55 164.07 L7.91 164.07 L28.35 164.07" class="st6"/>
		</g>
		<g id="shape185-205" v:mID="185" v:groupContext="shape" transform="translate(422.01,29.0509) rotate(59.0362)">
			<title>Ligger, 2 pt.498</title>
			<path d="M0 164.07 L14.17 164.07" class="st1"/>
		</g>
		<g id="shape186-208" v:mID="186" v:groupContext="shape" transform="translate(436.594,197.88) rotate(120.964)">
			<title>Ligger, 2 pt.499</title>
			<path d="M0 164.07 L14.17 164.07" class="st1"/>
		</g>
		<g id="shape187-211" v:mID="187" v:groupContext="shape" transform="translate(451.178,173.573) rotate(120.964)">
			<title>Kracht.500</title>
			<path d="M7.55 164.07 L7.91 164.07 L28.35 164.07" class="st6"/>
		</g>
		<g id="shape188-216" v:mID="188" v:groupContext="shape" transform="translate(235.795,268.74) rotate(-149.036)">
			<title>Kracht.501</title>
			<path d="M7.55 164.07 L7.91 164.07 L28.35 164.07" class="st6"/>
		</g>
		<g id="shape189-221" v:mID="189" v:groupContext="shape" transform="translate(407.425,4.7439) rotate(59.0362)">
			<title>Kracht.502</title>
			<path d="M7.55 164.07 L7.91 164.07 L28.35 164.07" class="st6"/>
		</g>
		<g id="shape190-226" v:mID="190" v:groupContext="shape" transform="translate(172.597,-12.6412) rotate(-30.9638)">
			<title>Kracht.503</title>
			<path d="M7.55 164.07 L7.91 164.07 L28.35 164.07" class="st6"/>
		</g>
		<g id="shape191-231" v:mID="191" v:groupContext="shape" transform="translate(293.46,-19.9298) rotate(30.9638) scale(-1,1)">
			<title>Moment.504</title>
			<path d="M-0 164.07 A14.1732 14.1732 0 0 1 14.17 149.9 A14.1732 14.1732 0 0 1 26.14 156.48 L26.24 156.82" class="st8"/>
		</g>
		<g id="shape192-236" v:mID="192" v:groupContext="shape" transform="translate(109.643,-34.514) rotate(-30.9638) scale(-1,1)">
			<title>Moment.505</title>
			<path d="M-0 164.07 A14.1732 14.1732 0 0 1 14.17 149.9 A14.1732 14.1732 0 0 1 26.14 156.48 L26.24 156.82" class="st8"/>
		</g>
		<g id="shape193-241" v:mID="193" v:groupContext="shape" transform="translate(392.673,-19.9298) rotate(30.9638) scale(-1,1)">
			<title>Moment.506</title>
			<path d="M-0 164.07 A14.1732 14.1732 0 0 1 14.17 149.9 A14.1732 14.1732 0 0 1 26.14 156.48 L26.24 156.82" class="st8"/>
		</g>
		<g id="shape194-246" v:mID="194" v:groupContext="shape" transform="translate(208.856,-34.514) rotate(-30.9638) scale(-1,1)">
			<title>Moment.507</title>
			<path d="M-0 164.07 A14.1732 14.1732 0 0 1 14.17 149.9 A14.1732 14.1732 0 0 1 26.14 156.48 L26.24 156.82" class="st8"/>
		</g>
		<g id="shape195-251" v:mID="195" v:groupContext="shape" transform="translate(33.4928,-130.579)">
			<title>Punt A.508</title>
			<desc>A</desc>
			<v:textBlock v:margins="rect(4,4,4,4)" v:tabSpace="42.5197"/>
			<v:textRect cx="7.08661" cy="156.986" width="14.18" height="14.1732"/>
			<rect x="0" y="149.899" width="14.1732" height="14.1732" class="st10"/>
			<text x="4" y="160.59" class="st11" v:langID="1043"><v:paragraph v:horizAlign="1"/><v:tabList/>A</text>		</g>
		<g id="shape196-254" v:mID="196" v:groupContext="shape" transform="translate(167.731,-24.2803)">
			<title>Punt A.509</title>
			<desc>B</desc>
			<v:textBlock v:margins="rect(4,4,4,4)" v:tabSpace="42.5197"/>
			<v:textRect cx="7.08661" cy="156.986" width="14.18" height="14.1732"/>
			<rect x="0" y="149.899" width="14.1732" height="14.1732" class="st10"/>
			<text x="4" y="160.59" class="st11" v:langID="1043"><v:paragraph v:horizAlign="1"/><v:tabList/>B</text>		</g>
		<g id="shape197-257" v:mID="197" v:groupContext="shape" transform="translate(266.944,-24.2803)">
			<title>Punt A.510</title>
			<desc>C</desc>
			<v:textBlock v:margins="rect(4,4,4,4)" v:tabSpace="42.5197"/>
			<v:textRect cx="7.08661" cy="156.986" width="14.18" height="14.1732"/>
			<rect x="0" y="149.899" width="14.1732" height="14.1732" class="st10"/>
			<text x="4" y="160.59" class="st11" v:langID="1043"><v:paragraph v:horizAlign="1"/><v:tabList/>C</text>		</g>
		<g id="shape198-260" v:mID="198" v:groupContext="shape" transform="translate(131.997,-130.579)">
			<title>Punt A.511</title>
			<desc>D</desc>
			<v:textBlock v:margins="rect(4,4,4,4)" v:tabSpace="42.5197"/>
			<v:textRect cx="7.08661" cy="156.986" width="14.18" height="14.1732"/>
			<rect x="0" y="149.899" width="14.1732" height="14.1732" class="st10"/>
			<text x="4" y="160.59" class="st11" v:langID="1043"><v:paragraph v:horizAlign="1"/><v:tabList/>D</text>		</g>
		<g id="shape199-263" v:mID="199" v:groupContext="shape" transform="translate(217.745,-130.579)">
			<title>Punt A.512</title>
			<desc>E</desc>
			<v:textBlock v:margins="rect(4,4,4,4)" v:tabSpace="42.5197"/>
			<v:textRect cx="7.08661" cy="156.986" width="14.18" height="14.1732"/>
			<rect x="0" y="149.899" width="14.1732" height="14.1732" class="st10"/>
			<text x="4" y="160.59" class="st11" v:langID="1043"><v:paragraph v:horizAlign="1"/><v:tabList/>E</text>		</g>
		<g id="shape200-266" v:mID="200" v:groupContext="shape" transform="translate(331.131,-130.579)">
			<title>Punt A.513</title>
			<desc>G</desc>
			<v:textBlock v:margins="rect(4,4,4,4)" v:tabSpace="42.5197"/>
			<v:textRect cx="7.08661" cy="156.986" width="14.18" height="14.1732"/>
			<rect x="0" y="149.899" width="14.1732" height="14.1732" class="st10"/>
			<text x="4" y="160.59" class="st11" v:langID="1043"><v:paragraph v:horizAlign="1"/><v:tabList/>G</text>		</g>
		<g id="shape201-269" v:mID="201" v:groupContext="shape" transform="translate(12.9451,-96.2094)">
			<title>Sheet.201</title>
			<desc>2</desc>
			<v:textBlock v:margins="rect(4,4,4,4)" v:tabSpace="42.5197"/>
			<v:textRect cx="10.9843" cy="152.911" width="21.97" height="22.3228"/>
			<rect x="0" y="141.749" width="21.9685" height="22.3228" class="st12"/>
			<text x="7.98" y="156.51" class="st13" v:langID="1043"><v:paragraph v:horizAlign="1"/><v:tabList/>2</text>		</g>
		<g id="shape202-272" v:mID="202" v:groupContext="shape" transform="translate(197.197,-11.5243)">
			<title>Sheet.202</title>
			<desc>2</desc>
			<v:textBlock v:margins="rect(4,4,4,4)" v:tabSpace="42.5197"/>
			<v:textRect cx="10.9843" cy="152.911" width="21.97" height="22.3228"/>
			<rect x="0" y="141.749" width="21.9685" height="22.3228" class="st12"/>
			<text x="7.98" y="156.51" class="st13" v:langID="1043"><v:paragraph v:horizAlign="1"/><v:tabList/>2</text>		</g>
		<g id="shape203-275" v:mID="203" v:groupContext="shape" transform="translate(293.929,-11.5243)">
			<title>Sheet.203</title>
			<desc>2</desc>
			<v:textBlock v:margins="rect(4,4,4,4)" v:tabSpace="42.5197"/>
			<v:textRect cx="10.9843" cy="152.911" width="21.97" height="22.3228"/>
			<rect x="0" y="141.749" width="21.9685" height="22.3228" class="st12"/>
			<text x="7.98" y="156.51" class="st13" v:langID="1043"><v:paragraph v:horizAlign="1"/><v:tabList/>2</text>		</g>
		<g id="shape204-278" v:mID="204" v:groupContext="shape" transform="translate(58.6538,-127.745)">
			<title>Sheet.204</title>
			<desc>2</desc>
			<v:textBlock v:margins="rect(4,4,4,4)" v:tabSpace="42.5197"/>
			<v:textRect cx="10.9843" cy="152.911" width="21.97" height="22.3228"/>
			<rect x="0" y="141.749" width="21.9685" height="22.3228" class="st12"/>
			<text x="7.98" y="156.51" class="st13" v:langID="1043"><v:paragraph v:horizAlign="1"/><v:tabList/>2</text>		</g>
		<g id="shape205-281" v:mID="205" v:groupContext="shape" transform="translate(100.819,-93.7291)">
			<title>Sheet.205</title>
			<desc>3</desc>
			<v:textBlock v:margins="rect(4,4,4,4)" v:tabSpace="42.5197"/>
			<v:textRect cx="10.9843" cy="152.911" width="21.97" height="22.3228"/>
			<rect x="0" y="141.749" width="21.9685" height="22.3228" class="st12"/>
			<text x="7.98" y="156.51" class="st13" v:langID="1043"><v:paragraph v:horizAlign="1"/><v:tabList/>3</text>		</g>
		<g id="shape206-284" v:mID="206" v:groupContext="shape" transform="translate(131.171,-82.0362)">
			<title>Sheet.206</title>
			<desc>2</desc>
			<v:textBlock v:margins="rect(4,4,4,4)" v:tabSpace="42.5197"/>
			<v:textRect cx="10.9843" cy="152.911" width="21.97" height="22.3228"/>
			<rect x="0" y="141.749" width="21.9685" height="22.3228" class="st12"/>
			<text x="7.98" y="156.51" class="st13" v:langID="1043"><v:paragraph v:horizAlign="1"/><v:tabList/>2</text>		</g>
		<g id="shape207-287" v:mID="207" v:groupContext="shape" transform="translate(160.347,-130.579)">
			<title>Sheet.207</title>
			<desc>3</desc>
			<v:textBlock v:margins="rect(4,4,4,4)" v:tabSpace="42.5197"/>
			<v:textRect cx="10.9843" cy="152.911" width="21.97" height="22.3228"/>
			<rect x="0" y="141.749" width="21.9685" height="22.3228" class="st12"/>
			<text x="7.98" y="156.51" class="st13" v:langID="1043"><v:paragraph v:horizAlign="1"/><v:tabList/>3</text>		</g>
		<g id="shape208-290" v:mID="208" v:groupContext="shape" transform="translate(202.512,-102.233)">
			<title>Sheet.208</title>
			<desc>2</desc>
			<v:textBlock v:margins="rect(4,4,4,4)" v:tabSpace="42.5197"/>
			<v:textRect cx="10.9843" cy="152.911" width="21.97" height="22.3228"/>
			<rect x="0" y="141.749" width="21.9685" height="22.3228" class="st12"/>
			<text x="7.98" y="156.51" class="st13" v:langID="1043"><v:paragraph v:horizAlign="1"/><v:tabList/>2</text>		</g>
		<g id="shape209-293" v:mID="209" v:groupContext="shape" transform="translate(257.079,-124.91)">
			<title>Sheet.209</title>
			<desc>1</desc>
			<v:textBlock v:margins="rect(4,4,4,4)" v:tabSpace="42.5197"/>
			<v:textRect cx="10.9843" cy="152.911" width="21.97" height="22.3228"/>
			<rect x="0" y="141.749" width="21.9685" height="22.3228" class="st12"/>
			<text x="7.98" y="156.51" class="st13" v:langID="1043"><v:paragraph v:horizAlign="1"/><v:tabList/>1</text>		</g>
		<g id="shape210-296" v:mID="210" v:groupContext="shape" transform="translate(253.529,-96.7865)">
			<title>Sheet.210</title>
			<desc>2</desc>
			<v:textBlock v:margins="rect(4,4,4,4)" v:tabSpace="42.5197"/>
			<v:textRect cx="10.9843" cy="152.911" width="21.97" height="22.3228"/>
			<rect x="0" y="141.749" width="21.9685" height="22.3228" class="st12"/>
			<text x="7.98" y="156.51" class="st13" v:langID="1043"><v:paragraph v:horizAlign="1"/><v:tabList/>2</text>		</g>
		<g id="shape211-299" v:mID="211" v:groupContext="shape" transform="translate(223.063,-82.3905)">
			<title>Sheet.211</title>
			<desc>2</desc>
			<v:textBlock v:margins="rect(4,4,4,4)" v:tabSpace="42.5197"/>
			<v:textRect cx="10.9843" cy="152.911" width="21.97" height="22.3228"/>
			<rect x="0" y="141.749" width="21.9685" height="22.3228" class="st12"/>
			<text x="7.98" y="156.51" class="st13" v:langID="1043"><v:paragraph v:horizAlign="1"/><v:tabList/>2</text>		</g>
		<g id="shape212-302" v:mID="212" v:groupContext="shape" transform="translate(298.89,-124.733)">
			<title>Sheet.212</title>
			<desc>1</desc>
			<v:textBlock v:margins="rect(4,4,4,4)" v:tabSpace="42.5197"/>
			<v:textRect cx="10.9843" cy="152.911" width="21.97" height="22.3228"/>
			<rect x="0" y="141.749" width="21.9685" height="22.3228" class="st12"/>
			<text x="7.98" y="156.51" class="st13" v:langID="1043"><v:paragraph v:horizAlign="1"/><v:tabList/>1</text>		</g>
		<g id="shape213-305" v:mID="213" v:groupContext="shape" transform="translate(324.869,-79.5131)">
			<title>Sheet.213</title>
			<desc>2</desc>
			<v:textBlock v:margins="rect(4,4,4,4)" v:tabSpace="42.5197"/>
			<v:textRect cx="10.9843" cy="152.911" width="21.97" height="22.3228"/>
			<rect x="0" y="141.749" width="21.9685" height="22.3228" class="st12"/>
			<text x="7.98" y="156.51" class="st13" v:langID="1043"><v:paragraph v:horizAlign="1"/><v:tabList/>2</text>		</g>
		<g id="shape214-308" v:mID="214" v:groupContext="shape" transform="translate(308.103,-43.3114)">
			<title>Sheet.214</title>
			<desc>3</desc>
			<v:textBlock v:margins="rect(4,4,4,4)" v:tabSpace="42.5197"/>
			<v:textRect cx="10.9843" cy="152.911" width="21.97" height="22.3228"/>
			<rect x="0" y="141.749" width="21.9685" height="22.3228" class="st12"/>
			<text x="7.98" y="156.51" class="st13" v:langID="1043"><v:paragraph v:horizAlign="1"/><v:tabList/>3</text>		</g>
		<g id="shape215-311" v:mID="215" v:groupContext="shape" transform="translate(240.071,-42.7054)">
			<title>Sheet.215</title>
			<desc>3</desc>
			<v:textBlock v:margins="rect(4,4,4,4)" v:tabSpace="42.5197"/>
			<v:textRect cx="10.9843" cy="152.911" width="21.97" height="22.3228"/>
			<rect x="0" y="141.749" width="21.9685" height="22.3228" class="st12"/>
			<text x="7.98" y="156.51" class="st13" v:langID="1043"><v:paragraph v:horizAlign="1"/><v:tabList/>3</text>		</g>
		<g id="shape216-314" v:mID="216" v:groupContext="shape" transform="translate(213.199,-42.7054)">
			<title>Sheet.216</title>
			<desc>3</desc>
			<v:textBlock v:margins="rect(4,4,4,4)" v:tabSpace="42.5197"/>
			<v:textRect cx="10.9843" cy="152.911" width="21.97" height="22.3228"/>
			<rect x="0" y="141.749" width="21.9685" height="22.3228" class="st12"/>
			<text x="7.98" y="156.51" class="st13" v:langID="1043"><v:paragraph v:horizAlign="1"/><v:tabList/>3</text>		</g>
		<g id="shape217-317" v:mID="217" v:groupContext="shape" transform="translate(140.858,-42.5283)">
			<title>Sheet.217</title>
			<desc>3</desc>
			<v:textBlock v:margins="rect(4,4,4,4)" v:tabSpace="42.5197"/>
			<v:textRect cx="10.9843" cy="152.911" width="21.97" height="22.3228"/>
			<rect x="0" y="141.749" width="21.9685" height="22.3228" class="st12"/>
			<text x="7.98" y="156.51" class="st13" v:langID="1043"><v:paragraph v:horizAlign="1"/><v:tabList/>3</text>		</g>
	</g>
</svg>
