<?xml version="1.0" encoding="UTF-8" standalone="no"?>
<!DOCTYPE svg PUBLIC "-//W3C//DTD SVG 1.1//EN" "http://www.w3.org/Graphics/SVG/1.1/DTD/svg11.dtd">
<!-- Generated by Microsoft Visio, SVG Export Oefening_3.svg Page-1 -->
<svg xmlns="http://www.w3.org/2000/svg" xmlns:xlink="http://www.w3.org/1999/xlink" xmlns:ev="http://www.w3.org/2001/xml-events"
		xmlns:v="http://schemas.microsoft.com/visio/2003/SVGExtensions/" width="7.56992in" height="2.98055in"
		viewBox="0 0 545.034 214.6" xml:space="preserve" color-interpolation-filters="sRGB" class="st7">
	<v:documentProperties v:langID="1043" v:metric="true" v:viewMarkup="false"/>

	<style type="text/css">
	<![CDATA[
		.st1 {stroke:#000000;stroke-linecap:round;stroke-linejoin:round;stroke-opacity:0.5;stroke-width:2}
		.st2 {marker-start:url(#mrkr5-27);stroke:#31859b;stroke-linecap:round;stroke-linejoin:round;stroke-width:2}
		.st3 {fill:#31859b;fill-opacity:1;stroke:#31859b;stroke-opacity:1;stroke-width:0.4424778761062}
		.st4 {marker-end:url(#mrkr5-48);stroke:#31859b;stroke-linecap:round;stroke-linejoin:round;stroke-width:2}
		.st5 {fill:none;stroke:none;stroke-linecap:round;stroke-linejoin:round;stroke-width:0.75}
		.st6 {fill:#000000;font-family:Times New Roman;font-size:1.00001em}
		.st7 {fill:none;fill-rule:evenodd;font-size:12px;overflow:visible;stroke-linecap:square;stroke-miterlimit:3}
	]]>
	</style>

	<defs id="Markers">
		<g id="lend5">
			<path d="M 2 1 L 0 0 L 1.98117 -0.993387 C 1.67173 -0.364515 1.67301 0.372641 1.98465 1.00043 " style="stroke:none"/>
		</g>
		<marker id="mrkr5-27" class="st3" v:arrowType="5" v:arrowSize="2" v:setback="3.775" refX="3.775" orient="auto"
				markerUnits="strokeWidth" overflow="visible">
			<use xlink:href="#lend5" transform="scale(2.26) "/>
		</marker>
		<marker id="mrkr5-48" class="st3" v:arrowType="5" v:arrowSize="2" v:setback="3.775" refX="-3.775" orient="auto"
				markerUnits="strokeWidth" overflow="visible">
			<use xlink:href="#lend5" transform="scale(-2.26,-2.26) "/>
		</marker>
	</defs>
	<g v:mID="0" v:index="1" v:groupContext="foregroundPage">
		<title>Page-1</title>
		<v:pageProperties v:drawingScale="0.0393701" v:pageScale="0.0393701" v:drawingUnits="24" v:shadowOffsetX="8.50394"
				v:shadowOffsetY="-8.50394"/>
		<g id="shape218-1" v:mID="218" v:groupContext="shape" transform="translate(38.4535,-176.146)">
			<title>Ligger, 2 pt.550</title>
			<path d="M0 214.6 L85.04 214.6" class="st1"/>
		</g>
		<g id="shape219-4" v:mID="219" v:groupContext="shape" transform="translate(399.871,-176.146)">
			<title>Ligger, 2 pt.551</title>
			<path d="M0 214.6 L85.04 214.6" class="st1"/>
		</g>
		<g id="shape220-7" v:mID="220" v:groupContext="shape" transform="translate(548.455,-1.09099) rotate(59.0362)">
			<title>Ligger, 2 pt.552</title>
			<path d="M0 214.6 L82.64 214.6" class="st1"/>
		</g>
		<g id="shape221-10" v:mID="221" v:groupContext="shape" transform="translate(513.022,219.73) rotate(120.964)">
			<title>Ligger, 2 pt.553</title>
			<path d="M0 214.6 L82.64 214.6" class="st1"/>
		</g>
		<g id="shape222-13" v:mID="222" v:groupContext="shape" transform="translate(704.361,219.73) rotate(120.964)">
			<title>Ligger, 2 pt.554</title>
			<path d="M0 214.6 L82.64 214.6" class="st1"/>
		</g>
		<g id="shape223-16" v:mID="223" v:groupContext="shape" transform="translate(357.117,-1.09099) rotate(59.0362)">
			<title>Ligger, 2 pt.555</title>
			<path d="M0 214.6 L82.64 214.6" class="st1"/>
		</g>
		<g id="shape224-19" v:mID="224" v:groupContext="shape" transform="translate(208.532,-176.146)">
			<title>Ligger, 2 pt.556</title>
			<path d="M0 214.6 L85.04 214.6" class="st1"/>
		</g>
		<g id="shape225-22" v:mID="225" v:groupContext="shape" transform="translate(10.107,-176.146)">
			<title>Kracht.557</title>
			<path d="M7.55 214.6 L7.91 214.6 L28.35 214.6" class="st2"/>
		</g>
		<g id="shape226-28" v:mID="226" v:groupContext="shape" transform="translate(253.053,38.4535) rotate(90)">
			<title>Kracht.558</title>
			<path d="M7.55 214.6 L7.91 214.6 L28.35 214.6" class="st2"/>
		</g>
		<g id="shape227-33" v:mID="227" v:groupContext="shape" transform="translate(-91.1068,38.4535) rotate(-90)">
			<title>Kracht.559</title>
			<path d="M7.55 214.6 L7.91 214.6 L28.35 214.6" class="st2"/>
		</g>
		<g id="shape228-38" v:mID="228" v:groupContext="shape" transform="translate(151.839,253.053) rotate(180)">
			<title>Kracht.560</title>
			<path d="M7.55 214.6 L7.91 214.6 L28.35 214.6" class="st2"/>
		</g>
		<g id="shape229-43" v:mID="229" v:groupContext="shape" transform="translate(338.093,52.6267) rotate(90) scale(-1,1)">
			<title>Moment.561</title>
			<path d="M-0 214.6 A14.1732 14.1732 0 0 1 14.17 200.43 A14.1732 14.1732 0 0 1 26.14 207 L26.24 207.35" class="st4"/>
		</g>
		<g id="shape230-49" v:mID="230" v:groupContext="shape" transform="translate(423.132,38.4535) rotate(90)">
			<title>Kracht.562</title>
			<path d="M7.55 214.6 L7.91 214.6 L28.35 214.6" class="st2"/>
		</g>
		<g id="shape231-54" v:mID="231" v:groupContext="shape" transform="translate(180.186,-176.146)">
			<title>Kracht.563</title>
			<path d="M7.55 214.6 L7.91 214.6 L28.35 214.6" class="st2"/>
		</g>
		<g id="shape232-59" v:mID="232" v:groupContext="shape" transform="translate(-6.06747,52.6267) rotate(-90)">
			<title>Moment.564</title>
			<path d="M-0 214.6 A14.1732 14.1732 0 0 1 14.17 200.43 A14.1732 14.1732 0 0 1 26.14 207 L26.24 207.35" class="st4"/>
		</g>
		<g id="shape233-64" v:mID="233" v:groupContext="shape" transform="translate(342.533,-25.398) rotate(59.0362)">
			<title>Kracht.565</title>
			<path d="M7.55 214.6 L7.91 214.6 L28.35 214.6" class="st2"/>
		</g>
		<g id="shape234-69" v:mID="234" v:groupContext="shape" transform="translate(307.817,278.753) rotate(149.036)">
			<title>Kracht.566</title>
			<path d="M7.55 214.6 L7.91 214.6 L28.35 214.6" class="st2"/>
		</g>
		<g id="shape235-74" v:mID="235" v:groupContext="shape" transform="translate(321.918,253.053) rotate(180)">
			<title>Kracht.567</title>
			<path d="M7.55 214.6 L7.91 214.6 L28.35 214.6" class="st2"/>
		</g>
		<g id="shape236-79" v:mID="236" v:groupContext="shape" transform="translate(78.9719,38.4535) rotate(-90)">
			<title>Kracht.568</title>
			<path d="M7.55 214.6 L7.91 214.6 L28.35 214.6" class="st2"/>
		</g>
		<g id="shape237-84" v:mID="237" v:groupContext="shape" transform="translate(371.524,-176.146)">
			<title>Kracht.569</title>
			<path d="M7.55 214.6 L7.91 214.6 L28.35 214.6" class="st2"/>
		</g>
		<g id="shape238-89" v:mID="238" v:groupContext="shape" transform="translate(513.257,253.053) rotate(180)">
			<title>Kracht.570</title>
			<path d="M7.55 214.6 L7.91 214.6 L28.35 214.6" class="st2"/>
		</g>
		<g id="shape239-94" v:mID="239" v:groupContext="shape" transform="translate(718.945,195.424) rotate(120.964)">
			<title>Kracht.571</title>
			<path d="M7.55 214.6 L7.91 214.6 L28.35 214.6" class="st2"/>
		</g>
		<g id="shape240-99" v:mID="240" v:groupContext="shape" transform="translate(606.447,-89.2822) rotate(30.9638)">
			<title>Kracht.572</title>
			<path d="M7.55 214.6 L7.91 214.6 L28.35 214.6" class="st2"/>
		</g>
		<g id="shape241-104" v:mID="241" v:groupContext="shape" transform="translate(533.871,-25.398) rotate(59.0362)">
			<title>Kracht.573</title>
			<path d="M7.55 214.6 L7.91 214.6 L28.35 214.6" class="st2"/>
		</g>
		<g id="shape242-109" v:mID="242" v:groupContext="shape" transform="translate(229.72,-60.1138) rotate(-30.9638)">
			<title>Kracht.574</title>
			<path d="M7.55 214.6 L7.91 214.6 L28.35 214.6" class="st2"/>
		</g>
		<g id="shape243-114" v:mID="243" v:groupContext="shape" transform="translate(527.606,195.424) rotate(120.964)">
			<title>Kracht.575</title>
			<path d="M7.55 214.6 L7.91 214.6 L28.35 214.6" class="st2"/>
		</g>
		<g id="shape244-119" v:mID="244" v:groupContext="shape" transform="translate(415.109,-89.2821) rotate(30.9638)">
			<title>Kracht.576</title>
			<path d="M7.55 214.6 L7.91 214.6 L28.35 214.6" class="st2"/>
		</g>
		<g id="shape245-124" v:mID="245" v:groupContext="shape" transform="translate(279.222,94.0819) rotate(-59.0362)">
			<title>Kracht.577</title>
			<path d="M7.55 214.6 L7.91 214.6 L28.35 214.6" class="st2"/>
		</g>
		<g id="shape246-129" v:mID="246" v:groupContext="shape" transform="translate(563.927,-18.416) rotate(30.9638)">
			<title>Kracht.578</title>
			<path d="M7.55 214.6 L7.91 214.6 L28.35 214.6" class="st2"/>
		</g>
		<g id="shape247-134" v:mID="247" v:groupContext="shape" transform="translate(237.524,314.903) rotate(-120.964)">
			<title>Kracht.579</title>
			<path d="M7.55 214.6 L7.91 214.6 L28.35 214.6" class="st2"/>
		</g>
		<g id="shape248-139" v:mID="248" v:groupContext="shape" transform="translate(541.675,349.619) rotate(149.036)">
			<title>Kracht.580</title>
			<path d="M7.55 214.6 L7.91 214.6 L28.35 214.6" class="st2"/>
		</g>
		<g id="shape249-144" v:mID="249" v:groupContext="shape" transform="translate(379.442,371.495) rotate(-149.036)">
			<title>Moment.581</title>
			<path d="M-0 214.6 A14.1732 14.1732 0 0 1 14.17 200.43 A14.1732 14.1732 0 0 1 26.14 207 L26.24 207.35" class="st4"/>
		</g>
		<g id="shape250-149" v:mID="250" v:groupContext="shape" transform="translate(529.929,356.911) rotate(149.036)">
			<title>Moment.582</title>
			<path d="M-0 214.6 A14.1732 14.1732 0 0 1 14.17 200.43 A14.1732 14.1732 0 0 1 26.14 207 L26.24 207.35" class="st4"/>
		</g>
		<g id="shape251-154" v:mID="251" v:groupContext="shape" transform="translate(46.1854,314.903) rotate(-120.964)">
			<title>Kracht.583</title>
			<path d="M7.55 214.6 L7.91 214.6 L28.35 214.6" class="st2"/>
		</g>
		<g id="shape252-159" v:mID="252" v:groupContext="shape" transform="translate(350.336,349.619) rotate(149.036)">
			<title>Kracht.584</title>
			<path d="M7.55 214.6 L7.91 214.6 L28.35 214.6" class="st2"/>
		</g>
		<g id="shape253-164" v:mID="253" v:groupContext="shape" transform="translate(338.466,356.628) rotate(149.036)">
			<title>Moment.585</title>
			<path d="M-0 214.6 A14.1732 14.1732 0 0 1 14.17 200.43 A14.1732 14.1732 0 0 1 26.14 207 L26.24 207.35" class="st4"/>
		</g>
		<g id="shape254-169" v:mID="254" v:groupContext="shape" transform="translate(87.8832,94.0819) rotate(-59.0362)">
			<title>Kracht.586</title>
			<path d="M7.55 214.6 L7.91 214.6 L28.35 214.6" class="st2"/>
		</g>
		<g id="shape255-174" v:mID="255" v:groupContext="shape" transform="translate(372.589,-18.416) rotate(30.9638)">
			<title>Kracht.587</title>
			<path d="M7.55 214.6 L7.91 214.6 L28.35 214.6" class="st2"/>
		</g>
		<g id="shape256-179" v:mID="256" v:groupContext="shape" transform="translate(187.82,371.496) rotate(-149.036)">
			<title>Moment.588</title>
			<path d="M-0 214.6 A14.1732 14.1732 0 0 1 14.17 200.43 A14.1732 14.1732 0 0 1 26.14 207 L26.24 207.35" class="st4"/>
		</g>
		<g id="shape257-184" v:mID="257" v:groupContext="shape" transform="translate(15.7763,-148.154)">
			<title>Sheet.257</title>
			<desc>2</desc>
			<v:textBlock v:margins="rect(4,4,4,4)" v:tabSpace="42.5197"/>
			<v:textRect cx="10.9843" cy="203.438" width="21.97" height="22.3228"/>
			<rect x="0" y="192.277" width="21.9685" height="22.3228" class="st5"/>
			<text x="7.98" y="207.04" class="st6" v:langID="1043"><v:paragraph v:horizAlign="1"/><v:tabList/>2</text>		</g>
		<g id="shape258-187" v:mID="258" v:groupContext="shape" transform="translate(134.831,-181.993)">
			<title>Sheet.258</title>
			<desc>3</desc>
			<v:textBlock v:margins="rect(4,4,4,4)" v:tabSpace="42.5197"/>
			<v:textRect cx="10.9843" cy="203.438" width="21.97" height="22.3228"/>
			<rect x="0" y="192.277" width="21.9685" height="22.3228" class="st5"/>
			<text x="7.98" y="207.04" class="st6" v:langID="1043"><v:paragraph v:horizAlign="1"/><v:tabList/>3</text>		</g>
		<g id="shape259-190" v:mID="259" v:groupContext="shape" transform="translate(175.225,-181.993)">
			<title>Sheet.259</title>
			<desc>3</desc>
			<v:textBlock v:margins="rect(4,4,4,4)" v:tabSpace="42.5197"/>
			<v:textRect cx="10.9843" cy="203.438" width="21.97" height="22.3228"/>
			<rect x="0" y="192.277" width="21.9685" height="22.3228" class="st5"/>
			<text x="7.98" y="207.04" class="st6" v:langID="1043"><v:paragraph v:horizAlign="1"/><v:tabList/>3</text>		</g>
		<g id="shape260-193" v:mID="260" v:groupContext="shape" transform="translate(297.172,-181.993)">
			<title>Sheet.260</title>
			<desc>2</desc>
			<v:textBlock v:margins="rect(4,4,4,4)" v:tabSpace="42.5197"/>
			<v:textRect cx="10.9843" cy="203.438" width="21.97" height="22.3228"/>
			<rect x="0" y="192.277" width="21.9685" height="22.3228" class="st5"/>
			<text x="7.98" y="207.04" class="st6" v:langID="1043"><v:paragraph v:horizAlign="1"/><v:tabList/>2</text>		</g>
		<g id="shape261-196" v:mID="261" v:groupContext="shape" transform="translate(379.022,-179.158)">
			<title>Sheet.261</title>
			<desc>1</desc>
			<v:textBlock v:margins="rect(4,4,4,4)" v:tabSpace="42.5197"/>
			<v:textRect cx="10.9843" cy="203.438" width="21.97" height="22.3228"/>
			<rect x="0" y="192.277" width="21.9685" height="22.3228" class="st5"/>
			<text x="7.98" y="207.04" class="st6" v:langID="1043"><v:paragraph v:horizAlign="1"/><v:tabList/>1</text>		</g>
		<g id="shape262-199" v:mID="262" v:groupContext="shape" transform="translate(489.573,-179.158)">
			<title>Sheet.262</title>
			<desc>1</desc>
			<v:textBlock v:margins="rect(4,4,4,4)" v:tabSpace="42.5197"/>
			<v:textRect cx="10.9843" cy="203.438" width="21.97" height="22.3228"/>
			<rect x="0" y="192.277" width="21.9685" height="22.3228" class="st5"/>
			<text x="7.98" y="207.04" class="st6" v:langID="1043"><v:paragraph v:horizAlign="1"/><v:tabList/>1</text>		</g>
		<g id="shape263-202" v:mID="263" v:groupContext="shape" transform="translate(167.132,-108.469)">
			<title>Sheet.263</title>
			<desc>2</desc>
			<v:textBlock v:margins="rect(4,4,4,4)" v:tabSpace="42.5197"/>
			<v:textRect cx="10.9843" cy="203.438" width="21.97" height="22.3228"/>
			<rect x="0" y="192.277" width="21.9685" height="22.3228" class="st5"/>
			<text x="7.98" y="207.04" class="st6" v:langID="1043"><v:paragraph v:horizAlign="1"/><v:tabList/>2</text>		</g>
		<g id="shape264-205" v:mID="264" v:groupContext="shape" transform="translate(314.179,-110.949)">
			<title>Sheet.264</title>
			<desc>2</desc>
			<v:textBlock v:margins="rect(4,4,4,4)" v:tabSpace="42.5197"/>
			<v:textRect cx="10.9843" cy="203.438" width="21.97" height="22.3228"/>
			<rect x="0" y="192.277" width="21.9685" height="22.3228" class="st5"/>
			<text x="7.98" y="207.04" class="st6" v:langID="1043"><v:paragraph v:horizAlign="1"/><v:tabList/>2</text>		</g>
		<g id="shape265-208" v:mID="265" v:groupContext="shape" transform="translate(359.888,-108.115)">
			<title>Sheet.265</title>
			<desc>2</desc>
			<v:textBlock v:margins="rect(4,4,4,4)" v:tabSpace="42.5197"/>
			<v:textRect cx="10.9843" cy="203.438" width="21.97" height="22.3228"/>
			<rect x="0" y="192.277" width="21.9685" height="22.3228" class="st5"/>
			<text x="7.98" y="207.04" class="st6" v:langID="1043"><v:paragraph v:horizAlign="1"/><v:tabList/>2</text>		</g>
		<g id="shape266-211" v:mID="266" v:groupContext="shape" transform="translate(506.581,-108.115)">
			<title>Sheet.266</title>
			<desc>2</desc>
			<v:textBlock v:margins="rect(4,4,4,4)" v:tabSpace="42.5197"/>
			<v:textRect cx="10.9843" cy="203.438" width="21.97" height="22.3228"/>
			<rect x="0" y="192.277" width="21.9685" height="22.3228" class="st5"/>
			<text x="7.98" y="207.04" class="st6" v:langID="1043"><v:paragraph v:horizAlign="1"/><v:tabList/>2</text>		</g>
		<g id="shape267-214" v:mID="267" v:groupContext="shape" transform="translate(463.526,-37.0714)">
			<title>Sheet.267</title>
			<desc>3</desc>
			<v:textBlock v:margins="rect(4,4,4,4)" v:tabSpace="42.5197"/>
			<v:textRect cx="10.9843" cy="203.438" width="21.97" height="22.3228"/>
			<rect x="0" y="192.277" width="21.9685" height="22.3228" class="st5"/>
			<text x="7.98" y="207.04" class="st6" v:langID="1043"><v:paragraph v:horizAlign="1"/><v:tabList/>3</text>		</g>
		<g id="shape268-217" v:mID="268" v:groupContext="shape" transform="translate(399.57,-40.4375)">
			<title>Sheet.268</title>
			<desc>3</desc>
			<v:textBlock v:margins="rect(4,4,4,4)" v:tabSpace="42.5197"/>
			<v:textRect cx="10.9843" cy="203.438" width="21.97" height="22.3228"/>
			<rect x="0" y="192.277" width="21.9685" height="22.3228" class="st5"/>
			<text x="7.98" y="207.04" class="st6" v:langID="1043"><v:paragraph v:horizAlign="1"/><v:tabList/>3</text>		</g>
		<g id="shape269-220" v:mID="269" v:groupContext="shape" transform="translate(271.904,-39.906)">
			<title>Sheet.269</title>
			<desc>3</desc>
			<v:textBlock v:margins="rect(4,4,4,4)" v:tabSpace="42.5197"/>
			<v:textRect cx="10.9843" cy="203.438" width="21.97" height="22.3228"/>
			<rect x="0" y="192.277" width="21.9685" height="22.3228" class="st5"/>
			<text x="7.98" y="207.04" class="st6" v:langID="1043"><v:paragraph v:horizAlign="1"/><v:tabList/>3</text>		</g>
		<g id="shape270-223" v:mID="270" v:groupContext="shape" transform="translate(208.107,-40.4375)">
			<title>Sheet.270</title>
			<desc>3</desc>
			<v:textBlock v:margins="rect(4,4,4,4)" v:tabSpace="42.5197"/>
			<v:textRect cx="10.9843" cy="203.438" width="21.97" height="22.3228"/>
			<rect x="0" y="192.277" width="21.9685" height="22.3228" class="st5"/>
			<text x="7.98" y="207.04" class="st6" v:langID="1043"><v:paragraph v:horizAlign="1"/><v:tabList/>3</text>		</g>
	</g>
</svg>
