<?xml version="1.0" encoding="UTF-8" standalone="no"?>
<!DOCTYPE svg PUBLIC "-//W3C//DTD SVG 1.1//EN" "http://www.w3.org/Graphics/SVG/1.1/DTD/svg11.dtd">
<!-- Generated by Microsoft Visio, SVG Export Oefening_4.svg Page-1 -->
<svg xmlns="http://www.w3.org/2000/svg" xmlns:xlink="http://www.w3.org/1999/xlink" xmlns:ev="http://www.w3.org/2001/xml-events"
		xmlns:v="http://schemas.microsoft.com/visio/2003/SVGExtensions/" width="5.07415in" height="2.27878in"
		viewBox="0 0 365.339 164.072" xml:space="preserve" color-interpolation-filters="sRGB" class="st12">
	<v:documentProperties v:langID="1043" v:metric="true" v:viewMarkup="false"/>

	<style type="text/css">
	<![CDATA[
		.st1 {stroke:#000000;stroke-linecap:round;stroke-linejoin:round;stroke-width:2}
		.st2 {marker-start:url(#mrkr5-21);stroke:#800000;stroke-linecap:round;stroke-linejoin:round;stroke-opacity:0.5;stroke-width:2}
		.st3 {fill:#800000;fill-opacity:0.5;stroke:#800000;stroke-opacity:0.5;stroke-width:0.4424778761062}
		.st4 {marker-start:url(#mrkr5-27);stroke:#00cc99;stroke-linecap:round;stroke-linejoin:round;stroke-opacity:0.5;stroke-width:2}
		.st5 {fill:#00cc99;fill-opacity:0.5;stroke:#00cc99;stroke-opacity:0.5;stroke-width:0.4424778761062}
		.st6 {marker-start:url(#mrkr5-58);stroke:#31859b;stroke-linecap:round;stroke-linejoin:round;stroke-opacity:0.5;stroke-width:2}
		.st7 {fill:#31859b;fill-opacity:0.5;stroke:#31859b;stroke-opacity:0.5;stroke-width:0.4424778761062}
		.st8 {marker-end:url(#mrkr5-99);stroke:#31859b;stroke-linecap:round;stroke-linejoin:round;stroke-opacity:0.5;stroke-width:2}
		.st9 {fill:#ffffff;stroke:#000000;stroke-linecap:round;stroke-linejoin:round;stroke-width:0.75}
		.st10 {fill:none;stroke:none;stroke-linecap:round;stroke-linejoin:round;stroke-width:0.75}
		.st11 {fill:#000000;font-family:Times New Roman;font-size:1.00001em}
		.st12 {fill:none;fill-rule:evenodd;font-size:12px;overflow:visible;stroke-linecap:square;stroke-miterlimit:3}
	]]>
	</style>

	<defs id="Markers">
		<g id="lend5">
			<path d="M 2 1 L 0 0 L 1.98117 -0.993387 C 1.67173 -0.364515 1.67301 0.372641 1.98465 1.00043 " style="stroke:none"/>
		</g>
		<marker id="mrkr5-21" class="st3" v:arrowType="5" v:arrowSize="2" v:setback="3.775" refX="3.775" orient="auto"
				markerUnits="strokeWidth" overflow="visible">
			<use xlink:href="#lend5" transform="scale(2.26) "/>
		</marker>
		<marker id="mrkr5-27" class="st5" v:arrowType="5" v:arrowSize="2" v:setback="3.775" refX="3.775" orient="auto"
				markerUnits="strokeWidth" overflow="visible">
			<use xlink:href="#lend5" transform="scale(2.26) "/>
		</marker>
		<marker id="mrkr5-58" class="st7" v:arrowType="5" v:arrowSize="2" v:setback="3.775" refX="3.775" orient="auto"
				markerUnits="strokeWidth" overflow="visible">
			<use xlink:href="#lend5" transform="scale(2.26) "/>
		</marker>
		<marker id="mrkr5-99" class="st7" v:arrowType="5" v:arrowSize="2" v:setback="3.775" refX="-3.775" orient="auto"
				markerUnits="strokeWidth" overflow="visible">
			<use xlink:href="#lend5" transform="scale(-2.26,-2.26) "/>
		</marker>
	</defs>
	<g v:mID="0" v:index="1" v:groupContext="foregroundPage">
		<title>Page-1</title>
		<v:pageProperties v:drawingScale="0.0393701" v:pageScale="0.0393701" v:drawingUnits="24" v:shadowOffsetX="8.50394"
				v:shadowOffsetY="-8.50394"/>
		<g id="shape271-1" v:mID="271" v:groupContext="shape" transform="translate(40.5794,-123.493)">
			<title>Ligger, 2 pt.603</title>
			<path d="M0 164.07 L14.17 164.07" class="st1"/>
		</g>
		<g id="shape272-4" v:mID="272" v:groupContext="shape" transform="translate(379.695,124.994) rotate(120.964)">
			<title>Ligger, 2 pt.604</title>
			<path d="M0 164.07 L14.17 164.07" class="st1"/>
		</g>
		<g id="shape273-7" v:mID="273" v:groupContext="shape" transform="translate(280.483,-43.835) rotate(59.0362)">
			<title>Ligger, 2 pt.605</title>
			<path d="M0 164.07 L2.83 164.07" class="st1"/>
		</g>
		<g id="shape274-10" v:mID="274" v:groupContext="shape" transform="translate(322.797,29.0509) rotate(59.0362)">
			<title>Ligger, 2 pt.606</title>
			<path d="M0 164.07 L14.17 164.07" class="st1"/>
		</g>
		<g id="shape275-13" v:mID="275" v:groupContext="shape" transform="translate(337.381,197.88) rotate(120.964)">
			<title>Ligger, 2 pt.607</title>
			<path d="M0 164.07 L14.17 164.07" class="st1"/>
		</g>
		<g id="shape276-16" v:mID="276" v:groupContext="shape" transform="translate(74.9323,38.4535) rotate(-90)">
			<title>Kracht.608</title>
			<path d="M7.55 164.07 L7.91 164.07 L28.35 164.07" class="st2"/>
		</g>
		<g id="shape277-22" v:mID="277" v:groupContext="shape" transform="translate(204.652,42.7055) rotate(90)">
			<title>Kracht.609</title>
			<path d="M7.55 164.07 L7.91 164.07 L28.35 164.07" class="st4"/>
		</g>
		<g id="shape278-28" v:mID="278" v:groupContext="shape" transform="translate(353.471,125.619) rotate(90)">
			<title>Kracht.610</title>
			<path d="M7.55 164.07 L7.91 164.07 L28.35 164.07" class="st4"/>
		</g>
		<g id="shape279-33" v:mID="279" v:groupContext="shape" transform="translate(452.683,125.619) rotate(90)">
			<title>Kracht.611</title>
			<path d="M7.55 164.07 L7.91 164.07 L28.35 164.07" class="st4"/>
		</g>
		<g id="shape280-38" v:mID="280" v:groupContext="shape" transform="translate(288.611,-38.4535)">
			<title>Kracht.612</title>
			<path d="M7.55 164.07 L7.91 164.07 L28.35 164.07" class="st4"/>
		</g>
		<g id="shape281-43" v:mID="281" v:groupContext="shape" transform="translate(189.398,-38.4535)">
			<title>Kracht.613</title>
			<path d="M7.55 164.07 L7.91 164.07 L28.35 164.07" class="st4"/>
		</g>
		<g id="shape282-48" v:mID="282" v:groupContext="shape" transform="translate(38.4535,204.652) rotate(180)">
			<title>Kracht.614</title>
			<path d="M7.55 164.07 L7.91 164.07 L28.35 164.07" class="st4"/>
		</g>
		<g id="shape283-53" v:mID="283" v:groupContext="shape" transform="translate(83.0991,204.652) rotate(180)">
			<title>Kracht.615</title>
			<path d="M7.55 164.07 L7.91 164.07 L28.35 164.07" class="st6"/>
		</g>
		<g id="shape284-59" v:mID="284" v:groupContext="shape" transform="translate(-109.32,40.5795) rotate(-90)">
			<title>Kracht.616</title>
			<path d="M7.55 164.07 L7.91 164.07 L28.35 164.07" class="st6"/>
		</g>
		<g id="shape285-64" v:mID="285" v:groupContext="shape" transform="translate(-10.1071,40.5795) rotate(-90)">
			<title>Kracht.617</title>
			<path d="M7.55 164.07 L7.91 164.07 L28.35 164.07" class="st6"/>
		</g>
		<g id="shape286-69" v:mID="286" v:groupContext="shape" transform="translate(289.691,40.5795) rotate(90)">
			<title>Kracht.618</title>
			<path d="M7.55 164.07 L7.91 164.07 L28.35 164.07" class="st6"/>
		</g>
		<g id="shape287-74" v:mID="287" v:groupContext="shape" transform="translate(20.9774,161.454) rotate(-120.964)">
			<title>Kracht.619</title>
			<path d="M7.55 164.07 L7.91 164.07 L28.35 164.07" class="st6"/>
		</g>
		<g id="shape288-79" v:mID="288" v:groupContext="shape" transform="translate(182.312,204.652) rotate(180)">
			<title>Kracht.620</title>
			<path d="M7.55 164.07 L7.91 164.07 L28.35 164.07" class="st6"/>
		</g>
		<g id="shape289-84" v:mID="289" v:groupContext="shape" transform="translate(97.2723,-123.493)">
			<title>Kracht.621</title>
			<path d="M7.55 164.07 L7.91 164.07 L28.35 164.07" class="st6"/>
		</g>
		<g id="shape290-89" v:mID="290" v:groupContext="shape" transform="translate(38.3626,-73.3737) rotate(-30.9638)">
			<title>Kracht.622</title>
			<path d="M7.55 164.07 L7.91 164.07 L28.35 164.07" class="st6"/>
		</g>
		<g id="shape291-94" v:mID="291" v:groupContext="shape" transform="translate(-38.4536,54.7527) rotate(-90)">
			<title>Moment.623</title>
			<path d="M-0 164.07 A14.1732 14.1732 0 0 1 14.17 149.9 A14.1732 14.1732 0 0 1 26.14 156.48 L26.24 156.82" class="st8"/>
		</g>
		<g id="shape292-100" v:mID="292" v:groupContext="shape" transform="translate(318.038,54.7527) rotate(90) scale(-1,1)">
			<title>Moment.624</title>
			<path d="M-0 164.07 A14.1732 14.1732 0 0 1 14.17 149.9 A14.1732 14.1732 0 0 1 26.14 156.48 L26.24 156.82" class="st8"/>
		</g>
		<g id="shape293-105" v:mID="293" v:groupContext="shape" transform="translate(196.485,-123.493)">
			<title>Kracht.625</title>
			<path d="M7.55 164.07 L7.91 164.07 L28.35 164.07" class="st6"/>
		</g>
		<g id="shape294-110" v:mID="294" v:groupContext="shape" transform="translate(281.524,204.652) rotate(180)">
			<title>Kracht.626</title>
			<path d="M7.55 164.07 L7.91 164.07 L28.35 164.07" class="st6"/>
		</g>
		<g id="shape295-115" v:mID="295" v:groupContext="shape" transform="translate(6.39328,137.148) rotate(-120.964)">
			<title>Ligger, 2 pt.627</title>
			<path d="M0 164.07 L14.17 164.07" class="st1"/>
		</g>
		<g id="shape296-118" v:mID="296" v:groupContext="shape" transform="translate(139.083,-118.532)">
			<title>Scharnier.628</title>
			<ellipse cx="2.12598" cy="161.946" rx="2.12598" ry="2.12598" class="st9"/>
		</g>
		<g id="shape297-120" v:mID="297" v:groupContext="shape" transform="translate(125.619,-123.493)">
			<title>Ligger, 2 pt.629</title>
			<path d="M0 164.07 L14.17 164.07" class="st1"/>
		</g>
		<g id="shape298-123" v:mID="298" v:groupContext="shape" transform="translate(139.792,-123.493)">
			<title>Ligger, 2 pt.630</title>
			<path d="M0 164.07 L14.17 164.07" class="st1"/>
		</g>
		<g id="shape299-126" v:mID="299" v:groupContext="shape" transform="translate(224.831,-123.493)">
			<title>Ligger, 2 pt.631</title>
			<path d="M0 164.07 L14.17 164.07" class="st1"/>
		</g>
		<g id="shape300-129" v:mID="300" v:groupContext="shape" transform="translate(239.005,-123.493)">
			<title>Ligger, 2 pt.632</title>
			<path d="M0 164.07 L14.17 164.07" class="st1"/>
		</g>
		<g id="shape301-132" v:mID="301" v:groupContext="shape" transform="translate(105.606,137.148) rotate(-120.964)">
			<title>Ligger, 2 pt.633</title>
			<path d="M0 164.07 L14.17 164.07" class="st1"/>
		</g>
		<g id="shape302-135" v:mID="302" v:groupContext="shape" transform="translate(236.879,-121.367)">
			<title>Scharnier.634</title>
			<ellipse cx="2.12598" cy="161.946" rx="2.12598" ry="2.12598" class="st9"/>
		</g>
		<g id="shape303-137" v:mID="303" v:groupContext="shape" transform="translate(388.904,40.5795) rotate(90)">
			<title>Kracht.635</title>
			<path d="M7.55 164.07 L7.91 164.07 L28.35 164.07" class="st6"/>
		</g>
		<g id="shape304-142" v:mID="304" v:groupContext="shape" transform="translate(308.213,4.7439) rotate(59.0362)">
			<title>Kracht.636</title>
			<path d="M7.55 164.07 L7.91 164.07 L28.35 164.07" class="st6"/>
		</g>
		<g id="shape305-147" v:mID="305" v:groupContext="shape" transform="translate(73.3847,-12.6412) rotate(-30.9638)">
			<title>Kracht.637</title>
			<path d="M7.55 164.07 L7.91 164.07 L28.35 164.07" class="st6"/>
		</g>
		<g id="shape306-152" v:mID="306" v:groupContext="shape" transform="translate(351.965,173.573) rotate(120.964)">
			<title>Kracht.638</title>
			<path d="M7.55 164.07 L7.91 164.07 L28.35 164.07" class="st6"/>
		</g>
		<g id="shape307-157" v:mID="307" v:groupContext="shape" transform="translate(136.583,268.74) rotate(-149.036)">
			<title>Kracht.639</title>
			<path d="M7.55 164.07 L7.91 164.07 L28.35 164.07" class="st6"/>
		</g>
		<g id="shape308-162" v:mID="308" v:groupContext="shape" transform="translate(76.4376,-7.37481) rotate(-59.0362)">
			<title>Kracht.640</title>
			<path d="M7.55 164.07 L7.91 164.07 L28.35 164.07" class="st6"/>
		</g>
		<g id="shape309-167" v:mID="309" v:groupContext="shape" transform="translate(171.605,208.008) rotate(-149.036)">
			<title>Kracht.641</title>
			<path d="M7.55 164.07 L7.91 164.07 L28.35 164.07" class="st6"/>
		</g>
		<g id="shape310-172" v:mID="310" v:groupContext="shape" transform="translate(120.19,161.454) rotate(-120.964)">
			<title>Kracht.642</title>
			<path d="M7.55 164.07 L7.91 164.07 L28.35 164.07" class="st6"/>
		</g>
		<g id="shape311-177" v:mID="311" v:groupContext="shape" transform="translate(355.018,178.84) rotate(149.036)">
			<title>Kracht.643</title>
			<path d="M7.55 164.07 L7.91 164.07 L28.35 164.07" class="st6"/>
		</g>
		<g id="shape312-182" v:mID="312" v:groupContext="shape" transform="translate(478.908,124.994) rotate(120.964)">
			<title>Ligger, 2 pt.644</title>
			<path d="M0 164.07 L14.17 164.07" class="st1"/>
		</g>
		<g id="shape313-185" v:mID="313" v:groupContext="shape" transform="translate(324.044,-123.493)">
			<title>Ligger, 2 pt.645</title>
			<path d="M0 164.07 L14.17 164.07" class="st1"/>
		</g>
		<g id="shape314-188" v:mID="314" v:groupContext="shape" transform="translate(336.091,-121.367)">
			<title>Scharnier.646</title>
			<ellipse cx="2.12598" cy="161.946" rx="2.12598" ry="2.12598" class="st9"/>
		</g>
		<g id="shape315-190" v:mID="315" v:groupContext="shape" transform="translate(295.698,-123.493)">
			<title>Kracht.647</title>
			<path d="M7.55 164.07 L7.91 164.07 L28.35 164.07" class="st6"/>
		</g>
		<g id="shape316-195" v:mID="316" v:groupContext="shape" transform="translate(175.65,-7.37484) rotate(-59.0362)">
			<title>Kracht.648</title>
			<path d="M7.55 164.07 L7.91 164.07 L28.35 164.07" class="st6"/>
		</g>
		<g id="shape317-200" v:mID="317" v:groupContext="shape" transform="translate(270.817,208.008) rotate(-149.036)">
			<title>Kracht.649</title>
			<path d="M7.55 164.07 L7.91 164.07 L28.35 164.07" class="st6"/>
		</g>
		<g id="shape318-205" v:mID="318" v:groupContext="shape" transform="translate(422.01,29.0509) rotate(59.0362)">
			<title>Ligger, 2 pt.650</title>
			<path d="M0 164.07 L14.17 164.07" class="st1"/>
		</g>
		<g id="shape319-208" v:mID="319" v:groupContext="shape" transform="translate(436.594,197.88) rotate(120.964)">
			<title>Ligger, 2 pt.651</title>
			<path d="M0 164.07 L14.17 164.07" class="st1"/>
		</g>
		<g id="shape320-211" v:mID="320" v:groupContext="shape" transform="translate(451.178,173.573) rotate(120.964)">
			<title>Kracht.652</title>
			<path d="M7.55 164.07 L7.91 164.07 L28.35 164.07" class="st6"/>
		</g>
		<g id="shape321-216" v:mID="321" v:groupContext="shape" transform="translate(235.795,268.74) rotate(-149.036)">
			<title>Kracht.653</title>
			<path d="M7.55 164.07 L7.91 164.07 L28.35 164.07" class="st6"/>
		</g>
		<g id="shape322-221" v:mID="322" v:groupContext="shape" transform="translate(407.425,4.7439) rotate(59.0362)">
			<title>Kracht.654</title>
			<path d="M7.55 164.07 L7.91 164.07 L28.35 164.07" class="st6"/>
		</g>
		<g id="shape323-226" v:mID="323" v:groupContext="shape" transform="translate(172.597,-12.6412) rotate(-30.9638)">
			<title>Kracht.655</title>
			<path d="M7.55 164.07 L7.91 164.07 L28.35 164.07" class="st6"/>
		</g>
		<g id="shape324-231" v:mID="324" v:groupContext="shape" transform="translate(293.46,-19.9298) rotate(30.9638) scale(-1,1)">
			<title>Moment.656</title>
			<path d="M-0 164.07 A14.1732 14.1732 0 0 1 14.17 149.9 A14.1732 14.1732 0 0 1 26.14 156.48 L26.24 156.82" class="st8"/>
		</g>
		<g id="shape325-236" v:mID="325" v:groupContext="shape" transform="translate(109.643,-34.514) rotate(-30.9638) scale(-1,1)">
			<title>Moment.657</title>
			<path d="M-0 164.07 A14.1732 14.1732 0 0 1 14.17 149.9 A14.1732 14.1732 0 0 1 26.14 156.48 L26.24 156.82" class="st8"/>
		</g>
		<g id="shape326-241" v:mID="326" v:groupContext="shape" transform="translate(392.673,-19.9298) rotate(30.9638) scale(-1,1)">
			<title>Moment.658</title>
			<path d="M-0 164.07 A14.1732 14.1732 0 0 1 14.17 149.9 A14.1732 14.1732 0 0 1 26.14 156.48 L26.24 156.82" class="st8"/>
		</g>
		<g id="shape327-246" v:mID="327" v:groupContext="shape" transform="translate(208.856,-34.514) rotate(-30.9638) scale(-1,1)">
			<title>Moment.659</title>
			<path d="M-0 164.07 A14.1732 14.1732 0 0 1 14.17 149.9 A14.1732 14.1732 0 0 1 26.14 156.48 L26.24 156.82" class="st8"/>
		</g>
		<g id="shape328-251" v:mID="328" v:groupContext="shape" transform="translate(29.9564,-123.67)">
			<title>Sheet.328</title>
			<desc>2</desc>
			<v:textBlock v:margins="rect(4,4,4,4)" v:tabSpace="42.5197"/>
			<v:textRect cx="10.9843" cy="152.911" width="21.97" height="22.3228"/>
			<rect x="0" y="141.749" width="21.9685" height="22.3228" class="st10"/>
			<text x="7.98" y="156.51" class="st11" v:langID="1043"><v:paragraph v:horizAlign="1"/><v:tabList/>2</text>		</g>
		<g id="shape329-254" v:mID="329" v:groupContext="shape" transform="translate(129.169,-123.67)">
			<title>Sheet.329</title>
			<desc>3</desc>
			<v:textBlock v:margins="rect(4,4,4,4)" v:tabSpace="42.5197"/>
			<v:textRect cx="10.9843" cy="152.911" width="21.97" height="22.3228"/>
			<rect x="0" y="141.749" width="21.9685" height="22.3228" class="st10"/>
			<text x="7.98" y="156.51" class="st11" v:langID="1043"><v:paragraph v:horizAlign="1"/><v:tabList/>3</text>		</g>
		<g id="shape330-257" v:mID="330" v:groupContext="shape" transform="translate(217.043,-123.493)">
			<title>Sheet.330</title>
			<desc>2</desc>
			<v:textBlock v:margins="rect(4,4,4,4)" v:tabSpace="42.5197"/>
			<v:textRect cx="10.9843" cy="152.911" width="21.97" height="22.3228"/>
			<rect x="0" y="141.749" width="21.9685" height="22.3228" class="st10"/>
			<text x="7.98" y="156.51" class="st11" v:langID="1043"><v:paragraph v:horizAlign="1"/><v:tabList/>2</text>		</g>
		<g id="shape331-260" v:mID="331" v:groupContext="shape" transform="translate(324.405,-123.67)">
			<title>Sheet.331</title>
			<desc>2</desc>
			<v:textBlock v:margins="rect(4,4,4,4)" v:tabSpace="42.5197"/>
			<v:textRect cx="10.9843" cy="152.911" width="21.97" height="22.3228"/>
			<rect x="0" y="141.749" width="21.9685" height="22.3228" class="st10"/>
			<text x="7.98" y="156.51" class="st11" v:langID="1043"><v:paragraph v:horizAlign="1"/><v:tabList/>2</text>		</g>
		<g id="shape332-263" v:mID="332" v:groupContext="shape" transform="translate(288.31,-12.9417)">
			<title>Sheet.332</title>
			<desc>3</desc>
			<v:textBlock v:margins="rect(4,4,4,4)" v:tabSpace="42.5197"/>
			<v:textRect cx="10.9843" cy="152.911" width="21.97" height="22.3228"/>
			<rect x="0" y="141.749" width="21.9685" height="22.3228" class="st10"/>
			<text x="7.98" y="156.51" class="st11" v:langID="1043"><v:paragraph v:horizAlign="1"/><v:tabList/>3</text>		</g>
		<g id="shape333-266" v:mID="333" v:groupContext="shape" transform="translate(189.097,-13.296)">
			<title>Sheet.333</title>
			<desc>3</desc>
			<v:textBlock v:margins="rect(4,4,4,4)" v:tabSpace="42.5197"/>
			<v:textRect cx="10.9843" cy="152.911" width="21.97" height="22.3228"/>
			<rect x="0" y="141.749" width="21.9685" height="22.3228" class="st10"/>
			<text x="7.98" y="156.51" class="st11" v:langID="1043"><v:paragraph v:horizAlign="1"/><v:tabList/>3</text>		</g>
	</g>
</svg>
