<?xml version="1.0" encoding="UTF-8" standalone="no"?>
<!DOCTYPE svg PUBLIC "-//W3C//DTD SVG 1.1//EN" "http://www.w3.org/Graphics/SVG/1.1/DTD/svg11.dtd">
<!-- Gegenereerd door Microsoft Visio, SVG Export springs.svg Pagina-1 -->
<svg xmlns="http://www.w3.org/2000/svg" xmlns:xlink="http://www.w3.org/1999/xlink" xmlns:ev="http://www.w3.org/2001/xml-events"
		xmlns:v="http://schemas.microsoft.com/visio/2003/SVGExtensions/" width="5.71908in" height="1.58522in"
		viewBox="0 0 411.774 114.136" xml:space="preserve" color-interpolation-filters="sRGB" class="st12">
	<v:documentProperties v:langID="1043" v:metric="true" v:viewMarkup="false"/>

	<style type="text/css">
	<![CDATA[
		.st1 {fill:#00cc99;stroke:#000000;stroke-linecap:round;stroke-linejoin:round;stroke-width:0.75}
		.st2 {stroke:#000000;stroke-linecap:round;stroke-linejoin:round;stroke-width:0.75}
		.st3 {stroke:#000000;stroke-linecap:round;stroke-linejoin:round;stroke-width:2}
		.st4 {marker-start:url(#mrkr5-37);stroke:#800000;stroke-linecap:round;stroke-linejoin:round;stroke-width:2}
		.st5 {fill:#800000;fill-opacity:1;stroke:#800000;stroke-opacity:1;stroke-width:0.44247787610619}
		.st6 {stroke:#000000;stroke-linecap:round;stroke-linejoin:round;stroke-width:0.25}
		.st7 {marker-end:url(#mrkr4-99);marker-start:url(#mrkr4-97);stroke:#000000;stroke-linecap:round;stroke-linejoin:round;stroke-width:0.25}
		.st8 {fill:#000000;fill-opacity:1;stroke:#000000;stroke-opacity:1;stroke-width:0.1219512195122}
		.st9 {fill:none;stroke:none;stroke-linecap:round;stroke-linejoin:round;stroke-width:0.75}
		.st10 {fill:#000000;font-family:Times New Roman;font-size:1.00001em}
		.st11 {fill:none;stroke:none;stroke-linecap:round;stroke-linejoin:round;stroke-width:0.24}
		.st12 {fill:none;fill-rule:evenodd;font-size:12px;overflow:visible;stroke-linecap:square;stroke-miterlimit:3}
	]]>
	</style>

	<defs id="Markers">
		<g id="lend5">
			<path d="M 2 1 L 0 0 L 1.98117 -0.993387 C 1.67173 -0.364515 1.67301 0.372641 1.98465 1.00043 " style="stroke:none"/>
		</g>
		<marker id="mrkr5-37" class="st5" v:arrowType="5" v:arrowSize="2" v:setback="3.775" refX="3.775" orient="auto"
				markerUnits="strokeWidth" overflow="visible">
			<use xlink:href="#lend5" transform="scale(2.26) "/>
		</marker>
		<g id="lend4">
			<path d="M 2 1 L 0 0 L 2 -1 L 2 1 " style="stroke:none"/>
		</g>
		<marker id="mrkr4-97" class="st8" v:arrowType="4" v:arrowSize="1" v:setback="14.96" refX="14.96" orient="auto"
				markerUnits="strokeWidth" overflow="visible">
			<use xlink:href="#lend4" transform="scale(8.2) "/>
		</marker>
		<marker id="mrkr4-99" class="st8" v:arrowType="4" v:arrowSize="1" v:setback="16.4" refX="-16.4" orient="auto"
				markerUnits="strokeWidth" overflow="visible">
			<use xlink:href="#lend4" transform="scale(-8.2,-8.2) "/>
		</marker>
	</defs>
	<g v:mID="0" v:index="1" v:groupContext="foregroundPage">
		<title>Pagina-1</title>
		<v:pageProperties v:drawingScale="0.0393701" v:pageScale="0.0393701" v:drawingUnits="24" v:shadowOffsetX="8.50394"
				v:shadowOffsetY="-8.50394"/>
		<g id="group1-1" transform="translate(164.117,32.9734) rotate(90)" v:mID="1" v:groupContext="group">
			<title>Rol</title>
			<g id="group2-2" transform="translate(0.261477,-2.83465)" v:mID="2" v:groupContext="group">
				<title>Scharnier</title>
				<g id="shape3-3" v:mID="3" v:groupContext="shape" transform="translate(2.79729,1.42109E-14)">
					<title>Blad.3</title>
					<path d="M0 114.14 L13.99 114.14 L6.99 102.8 L0 114.14 Z" class="st1"/>
				</g>
				<g id="shape4-5" v:mID="4" v:groupContext="shape" transform="translate(2.79729,228.272) rotate(180)">
					<title>Blad.4</title>
					<path d="M0 114.14 L2.8 114.14" class="st2"/>
				</g>
				<g id="shape5-8" v:mID="5" v:groupContext="shape" transform="translate(16.7838,1.42109E-14)">
					<title>Blad.5</title>
					<path d="M0 114.14 L2.8 114.14" class="st2"/>
				</g>
			</g>
			<g id="shape6-11" v:mID="6" v:groupContext="shape">
				<title>Blad.6</title>
				<path d="M0 114.14 L19.84 114.14" class="st2"/>
			</g>
		</g>
		<g id="shape7-14" v:mID="7" v:groupContext="shape" transform="translate(64.1545,-71.2411)">
			<title>Ligger, 2 pt</title>
			<path d="M0 114.14 L283.46 114.14" class="st3"/>
		</g>
		<g id="shape8-17" v:mID="8" v:groupContext="shape" transform="translate(169.786,42.8947) rotate(90)">
			<title>veer</title>
			<path d="M0 105.63 L4.72 105.63 L6.3 97.13 L9.45 114.14 L12.6 97.13 L15.75 114.14 L18.9 97.13 L22.05 114.14 L23.62 105.63
						 L28.35 105.63" class="st2"/>
		</g>
		<g id="shape9-20" v:mID="9" v:groupContext="shape" transform="translate(226.479,42.8947) rotate(90)">
			<title>veer.9</title>
			<path d="M0 105.63 L4.72 105.63 L6.3 97.13 L9.45 114.14 L12.6 97.13 L15.75 114.14 L18.9 97.13 L22.05 114.14 L23.62 105.63
						 L28.35 105.63" class="st2"/>
		</g>
		<g id="shape10-23" v:mID="10" v:groupContext="shape" transform="translate(311.519,42.8947) rotate(90)">
			<title>veer.10</title>
			<path d="M0 105.63 L4.72 105.63 L6.3 97.13 L9.45 114.14 L12.6 97.13 L15.75 114.14 L18.9 97.13 L22.05 114.14 L23.62 105.63
						 L28.35 105.63" class="st2"/>
		</g>
		<g id="shape11-26" v:mID="11" v:groupContext="shape" transform="translate(453.251,42.8947) rotate(90)">
			<title>veer.11</title>
			<path d="M0 105.63 L4.72 105.63 L6.3 97.13 L9.45 114.14 L12.6 97.13 L15.75 114.14 L18.9 97.13 L22.05 114.14 L23.62 105.63
						 L28.35 105.63" class="st2"/>
		</g>
		<g id="shape12-29" v:mID="12" v:groupContext="shape" transform="translate(424.905,42.8947) rotate(90)">
			<title>veer.12</title>
			<path d="M0 105.63 L4.72 105.63 L6.3 97.13 L9.45 114.14 L12.6 97.13 L15.75 114.14 L18.9 97.13 L22.05 114.14 L23.62 105.63
						 L28.35 105.63" class="st2"/>
		</g>
		<g id="shape13-32" v:mID="13" v:groupContext="shape" transform="translate(176.79,42.8947) rotate(-90)">
			<title>Kracht</title>
			<path d="M7.55 114.14 L7.91 114.14 L28.35 114.14" class="st4"/>
		</g>
		<g id="group20-38" transform="translate(54.2333,-31.5561)" v:mID="20" v:groupContext="group">
			<title>Scharnieroplegging</title>
			<g id="shape21-39" v:mID="21" v:groupContext="shape" transform="translate(2.83465,1.42109E-14)">
				<title>Blad.21</title>
				<path d="M0 114.14 L14.17 114.14 L7.09 102.8 L0 114.14 Z" class="st1"/>
			</g>
			<g id="shape22-41" v:mID="22" v:groupContext="shape" transform="translate(2.83465,228.272) rotate(180)">
				<title>Blad.22</title>
				<path d="M0 114.14 L2.83 114.14" class="st2"/>
			</g>
			<g id="shape23-44" v:mID="23" v:groupContext="shape" transform="translate(17.0079,1.42109E-14)">
				<title>Blad.23</title>
				<path d="M0 114.14 L2.83 114.14" class="st2"/>
			</g>
		</g>
		<g id="group24-47" transform="translate(110.926,-31.5561)" v:mID="24" v:groupContext="group">
			<title>Scharnieroplegging.24</title>
			<g id="shape25-48" v:mID="25" v:groupContext="shape" transform="translate(2.83465,1.42109E-14)">
				<title>Blad.25</title>
				<path d="M0 114.14 L14.17 114.14 L7.09 102.8 L0 114.14 Z" class="st1"/>
			</g>
			<g id="shape26-50" v:mID="26" v:groupContext="shape" transform="translate(2.83465,228.272) rotate(180)">
				<title>Blad.26</title>
				<path d="M0 114.14 L2.83 114.14" class="st2"/>
			</g>
			<g id="shape27-53" v:mID="27" v:groupContext="shape" transform="translate(17.0079,1.42109E-14)">
				<title>Blad.27</title>
				<path d="M0 114.14 L2.83 114.14" class="st2"/>
			</g>
		</g>
		<g id="group28-56" transform="translate(195.966,-31.5561)" v:mID="28" v:groupContext="group">
			<title>Scharnieroplegging.28</title>
			<g id="shape29-57" v:mID="29" v:groupContext="shape" transform="translate(2.83465,1.42109E-14)">
				<title>Blad.29</title>
				<path d="M0 114.14 L14.17 114.14 L7.09 102.8 L0 114.14 Z" class="st1"/>
			</g>
			<g id="shape30-59" v:mID="30" v:groupContext="shape" transform="translate(2.83465,228.272) rotate(180)">
				<title>Blad.30</title>
				<path d="M0 114.14 L2.83 114.14" class="st2"/>
			</g>
			<g id="shape31-62" v:mID="31" v:groupContext="shape" transform="translate(17.0079,1.42109E-14)">
				<title>Blad.31</title>
				<path d="M0 114.14 L2.83 114.14" class="st2"/>
			</g>
		</g>
		<g id="group32-65" transform="translate(309.351,-31.5561)" v:mID="32" v:groupContext="group">
			<title>Scharnieroplegging.32</title>
			<g id="shape33-66" v:mID="33" v:groupContext="shape" transform="translate(2.83465,1.42109E-14)">
				<title>Blad.33</title>
				<path d="M0 114.14 L14.17 114.14 L7.09 102.8 L0 114.14 Z" class="st1"/>
			</g>
			<g id="shape34-68" v:mID="34" v:groupContext="shape" transform="translate(2.83465,228.272) rotate(180)">
				<title>Blad.34</title>
				<path d="M0 114.14 L2.83 114.14" class="st2"/>
			</g>
			<g id="shape35-71" v:mID="35" v:groupContext="shape" transform="translate(17.0079,1.42109E-14)">
				<title>Blad.35</title>
				<path d="M0 114.14 L2.83 114.14" class="st2"/>
			</g>
		</g>
		<g id="group36-74" transform="translate(337.698,-31.5561)" v:mID="36" v:groupContext="group">
			<title>Scharnieroplegging.36</title>
			<g id="shape37-75" v:mID="37" v:groupContext="shape" transform="translate(2.83465,1.42109E-14)">
				<title>Blad.37</title>
				<path d="M0 114.14 L14.17 114.14 L7.09 102.8 L0 114.14 Z" class="st1"/>
			</g>
			<g id="shape38-77" v:mID="38" v:groupContext="shape" transform="translate(2.83465,228.272) rotate(180)">
				<title>Blad.38</title>
				<path d="M0 114.14 L2.83 114.14" class="st2"/>
			</g>
			<g id="shape39-80" v:mID="39" v:groupContext="shape" transform="translate(17.0079,1.42109E-14)">
				<title>Blad.39</title>
				<path d="M0 114.14 L2.83 114.14" class="st2"/>
			</g>
		</g>
		<g id="group73-83" transform="translate(64.1545,-0.375)" v:mID="73" v:groupContext="group">
			<title>Maatlijn</title>
			<g id="group74-84" transform="translate(0,-9.92126)" v:mID="74" v:groupContext="group">
				<title>Maatlijn.31</title>
				<g id="shape75-85" v:mID="75" v:groupContext="shape" transform="translate(114.136,105.632) rotate(90)">
					<title>Blad.75</title>
					<path d="M0 114.14 L8.5 114.14" class="st6"/>
				</g>
				<g id="shape76-88" v:mID="76" v:groupContext="shape" transform="translate(170.829,105.632) rotate(90)">
					<title>Blad.76</title>
					<path d="M0 114.14 L8.5 114.14" class="st6"/>
				</g>
				<g id="shape77-91" v:mID="77" v:groupContext="shape" transform="translate(0,-4.25197)">
					<title>Blad.77</title>
					<path d="M3.74 114.14 L4.1 114.14 L52.59 114.14" class="st7"/>
				</g>
			</g>
			<g id="shape78-100" v:mID="78" v:groupContext="shape">
				<title>Blad.78</title>
				<desc>2 m</desc>
				<v:textBlock v:margins="rect(4,4,4,4)" v:tabSpace="42.5197"/>
				<v:textRect cx="28.3465" cy="107.049" width="56.7" height="14.1732"/>
				<rect x="0" y="99.9626" width="56.6929" height="14.1732" class="st9"/>
				<text x="19.18" y="110.65" class="st10" v:langID="1043"><v:paragraph v:horizAlign="1"/><v:tabList/>2 m</text>			</g>
		</g>
		<g id="group79-103" transform="translate(120.847,-0.375)" v:mID="79" v:groupContext="group">
			<title>Maatlijn.79</title>
			<g id="group80-104" transform="translate(0,-9.92126)" v:mID="80" v:groupContext="group">
				<title>Maatlijn.31</title>
				<g id="shape81-105" v:mID="81" v:groupContext="shape" transform="translate(114.136,105.632) rotate(90)">
					<title>Blad.81</title>
					<path d="M0 114.14 L8.5 114.14" class="st6"/>
				</g>
				<g id="shape82-108" v:mID="82" v:groupContext="shape" transform="translate(199.175,105.632) rotate(90)">
					<title>Blad.82</title>
					<path d="M0 114.14 L8.5 114.14" class="st6"/>
				</g>
				<g id="shape83-111" v:mID="83" v:groupContext="shape" transform="translate(0,-4.25197)">
					<title>Blad.83</title>
					<path d="M3.74 114.14 L4.1 114.14 L80.94 114.14" class="st7"/>
				</g>
			</g>
			<g id="shape84-118" v:mID="84" v:groupContext="shape">
				<title>Blad.84</title>
				<desc>3 m</desc>
				<v:textBlock v:margins="rect(4,4,4,4)" v:tabSpace="42.5197"/>
				<v:textRect cx="42.5197" cy="107.049" width="85.04" height="14.1732"/>
				<rect x="0" y="99.9626" width="85.0394" height="14.1732" class="st9"/>
				<text x="33.35" y="110.65" class="st10" v:langID="1043"><v:paragraph v:horizAlign="1"/><v:tabList/>3 m</text>			</g>
		</g>
		<g id="group85-121" transform="translate(205.887,-0.375)" v:mID="85" v:groupContext="group">
			<title>Maatlijn.85</title>
			<g id="group86-122" transform="translate(0,-9.92126)" v:mID="86" v:groupContext="group">
				<title>Maatlijn.31</title>
				<g id="shape87-123" v:mID="87" v:groupContext="shape" transform="translate(114.136,105.632) rotate(90)">
					<title>Blad.87</title>
					<path d="M0 114.14 L8.5 114.14" class="st6"/>
				</g>
				<g id="shape88-126" v:mID="88" v:groupContext="shape" transform="translate(199.175,105.632) rotate(90)">
					<title>Blad.88</title>
					<path d="M0 114.14 L8.5 114.14" class="st6"/>
				</g>
				<g id="shape89-129" v:mID="89" v:groupContext="shape" transform="translate(0,-4.25197)">
					<title>Blad.89</title>
					<path d="M3.74 114.14 L4.1 114.14 L80.94 114.14" class="st7"/>
				</g>
			</g>
			<g id="shape90-136" v:mID="90" v:groupContext="shape">
				<title>Blad.90</title>
				<desc>3 m</desc>
				<v:textBlock v:margins="rect(4,4,4,4)" v:tabSpace="42.5197"/>
				<v:textRect cx="42.5197" cy="107.049" width="85.04" height="14.1732"/>
				<rect x="0" y="99.9626" width="85.0394" height="14.1732" class="st9"/>
				<text x="33.35" y="110.65" class="st10" v:langID="1043"><v:paragraph v:horizAlign="1"/><v:tabList/>3 m</text>			</g>
		</g>
		<g id="group91-139" transform="translate(290.926,-0.375)" v:mID="91" v:groupContext="group">
			<title>Maatlijn.91</title>
			<g id="group92-140" transform="translate(0,-9.92126)" v:mID="92" v:groupContext="group">
				<title>Maatlijn.31</title>
				<g id="shape93-141" v:mID="93" v:groupContext="shape" transform="translate(114.136,105.632) rotate(90)">
					<title>Blad.93</title>
					<path d="M0 114.14 L8.5 114.14" class="st6"/>
				</g>
				<g id="shape94-144" v:mID="94" v:groupContext="shape" transform="translate(142.482,105.632) rotate(90)">
					<title>Blad.94</title>
					<path d="M0 114.14 L8.5 114.14" class="st6"/>
				</g>
				<g id="shape95-147" v:mID="95" v:groupContext="shape" transform="translate(0,-4.25197)">
					<title>Blad.95</title>
					<path d="M3.74 114.14 L4.1 114.14 L24.25 114.14" class="st7"/>
				</g>
			</g>
			<g id="shape96-154" v:mID="96" v:groupContext="shape">
				<title>Blad.96</title>
				<desc>1 m</desc>
				<v:textBlock v:margins="rect(4,4,4,4)" v:tabSpace="42.5197"/>
				<v:textRect cx="14.1732" cy="107.049" width="28.35" height="14.1732"/>
				<rect x="0" y="99.9626" width="28.3465" height="14.1732" class="st9"/>
				<text x="5.01" y="110.65" class="st10" v:langID="1043"><v:paragraph v:horizAlign="1"/><v:tabList/>1 m</text>			</g>
		</g>
		<g id="group97-157" transform="translate(319.273,-0.375)" v:mID="97" v:groupContext="group">
			<title>Maatlijn.97</title>
			<g id="group98-158" transform="translate(0,-9.92126)" v:mID="98" v:groupContext="group">
				<title>Maatlijn.31</title>
				<g id="shape99-159" v:mID="99" v:groupContext="shape" transform="translate(114.136,105.632) rotate(90)">
					<title>Blad.99</title>
					<path d="M0 114.14 L8.5 114.14" class="st6"/>
				</g>
				<g id="shape100-162" v:mID="100" v:groupContext="shape" transform="translate(142.482,105.632) rotate(90)">
					<title>Blad.100</title>
					<path d="M0 114.14 L8.5 114.14" class="st6"/>
				</g>
				<g id="shape101-165" v:mID="101" v:groupContext="shape" transform="translate(0,-4.25197)">
					<title>Blad.101</title>
					<path d="M3.74 114.14 L4.1 114.14 L24.25 114.14" class="st7"/>
				</g>
			</g>
			<g id="shape102-172" v:mID="102" v:groupContext="shape">
				<title>Blad.102</title>
				<desc>1 m</desc>
				<v:textBlock v:margins="rect(4,4,4,4)" v:tabSpace="42.5197"/>
				<v:textRect cx="14.1732" cy="107.049" width="28.35" height="14.1732"/>
				<rect x="0" y="99.9626" width="28.3465" height="14.1732" class="st9"/>
				<text x="5.01" y="110.65" class="st10" v:langID="1043"><v:paragraph v:horizAlign="1"/><v:tabList/>1 m</text>			</g>
		</g>
		<g id="shape103-175" v:mID="103" v:groupContext="shape" transform="translate(290.926,-85.4144)">
			<title>Blad.103</title>
			<desc>2580 kN</desc>
			<v:textBlock v:margins="rect(4,4,4,4)" v:tabSpace="42.5197"/>
			<v:textRect cx="28.3465" cy="107.115" width="56.7" height="14.0425"/>
			<rect x="0" y="100.093" width="56.6929" height="14.0425" class="st9"/>
			<text x="7.51" y="110.71" class="st10" v:langID="1043"><v:paragraph v:horizAlign="1"/><v:tabList/>2580 kN</text>		</g>
		<g id="shape104-178" v:mID="104" v:groupContext="shape" transform="translate(0.375,-42.8947)">
			<title>Blad.104</title>
			<desc>100 kN/m</desc>
			<v:textBlock v:margins="rect(4,4,4,4)" v:tabSpace="42.5197"/>
			<v:textRect cx="28.3465" cy="107.115" width="56.7" height="14.0425"/>
			<rect x="0" y="100.093" width="56.6929" height="14.0425" class="st9"/>
			<text x="4.18" y="110.71" class="st10" v:langID="1043"><v:paragraph v:horizAlign="1"/><v:tabList/>100 kN/m</text>		</g>
		<g id="shape105-181" v:mID="105" v:groupContext="shape" transform="translate(127.934,-42.8947)">
			<title>Blad.105</title>
			<desc>200 kN/m</desc>
			<v:textBlock v:margins="rect(4,4,4,4)" v:tabSpace="42.5197"/>
			<v:textRect cx="28.3465" cy="107.115" width="56.7" height="14.0425"/>
			<rect x="0" y="100.093" width="56.6929" height="14.0425" class="st9"/>
			<text x="4.18" y="110.71" class="st10" v:langID="1043"><v:paragraph v:horizAlign="1"/><v:tabList/>200 kN/m</text>		</g>
		<g id="shape106-184" v:mID="106" v:groupContext="shape" transform="translate(212.973,-42.8947)">
			<title>Blad.106</title>
			<desc>300 kN/m</desc>
			<v:textBlock v:margins="rect(4,4,4,4)" v:tabSpace="42.5197"/>
			<v:textRect cx="28.3465" cy="107.115" width="56.7" height="14.0425"/>
			<rect x="0" y="100.093" width="56.6929" height="14.0425" class="st9"/>
			<text x="4.18" y="110.71" class="st10" v:langID="1043"><v:paragraph v:horizAlign="1"/><v:tabList/>300 kN/m</text>		</g>
		<g id="shape107-187" v:mID="107" v:groupContext="shape" transform="translate(255.493,-57.0679)">
			<title>Blad.107</title>
			<desc>400 kN/m</desc>
			<v:textBlock v:margins="rect(4,4,4,4)" v:tabSpace="42.5197"/>
			<v:textRect cx="28.3465" cy="107.115" width="56.7" height="14.0425"/>
			<rect x="0" y="100.093" width="56.6929" height="14.0425" class="st9"/>
			<text x="4.18" y="110.71" class="st10" v:langID="1043"><v:paragraph v:horizAlign="1"/><v:tabList/>400 kN/m</text>		</g>
		<g id="shape108-190" v:mID="108" v:groupContext="shape" transform="translate(354.706,-42.8947)">
			<title>Blad.108</title>
			<desc>500 kN/m</desc>
			<v:textBlock v:margins="rect(4,4,4,4)" v:tabSpace="42.5197"/>
			<v:textRect cx="28.3465" cy="107.115" width="56.7" height="14.0425"/>
			<rect x="0" y="100.093" width="56.6929" height="14.0425" class="st9"/>
			<text x="4.18" y="110.71" class="st10" v:langID="1043"><v:paragraph v:horizAlign="1"/><v:tabList/>500 kN/m</text>		</g>
		<g id="shape284-193" v:mID="284" v:groupContext="shape" transform="translate(64.1545,-71.2411)">
			<title>Punt A</title>
			<desc>A</desc>
			<v:textBlock v:margins="rect(4,4,4,4)" v:tabSpace="42.5197"/>
			<v:textRect cx="7.08661" cy="107.049" width="14.18" height="14.1732"/>
			<rect x="0" y="99.9626" width="14.1732" height="14.1732" class="st11"/>
			<text x="4" y="110.65" class="st10" v:langID="1043"><v:paragraph v:horizAlign="1"/><v:tabList/>A</text>		</g>
		<g id="shape285-196" v:mID="285" v:groupContext="shape" transform="translate(115.178,-71.2411)">
			<title>Punt A.285</title>
			<desc>B</desc>
			<v:textBlock v:margins="rect(4,4,4,4)" v:tabSpace="42.5197"/>
			<v:textRect cx="7.08661" cy="107.049" width="14.18" height="14.1732"/>
			<rect x="0" y="99.9626" width="14.1732" height="14.1732" class="st11"/>
			<text x="4" y="110.65" class="st10" v:langID="1043"><v:paragraph v:horizAlign="1"/><v:tabList/>B</text>		</g>
		<g id="shape286-199" v:mID="286" v:groupContext="shape" transform="translate(200.218,-71.2411)">
			<title>Punt A.286</title>
			<desc>C</desc>
			<v:textBlock v:margins="rect(4,4,4,4)" v:tabSpace="42.5197"/>
			<v:textRect cx="7.08661" cy="107.049" width="14.18" height="14.1732"/>
			<rect x="0" y="99.9626" width="14.1732" height="14.1732" class="st11"/>
			<text x="4" y="110.65" class="st10" v:langID="1043"><v:paragraph v:horizAlign="1"/><v:tabList/>C</text>		</g>
		<g id="shape287-202" v:mID="287" v:groupContext="shape" transform="translate(310.769,-71.2411)">
			<title>Punt A.287</title>
			<desc>D</desc>
			<v:textBlock v:margins="rect(4,4,4,4)" v:tabSpace="42.5197"/>
			<v:textRect cx="7.08661" cy="107.049" width="14.18" height="14.1732"/>
			<rect x="0" y="99.9626" width="14.1732" height="14.1732" class="st11"/>
			<text x="4" y="110.65" class="st10" v:langID="1043"><v:paragraph v:horizAlign="1"/><v:tabList/>D</text>		</g>
		<g id="shape288-205" v:mID="288" v:groupContext="shape" transform="translate(340.532,-71.2411)">
			<title>Punt A.288</title>
			<desc>E</desc>
			<v:textBlock v:margins="rect(4,4,4,4)" v:tabSpace="42.5197"/>
			<v:textRect cx="7.08661" cy="107.049" width="14.18" height="14.1732"/>
			<rect x="0" y="99.9626" width="14.1732" height="14.1732" class="st11"/>
			<text x="4" y="110.65" class="st10" v:langID="1043"><v:paragraph v:horizAlign="1"/><v:tabList/>E</text>		</g>
		<g id="shape377-208" v:mID="377" v:groupContext="shape" transform="translate(177.54,-99.5876)">
			<title>Blad.377</title>
			<desc>EI = ∞</desc>
			<v:textBlock v:margins="rect(4,4,4,4)" v:tabSpace="42.5197"/>
			<v:textRect cx="28.3465" cy="107.049" width="56.7" height="14.1732"/>
			<rect x="0" y="99.9626" width="56.6929" height="14.1732" class="st9"/>
			<text x="12.02" y="110.65" class="st10" v:langID="1043"><v:paragraph v:horizAlign="1"/><v:tabList/>EI = ∞  </text>		</g>
	</g>
</svg>
